<?xml version="1.0" encoding="utf-8"?>
<!-- Generator: Adobe Illustrator 25.3.1, SVG Export Plug-In . SVG Version: 6.00 Build 0)  -->
<svg version="1.1" id="Layer_1" xmlns="http://www.w3.org/2000/svg" xmlns:xlink="http://www.w3.org/1999/xlink" x="0px" y="0px"
	 viewBox="0 0 95 142.9" style="enable-background:new 0 0 95 142.9;" xml:space="preserve">
<style type="text/css">
	.st0{fill:#CACBCC;}
	.st1{fill:#F3F3F3;}
	.st2{fill:#28377B;}
	.st3{fill:#095AA4;}
	.st4{fill:#0459A2;}
	.st5{clip-path:url(#SVGID_2_);}
	.st6{fill:#0465AB;}
	.st7{clip-path:url(#SVGID_4_);}
	.st8{clip-path:url(#SVGID_6_);}
	.st9{clip-path:url(#SVGID_8_);}
	.st10{fill-rule:evenodd;clip-rule:evenodd;fill:#BABABA;}
	.st11{fill:#BABABA;}
</style>
<g>
	<g id="ACIG-MOC">
		<ellipse class="st0" cx="47.5" cy="42.4" rx="43" ry="42.4"/>
		<ellipse class="st1" cx="47.6" cy="21" rx="29.8" ry="18.8"/>
		<path class="st2" d="M48.7,80.1c-8.3,0-16.5-2.7-23.2-7.7c-4.1-3-7.5-6.9-10-11.3c-2.6-4.6-4.3-9.6-5-14.8c-0.7-5-0.3-10.2,1-15.1
			c2.5-9.3,8.6-17.3,17-22c2.3-1.2,4.7-2.2,7.2-3c3.9-1.2,9.8-2.4,15.4-1.1l0.2,0.1h-0.2c-4.3,0.3-8.5,1.5-12.3,3.4
			c-7.3,3.9-12.8,10.7-15,18.7c-2.3,8.6-0.8,18.2,4.2,27C37.5,70.6,58.3,75.7,75.4,66l5.1-2.8l-0.1,0.2c-3.8,5.2-6,8.1-12.7,11.8
			c-4.4,2.5-9.3,4.1-14.4,4.7C51.7,80,50.2,80.1,48.7,80.1z M45.8,4.6c-3.4,0-6.8,0.6-10.1,1.6c-2.5,0.8-4.9,1.8-7.2,3
			C20.2,14,14.1,21.9,11.6,31.2C8.9,41.3,10.4,52,15.6,61c10.6,18.1,33.8,24.3,52,14c6.6-3.8,8.9-6.6,12.6-11.7L75.5,66
			c-8,4.6-17.4,6.1-26.4,4c-8.9-2.1-16.5-7.8-21-15.7c-5.1-8.8-6.6-18.4-4.2-27c2.2-8,7.7-14.8,15-18.7c3.8-1.9,7.9-3.1,12.1-3.4
			C49.2,4.8,47.5,4.6,45.8,4.6z"/>
		<path class="st3" d="M21.8,40.8c-2.3-17.5,6.3-30,22-35.2C24.2,7.1,11.6,22.7,11.6,42.3c0.1,20.3,16.7,36.8,37,36.7
			c9.3,0,20.5-4.3,27.4-11.7c-6.6,3.1-14.1,5.2-21.6,4.8C38.4,71.2,24.1,58.1,21.8,40.8z"/>
		<path class="st4" d="M53.6,32.6c0,0-1,1.5-1.3,2c-0.1,0.1-0.1,0.2-0.2,0.3l-2.5-1.3l-0.1,0.2c0,0-1,1.5-1.3,2s-0.3,0.6-0.1,0.7
			s1.6,0.7,1.9,0.9c0.2,0.1,0.4,0.2,0.6,0.3c0,0,0.6-0.8,1.1-1.5c0.2-0.3,0.3-0.5,0.5-0.8l0,0c0.2,0.1,1.6,0.7,1.9,0.9
			c0.2,0.1,0.4,0.2,0.6,0.3c0,0,0.6-0.8,1.1-1.5c0.3-0.3,0.5-0.7,0.6-1.2l-2.6-1.3L53.6,32.6z M61.8,58.8c-0.1-0.3-0.3-0.6-0.4-0.8
			c-1.2-2.8-5.3-3.9-7.7-3.6c-7.2,0.4-11.8,1.5-15.1,1.4c-4.1-0.1-5.7-1.4-6.7-3.2c2.3,7.8,14.9,5.1,20.6,4.2
			C58.3,56.2,61.1,58,61.8,58.8z M51.8,51.8c10.6-0.8,11.7,6,12.2,8.3c0.2-7.6-4.3-12.5-18.3-10.7s-16.5-2.3-17.7-4.1
			c0,0-0.6-0.3-0.4,0.1l0.6,1.6C31.9,54.4,41.2,52.6,51.8,51.8L51.8,51.8z M61.6,12.8c0.4,0.6,1.2,0.9,1.8,0.5
			c0.1-0.1,0.3-0.2,0.4-0.3c0.3-0.3,0.4-0.2,0.6,0s0,1.2-0.3,2.2c-0.3,0.9-0.7,1.8-1.1,2.7c0,0,0.4-0.2,0.7-0.5
			c1.2-1.3,1.7-3.1,1.4-4.8c-0.2-1.2-1.2-2.4-2-1.7s-1.3,0.5-1.5,0.1s0.4-0.8,0.8-1c-0.3-0.6-0.5-1.3-0.6-2c-0.6,0-1.1,0.3-1.2,0.9
			C60.5,10.3,60.8,11.6,61.6,12.8L61.6,12.8z M36.2,35.2l-1.3,2c-0.3,0.5-0.3,0.6-0.1,0.7s1.6,0.7,1.9,0.9c0.2,0.1,0.4,0.2,0.6,0.3
			c0,0,0.6-0.8,1.1-1.5c0.3-0.3,0.5-0.7,0.6-1.2l-2.6-1.3L36.2,35.2z M65.8,9.6c1.7,1.2,3.3,2.6,4.7,4.2c-0.3-0.1-0.7-0.1-1,0.1
			c-1.1,1-1.5,2.6-0.9,3.9c0,0,0.2,1.6,6.7,8.6c4.5,4.8,4,8,4,8s-1.4,10.4-9.8,11.1c0.7,0.2,1.5,0.3,2.3,0.3
			c1.5-0.1,2.9-0.9,3.8-2.1c0.9-0.9,4.4-5.6,4.3-9.9c0.4,5.6-0.5,11.2-2.6,16.4c-0.1,0.3-0.2,0.7-0.4,1c-1.6,4.2-4.8,7-8.8,9.1
			c0.2-2.3,0.3-7-1.2-9.5c-2.5-4.1-6.9-6.7-11.7-7.1c-5.5-0.3-5.6,0.1-12.2,0.8c-5.1,0.5-12.1,0-14.6-4.7c0.7-4.8,3-6.6,6.1-9
			c3.1-2.1,5.4-3.3,6.5-4.2c0,0-0.7,3.5,0.1,5.5c0.6,1.3,1.9,2,3.3,1.8c0.5-0.2,3.2-0.8,4.6-4.7c0.3-0.9,0.8-2.7,1.6-2.4
			c0.4,0.2,0.4,1.8,0.4,1.8c0.1,0.7,0.9,1.2,1.6,1.1c0.1,0,0.2-0.1,0.3-0.1c1.7-0.4,1.9-1.8,2.4-2.7c0.2,0.1,0.5,0.5,0.9,0.4
			s1-0.1,1.9-2.4c0.1-0.1,0.4,0.2,0.7,0.1s1.8-0.4,2-3.5c0.1-0.9,0.1-1.8,0-2.6c0,0-0.2-0.3-0.3,0.1c-0.1,0.7-0.3,3-1.9,2.9
			c0-0.2-0.1-0.8-0.1-0.8S58,21.1,58,21.5s-0.8,3.1-2.4,2.7c0-0.4,0-1,0-1.1s-0.2-0.4-0.3,0s-1,3.7-3.2,3.4
			c-0.5-0.1-0.7-0.9-0.7-0.9l-0.1-1.3c0,0-0.3-1.1-1-0.7s-0.8,1.3-1.6,3.1c-0.8,1.7-3.1,4.3-5.3,4c-1.2,0-2.1-1-2.1-2.1
			c0,0,0,0,0-0.1l0.2-2.5c1.3-1.3,2.3-2.9,3-4.6c1.1-2.9,2.2-4.9,0.9-5.6c0,0-0.3-0.1-1.8,1.2c-0.6,0.4-1.2,0.6-1.8,0.8
			c-1.8,0.4-4.1,0.9-4.5,1.9c-0.6,1.4-1.8,3-1.7,4.3c0.2,0.9,0.7,1.7,1.5,2.1c0,0-10.6,5.2-9.5,13.4c0,0-0.5,5.3,6.4,7.2
			c4.1,1.3,9.5,0.7,10,0.7s8.6-1.5,12.4-0.6c9.7,1.6,11.8,9.1,11.5,13.4c-11.6,5.7-29,4-29,4c7.7,2.3,7.5,2.5,11.2,2.9
			C69.3,67,76,55,78,52.2S92.5,24.9,65.8,9.6z M79,31c-1.1-2.9-1.6-3.9-7.1-10.1c-1.9-2.3-3.8-3.9-2.4-5.6c1.2-1,1.6-0.2,1.8,0.5
			c0.1,0.4-0.3,0.8-0.3,0.8s0.3-1.2-0.6-1.1s-0.8,1.6,0.2,2s1.4-1,1.1-2.1c-0.1-0.2-0.1-0.4-0.2-0.6c4.7,5.2,7.6,11.8,8.3,18.7
			C79.7,32.7,79.4,31.8,79,31z M36.9,22.2c0-0.2,0.8-0.5,2.3-0.9c1.7-0.3,3.3-1.1,4.7-2.2c0.2-0.2,1.3,0.6-0.2,2.2
			c-0.7,0.8-1.4,1.6-2.2,2.3C40.4,23.9,37.6,24.4,36.9,22.2z M58.7,33c-0.8,0-0.8,0-0.8,0c5.2,1.7,7.5-3.9,7.8-5.9
			c0.2-0.9,0.7-0.5,0.7-0.5c0.1,0.3,0.3,0.5,0.5,0.6c0.3,0.2,1-0.9,1-0.9c0.8,0.4,1.3-1.7,1.4-2.2c0,0-0.4,0.1-0.5,0.6
			c0,0.3-0.2,0.5-0.5,0.6c0,0-0.2,0.1-0.2-0.2s-0.3-0.5-0.4,0.3c-0.1,0.7-0.6,0.8-0.6,0.8c-0.2-0.1-0.1-0.3-0.5-0.6
			c-0.5-0.5-1.1,0.6-1.2,1.1c-0.2,1.5-0.9,2.8-2,3.9C62.2,32,60.5,32.8,58.7,33z M53.4,13.1l0.1-0.3c0.9,0.9,1.1,2.4,0.4,3.5
			c-0.1,0.3-0.2,0.6-0.3,0.9c1.4-0.5,2.4-1.7,2.6-3.2c0.1-1-0.3-1.9,0-2c0.5,0,0.9,0.3,1.2,0.7c0.2-0.2,0.3-0.5,0.4-0.8
			c0,0-1-1.5-1.8-0.3c-0.4,0.8-0.5,1.7-0.1,2.6c0,0-0.4,1.6-1.5,1.9c0.4-1.2,1.2-3.2-0.9-4.4c-0.3-0.1-1.1,0-1,0.9
			c0,0.3,0.2,0.6,0.5,0.6C53.1,13.2,53.3,13.2,53.4,13.1L53.4,13.1z M48.8,19.8c0.7-0.2,1.3-0.2,2-0.1l-2.3,1.8h0.2
			c1-0.6,1.9-1.4,2.7-2.1c0.4-0.6,0.7-1.5,0.4-1.4c-0.5,0.2-1,0.2-1.6,0.2c-1.8,0.1-2,1.5-2.2,2.2C48.3,20.2,48.5,20,48.8,19.8
			L48.8,19.8z M44.1,38.9c0-0.1,0-0.1,0-0.2c-0.2,0.1-0.4,0.2-0.6,0.3c-0.5,0.4-0.9,0.8-1.3,1.3c-0.1,0.4,0,0.7,0.3,1
			c0.3,0.2,0.6,0.1,0.9,0.2c0.8-0.1,1.4-0.6,1.7-1.4c0.2-0.5-0.2-1-0.5-1.3c-0.2,0.2-0.5,0.5-0.7,0.7c0.2,0.3,0.4,0.7,0.5,1.1
			c-0.3,0.1-0.7,0.2-1,0.1c-0.3-0.1-0.4-0.4-0.5-0.7c-0.1-0.3,0.3-0.5,0.5-0.7S43.9,39,44.1,38.9z M61,36.5L61,36.5
			c-0.3-0.2-0.4,0.1-0.7,0.2c-0.8,0.9-1.8,1.8-1.9,3.1c0.1,0.3,0.3,0.6,0.6,0.7c0.2,0.1,0.5,0,0.7-0.1c0.4-0.3,0.7-0.7,1-1.1
			c0-0.1-0.1-0.1-0.1-0.1c-0.3,0.2-0.4,0.5-0.8,0.5c-0.2-0.1-0.4-0.2-0.5-0.5c-0.1-1,0.8-1.7,1.4-2.3C60.8,36.7,61,36.6,61,36.5z
			 M68.3,34.4c0.1,0,0.3-0.1,0.3-0.2c0.1,0.3,0.1,0.6,0.1,0.8c0,0.3,0,0.7-0.1,1c-0.1,0.2-0.1,0.5-0.2,0.7c-0.1,0.1-0.1,0.2-0.1,0.4
			c1.1-0.6,1.5-1.8,2.2-2.7c0.2-0.2,0.4-0.5,0.8-0.5c0.2,0.2,0.4,0.3,0.6,0.5c0.2-0.2,0.4-0.4,0.5-0.7l-0.1-0.2
			c-0.2-0.2-0.3-0.5-0.7-0.5c-0.7,0.2-1.2,0.7-1.5,1.3c-0.3,0.5-0.6,1-1,1.5c0-0.6,0.1-1.2,0-1.8c0-0.8-0.3-1.6-0.9-2.3
			c0,0-0.1-0.1-0.2-0.1c-0.2,0.6-0.7,1.2-0.4,1.8c0.1,0.2,0.2,0.4,0.3,0.6C68.2,34.2,68.3,34.3,68.3,34.4z"/>
		<g>
			<g>
				<defs>
					<rect id="SVGID_1_" y="91.2" width="27.9" height="25.3"/>
				</defs>
				<clipPath id="SVGID_2_">
					<use xlink:href="#SVGID_1_"  style="overflow:visible;"/>
				</clipPath>
				<g class="st5">
					<path class="st6" d="M16.3,106.2l-3.8,0.9l-1.5,0.3c-2.1,0.5-2.9,1.1-3.7,2.8c-0.8,1.5-1.2,3.2-1.2,4.9c0,0.5,0.1,1.1,0.2,1.6
						H0l4.1-8.2l-0.2-4.5l2.3,0.3l2.9-5.7c1.6-3.3,2-4.2,2-5.6c0-0.5-0.1-1.1-0.2-1.6h5.3L28,116.6H20c0.1-0.4,0.2-0.8,0.2-1.2
						c-0.1-1.4-0.4-2.8-1-4.1l-0.6-1.4l-1.9-4.3L16.3,106.2z M13.2,97.4l-3.4,7.2l6.9,0.8L13.2,97.4z"/>
				</g>
			</g>
		</g>
		<g>
			<g>
				<defs>
					<rect id="SVGID_3_" x="29.2" y="90.7" width="23.3" height="26.4"/>
				</defs>
				<clipPath id="SVGID_4_">
					<use xlink:href="#SVGID_3_"  style="overflow:visible;"/>
				</clipPath>
				<g class="st7">
					<path class="st6" d="M51.3,116.1c-2.4,0.7-5,1-7.5,1c-4.5,0-8.1-1.2-10.6-3.4c-2.7-2.5-4.2-6-4.1-9.7c-0.1-3.8,1.5-7.4,4.4-9.9
						c2.7-2.3,6.1-3.4,10.7-3.4c2.3,0,4.6,0.3,6.8,0.8V96c-2-1.3-4.3-2-6.7-1.9c-5.6,0-8.9,3.6-8.9,9.6c0,3.1,0.9,5.7,2.4,7.3
						c1.8,1.7,4.2,2.6,6.6,2.5c2.8,0.1,5.5-1.1,7.3-3.2h0.7L51.3,116.1z"/>
				</g>
			</g>
		</g>
		<g>
			<g>
				<defs>
					<rect id="SVGID_5_" x="57.3" y="91.2" width="8.1" height="25.3"/>
				</defs>
				<clipPath id="SVGID_6_">
					<use xlink:href="#SVGID_5_"  style="overflow:visible;"/>
				</clipPath>
				<g class="st8">
					<path class="st6" d="M64.1,109.4c0,3.6,0.3,5.4,1.3,7.1h-6.9V98.4c0-3.6-0.3-5.4-1.2-7.1h6.8V109.4z"/>
				</g>
			</g>
		</g>
		<g>
			<g>
				<defs>
					<rect id="SVGID_7_" x="69.7" y="90.7" width="25.4" height="26.4"/>
				</defs>
				<clipPath id="SVGID_8_">
					<use xlink:href="#SVGID_7_"  style="overflow:visible;"/>
				</clipPath>
				<g class="st9">
					<path class="st6" d="M95,110c0,2.7-0.2,3.5-1,4.3c-1.8,1.8-5.4,2.8-10.1,2.8c-4.4,0-7.8-0.9-10.1-2.9c-2.7-2.2-4.1-5.6-4.1-9.8
						c-0.1-3.4,1-6.6,3.2-9.2c2.8-3.1,6.7-4.5,12.3-4.5c2.4,0,4.7,0.2,7,0.7v4.6c-2.2-1.3-4.7-2-7.3-1.9c-6.1,0-9.1,3.3-9.1,10
						c0,6.3,2.7,9.4,8.1,9.4c1.8,0.1,3.6-0.4,5.1-1.5c0.8-0.7,1.2-1.7,1.1-2.7c0-2.2-0.4-2.8-2.8-3.5l-3.2-1l-0.7-1H95L95,110z"/>
				</g>
			</g>
		</g>
		<g>
			<path class="st10" d="M41.4,121.1L41.4,121.1L41.4,121.1c0.2,0.1,0.1,0,0.2,0.1l0,0c0,0.1,0,0.1,0,0.2h-0.1c0,0,0,0.1-0.1,0.1
				l0,0c0,0,0,0,0,0.1l0,0v0.1l0,0c0,0,0,0.1,0,0.1l0,0l0,0h-0.1l0,0l0,0v0.2l0.2,0.1h0.2l0,0c0,0,0.1,0,0.1,0
				c0.1,0.2,0.1,0.3,0,0.5c0,0.1,0,0.1,0,0.2l0,0l0,0l0,0v0.1h-0.1c0,0,0,0.1,0,0.1l0,0v0.1l0,0v0.1l-0.4,0.4l0,0l0,0l0,0
				c0,0,0,0,0,0.1c-0.1,0.1-0.3,0.1-0.4,0.2c0-0.1-0.1,0-0.1-0.1s0,0,0-0.1h0.1c0,0,0.1-0.1,0.1-0.1v-0.1h0.1l0.1-0.1l0,0v-0.1
				c0.1-0.1,0.2-0.2,0.3-0.4c0,0-0.1,0-0.1-0.1h-0.1l0,0h-0.2l0,0H41l-0.2-0.2v-0.1l0,0l0,0l0,0v-0.1 M40.9,122.1L40.9,122.1V122
				l0,0v-0.1l0,0l0,0l0,0v-0.1l0,0c0-0.1,0-0.1,0-0.2h0.1l0,0l0,0v-0.1H41v-0.1l0.3-0.2c0.1-0.1,0.2-0.3,0.4-0.3L40.9,122.1z"/>
			<path class="st10" d="M64.9,121.8L64.9,121.8L64.9,121.8c0.1,0,0.1,0,0.2,0.1l0,0v0.2H65c0,0,0,0.1,0,0.1H65v0.1l0,0v0.1l0,0
				c0,0,0,0.1,0,0.1h-0.1v0.1l0,0l0,0l0,0v0.2l0.2,0.1h0.2l0,0h0.1c0.1,0.2,0.1,0.3,0,0.5v0.2l0,0l0,0l0,0v0.1h-0.1v0.1l0,0v0.1
				h-0.1l0,0l-0.4,0.4l0,0v0.1l0,0l0,0c-0.1,0.1-0.3,0.1-0.4,0.2c0-0.1-0.1,0-0.1-0.1s0,0,0-0.1l0,0c0,0,0.1-0.1,0.1-0.1V124h0.1
				l0.1-0.1h-0.5c0,0,0,0,0-0.1c0.1-0.1,0.2-0.2,0.3-0.4c0,0-0.1,0-0.1-0.1h-0.1l0,0l-0.2-0.1l0,0l0,0l-0.2-0.2V123l0,0l0,0l0,0
				v-0.1c0,0,0,0,0-0.1l0,0v0.1l0,0l0,0l0,0v-0.1l0,0l0,0H64l0.1-0.1h0.1v-0.1l0,0c0,0,0-0.1,0-0.1l0,0v-0.1l0.3-0.2
				c0.1-0.1,0.2-0.3,0.4-0.3L64.9,121.8z"/>
		</g>
		<path class="st10" d="M40.7,124.8H41l0.2,0.1v0.1h0.1l0,0l0.1,0.1v0.2l0,0v0.1l0,0c0,0.1,0,0.2,0,0.3l0,0v0.2l0,0v0.2l0,0v0.3l0,0
			v0.4l0,0v0.2l0,0v0.1l0,0v0.3l0,0v0.1l0,0v0.2l0,0v0.4l0,0v0.2l0,0v0.1l0,0v0.2l0,0v0.3l0,0v0.1l0,0v0.1l0,0v0.1l0,0v0.1l0,0v0.1
			l0,0l0,0l0,0v0.1l0,0v0.3l0,0v0.2l0,0v0.4l0,0c0,0.2,0,0.4,0,0.7c0,0.1,0,0.3,0,0.4l0,0l0,0l0,0v0.1l0,0l0,0l0.1,0.1l0,0h0.1l0,0
			h0.3l0,0l0.4-0.1l0,0h0.1l0,0h-0.2v-0.1h0.1v-0.1h0.1v-0.1l0.2-0.2l0,0l0.1-0.1v-0.1h0.1v-0.1l0,0v-0.1l0,0l0,0l0,0
			c0.1,0,0.1,0.1,0.1,0.2s0,0.1,0,0.1l0,0l0,0l0,0v0.1l0,0l0,0l0,0v0.1l0,0v0.3l0,0l0,0l0,0v0.1l0,0v0.1h-0.1l0,0l0,0v0.1l-0.1,0.1
			c0,0,0,0.1,0,0.1l0,0c0,0,0,0.1,0,0.1h-0.1l0,0l0,0l-0.1,0.1l0,0v0.1l-0.1,0.1l0,0v0.1l0,0l-0.1,0.1h-0.1l-0.1,0.1l0,0v0.1h-0.1
			l0,0l0,0l0,0l0,0l0,0H42l0,0h-0.1c-0.1,0-0.2,0.1-0.3,0.1h-0.4l0,0h-0.1l0,0l0,0l0,0h-0.7V133l0,0l-0.1-0.1h-0.1v-0.1l-0.1-0.1
			c0,0,0-0.1,0-0.1l0,0v0.3l0,0c0,0,0-0.1,0-0.1l0,0v-0.1c0-0.2,0-0.4,0-0.6l0,0c0-0.1,0-0.2,0-0.3l0,0v-0.2l0,0v-0.2l0,0v-0.3l0,0
			V131l0,0v-0.1l0,0v-0.1l0,0v-0.1l0,0v-0.1l0,0v-0.1l0,0v-0.2h0.1v-0.1l0,0v-0.3l0,0v-0.2l0,0v-0.5l0,0V129l0,0v-0.2
			c0-0.2,0.1-0.4,0.1-0.5v-0.4l0,0v-0.2l0,0v-0.3l0,0V127l0,0v-0.1l0,0c0-0.1,0-0.2,0-0.2l0,0v-0.1l0,0v-0.1l0,0v-0.1l0,0
			c-0.1-0.1,0-0.2-0.2-0.2l0,0H40l0,0h-0.1v0.1l0,0l-0.1,0.1v0.1h-0.1v0.1l0,0v0.1l0,0c0,0,0,0.1,0,0.1h-0.1c0,0,0,0.1,0,0.1l0,0
			v0.1l-0.1,0.1v0.1l0,0l0,0c0,0-0.1,0-0.1,0.1s0,0,0,0s-0.1-0.1-0.1-0.1l0,0v-0.1l0,0v-0.1l0,0v-0.1h0.1v-0.1l0,0v-0.1l0,0l0,0l0,0
			v-0.1l0,0v-0.1h0.1v-0.1l0,0v-0.1l0,0l0,0l0,0c0,0,0-0.1,0-0.1h0.1c0,0,0-0.1,0-0.1l0,0v-0.1l0,0l0,0l0.1-0.1v-0.1l0.1-0.1v-0.1
			h0.1v-0.1l0.2-0.1c0,0,0-0.1,0-0.1H40c0,0,0-0.1,0.1-0.1h0.1v-0.1l0,0v-0.1l0,0l0,0c0.1,0,0.2,0,0.2-0.1"/>
		<path class="st10" d="M35.2,132.1L35.2,132.1L35.2,132.1L35.2,132.1L35.2,132.1h0.3l0,0c0.2,0,0.5,0,0.7-0.1h0.2l0,0h0.1l0,0h0.1
			l0,0h0.1l0,0h0.1l0,0h0.2l0,0l0,0v-0.2l0,0l0,0l0,0v-0.1l0,0v-0.1l0,0c0-0.1,0-0.1,0-0.2l0,0l0,0l0,0v-0.1l0,0v-0.1l0,0l0,0h0.1
			V131l0,0l0,0l0,0v-0.1l0,0v-0.1l0,0c0,0,0-0.1,0-0.1H37v-0.1l0,0h0.1l0,0h0.2l0,0h0.1l0,0h0.1l0,0h0.7l0,0l0,0l0,0l0,0v0.1l0,0
			l0.1,0.2h0.1c0,0.2,0,0.3,0,0.5l0,0l-0.1,0.2l0,0v0.1l0,0c0,0.1,0,0.1-0.1,0.2l0,0v0.1l0,0l0,0l0,0v0l0,0v0.1l0,0v0.1l-0.1,0.1
			v0.2l0,0c0,0,0,0.1,0,0.1l0,0v0.1l-0.1,0.1v0.1l0,0c0,0,0,0,0,0.1l0,0v0.1H38c0,0,0,0.1,0,0.1H38v0.1l0,0l0,0h-0.1l0,0h-0.1l0,0
			c0,0-0.1,0-0.2,0.1l0,0h-0.1l0,0l-0.2,0.1l0,0h-0.2l0,0H37l0,0h-0.6l0,0h-0.2l0,0l0,0l0,0h-0.1l0,0H36l0,0h-0.2l0,0h-0.1l0,0h-0.1
			l0,0h-0.7l0,0h-0.2l0,0l0,0l-0.3-0.3l0,0l-0.1-0.1v-0.1l0,0v-0.1l0,0v0.5l0,0v-0.2l0,0c0-0.1,0-0.2,0-0.4c0-0.2,0-0.4,0-0.6l0,0
			c0-0.2,0-0.4,0-0.5v-0.9l0,0v-0.1l0,0v-0.1l0,0v-0.1l0,0c0-0.1,0-0.3,0-0.4l0,0v-0.1l0,0c0-0.1,0-0.2,0-0.2l0,0v-0.3l0,0V129l0,0
			v-0.2l0,0v-0.1l0,0v-0.2l0,0v-0.1l0,0V128l0,0v-0.2l0,0v-0.4l0,0v-0.2l0,0c0-0.1,0-0.2,0-0.4l-0.1-0.1l0,0h-0.1l0,0
			c-0.1,0-0.2,0-0.3,0v0.1h0.3c0,0-0.1,0.1-0.1,0.1l0,0l-0.1,0.2l0,0v0.1l0,0v0.1l0,0v0.1l0,0v0.1H34v0.1l0,0l0,0h-0.1v0.1l0,0l0,0
			l-0.1,0.1v0.4l-0.1,0.1c0,0,0,0.1,0,0.1h-0.5l0,0h-0.1c0-0.1,0-0.1,0-0.2v-0.1l0,0v-0.1l0,0v-0.2l0,0l0,0l0,0v-0.1h0.1
			c0,0,0-0.1,0-0.1l0,0c0-0.1,0-0.1,0.1-0.2l0,0l0,0l0,0V127l0,0l0,0l0,0c0-0.1,0-0.1,0.1-0.2l0,0v-0.1l0.1-0.1v-0.1l0,0v-0.1l0,0
			l0,0l0,0l0.1-0.2l0.1-0.1v-0.1l0,0v-0.1l0,0c0,0,0-0.1,0-0.1h0.1l0,0l0.1-0.1V126h0.1l0,0l0.1-0.1v-0.1h0.1c0-0.1,0.1-0.1,0.1-0.2
			H34l0,0l0.2-0.1l0,0h0.1l0,0h0.1l0,0l0,0h0.2l0.2,0.2c0,0.1,0,0.1,0.1,0.2s0,0.1,0,0.2l0,0v0.6l0,0v0.1l0,0v0.1l0,0v0.2l0,0v0.1
			l0,0l-0.1,0.5l0,0l0,0l0,0v0.2l0,0v0.1l0,0v0.2l0,0c0,0.1,0,0.2,0,0.3l0,0v0.1l0,0v0.1l0,0v0.2l0,0v0.2l0,0v0.1l0,0v0.2
			c0,0.2-0.1,0.4-0.1,0.6v0.6c-0.1,0.3-0.1,0.6-0.1,0.9c0,0.1,0,0.2,0,0.2l0,0v0.3l0,0v0.1l0,0v0.1l0,0l0,0l0,0
			c0,0.1,0.1,0.1,0.1,0.2"/>
		<path class="st10" d="M67.8,131h0.6l0,0l0,0l0,0l0.4-0.1l0,0h0.1l0,0h0.1l0,0H69l0,0h0.1l0,0h0.1l0,0h0.1l0,0h0.1l0,0l0,0
			c0,0,0,0,0-0.1h0.1l0,0l0,0l0.1-0.1l0,0v-0.5c0-0.1,0-0.3,0-0.4c0-0.1,0-0.2,0-0.3v-0.1l0,0c0-0.1,0-0.2,0-0.3v-0.2l0,0v-0.9l0,0
			v-0.1l0,0v-0.1l0,0V128l0,0v-0.1l0,0c0-0.1,0-0.1,0-0.2l0,0v-0.2l0,0l0,0h0.1V127l0,0c0,0,0-0.1,0-0.1l0.1-0.1c0,0,0-0.1,0-0.2
			l0,0c0,0,0,0,0-0.1h0.1c0-0.1,0-0.1,0.1-0.2l0.1-0.1v-0.1l0,0v-0.1l0.2-0.1v-0.1L70,126l0,0l0,0c0,0,0.1-0.1,0.1-0.1
			c0,0,0.1,0,0.1-0.1l0,0h0.2l0,0h0.8c0,0,0,0,0-0.1c0.2-0.1,0.3-0.1,0.5-0.1c0.1,0.1,0.1,0.1,0.2,0.1v0.1l0,0l0,0l0.1,0.1l0,0l0,0
			v0.1l0,0v0.2c0.1,0.1,0,0.2,0,0.3c0,0.4,0,0.7,0,1.1c0,0.1,0,0.2,0,0.4v0.4l0,0v0.3l0,0v0.3l0,0c0,0.2,0,0.5,0,0.7v0.2l0,0v0.1
			l0,0v0.2l0,0v0.1l0,0v0.1l0,0v0.1l0,0c0,0.1,0,0.2,0.1,0.2h0.1v0.1l0.2,0.1v0.1l0,0c0,0.1,0.1,0.1,0.1,0.2l0,0l0,0h0.2l0,0
			c0.2,0,0.4,0,0.7,0l0,0h0.1l0,0h0.1l0,0h0.1l0,0l0.2-0.1l0,0h0.1l0,0l0.1-0.1l0,0h0.1c0,0,0,0,0-0.1l0,0l0,0h0.1l0,0
			c0,0,0.1,0.1,0.1,0.1h0.1V131c-0.1,0-0.1,0.1-0.2,0.1c0,0,0,0.1,0,0.1l0,0c-0.1,0.2-0.2,0.3-0.4,0.4l-0.1,0.1h-0.1l0,0h-0.1l0,0
			h-0.1c0,0,0,0,0,0.1h-0.1v0.1l-0.1,0.1l0,0h-0.1c0,0,0,0.1,0,0.1h-0.1l0,0h-0.1c0,0,0,0,0,0.1h-0.1v0.1l0,0l0,0h-0.1
			c0,0-0.1,0.1-0.1,0.1h-0.1c0,0,0,0,0,0.1h-0.1l0,0h-0.1l0,0h0.2l0,0h-0.1l0,0H73l0,0c-0.2,0-0.4,0-0.7,0l0,0h-0.2l0,0l0,0l0,0
			h-0.1c0,0-0.1-0.1-0.1-0.1l0,0l-0.1-0.1h-0.1V132V132l-0.1-0.1v-0.1h-0.1l0,0l0,0v-0.1l0,0l0,0l0,0c0,0,0-0.1,0-0.1l0,0v-0.1l0,0
			v-0.4l0,0v-0.1l0,0V131l0,0v0l0,0v-0.4c0-0.2,0-0.4,0.1-0.6v-0.3l0,0v-0.1l0,0v-0.3l0,0V129l0,0c0-0.1,0-0.4,0-0.5V128l0,0
			c0-0.1,0-0.2,0-0.4l0,0v-0.2l0,0v-0.2l0,0l0,0l0,0c0,0,0-0.1,0-0.1l-0.1-0.1c0,0,0,0,0-0.1h-0.1l0,0h-0.1l0,0c-0.1,0-0.2,0-0.3,0
			l0,0c-0.1,0.1,0,0.3,0,0.4c-0.1,0.5-0.1,1-0.1,1.5v0.6l0,0v0.1l0,0l0,0l0,0v0.2l0,0v0.1l0,0v0.1l0,0v0.1l0,0v0.1l0,0v0.1l0,0v0.1
			h-0.1v0.1l0,0v0.1l0,0v0.1l0,0v0.1h-0.1v0.1l0,0l0,0l0,0v0.3l-0.1,0.1v0.1h-0.1v0.1l0,0v0.1l0,0v0.1l-0.1,0.1v0.1
			c-0.1,0.1-0.1,0.1-0.2,0.2c0,0,0,0.1,0,0.1h-0.1l0,0h-0.1c0,0,0,0,0,0.1H70v0.1h-0.2l0,0h-0.1l0,0l0,0l0,0h-0.1l0,0l0,0l0,0h-0.3
			l0,0h-0.1l0,0h-0.1l0,0H69l0,0c-0.2,0-0.3,0-0.5,0l0,0l-0.3,0.1c0-0.1-0.1-0.1-0.1-0.2h-0.1l0,0H68l0,0h-0.1c0,0,0,0.1,0,0.1
			l-0.3,0.1l0,0l0,0v0.1h-0.1l0,0l0,0l0,0c-0.1,0-0.1,0-0.2,0l0,0l0,0l0,0c-0.1,0-0.2,0-0.3,0l0,0H67l0,0h-0.1l0,0h-0.1l0,0h-0.6
			c-0.1,0-0.2,0-0.2,0l0,0h-0.2l-0.1-0.1l0,0v-0.1l0,0v-0.1l0,0v-0.1l0,0v-0.1l0,0v-0.1l0,0v0.7l0,0v-0.1l0,0v-0.3l0,0v-0.4l0,0
			v-0.3l0,0v-0.5l0,0v-0.1l0,0v-0.1l0,0v-0.2l0,0v-0.1l0,0v-0.3l0,0v-0.1l0,0v-0.2l0,0V129l0,0v-0.3l0,0v-0.2l0,0v-0.1l0,0v-0.2l0,0
			v-0.3c0-0.3,0-0.6-0.1-0.9l-0.1-0.1v-0.1h-0.1c0,0.1-0.1,0.1-0.2,0.1v0.1l0,0v0.1l0,0l0,0h-0.1c0,0.1,0,0.2-0.1,0.3l0,0v0.1l0,0
			v0.1l0,0v0.1l0,0v0.1l0,0l0,0l-0.1,0.1v0.1l-0.1,0.1v0.1l0,0v0.1l0,0c0,0.1,0,0-0.1,0.1c0-0.1,0-0.3,0-0.4v-0.1l0,0
			c0,0,0-0.1,0-0.1l0,0v-0.1l0,0l0,0l0,0v-0.1l0,0v-0.1l0,0c0-0.1,0-0.2,0.1-0.2l0,0c0-0.1,0-0.1,0.1-0.1l0,0v0.1l0,0v-0.1l0,0v-0.1
			l0,0v-0.1l0.1-0.1v-0.1h0.1v-0.1l0,0v-0.1l0,0v-0.1h0.1v-0.1c0,0,0.1,0,0.1-0.1l0,0l0.1-0.1l0,0l0,0v-0.1l0,0l0.2-0.2l0,0l0.1-0.1
			h0.1c0.1-0.1,0.2-0.1,0.3-0.1c0.1,0.1,0.1,0,0.1,0.1l0,0l0,0l0,0h0.1v0.1l0,0l0,0l0,0c0.1,0.3,0.1,0.6,0,0.9v0.4l0,0v0.1l0,0v0.3
			l0,0v0.1l0,0v0.1l0,0v0.3l0,0v0.2l0,0v0.1l0,0v0.1l0,0c0,0.2,0,0.4,0,0.5l0,0v0.1l0,0v0.1l0,0v0.1l0,0v0.7c0,0.3,0,0.7,0,1.1v0.1
			l0,0l0,0l0,0c0,0.1,0,0.1,0,0.2s0,0,0,0c0.2,0.2,0.7,0.1,0.9,0c0,0,0,0,0.1,0l0,0h0.3l0,0h0.1l0,0h0.1l0,0h0.1l0,0l0,0l0,0h0.1
			l0,0l0,0l0,0h0.1l0,0H68l0,0h0.1l0,0l0.2-0.1l0,0h-1l0,0h0.1v-0.1h0.1c0,0,0-0.1,0-0.1l0,0l0.1-0.1l0,0l0.1-0.1l0,0l0.1-0.1v-0.1
			l0.2-0.3h0.1l0,0c0,0,0,0.1,0,0.1c-0.1,0.1,0,0.1-0.1,0.2l0,0v0.1L67.8,131L67.8,131L67.8,131c0,0,0,0.1,0,0.1l0,0
			c0,0.1-0.1,0.1-0.1,0.2"/>
		<path class="st10" d="M68.2,128.3c-0.1,0-0.1,0-0.2,0l0,0l-0.2-0.1l0,0c-0.2,0-0.5,0-0.7,0.1h-0.2l0,0l-0.2,0.1l-0.3,0.3v0.1h-0.1
			l0,0h-0.1c0,0,0-0.1-0.1-0.1l0.3-0.8h0.1v-0.1l0,0v-0.1h0.1v-0.1l0.1-0.1l0,0l0.1-0.1v-0.1l0,0c0-0.1,0.1-0.1,0.1-0.2
			c0.1,0,0.1,0,0.1-0.1l0,0l0,0l0,0h0.2c0,0,0,0,0-0.1h0.1l0,0h0.1l0,0l0,0l0,0h0.1l0,0h0.1c0.2-0.1,0.4-0.1,0.6-0.1l0,0h0.4l0,0
			h0.1l0,0h0.1l0,0c0.1,0,0,0,0.1,0.1l0,0v0.2c-0.1,0.1-0.1,0.1-0.1,0.2l0,0v0.1l-0.1,0.1v0.1l0,0v0.1h-0.1v0.1l0,0v0.1l0,0
			c0,0,0,0.1,0,0.1l0,0l0,0h-0.1v0.1l0,0v0.1l0,0c0,0,0,0.1,0,0.1"/>
		<path class="st10" d="M52.3,128.8C52.3,128.8,52.2,128.8,52.3,128.8L52.3,128.8L52.3,128.8l-0.1,0.1l0,0l0,0c-0.1,0-0.1,0-0.1,0.1
			l-0.4-0.1l0,0h-0.1l0,0h-0.1l0,0l0,0l0,0h-0.1c0,0,0-0.1,0-0.1h-0.3v-0.1l0,0l0,0c0,0,0,0-0.1-0.1c0-0.1,0-0.2,0-0.3l0,0l0,0l0,0
			v-0.2l0,0v-0.1l0,0V128l0,0v-0.1l0,0v-0.1l0,0c0.1-0.1,0-0.2,0.2-0.3c0-0.1,0-0.2,0.1-0.2l0,0h0.1c0,0,0,0,0-0.1h0.1
			c0,0.1,0.1,0,0.1,0.1l0,0l0,0l0.1,0.1h0.1l0,0H52l0,0l0,0v0.1l0,0l0,0h0.1l0.2,0.1v0.2l0,0v0.1l0,0l0,0l0,0v0.1l0,0v0.1l0,0v0.1
			l0,0v0.2l0,0v0.2l0,0l0,0l0,0L52.3,128.8"/>
		<path class="st10" d="M45.7,130.4c0,0.1-0.1,0.1-0.2,0.2l-0.2,0.2l0,0l0,0l0,0c0,0,0,0.1-0.1,0.1c0,0.5,0.2,0.9,0.6,1.1l0.2,0.2
			l0,0l0.1,0.1h0.1l0,0l0,0v0.1l0,0v0.1h0.1l0,0h0.1l0,0h0.1l0,0h0.1l0,0h0.1l0,0h0.1l0,0h0.2l0,0H47l0,0h0.2l0,0l0,0l0,0h0.1l0,0
			h0.1l0,0h0.1l0,0h0.3l0,0h0.1l0,0h0.1l0,0H48l0,0h0.3l0,0h0.2l0,0c0.1,0,0.2-0.1,0.4,0c0.2,0,0.4,0,0.5,0c0.3,0,0.7,0,1,0h0.9
			c0.2-0.1,0.5-0.1,0.7-0.1h0.2l0,0h0.2l0,0l0.3-0.1l0,0h0.1l0,0h0.3l0,0h0.1l0,0h0.2l0,0h0.1l0,0h0.3l0,0l0.2-0.1l0,0l0.2-0.1l0,0
			h0.1l0,0h0.1l0,0l0,0l0,0h0.1l0,0h0.1l0,0h0.1l0,0h0.1l0,0H55l0,0H55l0,0l0.2-0.1c0,0,0,0,0-0.1h0.1l0,0h0.1v-0.1h0.1l0,0l0,0l0,0
			c0.1-0.1,0.1-0.1,0.1-0.3l0,0v-0.1l0,0c0,0,0-0.1,0-0.1l0,0c0,0,0-0.1,0-0.1c-0.1,0-0.2-0.1-0.2-0.2c0,0,0,0,0-0.1h-0.1V131l0,0
			l-0.1-0.1l0,0v-0.1l0,0v-0.1l0,0v-0.1l0,0c0,0,0-0.1,0-0.1l0,0v-0.2l0,0v-0.1l0,0V130l0,0v-0.1l0,0c0,0,0-0.1,0-0.1l0,0
			c0-0.1,0-0.1,0-0.2l0,0c0.1-0.1,0-0.2,0.2-0.2c0,0.1,0.1,0.1,0.2,0.1c0,0,0,0,0,0.1h0.1l0.1,0.1l0.2,0.2v0.1l0.2,0.2
			c0.1,0,0.2,0,0.2-0.1h0.2l0,0l0,0l0,0h0.6l0,0h0.1l0,0h0.1l0,0h0.1l0,0h0.1l0,0h0.2l0,0h0.1l0,0l0,0l0,0h0.1v-0.1h0.1
			c0,0,0-0.1,0-0.1l0.2-0.1l0,0l0,0v-0.1l0,0V129l0,0c0-0.1,0-0.1,0-0.2l0.1-0.1l0,0c0,0,0.1,0.1,0.1,0.2l0,0c0,0.1,0,0.1,0,0.2l0,0
			v0.1l0,0v0.1l0,0v0.1l0,0c0,0,0,0.1,0,0.1l0,0v0.2l0,0l0,0l0,0v0.1l0,0v0.1l0,0v0.1l0,0v0.2l0,0v0.1l0,0v0.1l0,0v0.1l0,0
			c0,0.1,0,0.3,0.1,0.4h0.1c0,0,0.3,0,0.4,0h0.1l0,0h0.4l0,0l0.3-0.1c0.1-0.2,0.2-0.4,0.3-0.7l0,0l0,0l0.1-0.1v-0.1l0,0v-0.1l0,0
			v-0.1l0,0v-0.1l0,0v-0.1l0,0c0,0,0-0.1,0-0.1c0.1-0.1,0.2-0.3,0.4-0.3h0.1c0.2-0.1,0.3,0,0.4,0.1c0,0.1,0.1,0.1,0.1,0.1l0,0v0.1
			l0,0v0.3l0,0l0,0l0,0c0,0.1,0,0.2,0,0.3l0,0c0,0,0,0.1,0,0.2l0,0l0,0l0,0v0.1l0,0v0.2l0,0c0,0.1,0,0.1,0,0.2l0,0l0,0l0,0v0.1l0,0
			v0.1l-0.1,0.1c0,0.1,0,0.1,0,0.2l0,0v0.1l0,0v0.1l-0.1,0.1v0.1l0,0l-0.1,0.2l0,0l-0.1,0.1h-0.1c0,0,0,0,0,0.1l0,0v0.1h-0.1
			l-0.1,0.1h-0.2v0.1h-0.1l0,0l0,0l0,0h-0.1l0,0l0,0v0.1h-0.1l0,0H60l0,0l0,0l0,0h-0.2l0,0h-0.2l0,0h-0.1l0,0h-0.1l0,0h-0.1l0,0
			c-0.2,0-0.5,0-0.7,0l-0.1-0.1l0,0v-0.2l0,0l0,0l0,0v-0.1l0,0c0-0.1,0-0.2,0-0.2l0,0V131l0,0v-0.1l0,0v-0.3l-0.3,0.1v0.1h-0.1l0,0
			h-0.1l0,0H58l0,0h-0.2l0,0h-0.7l0,0h-0.1l0,0h-0.2l0,0l0,0l0,0h-0.4l0,0h-0.1c0,0.1,0,0.1-0.1,0.2l0,0l0,0l0,0c0,0,0,0.1,0,0.1
			l0,0v0.1l0,0l0,0l0,0v0.9l0,0v0.1l0,0l0,0l0,0v0.2h-0.1v0.1l0,0l0,0l-0.1,0.1v0.1l0,0v0.1l0,0v0.1c0,0-0.1,0-0.1,0.1v0.1l-0.3,0.3
			l0,0c0,0,0,0.1-0.1,0.1l0,0l-0.1,0.1l-0.2,0.1l0,0l0,0l0,0l0,0l0,0h-0.1l0,0h-0.1l0,0l-0.2,0.1l0,0h-0.2c0,0,0,0,0,0.1l-0.2,0.1
			l0,0l-0.2,0.1h-0.1l0,0h-0.1l0,0h-0.1c0,0,0,0,0,0.1h-0.2l0,0l0,0l0,0h-0.1l0,0l0,0l0,0H54l0,0h-0.2l0,0h-0.1l0,0h-0.1l0,0h-0.2
			l0,0h-0.2l0,0h-0.1l0,0h-0.3l0,0h-0.1l0,0h-0.1l0,0h-0.1l0,0h-0.1l0,0h-0.2c0,0,0,0-0.1,0s0,0,0,0l0,0H52l0,0h-0.1l0,0h-0.2l0,0
			h-0.1h-0.4l0,0h-2.1l0,0h-0.4l0,0l0,0c-0.3,0-0.7,0-1-0.1h-0.1l0,0h-0.1l0,0h-0.2l0,0h-0.2l0,0h-0.1l0,0H47l0,0h-0.1l0,0l-0.3-0.1
			l0,0h-0.1l0,0l0,0l0,0h-0.2l0,0l-0.2-0.1l0,0c0,0,0,0-0.1,0l0,0h-0.1l0,0h-0.2l0,0h-0.1v-0.1h-0.1l0,0h-0.1v-0.1l0,0v-0.1l0,0
			c0,0-0.1-0.1-0.1-0.1h-0.1v-0.1l0,0c0,0-0.1-0.1-0.1-0.1h-0.1l0,0h-0.1v-0.1l-0.1-0.1v-0.1l-0.1-0.1l0,0l-0.1-0.1l0,0l0,0v-0.1
			l0,0v-0.1l0,0v-0.1l0,0v-0.1l0,0l0,0l0,0v-0.1c-0.1-0.4-0.2-0.8-0.1-1.2v-0.1l0,0v-0.1l0,0v0.2l0,0v-0.1l0,0v-0.1l0,0l0.1-0.2l0,0
			v-0.1l0,0l0,0l0,0v-0.1l0,0l0,0l0,0c0,0,0-0.1,0-0.1l0,0v-0.1l0.1-0.1v-0.1l0.1-0.1V130l0.2-0.2l0.1-0.1h0.1l0.1-0.1l0,0l0.1-0.1
			h0.1l0,0l0.2-0.1l0.1-0.1l0,0l0.1-0.1l0,0v-0.1h0.1l0,0h0.1l0,0h0.2l0,0h0.1l0,0h0.1l0,0h0.1l0,0h0.1l0,0h0.1l0,0H47l0,0l0,0l0,0
			h0.8l0,0c0.3,0,0.5,0,0.8,0h0.2l0,0h0.3l0,0h0.1l0,0h0.1l0,0l0,0l0,0h0.1l0,0h0.2l0,0h0.1l0,0l0,0l0,0h0.2l0,0h0.4l0,0h0.1
			l0.1,0.1l0,0l0.1,0.1l0,0c0,0,0,0.1,0.1,0.1h0.1c0,0,0.1,0.1,0.1,0.1l0,0l0.2,0.2h0.1l0.1,0.1l0,0v0.1l0.1,0.1l0,0
			c0.1,0.1,0.2,0.2,0.4,0.3l0.1,0.3l0,0c0,0.1,0,0.2,0,0.3c-0.1,0.1-0.1,0.1-0.3,0.1l-0.1-0.1l0,0v-0.1l-0.1-0.1l0,0l0,0
			c0,0,0-0.1,0-0.1l0,0l0,0l-0.1-0.1v-0.1h-0.1v-0.1h-0.1l0,0h-0.1l0,0l0,0l0,0h-0.1v-0.1c0,0-0.1,0-0.1,0l-0.1-0.1l0,0v-0.1h-0.1
			v-0.1l0,0l0,0h-0.1l-0.1-0.1h-0.1l0,0l0,0l0,0h-0.1v-0.1H50l0,0h-0.1l0,0h-0.1l0,0l0,0l0,0h-0.1l0,0h-0.1l0,0l0,0l0,0h-0.1l0,0
			h-0.3l0,0c-0.2,0-0.4,0-0.7,0l0,0h-0.5l0,0l0,0l0,0h-0.1l0,0h-0.2l0,0h-0.2l0,0h-0.4l0,0H47l0,0h-0.1c0,0,0,0,0,0.1h-0.1l0,0h-0.2
			v0.1l0,0l0,0h-0.1l0,0h-0.1l0,0h-0.1l0,0h-0.2v0.1h-0.1l0,0l0,0l0,0l0,0c0,0,0,0,0,0.1H46l0,0c0,0.1-0.1,0.1-0.2,0.1"/>
		<path class="st10" d="M75.1,130.9L75.1,130.9l0.1-0.1v-0.1l0,0v0.1C75.2,130.9,75.2,130.9,75.1,130.9L75.1,130.9z"/>
		<path class="st10" d="M58.2,134.2c0,0.1,0,0.2,0,0.3l0,0v0.1l0,0v0.1l0,0v0.1l0,0v0.1h-0.1l0,0l0,0v0.1v0.1l0,0l-0.1,0.1v0.1l0,0
			c0,0,0,0.1,0,0.1l0,0v0.1l0,0c-0.1,0.1-0.1,0.3-0.3,0.3c-0.1-0.1-0.1-0.1-0.3-0.1l0,0l0,0l0,0c-0.1,0-0.2,0-0.3,0h-0.4l0,0h-0.2
			l0,0h-0.5l0,0h-0.1v0.1h-0.1c0,0,0,0.1,0,0.1c0,0-0.1,0-0.1,0.1v0.1h-0.1c-0.1,0.1,0,0.1-0.2,0.1c0-0.1,0-0.2,0-0.3l0,0v-0.1l0,0
			c0,0,0-0.1,0-0.1l0,0l0,0l0,0v-0.1l0,0v-0.1l0,0c0,0,0-0.1,0-0.1h0.1l0,0l0,0v-0.1l0,0v-0.1l0,0v0.2h0.1v-0.1l0,0v-0.1l0,0v-0.1
			l0,0v-0.1l0,0c0-0.1,0.1-0.1,0.1-0.2h0.1l0.1-0.1h0.1l0,0h0.1v-0.1h0.2l0,0c0.3-0.1,0.5-0.1,0.8-0.1l0,0h0.3l0,0h0.1
			c0.1,0,0.2,0.1,0.2,0.1"/>
		<path class="st10" d="M41.4,134.9c0.1,0,0.1,0,0.2,0.1v0.1l0.2,0.1c0,0,0,0,0,0.1h0.1v0.1h0.1l0,0H42l0,0l0,0c0,0,0,0.1,0,0.1l0,0
			v0.2l0,0v0.1l-0.1,0.1v0.1l0,0l0,0l0,0v0.2h-0.1v0.1l0,0v0.1l0,0v0.1l0,0v0.1l0,0v0.1l0,0v0.1l0,0c-0.1,0.1-0.2,0.2-0.4,0.3l0,0
			h-0.3l0,0h-0.1l-0.1-0.2l-0.3-0.2c0,0,0-0.1-0.1-0.1l0.1-0.2l0,0v-0.2l0,0v-0.1l0,0v-0.1l0,0v-0.1l0,0c0,0,0-0.1,0-0.1l0,0v-0.1
			l0,0v-0.1l0.1-0.1c0,0,0,0,0-0.1l0,0v-0.1l0.1-0.1V135l0,0V135H41L41.4,134.9z"/>
		<path class="st10" d="M28.3,130.6c0.1,0,0.1,0,0.2,0.1v0.1l0.2,0.1v0.1h0.1v0.1h0.1l0,0h0.1l0,0l0,0v0.1H29v0.2l0,0v0.1h-0.1v0.1
			l0,0v0.1l0,0v0.1h-0.1v0.1l0,0v0.1l0,0l0,0h-0.1v0.3l0,0v0.1h-0.1c0,0,0,0.1,0,0.1h-0.1c-0.1,0.1-0.2,0.2-0.4,0.3l0,0h-0.2l0,0H28
			l-0.1-0.2l-0.3-0.3c0-0.1,0-0.1-0.1-0.1s0-0.1,0.1-0.2l0,0c0-0.1,0-0.1,0-0.2h0.1v-0.1l0,0l0,0l0,0v-0.1l0,0v-0.1l0,0v-0.1h0.1
			V131l0.1-0.1v-0.1l0,0v-0.1l0.1-0.1c0,0,0-0.1,0-0.1l0,0l0,0H28L28.3,130.6z"/>
		<path class="st11" d="M32.9,140.1c-5.3,0.6-10.5,1.5-15.5,1.5c-2.2,0.1-5.8-0.4-5.8-3.4c0-2.7,2-4.4,3.6-5.8
			c3.2-2.6,7-4.4,11.1-5.3c1.8-0.2,4.1-0.6,5.9,1.4c1.4,2.2,0.6,4.2,0.2,5.6c-0.1-0.6-0.1-1.2-0.1-1.9c0.2-1.3-0.3-2.6-1.2-3.6
			c-2.8-1.6-6.6,0-10.6,1.9c-2.1,1.1-4.1,2.5-5.8,4.2c-1.8,1.7-2.5,4.5-0.6,4.9c4.8,1.1,11.8-0.6,18.4-1.2
			c13.6-1.7,26.2-1.6,35.3-0.1s14.8,3.6,15.4,4.6C73.3,139.6,54.2,137.3,32.9,140.1"/>
	</g>
</g>
</svg>
