<?xml version="1.0" encoding="utf-8"?>
<!-- Generator: Adobe Illustrator 28.0.0, SVG Export Plug-In . SVG Version: 6.00 Build 0)  -->
<svg version="1.1" id="Layer_1" xmlns="http://www.w3.org/2000/svg" xmlns:xlink="http://www.w3.org/1999/xlink" x="0px" y="0px"
	 viewBox="0 0 1080 1080" style="enable-background:new 0 0 1080 1080;" xml:space="preserve">
<style type="text/css">
	.st0{fill:#FF6900;}
</style>
<g>
	<path class="st0" d="M248.4,647.2h-58.7V286.1h58.7V647.2z M351.3,420.8h-58.7v226.4h58.7V420.8z M352.6,360.3
		c0-17.2-13.9-31.1-31.1-31.1s-31.1,13.9-31.1,31.1s13.9,31.1,31.1,31.1S352.6,377.5,352.6,360.3 M755.7,273.3
		c-149.6,0-206.2,118.3-227.5,162.9c-1.7,3.5-3.2,6.6-4.4,8.9c-0.2,0.3-0.3,0.7-0.5,1l-43.6,98.2l-35.9-123.6h-61.3L445.8,631
		c3.5,11.7,13.9,20,26,20.8c0.7,0,1.4,0.1,2.1,0.1c11.4,0,21.8-6.6,26.6-17l75.8-163.6c1.5-2.9,3-6.1,4.8-9.8
		c9.5-19.9,25.5-53.3,53.2-80.9c32.8-32.7,72.4-48.5,121.3-48.5c69.6,0,130,39.8,159.9,97.7l44.8-40.2
		C918.7,320,842.5,273.3,755.7,273.3 M893.8,513.1v134.1h-58.7v-20.4c-22.5,15.8-49.8,25.2-79.4,25.2c-76.3,0-138.1-62-138.1-138.5
		c0,0,0-0.1,0-0.2v-0.1c0-76.1,62-138.1,138.1-138.1C831.8,375,893.8,437,893.8,513.1z M676.6,513.2c0,43.8,35.4,79.3,79.1,79.3
		s79.1-35.5,79.1-79.3s-35.4-79.3-79.1-79.3S676.6,469.4,676.6,513.2z"/>
	<g>
		<path class="st0" d="M270,779c-3.3,0-6-1.1-8.1-2.4c-2.4,17.1-17.4,30.2-35.5,30.2c-20,0-35.9-16.2-35.9-35.6
			c0-3.7-0.5-32.7-0.5-40.5h17.7c0.1,7,0.3,37.8,0.3,40.6c0.1,10.3,8.4,18.6,18.3,18.6c10.1,0,18.5-8.4,18.3-18.7l-0.5-40.6h18
			l0.1,21.9c0,7.6,6,10.7,8.9,10.7h12.1V779H270z M218.3,711.3L218.3,711.3c0-4,3.3-7.3,7.3-7.3h0.6c4,0,7.3,3.3,7.3,7.3l0,0
			c0,4-3.3,7.3-7.3,7.3h-0.6C221.6,718.6,218.3,715.3,218.3,711.3z"/>
		<path class="st0" d="M329.8,779c-6.9,0-11.1-4.3-13.1-7.5c-3.6,4.8-9.7,7.5-15.8,7.5c-7.1,0.1-12.9,0-20,0v-16c0,0,12.5,0,14.9,0
			c3.4,0,8.1-2,8.1-6.5l-0.3-13.7h17.8c0.1,6.9,0.1,2,0.3,8.8c0.1,8,6,11.3,9,11.3H343V779H329.8z M294.8,796.5L294.8,796.5
			c0-4.1,3.3-7.4,7.4-7.4h0.5c4.1,0,7.4,3.3,7.4,7.4l0,0c0,4.1-3.3,7.4-7.4,7.4h-0.5C298.2,803.9,294.8,800.6,294.8,796.5z
			 M316.5,796.5L316.5,796.5c0-4.1,3.3-7.4,7.4-7.4h0.5c4.1,0,7.4,3.3,7.4,7.4l0,0c0,4.1-3.3,7.4-7.4,7.4h-0.5
			C319.8,803.9,316.5,800.6,316.5,796.5z"/>
		<path class="st0" d="M380.1,779c-13.5,0-25.8,0-39.5,0v-16h14.9c-0.9-2.8-1.3-5.7-1.3-8.8c0-14.1,8.8-24.8,25.8-24.8
			c17.1,0,25.8,10.7,25.8,24.7C406,768.1,397.2,779,380.1,779z M380.1,743.3c-6.6,0-8.5,5.6-8.5,10.9c0,5.1,1.9,10.7,8.5,10.7
			c6.5,0,8.5-5.6,8.5-10.7C388.7,748.9,386.6,743.3,380.1,743.3z"/>
		<path class="st0" d="M439,679.3c-0.6-1.9-2-2.7-3.4-2.7s-2.8,1-2.8,2.8c0,1.4,0.9,3.4,3.6,3.4h6.4v8.3h-25.6l4.1-8.3h4.7
			c-1.3-1.7-1.3-3.9-1.3-4.6c0-5,3.6-9.3,9-9.3c3.6,0,6.7,1.4,9.2,4.7C442.8,673.9,439,679.3,439,679.3z M438.3,779
			c-7.8,0-15.2-5.5-15.3-16.2l-0.5-66.6h17.7l0.4,61.1c0,3.6,1.8,5.2,4.2,5.7h14.4v16H438.3z"/>
		<path class="st0" d="M505.7,779c-6.9,0-11.1-4.3-13.1-7.5c-3.6,4.8-9.7,7.5-15.8,7.5c-7.1,0.1-12.9,0-20,0v-16c0,0,12.5,0,14.9,0
			c3.4,0,8.1-2,8.1-6.5l-0.3-13.7h17.8c0.1,6.9,0.1,2,0.3,8.8c0.1,8,6,11.3,9,11.3h12.1V779H505.7z M469.8,713.2L469.8,713.2
			c0-4.2,3.3-7.5,7.4-7.5h0.6c4.1,0,7.4,3.3,7.4,7.4v0.1c0,4.1-3.3,7.4-7.4,7.4h-0.6C473.1,720.6,469.8,717.3,469.8,713.2z
			 M491.4,713.2L491.4,713.2c0-4.1,3.3-7.4,7.4-7.4h0.6c4.1,0,7.4,3.3,7.4,7.4l0,0c0,4.1-3.3,7.4-7.4,7.4h-0.6
			C494.8,720.6,491.4,717.3,491.4,713.2z"/>
		<path class="st0" d="M565.4,779c-6.9,0-11.1-4.3-13.1-7.5c-3.6,4.8-9.7,7.5-15.8,7.5h-20v-16h14.9c3.4,0,8.1-2,8.1-6.5l-0.3-60.3
			H557c0.1,6.9,0.1,48.6,0.3,55.5c0.1,8,6,11.3,9,11.3h12.1v16H565.4z"/>
		<path class="st0" d="M596.3,779h-20.1v-16h15.2c3.8,0,6.5-1.9,6.5-6.1c0-8.9-0.4-51.9-0.5-60.7h18c0.1,14.6,0.4,52.5,0.4,64.9
			C615.7,772,608.9,779,596.3,779z"/>
		<path class="st0" d="M676,779c-7.8,0-15.2-5.5-15.3-16.2l-0.5-66.6h17.7l0.4,61.1c0,3.6,1.8,5.2,4.2,5.7h14.4v16H676z"/>
		<path class="st0" d="M753.6,779c-7.4,0-14.5-1.4-21.1-3.8c-6.5,2.4-13.4,3.8-20.8,3.8h-17.2v-16h10.3c3.3,0,6.5-0.1,9.4-0.5
			c-5.2-5.9-7.1-11.8-7.1-16.8c0-14.8,12.2-22.5,25.3-22.5s25.3,7.8,25.3,22.5c0,5-1.9,10.9-7,16.8c3.7,0.6,6.2,0.5,9.5,0.5h9.7v16
			H753.6z M714,705.9L714,705.9c0-4.2,3.3-7.5,7.4-7.5h0.6c4.1,0,7.4,3.3,7.4,7.4v0.1c0,4.1-3.3,7.4-7.4,7.4h-0.6
			C717.3,713.3,714,710,714,705.9z M732.4,736.3c-5.1,0-8,3.9-8,9c0,7.9,7.5,12.7,8,12.7c0.6,0,8-4.7,8-12.7
			C740.5,740.3,737.6,736.3,732.4,736.3z M724.8,686L724.8,686c0-4.1,3.3-7.4,7.4-7.4h0.5c4.1,0,7.4,3.3,7.4,7.4l0,0
			c0,4.1-3.3,7.4-7.4,7.4h-0.5C728.1,693.4,724.8,690.1,724.8,686z M735.6,705.9L735.6,705.9c0-4.2,3.3-7.5,7.4-7.5h0.6
			c4.1,0,7.4,3.3,7.4,7.4v0.1c0,4.1-3.3,7.4-7.4,7.4H743C738.9,713.3,735.6,710,735.6,705.9z"/>
		<path class="st0" d="M767.8,779v-16h29.3v16H767.8z"/>
		<path class="st0" d="M843.7,779c-6.9,0-11.1-4.3-13.1-7.5c-3.6,4.8-9.7,7.5-15.8,7.5c-7.1,0.1-12.9,0-20,0v-16c0,0,12.5,0,14.9,0
			c3.4,0,8.1-2,8.1-6.5l-0.3-13.7h17.8c0.1,6.9,0.1,2,0.3,8.8c0.1,8,6,11.3,9,11.3h12.1V779H843.7z M808.7,796.5L808.7,796.5
			c0-4.1,3.3-7.4,7.4-7.4h0.5c4.1,0,7.4,3.3,7.4,7.4l0,0c0,4.1-3.3,7.4-7.4,7.4h-0.5C812,803.9,808.7,800.6,808.7,796.5z
			 M830.3,796.5L830.3,796.5c0-4.1,3.3-7.4,7.4-7.4h0.5c4.1,0,7.4,3.3,7.4,7.4l0,0c0,4.1-3.3,7.4-7.4,7.4h-0.5
			C833.7,803.9,830.3,800.6,830.3,796.5z"/>
		<path class="st0" d="M874.6,779h-20.1v-16h15.2c3.8,0,6.5-1.9,6.5-6.1c0-8.9-0.4-51.9-0.5-60.7h18c0.1,14.6,0.4,52.5,0.4,64.9
			C894,772,887.2,779,874.6,779z"/>
	</g>
</g>
<g>
	<path class="st0" d="M206.4,835.6c2,0.9,3.5,2.2,4.5,3.8c1,1.6,1.5,3.5,1.5,5.7c0,2.2-0.5,4.2-1.5,6s-2.5,3.2-4.6,4.2
		c-2.1,1-4.6,1.5-7.5,1.5h-5.5v12.4h-6.2v-35h11.9C202,834.2,204.4,834.7,206.4,835.6z M206,845.3c0-2-0.6-3.5-1.8-4.5
		s-2.9-1.5-5.2-1.5h-5.7v12.5h4.9C203.4,851.8,206,849.6,206,845.3z"/>
	<path class="st0" d="M233,845l-1,5.9c-0.6-0.2-1.1-0.4-1.6-0.5c-0.5-0.1-1.1-0.2-1.7-0.2c-1,0-2,0.2-2.9,0.7
		c-0.9,0.5-1.8,1.4-2.7,2.6v15.6h-5.8v-23.9l5.8-0.5v3.4c0.9-1.2,1.9-2.1,3.1-2.7c1.2-0.6,2.4-0.9,3.8-0.9
		C230.9,844.5,231.9,844.7,233,845z"/>
	<path class="st0" d="M257.5,858.4h-16.1c0.1,2.4,0.8,4.1,2,5.2c1.2,1.1,2.7,1.7,4.5,1.7c1.3,0,2.5-0.2,3.5-0.5
		c1-0.3,2.2-0.9,3.6-1.6l2.1,3.8c-1.3,0.9-2.7,1.6-4.3,2.2c-1.6,0.5-3.3,0.8-5.2,0.8c-2.3,0-4.3-0.4-6.1-1.2c-1.8-0.8-3.2-2.2-4.2-4
		c-1-1.8-1.6-4.2-1.6-7.1c0-2.5,0.4-4.8,1.4-6.7c0.9-2,2.2-3.5,4-4.6c1.8-1.1,3.9-1.7,6.4-1.7c2.2,0,4.1,0.4,5.7,1.3
		c1.5,0.9,2.7,2.1,3.5,3.7c0.8,1.6,1.2,3.3,1.2,5.3C257.6,855.9,257.6,857.1,257.5,858.4z M243.5,850.2c-0.9,1-1.5,2.4-1.9,4.2h10.2
		v-0.2c0-1.9-0.4-3.2-1.2-4.1s-1.9-1.3-3.4-1.3C245.7,848.7,244.4,849.2,243.5,850.2z"/>
	<path class="st0" d="M284.1,845.3v0.3l-9.3,23.6h-5.6l-9.5-23.6v-0.3h6.3l5,14.2c0.5,1.4,0.9,2.7,1.1,3.9c0.1-0.3,0.2-0.8,0.4-1.4
		c0.2-0.6,0.4-1.4,0.7-2.5l4.5-14.2H284.1z"/>
	<path class="st0" d="M288.8,840.4c-0.6-0.3-1.1-0.8-1.4-1.4c-0.4-0.6-0.5-1.2-0.5-1.9c0-0.7,0.2-1.3,0.5-1.9
		c0.4-0.6,0.8-1.1,1.4-1.4c0.6-0.4,1.2-0.5,1.9-0.5c0.7,0,1.4,0.2,2,0.5c0.6,0.4,1.1,0.8,1.5,1.4c0.4,0.6,0.5,1.2,0.5,1.9
		c0,0.7-0.2,1.3-0.5,1.9c-0.4,0.6-0.8,1.1-1.5,1.4c-0.6,0.3-1.3,0.5-2,0.5C290.1,841,289.4,840.8,288.8,840.4z M287.9,869.2v-23.9
		l5.8-0.6v24.5H287.9z"/>
	<path class="st0" d="M304.4,868.2c-1.8-1.1-3.1-2.7-4-4.6c-0.9-1.9-1.3-4.1-1.3-6.5c0-3,0.6-5.4,1.7-7.3c1.1-1.9,2.7-3.2,4.6-4.1
		c1.9-0.8,4-1.3,6.4-1.3c2.6,0,4.8,0.5,6.6,1.6c1.8,1.1,3.1,2.6,4,4.5c0.9,1.9,1.3,4.1,1.3,6.5c0,3-0.6,5.4-1.7,7.3
		c-1.1,1.9-2.7,3.3-4.6,4.1c-1.9,0.9-4.1,1.3-6.5,1.3C308.4,869.9,306.2,869.3,304.4,868.2z M316.2,863.2c1-1.5,1.4-3.5,1.4-6
		c0-2.6-0.5-4.5-1.5-6s-2.5-2.1-4.6-2.1c-2.3,0-3.9,0.7-4.9,2.1c-1,1.4-1.5,3.4-1.5,6c0,2.5,0.5,4.5,1.5,6c1,1.5,2.6,2.2,4.7,2.2
		C313.6,865.4,315.2,864.6,316.2,863.2z"/>
	<path class="st0" d="M350.2,844.7v24.5h-5.1l-0.4-1.8c-2.8,1.7-5.6,2.5-8.5,2.5c-2.3,0-4.1-0.6-5.4-1.9c-1.3-1.3-2-3.1-2-5.6v-17.1
		l5.8-0.6v15.9c0,1.1,0.1,1.9,0.4,2.6c0.2,0.6,0.6,1.1,1.2,1.4c0.6,0.3,1.4,0.5,2.4,0.5c1.6,0,3.5-0.6,5.8-1.8v-18L350.2,844.7z"/>
	<path class="st0" d="M359.5,869.1c-1.7-0.5-3.4-1.3-4.9-2.4l2.5-3.9c2.6,1.8,5.3,2.8,8.2,2.8c1.4,0,2.5-0.2,3.2-0.7s1.1-1.1,1.1-2
		c0-0.5-0.1-0.9-0.4-1.3c-0.3-0.4-0.8-0.7-1.5-1.1c-0.7-0.4-1.8-0.7-3.1-1.1l-1.6-0.4c-2.6-0.7-4.4-1.6-5.6-2.7
		c-1.2-1.1-1.7-2.6-1.7-4.4c0-1.4,0.4-2.6,1.2-3.7c0.8-1.1,1.9-1.9,3.3-2.5c1.4-0.6,3-0.9,4.8-0.9c3.4,0,6.6,0.9,9.6,2.6l-2.3,3.9
		c-1.5-0.8-2.8-1.3-3.9-1.6c-1.1-0.3-2.2-0.4-3.4-0.4c-1.1,0-2,0.2-2.6,0.6c-0.6,0.4-0.9,1-0.9,1.7c0,0.4,0.1,0.8,0.3,1.1
		s0.6,0.6,1.1,0.8c0.5,0.2,1.3,0.5,2.3,0.7l1.7,0.4c2.9,0.8,5.1,1.8,6.4,3.1c1.3,1.2,2,2.8,2,4.8c0,1.5-0.4,2.8-1.1,3.9
		c-0.8,1.2-1.9,2.1-3.4,2.7c-1.5,0.7-3.3,1-5.5,1C363.2,869.9,361.3,869.6,359.5,869.1z"/>
	<path class="st0" d="M380.4,869.2V832l5.8-0.6v37.7H380.4z"/>
	<path class="st0" d="M414.2,845.3v0.3l-8.3,24.1c-0.8,2.4-1.7,4.4-2.8,5.9c-1,1.5-2.2,2.6-3.5,3.3c-1.3,0.7-2.9,1-4.8,1
		c-1.6,0-3.3-0.3-5-0.9l1.5-4.3c1,0.3,2,0.5,3,0.5c0.9,0,1.6-0.1,2.3-0.4s1.3-0.8,1.9-1.5c0.6-0.8,1.2-1.9,1.8-3.4l0.3-0.8h-1.6
		l-9.1-23.6v-0.3h6.2l5,14.2c0.6,1.6,1,3,1.4,4.3c0.6-2.1,1-3.5,1.2-4.3l4.5-14.2H414.2z"/>
	<path class="st0" d="M448.4,834.2l12.9,34.6v0.4h-6.5l-3.3-9.3h-14l-3.2,9.3H428v-0.4l12.9-34.6H448.4z M439.2,854.9h10.5l-5.3-15
		L439.2,854.9z"/>
	<path class="st0" d="M465.7,869.2V832l5.8-0.6v37.7H465.7z"/>
	<path class="st0" d="M508.9,834.2l12.9,34.6v0.4h-6.5l-3.3-9.3h-14l-3.2,9.3h-6.3v-0.4l12.9-34.6H508.9z M499.7,854.9h10.5l-5.3-15
		L499.7,854.9z"/>
	<path class="st0" d="M526.2,869.2V832l5.8-0.6v37.7H526.2z"/>
	<path class="st0" d="M555.9,846.4c1.5,1.3,2.2,3.3,2.2,6v16.7h-5.1l-0.4-2c-1.3,1-2.7,1.7-4.1,2.1c-1.4,0.4-2.8,0.6-4.3,0.6
		c-1.4,0-2.7-0.3-3.8-0.8c-1.1-0.5-2-1.3-2.6-2.3c-0.6-1-0.9-2.1-0.9-3.4c0-1.9,0.7-3.6,2.1-4.9c1.4-1.3,3.2-2.3,5.5-2.9
		c2.3-0.6,4.9-1,7.8-1.1v-0.9c0-1.5-0.3-2.7-0.9-3.3c-0.6-0.7-1.6-1-3-1c-2.5,0-5.1,0.9-8,2.8l-2.4-3.7c1.7-1.2,3.5-2.1,5.3-2.8
		s3.8-0.9,5.9-0.9C552.3,844.5,554.5,845.2,555.9,846.4z M543.8,864.7c0.5,0.5,1.3,0.7,2.3,0.7c2,0,4.1-0.6,6.2-1.8v-5.2
		c-2.9,0.1-5.2,0.6-6.8,1.3c-1.6,0.7-2.5,1.8-2.5,3.1C543,863.6,543.3,864.2,543.8,864.7z"/>
	<path class="st0" d="M598.6,846.3c1.2,1.2,1.8,3.1,1.8,5.5v17.3h-5.8v-15.3c0-1.2-0.1-2.1-0.3-2.8c-0.2-0.7-0.6-1.1-1-1.4
		s-1.1-0.4-1.9-0.4c-1.8,0-3.7,0.5-5.7,1.6c0,0.2,0.1,0.6,0.1,1v17.3h-5.8v-15.3c0-1.2-0.1-2.1-0.3-2.8c-0.2-0.7-0.6-1.1-1-1.4
		c-0.5-0.3-1.1-0.4-1.9-0.4c-0.9,0-1.8,0.1-2.8,0.4c-1,0.3-1.9,0.7-2.9,1.2v18.4H565v-23.9l5.8-0.6v2.1c2.7-1.5,5.3-2.3,7.9-2.3
		c2.7,0,4.6,0.9,5.7,2.7c1.4-0.8,2.8-1.4,4.4-1.9c1.5-0.5,3.1-0.8,4.7-0.8C595.7,844.5,597.4,845.1,598.6,846.3z"/>
	<path class="st0" d="M608.1,840.4c-0.6-0.3-1.1-0.8-1.4-1.4c-0.4-0.6-0.5-1.2-0.5-1.9c0-0.7,0.2-1.3,0.5-1.9
		c0.4-0.6,0.8-1.1,1.4-1.4c0.6-0.4,1.2-0.5,1.9-0.5c0.7,0,1.4,0.2,2,0.5c0.6,0.4,1.1,0.8,1.5,1.4c0.4,0.6,0.5,1.2,0.5,1.9
		c0,0.7-0.2,1.3-0.5,1.9c-0.4,0.6-0.8,1.1-1.5,1.4c-0.6,0.3-1.3,0.5-2,0.5C609.4,841,608.7,840.8,608.1,840.4z M607.2,869.2v-23.9
		l5.8-0.6v24.5H607.2z"/>
	<path class="st0" d="M641,845.3v0.3l-8.3,24.1c-0.8,2.4-1.7,4.4-2.8,5.9c-1,1.5-2.2,2.6-3.5,3.3s-2.9,1-4.8,1c-1.6,0-3.3-0.3-5-0.9
		l1.5-4.3c1,0.3,2,0.5,3,0.5c0.9,0,1.6-0.1,2.3-0.4c0.6-0.3,1.3-0.8,1.9-1.5s1.2-1.9,1.8-3.4l0.3-0.8h-1.6l-9.1-23.6v-0.3h6.2
		l5,14.2c0.6,1.6,1,3,1.4,4.3c0.6-2.1,1-3.5,1.2-4.3l4.5-14.2H641z"/>
	<path class="st0" d="M661.8,846.4c1.5,1.3,2.2,3.3,2.2,6v16.7h-5.1l-0.4-2c-1.3,1-2.7,1.7-4.1,2.1c-1.4,0.4-2.8,0.6-4.3,0.6
		c-1.4,0-2.7-0.3-3.8-0.8c-1.1-0.5-2-1.3-2.6-2.3c-0.6-1-0.9-2.1-0.9-3.4c0-1.9,0.7-3.6,2.1-4.9s3.2-2.3,5.5-2.9
		c2.3-0.6,4.9-1,7.8-1.1v-0.9c0-1.5-0.3-2.7-0.9-3.3c-0.6-0.7-1.6-1-3-1c-2.5,0-5.1,0.9-8,2.8l-2.4-3.7c1.7-1.2,3.5-2.1,5.3-2.8
		s3.8-0.9,5.9-0.9C658.1,844.5,660.3,845.2,661.8,846.4z M649.7,864.7c0.5,0.5,1.3,0.7,2.3,0.7c2,0,4.1-0.6,6.2-1.8v-5.2
		c-2.9,0.1-5.2,0.6-6.8,1.3c-1.6,0.7-2.5,1.8-2.5,3.1C648.9,863.6,649.1,864.2,649.7,864.7z"/>
	<path class="st0" d="M684,869.2v-35h6.2v35H684z"/>
	<path class="st0" d="M717.6,846.3c1.3,1.2,1.9,3.1,1.9,5.6v17.2h-5.8v-15.3c0-1.2-0.1-2.1-0.4-2.8c-0.2-0.7-0.6-1.1-1.2-1.4
		c-0.6-0.3-1.3-0.4-2.3-0.4c-1.8,0-3.9,0.6-6.1,1.7v18.3H698v-23.9l5.8-0.6v2.3c2.9-1.7,5.7-2.5,8.4-2.5
		C714.6,844.5,716.4,845.1,717.6,846.3z"/>
	<path class="st0" d="M728.6,869.1c-1.7-0.5-3.4-1.3-4.9-2.4l2.5-3.9c2.6,1.8,5.3,2.8,8.2,2.8c1.4,0,2.5-0.2,3.2-0.7
		c0.7-0.5,1.1-1.1,1.1-2c0-0.5-0.1-0.9-0.4-1.3c-0.3-0.4-0.8-0.7-1.5-1.1c-0.7-0.4-1.8-0.7-3.1-1.1l-1.6-0.4
		c-2.6-0.7-4.4-1.6-5.6-2.7c-1.2-1.1-1.7-2.6-1.7-4.4c0-1.4,0.4-2.6,1.2-3.7s1.9-1.9,3.3-2.5c1.4-0.6,3-0.9,4.8-0.9
		c3.4,0,6.6,0.9,9.6,2.6l-2.3,3.9c-1.5-0.8-2.8-1.3-3.9-1.6c-1.1-0.3-2.2-0.4-3.4-0.4c-1.1,0-2,0.2-2.6,0.6c-0.6,0.4-0.9,1-0.9,1.7
		c0,0.4,0.1,0.8,0.3,1.1s0.6,0.6,1.1,0.8c0.5,0.2,1.3,0.5,2.3,0.7l1.7,0.4c2.9,0.8,5.1,1.8,6.4,3.1s2,2.8,2,4.8
		c0,1.5-0.4,2.8-1.1,3.9c-0.8,1.2-1.9,2.1-3.4,2.7s-3.3,1-5.5,1C732.3,869.9,730.4,869.6,728.6,869.1z"/>
	<path class="st0" d="M770.7,844.7v24.5h-5.1l-0.4-1.8c-2.8,1.7-5.6,2.5-8.5,2.5c-2.3,0-4.1-0.6-5.4-1.9c-1.4-1.3-2-3.1-2-5.6v-17.1
		l5.8-0.6v15.9c0,1.1,0.1,1.9,0.4,2.6c0.2,0.6,0.6,1.1,1.2,1.4c0.6,0.3,1.4,0.5,2.4,0.5c1.6,0,3.5-0.6,5.8-1.8v-18L770.7,844.7z"/>
	<path class="st0" d="M793.6,845l-1,5.9c-0.6-0.2-1.1-0.4-1.6-0.5c-0.5-0.1-1.1-0.2-1.7-0.2c-1,0-2,0.2-2.9,0.7
		c-0.9,0.5-1.8,1.4-2.7,2.6v15.6h-5.8v-23.9l5.8-0.5v3.4c0.9-1.2,1.9-2.1,3.1-2.7c1.2-0.6,2.4-0.9,3.8-0.9
		C791.5,844.5,792.5,844.7,793.6,845z"/>
	<path class="st0" d="M814.7,846.4c1.5,1.3,2.2,3.3,2.2,6v16.7h-5.1l-0.4-2c-1.3,1-2.7,1.7-4.1,2.1c-1.4,0.4-2.8,0.6-4.3,0.6
		c-1.4,0-2.7-0.3-3.8-0.8c-1.1-0.5-2-1.3-2.6-2.3c-0.6-1-0.9-2.1-0.9-3.4c0-1.9,0.7-3.6,2.1-4.9s3.2-2.3,5.5-2.9
		c2.3-0.6,4.9-1,7.8-1.1v-0.9c0-1.5-0.3-2.7-0.9-3.3c-0.6-0.7-1.6-1-3-1c-2.5,0-5.1,0.9-8,2.8l-2.4-3.7c1.7-1.2,3.5-2.1,5.3-2.8
		s3.8-0.9,5.9-0.9C811,844.5,813.2,845.2,814.7,846.4z M802.6,864.7c0.5,0.5,1.3,0.7,2.3,0.7c2,0,4.1-0.6,6.2-1.8v-5.2
		c-2.9,0.1-5.2,0.6-6.8,1.3c-1.6,0.7-2.5,1.8-2.5,3.1C801.8,863.6,802.1,864.2,802.6,864.7z"/>
	<path class="st0" d="M843.5,846.3c1.3,1.2,1.9,3.1,1.9,5.6v17.2h-5.8v-15.3c0-1.2-0.1-2.1-0.4-2.8c-0.2-0.7-0.6-1.1-1.2-1.4
		c-0.6-0.3-1.3-0.4-2.3-0.4c-1.8,0-3.9,0.6-6.1,1.7v18.3h-5.8v-23.9l5.8-0.6v2.3c2.9-1.7,5.7-2.5,8.4-2.5
		C840.4,844.5,842.2,845.1,843.5,846.3z"/>
	<path class="st0" d="M853.7,867.1c-2.1-1.9-3.2-5-3.2-9.3c0-3,0.6-5.5,1.8-7.5c1.2-2,2.7-3.5,4.6-4.4c1.9-0.9,3.9-1.4,5.9-1.4
		c1.3,0,2.6,0.2,3.8,0.5c1.2,0.3,2.6,0.9,4,1.6l-2.1,4.1c-1.2-0.6-2.2-1-3.1-1.2c-0.9-0.2-1.7-0.4-2.6-0.4c-1.9,0-3.5,0.7-4.6,2.2
		s-1.7,3.6-1.7,6.3c0,4.9,2.1,7.3,6.2,7.3c1.1,0,2.2-0.2,3.1-0.5c1-0.4,2-0.9,3.1-1.5l2.2,3.9c-1.4,0.9-2.8,1.6-4.3,2.1
		c-1.5,0.5-3.1,0.8-4.8,0.8C858.6,869.9,855.9,869,853.7,867.1z"/>
	<path class="st0" d="M895.7,858.4h-16.1c0.1,2.4,0.8,4.1,2,5.2c1.2,1.1,2.7,1.7,4.5,1.7c1.3,0,2.5-0.2,3.5-0.5
		c1-0.3,2.2-0.9,3.6-1.6l2.1,3.8c-1.3,0.9-2.7,1.6-4.3,2.2c-1.6,0.5-3.3,0.8-5.2,0.8c-2.3,0-4.3-0.4-6.1-1.2c-1.8-0.8-3.2-2.2-4.2-4
		c-1-1.8-1.6-4.2-1.6-7.1c0-2.5,0.5-4.8,1.3-6.7s2.2-3.5,4-4.6c1.8-1.1,3.9-1.7,6.4-1.7c2.2,0,4.1,0.4,5.7,1.3
		c1.5,0.9,2.7,2.1,3.5,3.7c0.8,1.6,1.2,3.3,1.2,5.3C895.8,855.9,895.8,857.1,895.7,858.4z M881.7,850.2c-0.9,1-1.5,2.4-1.8,4.2H890
		v-0.2c0-1.9-0.4-3.2-1.2-4.1c-0.8-0.9-1.9-1.3-3.4-1.3C883.8,848.7,882.6,849.2,881.7,850.2z"/>
</g>
</svg>
