<?xml version="1.0" encoding="utf-8"?>
<!-- Generator: Adobe Illustrator 26.0.0, SVG Export Plug-In . SVG Version: 6.00 Build 0)  -->
<svg version="1.1" id="Layer_1" xmlns="http://www.w3.org/2000/svg" xmlns:xlink="http://www.w3.org/1999/xlink" x="0px" y="0px"
	 viewBox="0 0 841.9 283.5" style="enable-background:new 0 0 841.9 283.5;" xml:space="preserve">
<style type="text/css">
	.st0{fill:#10426C;}
	.st1{fill:#00A5DF;}
	.st2{fill:#FFFFFF;}
	.st3{fill:#59585A;}
</style>
<g>
	<g>
		<path class="st0" d="M724.2,193.8v-0.4l-12.6-21.1l-9.9-6.5l-3.4-13l-2.7-10.2l-6.5-4.1l-2-3.5c-0.2-0.2-0.4-0.3-0.6-0.5
			c-0.1-0.1-0.2-0.2-0.2-0.2c0,0,0,0,0-0.1c-1.8-2.2-2.5-3.4-2.3-4.3c0.1-0.8,0.2-3.3,0-4.9c-0.2-1-3.4-4.7-5.9-8
			c-2.9,8-4.4,16.6-4.4,25.6c0,34.8,23.1,64.2,54.8,73.6l-4.1-9.2V193.8z"/>
		<path class="st1" d="M817.3,173c-3.7,4.6-7.4,7.8-9.2,8.5c-2.7,1-12.3,3.4-14,5.1c-1.7,1.7-2.7,5.1-4.4,7.2
			c-1.7,2-18.7,10.9-24.2,12.6c-5.5,1.7-18.4,4.8-20.1,5.8c-1,0.6-5.2,3.7-8.5,6.1c4.3,0.8,8.8,1.2,13.4,1.2
			c36.4,0,66.9-25.3,74.8-59.3c-0.8,1.7-1.6,3.2-2.4,4.6C821.1,167.8,819.2,170.6,817.3,173z"/>
		<path class="st1" d="M734.1,89.3l15,6.8c0,0,1.8-0.8,3.9-1.7c2.6,6.1,4.9,11.1,6,13.1c4.1,6.8,14,20.8,14,20.8s6.1-1,6.8,0
			c0.7,1,2.4,7.8,4.1,8.5c1,0.4,7.1-0.6,11.5-1.5c2.7-0.5,4.8-1,4.8-1s8.5-10.4,9.5-9.4c1,1,3.8,2.7,3.8,2.7l13.2,7.6
			c-3.8-38.9-36.5-69.4-76.4-69.4c-11.9,0-23.1,2.7-33.2,7.5c8.4,4.3,17.1,8.9,17.1,8.9L734.1,89.3z"/>
		<path class="st2" d="M826.7,135.2l-13.2-7.6c0,0-2.7-1.7-3.8-2.7c-1-1-9.5,9.4-9.5,9.4s-2.1,0.5-4.8,1c-4.4,0.9-10.5,2-11.5,1.5
			c-1.7-0.7-3.4-7.5-4.1-8.5c-0.7-1-6.8,0-6.8,0s-9.9-14-14-20.8c-1.2-2-3.4-7-6-13.1c-2.1,0.8-3.9,1.7-3.9,1.7l-15-6.8l0.1-6.9
			c0,0-8.7-4.6-17.1-8.9c-2.7,1.3-5.3,2.7-7.7,4.3c-11.8,7.5-21.4,18-27.7,30.6c-1.4,2.8-2.7,5.8-3.7,8.8c2.5,3.3,5.8,7,5.9,8
			c0.3,1.5,0.2,4,0,4.9c-0.1,0.8,0.6,2.1,2.3,4.3c0,0,0,0,0,0.1c0.1,0.1,0.2,0.2,0.2,0.2c0.2,0.2,0.4,0.4,0.6,0.5l2,3.5l6.5,4.1
			l2.7,10.2l3.4,13l9.9,6.5l12.6,21.1v0.4v13.2l4.1,9.2c2.8,0.8,5.6,1.5,8.5,2c3.3-2.4,7.5-5.5,8.5-6.1c1.7-1,14.7-4.1,20.1-5.8
			c5.5-1.7,22.5-10.6,24.2-12.6c1.7-2,2.7-5.5,4.4-7.2c1.7-1.7,11.3-4.1,14-5.1c1.8-0.7,5.5-3.9,9.2-8.5c1.9-2.4,3.8-5.2,5.4-8.2
			c0.8-1.4,1.5-2.9,2.4-4.6c1.3-5.6,2-11.5,2-17.5C827.1,140.1,827,137.7,826.7,135.2z"/>
	</g>
	<rect x="650.1" y="65.8" class="st1" width="3.9" height="153.6"/>
	<g>
		<g>
			<g>
				<path class="st3" d="M24.5,210.8l-2.6,8.6h-8.4l13.9-37.7l6.9,0l13.4,37.7h-8.6l-2.7-8.6H24.5z M26,204.6h9.1l-4.5-14.1h-0.1
					L26,204.6z"/>
				<path class="st3" d="M63.5,212.4h16.6v7H55.1l0-37.4h8.4L63.5,212.4z"/>
				<path class="st3" d="M103,219.4c-2.5,0-4.5-0.3-6.1-0.7l0.8-6.6c1,0.1,1.9,0.3,3,0.3c2,0,3-1.4,3-3.6l0-27.5h8.5l0,27.8
					C112.2,216.3,109.1,219.4,103,219.4z"/>
				<path class="st3" d="M135.3,210.8l-2.6,8.6h-8.3l13.9-37.7h6.9l13.4,37.7H150l-2.7-8.6H135.3z M136.8,204.6h9.1l-4.5-14.1h-0.1
					L136.8,204.6z"/>
				<path class="st3" d="M192.7,212.4v7h-28.5v-5.6l17.1-24.9h-16v-7H192v5.7l-17.1,24.7v0.1H192.7z"/>
				<path class="st3" d="M211.1,182h8.5l0,37.4h-8.5L211.1,182z"/>
				<path class="st3" d="M267.6,219.4h-9.5l-7-13.3h-5.6v13.3H237l0-37.4h16.2c7.8,0,13.1,4.6,13.1,12.1c0,5.4-2.6,9.1-6.9,10.8
					L267.6,219.4z M257.8,194c0-3.6-2.5-5.1-5.3-5.1h-7v10.1h6.9C255.4,199.1,257.8,197.6,257.8,194z"/>
				<path class="st3" d="M283,210.8l-2.6,8.6h-8.4l13.9-37.7h6.9l13.4,37.7h-8.6l-2.7-8.6H283z M284.5,204.6h9.1l-4.5-14.1H289
					L284.5,204.6z"/>
			</g>
			<g>
				<path class="st3" d="M361.7,189l0,30.5h-8.5l0-30.5h-10.1v-7h28.6v7H361.7z"/>
				<path class="st3" d="M394.2,210.9l-2.6,8.6h-8.4l13.9-37.7h6.9l13.5,37.7l-8.6,0l-2.7-8.6H394.2z M395.6,204.6h9.1l-4.5-14.1
					h-0.1L395.6,204.6z"/>
				<path class="st3" d="M426.9,219.5V182h8.5l0,37.5H426.9z M459.2,182l-14,18l14.4,19.5h-10.9l-13.3-19.1l13.6-18.4H459.2z"/>
				<path class="st3" d="M479.9,210.9l-2.6,8.6H469l13.9-37.7h6.9l13.5,37.7h-8.6l-2.7-8.6H479.9z M481.4,204.6h9.1l-4.5-14.1h-0.1
					L481.4,204.6z"/>
				<path class="st3" d="M525.1,189v8.8H539v7h-13.8v14.8h-8.5V182h24.8v7H525.1z"/>
				<path class="st3" d="M572,212.5c5.8,0,6.8-3.9,6.8-7.2v-23.8h8.5v23.8c0,9.7-6.2,14.2-15.3,14.2c-9.2,0-15.3-4.5-15.3-14.2
					v-23.8h8.5v23.8C565.1,208.6,566.2,212.5,572,212.5z"/>
				<path class="st3" d="M610.8,212.5h16.7v7h-25.1V182h8.5V212.5z"/>
			</g>
		</g>
		<g>
			<g>
				<path class="st3" d="M148.2,77.9c1.6,0,3-0.5,4.1-1.6c1.1-1.1,1.7-2.5,1.7-4.1c0-1.6-0.6-3-1.7-4.1c-1.1-1.1-2.5-1.7-4.1-1.7
					c-1.7,0-3,0.6-4.1,1.7c-1.1,1.1-1.6,2.5-1.6,4.1c0,1.6,0.5,3,1.6,4.1C145.2,77.4,146.6,77.9,148.2,77.9z"/>
				<path class="st3" d="M300.5,77.9c0.8,0,1.6-0.1,2.3-0.4c0.7-0.3,1.3-0.7,1.8-1.2c0.5-0.5,0.9-1.1,1.2-1.8
					c0.3-0.7,0.5-1.4,0.5-2.2c0-0.8-0.2-1.6-0.5-2.3c-0.3-0.7-0.7-1.3-1.2-1.8c-0.5-0.5-1.2-0.9-1.8-1.2c-0.7-0.3-1.5-0.5-2.3-0.5
					c-1.6,0-3,0.6-4.1,1.7c-1.1,1.1-1.6,2.5-1.6,4.1c0,1.6,0.5,3,1.6,4.1C297.6,77.4,298.9,77.9,300.5,77.9z"/>
				<path class="st3" d="M306.3,130.6V95.5h-10.5v30.4h-26v-9.6c0-3-0.1-7.5-0.5-9.6c-0.3-2.1-0.8-3.8-1.6-5.2
					c-0.7-1.4-1.7-2.5-2.9-3.3c-1.2-0.8-2.6-1.4-4.4-1.8c-1.8-0.4-3.8-0.6-6.2-0.7c-2.3-0.1-5.1-0.1-8.1-0.1h-25
					c1.8-3.3,4.1-4.3,6.9-6.8c2.8-2.5,5.8-4.5,9.2-6.2c3.3-1.7,6.8-2.9,10.4-3.7c3.6-0.8,7.1-1.2,10.5-1.2c0.1-1.9,0.1-3.6,0.2-5.2
					c0.1-1.6,0.1-3.4,0.2-5.3h-1c-4.4,0-8.9,0.5-13.4,1.6c-4.5,1.1-8.8,2.7-12.9,4.8c-4.1,2.1-7.8,4.8-11.1,7.9
					c-3.4,3.1-6,6.8-8.1,11c-1.2,2.4-1.8,2.8-1.8,5.1c0,1.2,0.2,2.3,0.5,3.3c0.3,1,0.9,1.9,1.6,2.7c0.7,0.8,1.6,1.4,2.7,1.8
					c1.1,0.5,2.4,0.7,3.9,0.7c5.2,0,10.5,0,15.7,0.1c5.2,0,10.4,0.1,15.7,0.1c2,0,3.7,0.1,4.8,0.2c1.2,0.2,2.1,0.6,2.7,1.2
					c0.6,0.7,1,1.7,1.1,3.1c0.2,1.4,0.2,5.3,0.2,7.7v7.5l-69.3,0l0-60l-10.5,0l0,64.8c0,0.2-0.1,0.3-0.1,0.5c0,1.5,0.5,2.7,1.6,3.7
					c1,1,2.3,1.5,3.7,1.5l116.4,0c1.5,0,2.7-0.5,3.8-1.5c1-1,1.5-2.3,1.5-3.7C306.4,130.9,306.3,130.8,306.3,130.6z"/>
				<path class="st3" d="M286.4,77.9c1.6,0,3-0.5,4.1-1.6c1.1-1.1,1.6-2.5,1.6-4.1c0-1.6-0.6-3-1.6-4.1c-1.1-1.1-2.5-1.7-4.1-1.7
					c-1.6,0-3,0.6-4.1,1.7c-1.1,1.1-1.6,2.5-1.6,4.1c0,1.6,0.5,3,1.6,4.1C283.4,77.4,284.7,77.9,286.4,77.9z"/>
				<path class="st3" d="M167.7,102.6c0-1-0.2-2-0.6-2.8c-0.4-0.9-0.9-1.6-1.5-2.3c-0.7-0.7-1.4-1.1-2.2-1.5
					c-0.8-0.4-1.7-0.5-2.7-0.5l-16.1,0c-3.2,0-6.2,0.6-9,1.8c-2.8,1.2-5.2,2.9-7.3,5c-2.1,2.1-3.7,4.6-5,7.4c-1.2,2.8-1.8,5.8-1.8,9
					l0,7.2l-41.7,0l0-60H69.2l0,67.8v0.4c0,1.7-0.3,3.3-1,4.9c-0.7,1.5-1.6,2.9-2.8,4.1c-1.1,1.2-2.5,2.1-4.1,2.7
					c-1.6,0.7-3.2,1-4.9,1H36.9c-1.8,0-3.4-0.3-4.9-1c-1.5-0.7-2.9-1.6-4.1-2.8c-1.2-1.1-2.1-2.5-2.7-4c-0.7-1.6-1-3.2-1-4.9l0-3.8
					H13.6l0,3.8c0,3.2,0.6,6.2,1.8,9.1c1.2,2.8,2.9,5.3,5,7.4c2.1,2.1,4.6,3.8,7.4,5c2.8,1.2,5.9,1.8,9.1,1.8h19.6
					c3.2,0,6.2-0.6,9.1-1.8c2.8-1.2,5.3-2.9,7.4-5c2.1-2.1,3.8-4.6,5-7.4c0.9-2.1,1.5-4.3,1.7-6.7h0.1l82.7,0c1.4,0,2.7-0.5,3.7-1.5
					c0.8-0.8,1.3-1.8,1.5-2.9c0-0.1,0.1-0.3,0.1-0.6v-0.2v0L167.7,102.6z M157.2,125.4l-25.1-0.1l0-6.6c0-1.7,0.3-3.3,0.9-4.8
					c0.7-1.5,1.6-2.9,2.7-4c1.1-1.1,2.5-2.1,4-2.8c1.5-0.7,3.1-1,4.9-1l12.6,0.1L157.2,125.4z"/>
			</g>
			<g>
				<g>
					<path class="st3" d="M393.8,99.7c-0.4-0.9-0.9-1.6-1.5-2.2c-0.7-0.6-1.4-1.1-2.2-1.5c-0.8-0.4-1.7-0.5-2.7-0.5h-21.1
						c-3.2,0-6.2,0.6-9,1.8c-2.8,1.2-5.2,2.8-7.3,4.9c-2.1,2.1-3.7,4.5-4.9,7.3c-1.2,2.8-1.8,5.7-1.8,8.9v10.8
						c0,1.4,0.4,2.5,1.3,3.3c0.9,0.8,2,1.4,3.3,1.9c1.3,0.4,2.8,0.8,4.3,1c1.6,0.2,3,0.5,4.4,0.7h-0.1c1.7,0.2,3.3,0.4,4.9,0.5
						c1.6,0.1,3.3,0.2,5,0.2c3.2,0,11.5-0.2,14.7-0.6c3.2-0.4,6.3-1,9.2-1.8l0.1,0c1.2-0.2,2.2-0.8,3-1.8c0.8-1,1.2-2.1,1.2-3.3
						l0-26.6C394.3,101.5,394.2,100.6,393.8,99.7z M383.8,124.9c-2.1,0.4-4.2,0.7-6.3,0.9c-2.1,0.2-9.2,0.3-11.3,0.3h-0.6
						c-0.9,0-1.8,0-2.6,0c-0.8,0-1.7-0.1-2.6-0.1c-0.9-0.1-1.9-0.2-3-0.4c-1.1-0.2-2.3-0.4-3.7-0.7l-0.1-6.5c0-1.6,0.3-3.2,1-4.7
						c0.6-1.5,1.6-2.8,2.7-4c1.1-1.1,2.5-2,4-2.7c1.5-0.7,3.2-1,4.9-1l17.6,0.1L383.8,124.9z"/>
					<rect x="617" y="65.8" class="st3" width="10.4" height="70.5"/>
					<path class="st3" d="M364.4,77.9c1.7,0,3-0.5,4.1-1.6c1.1-1.1,1.7-2.5,1.7-4.1c0-1.6-0.5-3-1.7-4.1c-1.1-1.1-2.5-1.7-4.1-1.7
						c-1.6,0-3,0.6-4.1,1.7c-1.1,1.1-1.7,2.5-1.7,4.1c0,1.6,0.6,3,1.7,4.1C361.4,77.4,362.8,77.9,364.4,77.9z"/>
					<path class="st3" d="M378.6,77.9c0.8,0,1.6-0.1,2.3-0.4c0.7-0.3,1.3-0.7,1.8-1.2c0.5-0.5,0.9-1.1,1.2-1.8
						c0.3-0.7,0.4-1.4,0.4-2.2c0-0.8-0.2-1.6-0.4-2.3c-0.3-0.7-0.7-1.3-1.2-1.8c-0.5-0.5-1.1-0.9-1.8-1.2c-0.7-0.3-1.5-0.5-2.3-0.5
						c-1.6,0-3,0.6-4,1.7c-1.1,1.1-1.6,2.5-1.6,4.1c0,1.6,0.6,3,1.6,4.1C375.6,77.4,377,77.9,378.6,77.9z"/>
					<path class="st3" d="M435.2,145.7c-1.6,0-3,0.6-4.1,1.7c-1.1,1.1-1.6,2.5-1.6,4.1c0,1.7,0.6,3,1.6,4.1c1.1,1.1,2.5,1.6,4.1,1.6
						c1.7,0,3-0.6,4.1-1.6c1.1-1.1,1.7-2.5,1.7-4.1c0-1.6-0.6-3-1.7-4.1C438.2,146.3,436.9,145.7,435.2,145.7z"/>
					<path class="st3" d="M451.4,145.7c-1.6,0-3,0.6-4.1,1.7c-1.1,1.1-1.7,2.5-1.7,4.1c0,1.7,0.6,3,1.7,4.1c1.1,1.1,2.5,1.6,4.1,1.6
						c1.6,0,3-0.6,4.1-1.6c1.1-1.1,1.6-2.5,1.6-4.1c0-1.6-0.6-3-1.6-4.1C454.4,146.3,453,145.7,451.4,145.7z"/>
					<path class="st3" d="M492.7,77.9c1.6,0,3-0.6,4.1-1.7c1.1-1.1,1.6-2.5,1.6-4.1c0-0.8-0.1-1.6-0.4-2.3c-0.3-0.7-0.7-1.3-1.2-1.8
						c-0.5-0.5-1.1-0.9-1.8-1.3c-0.7-0.3-1.4-0.4-2.3-0.4c-0.8,0-1.6,0.2-2.3,0.4c-0.7,0.3-1.3,0.7-1.8,1.3
						c-0.5,0.5-0.9,1.1-1.2,1.8c-0.3,0.7-0.5,1.5-0.5,2.3c0,1.6,0.6,3,1.7,4.1C489.7,77.4,491.1,77.9,492.7,77.9z"/>
					<path class="st3" d="M533.7,145.7c-1.6,0-3,0.6-4.1,1.7c-1.1,1.1-1.6,2.5-1.6,4.1c0,1.7,0.5,3,1.6,4.1c1.1,1.1,2.5,1.6,4.1,1.6
						c1.6,0,3-0.6,4.1-1.6c1.1-1.1,1.7-2.5,1.7-4.1c0-1.6-0.6-3-1.7-4.1C536.7,146.3,535.4,145.7,533.7,145.7z"/>
					<path class="st3" d="M475.1,130.6l0-35.1h-10.5l0,30.4l-43,0c0.1-0.6,0.1-1.3,0.1-2.1c0-0.8,0-1.5,0-2.3c0-0.8,0-1.6,0.1-2.3
						c0-0.8,0-1.4,0-2.1c0-0.4,0-1.2,0-2.3c0-1.1-0.1-2.4-0.1-3.9c-0.1-1.5-0.1-3.1-0.2-4.7c0-1.7-0.1-3.3-0.1-4.7
						c-0.1-1.4-0.1-2.7-0.1-3.8c0-1.1,0-1.8,0-2.1l-10.5,0c0,1.3,0,2.6,0.1,4.1c0,1.4,0.1,2.9,0.2,4.3c0.1,2,0.2,4.1,0.2,6.2
						c0,2.1,0,4.3,0,6.4c0,3-0.1,6.1-0.2,9.1c-0.2,3-0.5,6-1.1,8.8c-0.6,2.8-1.3,5.5-2.3,8c-1,2.5-2.3,4.7-4,6.6
						c-0.2,0.3-0.5,0.5-0.7,0.8l7.5,7.5c0,0,0.1-0.1,0.1-0.1c2.5-2.7,4.6-5.8,6.1-9.3c1.6-3.5,2.8-7.4,3.7-11.4l49.6,0
						c0.8,0,1.5-0.2,2.1-0.4c0.6-0.3,1.2-0.6,1.7-1.1c0.5-0.5,0.9-1,1.1-1.7c0.3-0.6,0.4-1.3,0.4-2.1
						C475.1,130.9,475.1,130.8,475.1,130.6z"/>
				</g>
				<path class="st3" d="M601.4,130.6V65.8l-10.5,0v60l-17,0h-0.6h-9.1h0c-0.2-4.9-1-7.3-2.2-10.8c-1.3-3.6-3-6.7-5.1-9.1
					c-2.1-2.4-4.5-4.3-7.2-5.6c-2.7-1.4-5.5-2.4-8.5-3.1c-3-0.7-6-1.1-9-1.3c-3.1-0.2-6-0.3-8.8-0.4c-1.2,0-2.2-0.1-3-0.1
					c-0.8,0-1.7-0.1-2.8-0.1l0,9.1c0.5,0,0.3,0.1,0.9,0c0.6,0,1.3,0,1.9,0c2.1,0,4.3,0.1,6.7,0.1c2.4,0.1,4.8,0.4,7.2,0.9
					c2.4,0.5,4.7,1.2,6.9,2.2c2.2,1,4.2,2.4,6,4.1c1.8,1.8,3.2,4,4.4,6.7c1.1,2.6,1.8,4,2,7.4l-54.5,0c0-0.6,0.1-1.3,0.1-2.1
					c0-0.8,0-1.5,0-2.3c0-0.8,0-1.6,0.1-2.3c0-0.8,0-1.4,0-2.1c0-0.4,0-1.2,0-2.3c0-1.1-0.1-2.4-0.1-3.9c-0.1-1.5-0.1-3.1-0.2-4.7
					c0-1.7-0.1-3.3-0.1-4.7c-0.1-1.4-0.1-2.7-0.1-3.8c0-1.1,0-1.8,0-2.1l-10.5,0c0,1.3,0,2.6,0.1,4.1c0,1.4,0.1,2.9,0.2,4.3
					c0.1,2,0.1,4.1,0.2,6.2c0,2.1,0.1,4.3,0.1,6.4c0,3-0.1,6.1-0.2,9.1c-0.2,3-0.5,6-1.1,8.8c-0.5,2.8-1.3,5.5-2.3,8
					c-1,2.5-2.3,4.7-4,6.6c-0.2,0.3-0.5,0.5-0.8,0.8l7.5,7.5c0,0,0.1-0.1,0.1-0.1c2.5-2.7,4.6-5.8,6.1-9.3c1.6-3.5,2.8-7.4,3.6-11.4
					l98.6,0c1.5,0,2.7-0.5,3.7-1.5c1-1,1.6-2.3,1.6-3.7C601.5,130.9,601.5,130.8,601.4,130.6z"/>
			</g>
		</g>
	</g>
</g>
</svg>
