<svg id="Layer_1" data-name="Layer 1" xmlns="http://www.w3.org/2000/svg" viewBox="0 0 518.69 69.76"><defs><style>.cls-1{fill:#065b6d;}.cls-2{fill:#595a5c;}.cls-3{fill:#eb2030;}.cls-4,.cls-5{fill:#002f87;}.cls-4{fill-rule:evenodd;}.cls-6{fill:#77ccd8;}</style></defs><polygon class="cls-1" points="488.79 0 518.69 17.27 518.69 51.79 488.79 69.05 458.88 51.79 458.88 17.27 488.79 0"/><rect class="cls-2" x="388.39" y="42.68" width="2.08" height="1.5"/><path class="cls-2" d="M404,77.92h-2.42c-.62,0-1.13,0-1.13-.61,0-.41.35-.65.79-.65H404v1.26m0-2.6h-2.82c-1.84,0-2.86.71-2.86,2.05s1.13,2,2.56,2h5.21V75.62c0-1.88-.65-2.91-3.25-2.91h-4v1.42h3.52c1.21,0,1.6.22,1.6,1.19" transform="translate(-38.29 -27.61)"/><path class="cls-2" d="M410.07,72.71V77c0,.65.31.91,1.08.91h1.9V72.71h2.09v6.62h-4.26c-2,0-2.89-.8-2.89-2.55V72.71Z" transform="translate(-38.29 -27.61)"/><path class="cls-2" d="M422.66,77.92h-1.49a1.76,1.76,0,0,1-2-1.89c0-1.18.67-1.9,2.07-1.9h1.43v3.79m0-7.63v2.42h-1.91c-2.26,0-3.68,1.27-3.68,3.23,0,2.31,1.42,3.39,3.88,3.39h3.81v-9Z" transform="translate(-38.29 -27.61)"/><path class="cls-2" d="M393.76,79.33H388V77.72h4.75c1.41,0,2-.31,2-1.09s-.4-1-1.49-1.06l-2.3,0c-2.2,0-3.23-1.22-3.23-2.58,0-1.12.83-2.67,3.48-2.67h5.26v1.6H392c-1,0-2.09-.08-2.09,1s1.06,1,1.9,1l1.8,0c2.6,0,3.46,1.17,3.46,2.72,0,1.28-.85,2.68-3.31,2.68" transform="translate(-38.29 -27.61)"/><rect class="cls-2" x="388.39" y="45.1" width="2.08" height="6.61"/><path class="cls-2" d="M459.2,77.92h-2.42c-.61,0-1.13,0-1.13-.61,0-.41.35-.64.8-.64h2.75v1.25m0-2.61h-2.83c-1.82,0-2.86.73-2.86,2.06s1.14,2,2.58,2h5.21V75.62c0-1.87-.67-2.89-3.25-2.89h-4v1.4h3.53c1.2,0,1.59.23,1.59,1.18" transform="translate(-38.29 -27.61)"/><path class="cls-2" d="M468,79.33V75.06c0-.66-.3-.93-1.06-.93H465v5.2H462.9v-6.6h4.26c2,0,2.89.79,2.89,2.55v4Z" transform="translate(-38.29 -27.61)"/><path class="cls-2" d="M438,75.69v3.64H435.8v-5A3.61,3.61,0,0,1,437,71.14a5.91,5.91,0,0,1,3.65-.85h3.45V71.9h-3.49c-1.89,0-2.56.49-2.56,1.59v.64h5.74v1.56Z" transform="translate(-38.29 -27.61)"/><path class="cls-2" d="M449.9,75.7c0-1,0-1.57-1.33-1.57h-.81v5.2h-2.08v-6.6h3.43c2.3,0,2.8.77,2.8,2.26v.71Z" transform="translate(-38.29 -27.61)"/><path class="cls-2" d="M471.67,74.64c0-1,.73-1.91,2.48-1.91h4.53v1.4h-3.86c-.84,0-1.16.12-1.16.58,0,.65.81.59,1.35.63l1.41,0c1.44,0,2.61.52,2.61,1.88,0,1.16-.73,2.09-2.83,2.09h-4.41V77.91h3.83c1.28,0,1.54-.17,1.54-.64s-.71-.54-1.3-.56l-1.75,0c-1.71,0-2.44-.94-2.44-2" transform="translate(-38.29 -27.61)"/><rect class="cls-2" x="442.34" y="45.12" width="2.09" height="6.59"/><rect class="cls-2" x="442.34" y="42.68" width="2.09" height="1.51"/><rect class="cls-3" x="295.79" y="33.52" width="148.65" height="2"/><path class="cls-2" d="M360.6,77.92h-2.41c-.62,0-1.14,0-1.14-.61,0-.41.35-.65.79-.65h2.76v1.26m0-2.6h-2.83c-1.81,0-2.84.71-2.84,2.05s1.12,2,2.56,2h5.19V75.62c0-1.88-.65-2.91-3.22-2.91h-4v1.42H359c1.21,0,1.59.22,1.59,1.19" transform="translate(-38.29 -27.61)"/><rect class="cls-2" x="305.68" y="42.69" width="2.03" height="9.02"/><rect class="cls-2" x="309.38" y="42.69" width="2.04" height="9.02"/><path class="cls-2" d="M369.34,79.33V75c0-.66-.31-.92-1.09-.92h-1.89v5.21h-2.1V72.71h4.27c2,0,2.91.8,2.91,2.55v4.07Z" transform="translate(-38.29 -27.61)"/><path class="cls-2" d="M380.38,74.65c0-1-.72-1.9-2.47-1.9h-4.52v1.4h3.85c.84,0,1.17.12,1.17.57,0,.65-.82.59-1.36.63l-1.41,0c-1.45,0-2.61.51-2.61,1.87,0,1.18.75,2.09,2.83,2.09h4.41V77.92h-3.83c-1.27,0-1.53-.17-1.53-.65s.7-.53,1.28-.54l1.76,0c1.71,0,2.43-.93,2.43-2" transform="translate(-38.29 -27.61)"/><path class="cls-2" d="M338.21,70.22a3.84,3.84,0,0,0-4.11,3.52v.45h0v5.14h2.18V75.56h3.85v3.77h2.19V73.74a3.85,3.85,0,0,0-4.1-3.52m1.92,3.8h-3.84v-.58a1.94,1.94,0,0,1,3.84,0Z" transform="translate(-38.29 -27.61)"/><rect class="cls-2" x="313.07" y="45.2" width="2.03" height="6.52"/><rect class="cls-2" x="313.07" y="42.69" width="2.03" height="1.6"/><rect class="cls-2" x="442.17" y="15.37" width="2.08" height="8.9"/><rect class="cls-2" x="432.16" y="25.32" width="2.07" height="1.51"/><rect class="cls-2" x="429.67" y="25.32" width="2.09" height="1.51"/><rect class="cls-2" x="422.52" y="15.36" width="2.07" height="1.5"/><rect class="cls-2" x="415.7" y="15.36" width="2.1" height="1.5"/><path class="cls-2" d="M459,51.75h-2.79v.15c0,1.75-.89,2.54-2.9,2.54h-1.44V53H453c.76,0,1.08-.27,1.08-.92v-7h2.09v5.18h3.11" transform="translate(-38.29 -27.61)"/><path class="cls-2" d="M457.26,50.34h3.55V45.17h2.07v5.17c0,1-.32,1.41-1.41,1.41h-3.92" transform="translate(-38.29 -27.61)"/><path class="cls-2" d="M466.89,50.41h2.44c.77,0,1.08-.25,1.08-.92V45.23h2.09v5.18h3.09c.78,0,1.08-.25,1.08-.92V43h2.09v7.43h0c0,1-.3,1.42-1.39,1.42H466.89" transform="translate(-38.29 -27.61)"/><path class="cls-2" d="M469,50.41h-2.56V43h-2.09v7.4c0,1,.32,1.42,1.41,1.42h2.57" transform="translate(-38.29 -27.61)"/><path class="cls-2" d="M480.59,42.21v-.73h1.51v-.07c0-.22-.07-.34-.26-.34h-1.2V41l.87-1.74h.61v.1l-.45,1H482c.56,0,.73.39.73,1.07v.8Z" transform="translate(-38.29 -27.61)"/><rect class="cls-2" x="354.51" y="25.29" width="2.04" height="1.47"/><rect class="cls-2" x="357.46" y="25.29" width="2.04" height="1.47"/><path class="cls-2" d="M391.4,51.82V50.44h9.82v-1c0-.41-.24-.64-.83-.64h-7.58v-.16l2.81-3.27h2.08v.17l-1.56,1.88h4.74c1.85,0,2.4.75,2.4,2v2.38Z" transform="translate(-38.29 -27.61)"/><rect class="cls-2" x="408.26" y="15.39" width="2.03" height="8.82"/><path class="cls-2" d="M404.35,51.82h3.85c2.21,0,3.6-1.24,3.6-3.14,0-2.26-1.21-3.31-3.61-3.31h-3.84v1.38h3.45a1.7,1.7,0,0,1,2,1.83c0,1.17-.65,1.86-2,1.86h-3.38Z" transform="translate(-38.29 -27.61)"/><path class="cls-2" d="M442.76,43v7.44h-2.52V45.37h-2v4.17c0,.65-.3.9-1.05.9h-.45V45.37h-2v4.17c0,.65-.3.9-1.05.9h-.45V45.37h-2v4.17c0,.65-.3.9-1.05.9h-4.44c-1.37,0-2-.69-2-1.86a1.71,1.71,0,0,1,1.95-1.83H429V45.37h-3.66c-2.4,0-3.77,1.05-3.77,3.32a3,3,0,0,0,.49,1.75h-1.91c-.24-1.48-1.43-2.59-3.79-2.59-2.65,0-3.82,1.44-3.82,3.21v.76h5.52c-.05,1-.89,1.2-1.94,1.2h-3.58v1.39h4.18c2.1,0,3.2-1,3.43-2.59h23.26c1.06,0,1.37-.44,1.37-1.4V43Zm-28.07,7.44c.07-.86.69-1.18,1.69-1.18s1.62.32,1.69,1.18Z" transform="translate(-38.29 -27.61)"/><rect class="cls-2" x="324.42" y="15.39" width="2.04" height="1.46"/><rect class="cls-2" x="336.25" y="15.39" width="2.04" height="1.46"/><rect class="cls-2" x="297.7" y="25.29" width="2.04" height="1.47"/><rect class="cls-2" x="300.65" y="25.29" width="2.03" height="1.47"/><rect class="cls-2" x="347.85" y="15.39" width="2.04" height="8.82"/><path class="cls-2" d="M382.34,43v7.44h-3.26a3.06,3.06,0,0,0,.51-1.75c0-2.35-1.51-3.4-4-3.4s-4.05,1.05-4.05,3.4a3.13,3.13,0,0,0,.5,1.75h-3.26V45.37h-2v6.8c0,.64-.3.9-1.06.9h-1.14v1.37h1.4c2,0,2.83-.78,2.83-2.48v-.14H383c1.07,0,1.38-.44,1.38-1.4V43Zm-6.78,7.44a1.87,1.87,0,1,1,2-1.87,1.76,1.76,0,0,1-2,1.87" transform="translate(-38.29 -27.61)"/><path class="cls-2" d="M339.93,50.44c.75,0,1.05-.25,1.05-.9V47.85c0-1.7.87-2.48,2.84-2.48h4.62v5.07H350c.75,0,1-.25,1-.9V45.37h2.05v5.07h.44c.74,0,1-.25,1-.9V45.37h2.05v5.07h.45c.74,0,1.05-.25,1.05-.9V45.37h2v5.07h2.57V45.37h2v5.05c0,1-.31,1.4-1.37,1.4h-17V46.75h-2.33c-.75,0-1.06.25-1.06.9v1.68c0,1.7-.86,2.49-2.81,2.49h-6.12V50.44Z" transform="translate(-38.29 -27.61)"/><path class="cls-4" d="M49.3,83,52.55,72h12.9L68.51,83H80.46L68.58,41.29a4.42,4.42,0,0,0-4.75-3.6H46.91v3.94h1.44c1.76,0,2.71.68,2.71,2a11.53,11.53,0,0,1-.88,3.68L38.29,83ZM63.83,64.65H54.25L59.34,48Z" transform="translate(-38.29 -27.61)"/><path class="cls-5" d="M94.24,83V41.15a3.17,3.17,0,0,0-3.41-3.46H80.38v3.94h.68c1.76,0,2.5.74,2.5,2.51V83Z" transform="translate(-38.29 -27.61)"/><path class="cls-5" d="M112.34,83V41.15A3.16,3.16,0,0,0,109,37.69H98.48v3.94h.69c1.76,0,2.51.74,2.51,2.51V83Z" transform="translate(-38.29 -27.61)"/><path class="cls-4" d="M130.72,83V52.49A3.16,3.16,0,0,0,127.33,49H117v3.86h.61c1.76,0,2.51.82,2.51,2.59V83Zm.21-41.15c0-3-2.25-4.89-6.11-4.89s-6.11,1.84-6.11,4.89,2.31,4.9,6.11,4.9,6.11-1.85,6.11-4.9" transform="translate(-38.29 -27.61)"/><path class="cls-4" d="M139.74,58.74a25.48,25.48,0,0,1,10.46-2.65c2.84,0,3.86,1,3.86,4v.75c-4.34.68-5.7.95-8.14,1.5a25.38,25.38,0,0,0-4,1.28c-4.28,1.7-6.32,5-6.32,10.13,0,6.45,2.78,9.56,8.56,9.56a15.39,15.39,0,0,0,5.7-1.08,19.35,19.35,0,0,0,4.55-2.93v.48a2.84,2.84,0,0,0,3.19,3.2h9.71V79.3h-.47c-1.84,0-2.51-.8-2.51-3V60.16c0-8.62-3-11.6-11.62-11.6a36.68,36.68,0,0,0-8.14.94,28.62,28.62,0,0,0-7.2,2.72Zm14.32,7.95v6.57a8.66,8.66,0,0,1-5.77,2.93c-1.9,0-2.59-1-2.59-3.46s.55-3.67,2.46-4.42a26.64,26.64,0,0,1,5.9-1.62" transform="translate(-38.29 -27.61)"/><path class="cls-4" d="M182.76,83V60a7.39,7.39,0,0,1,5.71-2.85c2.23,0,2.78.87,2.78,4.28V83h10.59V59.89c0-5.36-.4-7.06-2.11-8.89a8.27,8.27,0,0,0-6.37-2.38c-4.15,0-7.07,1.3-11,5V52.22c0-2.1-1.09-3.19-3.26-3.19h-10v3.86h.61c1.77,0,2.51.82,2.51,2.59V83Z" transform="translate(-38.29 -27.61)"/><path class="cls-5" d="M233.27,75.84h-14.8L232.58,56V49H210.45c-2.51,0-3.66,1.15-3.66,3.67v6.17h3.93v-.61c0-1.56.82-2.3,2.51-2.3h7.61L206.58,76v7h26.69Z" transform="translate(-38.29 -27.61)"/><path class="cls-4" d="M318.6,62.61c0-19.89-14.87-34.77-34.77-34.77s-34.76,14.88-34.76,34.77,14.87,34.76,34.76,34.76S318.6,82.51,318.6,62.61m-5.91,0c0,16.9-12.16,29.2-28.86,29.2S255,79.51,255,62.61s12.15-29.2,28.85-29.2,28.86,12.36,28.86,29.2m-38.3,19.48V48.14h-5.9c-2.93,0-4.08,1.09-4.08,4.08V82.09Zm18.88,0h10V52.22c0-3-1.15-4.08-4.07-4.08h-5.91Zm-4.42,0V43.73c0-3.06-1.08-4.07-4.07-4.07h-9v4.28h.54c2,0,2.45.47,2.45,2.91V82.09Z" transform="translate(-38.29 -27.61)"/><path class="cls-6" d="M554.51,44.56l-7.36-4.25c-.78.42-9.24,5.14-14.74,20.37,2.47-14.38,11.11-21.5,11.83-22l-5.92-3.42c-.65.5-5.71,4.78-9.05,18.6.84-14.05,5.66-19.68,6.18-20.26l-8.39-4.8h0l-8.4,4.8c.52.58,5.33,6.21,6.2,20.26-3.36-13.82-8.42-18.1-9.07-18.6l-5.91,3.42c.71.55,9.36,7.67,11.83,22-5.51-15.23-14-20-14.75-20.37l-7.35,4.25c.73.5,26.08,17.63,27.45,49.26v0c1.37-31.63,26.72-48.76,27.45-49.26" transform="translate(-38.29 -27.61)"/></svg>