<svg xmlns="http://www.w3.org/2000/svg" viewBox="0 0 193 41.93" xmlns:v="https://vecta.io/nano"><path d="M176.31 8.08h-1.55a1.62 1.62 0 0 1-1.27-.73l-2.27-4c-.24-.4-.05-.73.42-.73h8.89a4.84 4.84 0 0 1 3.79 2.2l8.16 14.13a4.89 4.89 0 0 1 0 4.38l-8.16 14.12a4.83 4.83 0 0 1-3.79 2.19h-17.28a4.18 4.18 0 0 1-2.83-2.19l-.89-1.54-2.28-3.94-.84-1.46-.72-1.24c-.23-.4-.05-.73.42-.73h4.55a1.62 1.62 0 0 1 1.27.73l.72 1.24.84 1.46v.09a4.18 4.18 0 0 0 2.83 2.19h11a4.83 4.83 0 0 0 3.79-2.19l5-8.72a4.89 4.89 0 0 0 0-4.38l-5-8.73a4.86 4.86 0 0 0-3.79-2.19h-1.1z" fill="#000f9f"/><path d="M171.07 6.51l2.28 3.95.84 1.46.72 1.24c.23.4 0 .73-.42.73h-4.56a1.62 1.62 0 0 1-1.26-.73l-.67-1.24-.84-1.46-.05-.07c-.7-1.2-2.09-2.31-2.95-2.31h-11a4.89 4.89 0 0 0-3.8 2.19l-5 8.72a4.83 4.83 0 0 0 0 4.38l5 8.73a4.89 4.89 0 0 0 3.8 2.19h1.22 1.44a1.62 1.62 0 0 1 1.26.73l2.29 3.94c.23.4.05.73-.42.73h-3.12-4.55l-1.28.06a4.88 4.88 0 0 1-3.8-2.2L138 23.37a4.83 4.83 0 0 1 0-4.38l8.15-14.12a4.86 4.86 0 0 1 3.8-2.19h17.28a4.18 4.18 0 0 1 2.83 2.19z" fill="#2bace2"/><path d="M79.16 25.76v12.58H81v-4.92l3.45 5.07 1.8-.67-3.19-4.32 2.45-3.06-1.65-.83L81 33.39v-7.63h-1.84z" fill="#00a7e1"/><path d="M107.86 8.59h2.23V6.65h-2.23zm3.86 0H114V6.65h-2.23zm0 4.86c0 1.73-.81 2.09-1.49 2.09h-6.08a3.82 3.82 0 0 0 0-2.57c0 0-.89-3.07-1.58-5.42h0c-.78-2.69-.81-4.28 1.8-5l2.82-.82.81 1.02 1.57-.46-.75-1.06L108 0l-3.71 1.08c-5.2 1.52-4.58 4.23-3.67 7.36l.81 2.78.71 2.43a2.26 2.26 0 0 1-.06 1.89h-4.56c-.68 0-1.49-.36-1.49-2.09V1.98h-2.26v11.41a3.9 3.9 0 0 0 .77 2.45 2.82 2.82 0 0 0 2.4 1.12h13.84a2.82 2.82 0 0 0 2.4-1.12 3.9 3.9 0 0 0 .77-2.45v-3.36h-2.22zm-58.87 0c0 1.73-.81 2.09-1.49 2.09h-.78V8.17h-2.21v8.87a5.22 5.22 0 0 1-.37 2.64 1.79 1.79 0 0 1-1 .84v.7c2.53-.06 3.61-1.34 3.61-4.26h1.32a2.82 2.82 0 0 0 2.4-1.12 3.9 3.9 0 0 0 .77-2.45V1.98h-2.24zm4.36 3.51h2.21v-15h-2.2zM34.63 7.51a8.55 8.55 0 0 0-3.76.82v3.77h2.22V9.27a3.57 3.57 0 0 1 1.64-.34c2.28 0 4.69 2.13 4.69 6a3.66 3.66 0 0 1-.07.56H29.12v-.52c0-4.42-3-7.51-7.26-7.51a8.51 8.51 0 0 0-3.75.82v3.77h2.21V9.27A3.59 3.59 0 0 1 22 8.93c2.27 0 4.68 2.13 4.68 6v.56H15.9V6.65h-2c-5.42 0-5.58 2.77-5.58 6v2.9c0 1.6-.57 1.91-1.44 1.91H5.16c-1.12 0-2.94-.18-2.94-4.17 0-3.38 1.49-4.87 4.44-4.84V7.16c-2.27 0-3.71.43-5 1.71A5.91 5.91 0 0 0 0 13.36c0 4.14 1.84 5.54 4.33 5.54h3.12c2 0 3.09-1.26 3.09-3.54v-3c0-2.8.41-4.33 3.14-4.33v8.9h27.94a12 12 0 0 0 .26-2.11c-.08-4.31-3-7.34-7.25-7.34M2.41 21.93h2.23v-1.94H2.41zm3.86 0h2.22v-1.94H6.27zm28.44-1.38h2.22v-1.94h-2.22zM44 16.96h2.23v-15H44zm43.9-13.7h-2.2V5.2h2.21zm.19 4.8v4.34h-.92a2.24 2.24 0 0 1-2.53-2.22c0-1.39.8-2.12 2.42-2.12zm-5.62 2c0 2.19 1.52 3.61 4.11 3.61h1.57v.2c0 1.09-.5 1.65-1.46 1.65h-9.5V1.98H75v13.6c0 1.6-.56 1.91-1.43 1.91h-1.76c-1.11 0-2.93-.18-2.93-4.17 0-3.38 1.48-4.87 4.44-4.84V7.16c-2.28 0-3.71.43-5 1.71a5.91 5.91 0 0 0-1.64 4.49c0 4.14 1.84 5.54 4.34 5.54h3.12a2.73 2.73 0 0 0 2.85-2h10.23a2.79 2.79 0 0 0 2.36-1.09 3.86 3.86 0 0 0 .75-2.4V6.65h-3.45c-3 0-4.4 1.13-4.4 3.43" fill="#000f9f"/><g fill="#00a7e1"><path d="M65.97 38.34h-2.05V27.41h-4.2v-1.65h10.37v1.65h-4.12v10.93zm33.46 0H97.5V31.1h-1.29v-1.6h1.29v-.18a3.62 3.62 0 0 1 .88-2.74 3.2 3.2 0 0 1 2.27-.82c.35 0 1.48.14 1.48.14v1.56l-1.22-.1a1.93 1.93 0 0 0-1.08.29c-.19.12-.4.47-.4 1.41v.44H102v1.6h-2.59v7.24zM12.5 25.75h1.86v12.58H12.5zm-6.94 2.74L7.3 33.8H3.66zm-.67-2.12l-4.61 12H2l1.2-3.35h4.5l1.08 3.35h2.16l-4.26-12zm47.52 3.51h1.86v8.46h-1.86zm0-3.05h1.86v1.63h-1.86zm-13.64 0h1.86v1.63h-1.86zm3.92-1.08v12.59h1.87v-5.07a2.09 2.09 0 0 1 2.07-2.36c1.17 0 1.86.78 1.86 2.2v5.23h1.87v-5.49c0-2.11-1-3.18-2.83-3.18a3.6 3.6 0 0 0-2.73 1.2l-.26.3v-5.42zm68.12 12.59v-8.42H109v5.07a2.09 2.09 0 0 1-2.08 2.36c-1.17 0-1.86-.78-1.86-2.2v-5.23h-1.86v5.49c0 2.11.95 3.18 2.82 3.18a3.55 3.55 0 0 0 2.73-1.2l.26-.29v1.24zM22.36 27.56h1.53a1.91 1.91 0 0 1 2 2.08 2.31 2.31 0 0 1-2.28 2.46h-1.25zm-1.87-1.19v12h1.87v-5.09h1.55l2.44 5.26 2.14-.41-2.73-5.2.13-.08a3.76 3.76 0 0 0 1.88-3.43c0-1.91-1.33-3-3.57-3zm18.28 3.51v8.53a6.78 6.78 0 0 1-.31 2.22 1.36 1.36 0 0 1-.86.71v.59c2.13-.05 3-1.13 3-3.59v-8.46zM34 36.75a1.62 1.62 0 0 1-1.18.6 1.32 1.32 0 0 1-1.15-1.46 2.18 2.18 0 0 1 1.73-2.17l1.23-.42.2-.07v.21a4.41 4.41 0 0 1-.83 3.31m-.55-7a4.36 4.36 0 0 0-3 1.08l.54.83a3.19 3.19 0 0 1 2.2-.91 1.6 1.6 0 0 1 1.56 1.48v.14l-2 .62c-2 .61-3 1.58-3 3A2.3 2.3 0 0 0 32 38.55a3.59 3.59 0 0 0 2.78-1.67v1.46h1.91v-5.59c0-2.06-1.1-3.11-3.26-3.11"/><path d="M74.06 36.75a1.59 1.59 0 0 1-1.18.6 1.31 1.31 0 0 1-1.14-1.46 2.18 2.18 0 0 1 1.73-2.17l1.23-.42.2-.07v.21a4.4 4.4 0 0 1-.84 3.31m-.55-7a4.4 4.4 0 0 0-3 1.08l.55.83a3.17 3.17 0 0 1 2.18-.91 1.6 1.6 0 0 1 1.56 1.48v.14l-2 .62c-2 .61-3 1.58-3 3a2.3 2.3 0 0 0 2.23 2.5 3.56 3.56 0 0 0 2.77-1.67v1.46h1.91v-5.53c0-2.06-1.09-3.11-3.26-3.11m18.41 7.11a1.59 1.59 0 0 1-1.18.6 1.32 1.32 0 0 1-1.15-1.46 2.18 2.18 0 0 1 1.74-2.17l1.22-.42.2-.07v.21a4.41 4.41 0 0 1-.83 3.31m-.55-7a4.38 4.38 0 0 0-3 1.08l.54.83a3.19 3.19 0 0 1 2.15-.91 1.6 1.6 0 0 1 1.56 1.48v.14l-2 .62c-2 .61-3 1.58-3 3a2.29 2.29 0 0 0 2.23 2.5 3.58 3.58 0 0 0 2.77-1.67v1.46h1.91v-5.53c0-2.06-1.1-3.11-3.26-3.11m21.15-3.89h1.87v12.58h-1.87z"/></g></svg>