<svg xmlns="http://www.w3.org/2000/svg" viewBox="0 0 380.3 107.2" xmlns:v="https://vecta.io/nano"><g fill="#6d6e71"><path d="M144.1 74.2c-.4-.8-.5-1.7-.1-2.5v-.5h-4l-8.3 19.6h3.6l1.2-3h8.6l1.2 3h4.4l-6.6-16.6zM137.5 85l1.8-4.4 1.5-3.6 1.5 3.6 1.8 4.4h-6.6zm19.1 5.7h-3.7V70.8h3.7v19.9zm18.7-5.8c.1 2-.9 3.9-2.6 4.8a11.28 11.28 0 0 1-5.7 1.2c-2.4 0-4.8-.5-7-1.3l.8-2.9c1.8.7 3.8 1 5.7 1.1 3 0 4.6-.9 4.6-2.6 0-1.1-1-2-3-2.5l-5.5-1.5c-1.9-.7-3.1-2.4-3-4.4-.1-2 .9-3.9 2.6-4.8 1.7-1 3.7-1.4 5.7-1.3 2.3 0 4.6.5 6.7 1.5l-.9 2.8c-1.6-.8-3.4-1.2-5.3-1.2-3 0-4.4.8-4.4 2.4 0 1 1 1.7 2.9 2.2l5.4 1.6c1.9 1 3.1 2.9 3 4.9zm65.2 5.8h-4.2V71.2h4.2v19.5zm35.4-5c.1 1.5-.5 2.9-1.7 3.7-1.6 1.1-3.4 1.6-5.4 1.5-2.2 0-4.4-.4-6.4-1.2.1-.5.4-1.3.8-2.5 1.6.7 3.3 1.1 5.1 1.1 2.6 0 3.9-.7 3.8-2 0-.7-.9-1.2-2.5-1.5-1.5-.3-3.1-.7-4.6-1.2s-2.5-1.9-2.5-3.4c-.1-1.5.6-2.9 1.8-3.8 1.6-1 3.4-1.5 5.4-1.4 2 0 4 .4 5.9 1.1l-.8 2.5c-1.5-.6-3.1-.9-4.7-.9-2.6 0-3.9.6-3.8 1.9 0 .6.9 1.1 2.6 1.5 1.6.3 3.1.7 4.6 1.2 1.4.5 2.4 1.8 2.4 3.4zm17.5 5H291l-.8-1.1c-1.7.8-3.6 1.2-5.5 1.4-2.2 0-3.8-.7-4.6-2.2-.8-1.7-1.1-3.6-1-5.5v-8.1h3.8v8.2c-.1 1.2 0 2.4.4 3.6.5 1 1.5 1.5 2.6 1.4 1.4 0 2.7-.4 3.9-1V75.2h3.8l-.2 15.5zm50 0h-3.7v-8c.1-1.2 0-2.4-.4-3.6-.5-1-1.5-1.6-2.6-1.4-1.4 0-2.7.4-3.9 1v12h-3.7V75.1h2.4l.8 1.1c1.7-.8 3.6-1.2 5.5-1.4 2.2 0 3.8.7 4.6 2.2.8 1.7 1.1 3.6 1 5.5v8.2zm16.8-.9c-2 .9-4.1 1.3-6.2 1.3-2.1.1-4.1-.7-5.5-2.2-1.4-1.6-2.1-3.7-2-5.8-.1-2.1.7-4.2 2.1-5.8 1.5-1.5 3.5-2.3 5.6-2.2a15.18 15.18 0 0 1 5.9 1.2l-.8 2.5c-1.4-.6-2.9-1-4.5-1-3 0-4.6 1.8-4.6 5.3s1.5 5.2 4.4 5.2c1.7 0 3.3-.3 4.8-1l.8 2.5zm17.3-6.6v.9h-11.6c-.1 1.3.4 2.5 1.4 3.3a6.71 6.71 0 0 0 3.7.8c1.8 0 3.5-.5 5.1-1.2l.8 2.5c-1.9.9-3.9 1.4-5.9 1.4-2.9 0-5.1-.6-6.6-1.8-1.5-1.3-2.3-3.4-2.3-6.2 0-5.4 2.6-8 7.8-8 5.1 0 7.7 2.8 7.6 8.3zm-3.9-1.5c.1-1.1-.2-2.2-.9-3-.8-.7-1.9-1.1-2.9-1-2.4 0-3.7 1.4-3.9 4h7.7zm-169.8-6.8a6.72 6.72 0 0 0-5.4 2.3c-2.1 3.5-2.1 7.9 0 11.5 1.3 1.6 3.3 2.4 5.4 2.3 1.7 0 3.4-.5 4.9-1.4v1.1c0 2.4-1.2 3.6-3.6 3.6-2.2 0-4.4-.4-6.5-1.1l-.7 2.7c2.2.9 4.6 1.3 7 1.3 5 0 7.5-1.9 7.5-5.7V78.4c0-1.1.4-2.2 1.1-3v-.5h-9.7 0zm4.9 5.6v6.8c-1.2.7-2.6 1-4 1-2.7 0-4-1.8-4-5.3s1.4-5.3 4-5.3h4.5c-.4.8-.5 1.8-.5 2.8h0zm50.5 10.2h-3.8v-8c.1-1.2 0-2.4-.4-3.6-.5-1-1.5-1.5-2.5-1.4-1.4 0-2.7.4-3.9 1v12h-3.8V75.1h2.4l.8 1.1c1.7-.8 3.6-1.2 5.5-1.4 2.2 0 3.8.8 4.6 2.2.8 1.7 1.1 3.6 1 5.5l.1 8.2zm-43-9.6v9.7h3.7V80.6c0-1.5 1.3-3.1 3.9-3.1 1 0 2 .1 2.9.4v-2.8c-1.1-.2-2.2-.4-3.3-.4-4.3 0-7.2 2.4-7.2 6.4zm81.3 0v9.7h3.7V80.6c0-1.5 1.3-3.1 3.9-3.1 1 0 2 .1 2.9.4v-2.8c-1.1-.2-2.2-.4-3.3-.4-4.4 0-7.2 2.4-7.2 6.4zM185 74.9c-2.1-.1-4.1.7-5.4 2.4a10.92 10.92 0 0 0 0 11.3A6.55 6.55 0 0 0 185 91c1.9 0 3.6-.7 5-1.9l1.1 1.6h2.4V78.4c0-1.1.4-2.2 1.1-3v-.5H185h0zm4.8 5.6v5.9c-1 1.1-2.5 1.8-4 1.9-2.7 0-4-1.8-4-5.3s1.4-5.3 4-5.3h4.5a8.21 8.21 0 0 0-.5 2.8h0zm126.9-5.6c-2.1-.1-4.1.7-5.4 2.4a10.92 10.92 0 0 0 0 11.3 6.55 6.55 0 0 0 5.4 2.4c1.9 0 3.6-.7 5-1.9l1.1 1.6h2.4V78.4c0-1.1.4-2.2 1.1-3v-.5h-9.6 0zm4.8 5.6v5.9c-1 1.1-2.5 1.8-4 1.9-2.7 0-4-1.8-4-5.3s1.4-5.3 4-5.3h4.5a8.21 8.21 0 0 0-.5 2.8h0zM188.3 33.2c-3.8 0-6.6 1.1-8.5 3.2-1.7 2.1-2.6 4.8-2.4 7.4-.1 2.6.6 5.2 2.2 7.3h-9.2v-7.2c.1-2.7-.7-5.4-2.4-7.5-1.9-2.1-4.7-3.2-8.4-3.2h-8v.7c1 1.1 1.5 2.5 1.5 4v13.3h-9.8c-4 0-6-2.4-6-7.3V33.2h-4.9v10.7c-.1 2.7.7 5.4 2.4 7.5 1.9 2.1 4.7 3.2 8.4 3.2H158V40.4c0-1.3-.2-2.5-.7-3.7h2.4c4 0 6 2.4 6 7.3v10.7h22.6c3.8 0 6.6-1.1 8.5-3.2 3.4-4.4 3.4-10.6 0-15-2-2.2-4.8-3.3-8.5-3.3zm-.1 17.9c-4 0-6-2.4-6-7.3 0-4.8 2-7.2 6-7.2s6 2.4 6 7.2-1.9 7.3-6 7.3z"/><path d="M372.5 23.3h5v31.3h-5zm-147.2 6.2c1.4 0 2.4-1.1 2.4-2.4s-1.1-2.4-2.4-2.4-2.4 1.1-2.4 2.4h0c-.1 1.2 1 2.3 2.4 2.4zm6.1 0c1.4 0 2.4-1.1 2.4-2.4s-1.1-2.4-2.4-2.4c-1.4 0-2.4 1.1-2.4 2.4h0c0 1.2 1 2.4 2.4 2.4zm-71.3 29c-1.4 0-2.4 1.1-2.4 2.4s1.1 2.4 2.4 2.4 2.4-1.1 2.4-2.4c.1-1.3-1-2.4-2.4-2.4h0zm6.2 0c-1.4 0-2.4 1.1-2.4 2.4s1.1 2.4 2.4 2.4 2.4-1.1 2.4-2.4-1-2.4-2.4-2.4h0zm134.2-29c1.4 0 2.4-1.1 2.4-2.4s-1.1-2.4-2.4-2.4c-1.4 0-2.4 1.1-2.4 2.4h0c0 1.2 1.1 2.3 2.4 2.4zm6.2 0c1.4 0 2.4-1.1 2.4-2.4s-1.1-2.4-2.4-2.4c-1.4 0-2.4 1.1-2.4 2.4-.1 1.2 1 2.4 2.4 2.4h0zm-161.5 0c1.4 0 2.4-1.1 2.4-2.4s-1.1-2.4-2.4-2.4-2.4 1.1-2.4 2.4h0c0 1.2 1.1 2.3 2.4 2.4zm218.2 14.3c0 4.9-2 7.3-6 7.3h-6.2c1.6-2.1 2.4-4.7 2.2-7.3.1-2.7-.7-5.4-2.4-7.4-1.9-2.1-4.9-3.2-8.5-3.2-5.4.4-10.6 2.1-15.1 5.2v-5.2h-4.9v11.2c.1 1.6 0 3.2-.5 4.8-.5 1.2-1.7 2-3 1.9h-8.6c1.6-2 2.4-4.6 2.4-7.2v-6c0-1.5.5-2.9 1.5-4v-.7h-12.5c-3.8 0-6.6 1.1-8.4 3.2-3.2 4.4-3.3 10.3-.2 14.7h-7.6c-2.2 0-4.4-.5-6.4-1.4V33.2h-5v20.3c0 4.2-1.5 6.6-4.6 7.1v.9c3 1.9 9.6 1.5 9.6-7.9V53c2 1 4.2 1.6 6.4 1.7h35.3c1.9.1 3.8-.7 4.9-2.2h0c2.3 1.4 4.8 2.1 7.4 2.2h24.1c3.7 0 6.5-1.1 8.4-3.2 1.7-2.1 2.6-4.8 2.4-7.5V23.3h-4.9l.2 20.5zm-67.5.1c0-4.9 2-7.3 6-7.3h6.7c-.5 1.2-.6 2.4-.6 3.7v3.5c0 4.8-2 7.2-6 7.2h-.1c-4.1.1-6.1-2.3-6-7.1h0zm35.7 7.2c-1.6-.1-3.2-.5-4.5-1.4.2-1 .4-1.9.4-2.8h0c0-4.8 7.8-10.2 15.2-10.2 3.9 0 6 2.4 6 7.2s-2 7.3-5.9 7.3l-11.2-.1h0zm-73.5-7.3c0 4.9-2 7.3-6 7.3-1.9 0-3.7-.4-5.4-1 1-1.9 1.6-4 1.5-6.2V23.3h-4.9v20.6c0 4.9-2 7.3-6 7.3-2.2 0-4.4-.5-6.4-1.4.4-1.8.5-3.7.5-5.5v-11h-4.9v11.2c.1 1.6 0 3.2-.5 4.8-.5 1.2-1.6 2-2.9 1.9h-8.3c-4 0-6-2.4-6-7.3V23.3H204v20.6c-.1 2.7.7 5.4 2.4 7.5 1.9 2.1 4.7 3.2 8.4 3.2h10c1.9.1 3.8-.7 4.9-2.2h0c2.3 1.4 4.8 2.1 7.4 2.2s5.2-.7 7.3-2.2c2.3 1.4 4.8 2.1 7.4 2.2 3.7 0 6.5-1.1 8.4-3.2 1.7-2.1 2.6-4.8 2.4-7.5V23.3H258l.1 20.5zm-47.3-24.4v-2h-3.2c-.6 0-1.5-.2-1.5-1.9s.8-1.8 1.5-1.8c.6 0 1.2.1 1.7.4l.5.2.6-1.9-.4-.1c-.9-.4-1.8-.5-2.7-.5-1 0-2 .4-2.7 1.1-.7.8-1 1.8-1 2.8 0 .6.1 1.3.4 1.9h-2.2v2l9-.2h0z"/></g><path d="M112.4 84.3c-18.5 0-33.4-15-33.4-33.4 0-4.2.7-8.3 2.1-12.2a20.34 20.34 0 0 1 4.7-7.3c4.9-5 12.7-5.5 18.3-1.3h.1l-.5-1.5c-2.3-6.2-8.1-10.3-14.7-10.3H75.3C60.8 18.4 48 27.4 43 41L32.4 70.2c-3.1 8.5-11.2 14.1-20.2 14.1H3.7L6 90.8h8.5.8 0H38c14.5 0 27.4-9.1 32.3-22.6l4.8-13.3c2.1 20.4 19.3 35.9 39.8 35.9h2.5l2.4-6.5h-7.4zM66.4 41L55.8 70.2c-3.1 8.4-11.1 14.1-20.1 14.1h-1.1c5.6-4 9.9-9.7 12.2-16.1L57.4 39c3.1-8.4 11.2-14.1 20.2-14.1h1.1A34.46 34.46 0 0 0 66.4 41z" fill="#009490"/></svg>