<svg xmlns="http://www.w3.org/2000/svg" viewBox="0 0 193 43.96" xmlns:v="https://vecta.io/nano"><path d="M109.9 14.13a9.42 9.42 0 0 0-5.54-8.59 9.51 9.51 0 0 1 .83 3.88 9.39 9.39 0 0 1-1.26 4.71 9.39 9.39 0 0 1 1.26 4.71 9.51 9.51 0 0 1-.83 3.88 9.42 9.42 0 0 0 5.54-8.59m-22.29 0a9.41 9.41 0 0 1-.42-8.59 9.42 9.42 0 0 0 0 17.18 9.41 9.41 0 0 1 .42-8.59m8.16 8.16a9.44 9.44 0 0 1-8.58.43 9.42 9.42 0 0 0 17.17 0 9.46 9.46 0 0 1-8.59-.43m0-16.32a9.46 9.46 0 0 1 8.59-.43 9.42 9.42 0 0 0-17.17 0 9.44 9.44 0 0 1 8.58.43" fill="#6b87ba"/><g fill="#004987"><path d="M103.93 14.13a9.47 9.47 0 0 1-4.28 3.88 9.47 9.47 0 0 1-3.88 4.28 9.46 9.46 0 0 0 8.59.43 9.51 9.51 0 0 0 .83-3.88 9.39 9.39 0 0 0-1.26-4.71"/><path d="M95.77 22.29a9.45 9.45 0 0 1-3.87-4.28 9.55 9.55 0 0 1-4.29-3.88 9.41 9.41 0 0 0-.42 8.61 9.44 9.44 0 0 0 8.58-.43m0-16.34a9.53 9.53 0 0 1 3.88 4.28 9.47 9.47 0 0 1 4.28 3.88 9.39 9.39 0 0 0 1.26-4.71 9.51 9.51 0 0 0-.83-3.88 9.46 9.46 0 0 0-8.59.43"/><path d="M87.61 14.13a9.55 9.55 0 0 1 4.29-3.88 9.45 9.45 0 0 1 3.87-4.28 9.44 9.44 0 0 0-8.58-.43 9.41 9.41 0 0 0 .42 8.59"/></g><g fill="#002d5d"><path d="M91.9 18.01a9.4 9.4 0 0 0 3.87 4.28 9.47 9.47 0 0 0 3.88-4.28 9.46 9.46 0 0 1-7.75 0m7.75-7.76a9.53 9.53 0 0 0-3.88-4.28 9.45 9.45 0 0 0-3.87 4.28 9.46 9.46 0 0 1 7.75 0"/><path d="M99.65 10.25a9.48 9.48 0 0 1 0 7.76 9.47 9.47 0 0 0 4.28-3.88 9.47 9.47 0 0 0-4.28-3.88m-7.75 0a9.55 9.55 0 0 0-4.29 3.88 9.55 9.55 0 0 0 4.29 3.88 9.38 9.38 0 0 1 0-7.76"/></g><path d="M99.65 10.25a9.46 9.46 0 0 0-7.75 0 9.38 9.38 0 0 0 0 7.76 9.46 9.46 0 0 0 7.75 0 9.48 9.48 0 0 0 0-7.76" fill="#021d49"/><path d="M103.64 18.84a7.87 7.87 0 0 0-7.87-7.86 1 1 0 0 0-1 1v12.7a5.92 5.92 0 0 1-1.27-11.32 1 1 0 0 0 .53-.53 1 1 0 0 0-1.27-1.27 7.87 7.87 0 0 0 2 15.09v1.56a9.43 9.43 0 0 0 1.94 0v-1.56a7.86 7.86 0 0 0 6.9-7.81M96.7 13a5.92 5.92 0 0 1 0 11.68z" fill="#fff"/><g fill="#54565a"><path d="M13.39 41.6a7.62 7.62 0 0 1-5.58 2.34 7.52 7.52 0 0 1-5.52-2.28 7.81 7.81 0 0 1 0-11 7.49 7.49 0 0 1 5.52-2.29 7.53 7.53 0 0 1 5.53 2.29 7.53 7.53 0 0 1 2.28 5.52v6.7a1.1 1.1 0 0 1-.32.79 1.08 1.08 0 0 1-.79.32 1.11 1.11 0 0 1-1.12-1.11zm-5.58-11a5.58 5.58 0 1 0 5.58 5.58 5.58 5.58 0 0 0-5.58-5.58m12.28 12.23a1.12 1.12 0 1 1-2.23 0V29.44a1.12 1.12 0 0 1 2.23 0v.3A5.83 5.83 0 0 1 24 28.32a5.9 5.9 0 0 1 4.34 1.8 6.4 6.4 0 0 1 .68.8 7.47 7.47 0 0 1 .69-.8 6.13 6.13 0 0 1 10.47 4.34v8.37a1.12 1.12 0 0 1-2.23 0v-8.37a3.91 3.91 0 0 0-7.81 0v8.37A1.11 1.11 0 0 1 29 43.94a1.06 1.06 0 0 1-.78-.32 1.07 1.07 0 0 1-.33-.79v-8.37a3.76 3.76 0 0 0-1.13-2.72A3.81 3.81 0 0 0 24 30.55a3.91 3.91 0 0 0-3.9 3.91zM55.8 41.6a7.81 7.81 0 1 1-.06-10.99A7.51 7.51 0 0 1 58 36.13v6.7a1.11 1.11 0 0 1-1.12 1.11 1 1 0 0 1-.78-.32 1.07 1.07 0 0 1-.33-.79zm-5.58-11a5.58 5.58 0 1 0 4 1.64 5.38 5.38 0 0 0-4-1.64m10.04-1.16a1.13 1.13 0 0 1 1.12-1.12 1.09 1.09 0 0 1 .79.33 1.1 1.1 0 0 1 .32.79v.9a7.26 7.26 0 0 1 12.28 5.24v7.25a1.11 1.11 0 0 1-1.12 1.11 1 1 0 0 1-.78-.32 1.07 1.07 0 0 1-.33-.79v-7.25c0-2.775-2.25-5.025-5.025-5.025s-5.025 2.25-5.025 5.025v7.25a1.1 1.1 0 0 1-.32.79 1.08 1.08 0 0 1-.79.32 1.11 1.11 0 0 1-1.12-1.11zM90.39 41.6a7.62 7.62 0 0 1-5.58 2.34 7.81 7.81 0 1 1 7.82-7.81v6.7a1.12 1.12 0 1 1-2.24 0zm-5.58-11a5.58 5.58 0 1 0 4 1.64 5.35 5.35 0 0 0-4-1.64M193 22.87c0 .46-.24.68-.71.68h-3.46-.5a.61.61 0 0 1-.48-.66c0-.43.31-.65.91-.68h.07l-.2-.39a2.08 2.08 0 0 1-.12-.68 2.17 2.17 0 0 1 2.19-2.24h.09a2.1 2.1 0 0 1 2.07 1.55c0 .5-.2.75-.61.75a.75.75 0 0 1-.48-.16 3.3 3.3 0 0 1-.22-.32l-.18-.28a.56.56 0 0 0-.23-.15 1 1 0 0 0-.42-.07.81.81 0 0 0-.7.3 1.13 1.13 0 0 0-.23.7 1 1 0 0 0 .18.6.77.77 0 0 0 .22.22.94.94 0 0 0 .2.12h.19.12 1.59a.62.62 0 0 1 .71.7m-77 17.23a5.35 5.35 0 0 1-1.63-3.85v-.11a7.82 7.82 0 1 0-1.13 4.06 8.07 8.07 0 0 0 1.18 1.48 7.51 7.51 0 0 0 5.58 2.29v-2.22a5.37 5.37 0 0 1-4-1.63m-9.44 1.63a5.59 5.59 0 1 1 5.58-5.59 5.58 5.58 0 0 1-5.58 5.59m59.44 0v2.24a7.53 7.53 0 0 0 5.53-2.29 8.52 8.52 0 0 0 1.18-1.48 7.83 7.83 0 1 0-1.13-4.06v.11a5.57 5.57 0 0 1-5.58 5.48m7.82-5.59a5.59 5.59 0 1 1 5.57 5.59 5.58 5.58 0 0 1-5.59-5.59"/><path d="M147.37 30.5a1.09 1.09 0 0 0-.79-.33 1.13 1.13 0 0 0-1.12 1.12v6.52a3.91 3.91 0 0 1-3.91 3.93h-22v2.24h22a6.16 6.16 0 0 0 6.15-6.15v-6.54a1.07 1.07 0 0 0-.33-.79m43.85-6.21a1.12 1.12 0 0 0-.79-.32 1.1 1.1 0 0 0-.79.32 1.09 1.09 0 0 0-.33.79v17.76a1.13 1.13 0 0 0 1.12 1.12 1.09 1.09 0 0 0 .79-.33 1.06 1.06 0 0 0 .32-.79V25.08a1.08 1.08 0 0 0-.32-.79m-24.84 17.45h-10.06a3.89 3.89 0 0 1-3.91-3.91V25.08a1.09 1.09 0 0 0-.33-.79 1.14 1.14 0 0 0-1.58 0 1.09 1.09 0 0 0-.33.79v12.73a6.15 6.15 0 0 0 6.15 6.15h10.06zM147.7 27.62a1.55 1.55 0 1 1-.454-1.096 1.55 1.55 0 0 1 .454 1.096m-36.99-1.55a1.55 1.55 0 1 1-1.55-1.54 1.55 1.55 0 0 1 1.55 1.54m-3.57 0a1.55 1.55 0 1 1-1.54-1.54 1.55 1.55 0 0 1 1.54 1.54"/></g></svg>