<svg xmlns="http://www.w3.org/2000/svg" viewBox="0 0 113.42 143" xmlns:v="https://vecta.io/nano"><path d="M31.83 53.41a20.73 20.73 0 0 1-2.54-1.28 7.05 7.05 0 0 1-3-6.06q0-18.9 0-37.81a5.05 5.05 0 0 1 5-5.21h6.22c5.31.17 10.51-.22 15.21-3 2.51 3.17 2 8.44-1 11.29-2.8 2.65-6.25 3.61-10 4-1 .1-2 .14-3.08.21v31.26h14.85c0 2.89.21 5.7-.06 8.47a4.72 4.72 0 0 1-4.6 4.07c-2.34.15-4.7.09-7 .11h-2.72a7.41 7.41 0 0 0-.1.83l.08 26c.13 5.8 1.45 11.34 5 16.14a28.43 28.43 0 0 0 8.23 7.29c.73.45 1.43.93 2.14 1.4l-.09.47a13.73 13.73 0 0 1-2.3.11 24.47 24.47 0 0 1-10.11-3.88c-9.59-5.88-14.59-14.67-15.39-25.65-.53-7.35-.3-14.76-.26-22.14.01-3.23 1.86-5.28 5.52-6.62z" fill="#266835"/><path d="M60.26 0c4.57 2.64 9.5 3.2 14.6 3 2-.09 4 0 6 0 3.85 0 5.89 2 6 5.87v4l-.12 45v1.59c-.45 0-.81.09-1.16.09H65.64c-4.19 0-6.25-2.13-6.26-6.34v-5c0-.4 0-.81.07-1.32h14.92V15.61c-1.75-.19-3.5-.28-5.21-.58a15 15 0 0 1-7.35-3.28A8.86 8.86 0 0 1 60.26 0z" fill="#83c443"/><path d="M74.13 63.28h12.58v2.63c0 5.12.2 10.26-.12 15.36-.94 15.2-10.5 26.78-24.28 30.26-1.2.31-2.49.71-3.89-.27.74-.5 1.31-.93 1.93-1.28 7.3-4.18 11.8-10.37 13.09-18.69a74.26 74.26 0 0 0 .59-9.79l.1-16.62z" fill="#49b34a"/><path d="M79.3 117.94c.18.28.5.57.51.86l.11 6.37c0 1.44-.59 2.13-2 2.1-1.58 0-3.14-.32-4.72-.49a2.9 2.9 0 0 0-.51 0l-8.51.5a5 5 0 0 1-1.61-.51c-.56 2.14-1.78 3.51-3.27 3.53-.28 0-.55-.32-1-.62 4.65-1.16 3-4.75 3.66-7.68.2.27.55.54.58.83.33 3.53.31 3.54 3.9 3.53l5.83-.06.19-.65-3.49-2.53c.17-.27.36-.9.79-1.19 1.52-1.06 5.47-.83 6.94 1l-2.82 3.4h4.07c.91 0 .94-.69.94-1.38q0-3.39 0-6.77zm-5.94 7.48l1.34-1.22a10.6 10.6 0 0 0 .78-1.08 4.44 4.44 0 0 0-5.2-.31zM7.5 123.64c0 .45.06.91.13 1.36.13.88.56 1.45 1.56 1.37h.27c3 0 2.95 0 3-2.94 0-.52-.46-1.53.84-1.27.49 4.3.49 4.3 4 4.17a13.68 13.68 0 0 1-.15-2.21 2.15 2.15 0 0 1 2.2-2.12 2.29 2.29 0 0 1 2.39 1.89 2.54 2.54 0 0 1-2.41 3.45 36 36 0 0 1-4.28 0 7.75 7.75 0 0 1-1.93-.73c-1.58 1.26-3.47.82-5.42.44a12.84 12.84 0 0 1-.94 1.84 3.51 3.51 0 0 1-6.24-.62 15.44 15.44 0 0 1-.52-4.33c0-.15.43-.33.82-.61l.23 3.43a2.77 2.77 0 0 0 2.91 2.7 2.86 2.86 0 0 0 2.66-2.84v-2.35c0-.3.31-.57.48-.85zm14 .94c-.89-.8-1.42-1.65-2.07-1.77-1-.17-1.34.79-1.33 1.67s.2 2.06 1.4 1.9c.64-.08 1.15-.97 2.02-1.8zm2.78-6.58a3.11 3.11 0 0 1 .42 1v5.81c0 1.6.06 1.57 2.24 1.62 1.25 0 2-.33 1.84-1.71-.06-.78 0-1.57 0-2.87.49.49.93.72 1 1 .12.72 0 1.48.07 2.21.16 1.69 1.47 1.28 2.53 1.34s1.53-.42 1.51-1.46l-.08-5.93c0-.35.33-.7.5-1l.54.17v6.34c0 .63.45 1.66.88 1.77a7.39 7.39 0 0 0 3-.13c.18 0 .31-.8.31-1.24a65.36 65.36 0 0 1 .31-6.85c.21.26.58.51.59.78l.13 6.49a1.76 1.76 0 0 1-1.93 2c-1.21 0-2.56.43-3.36-.95a3.61 3.61 0 0 1-5.06 0c-1.4 1.42-3.16 1.05-4.81.8-.44-.07-1.05-1-1.08-1.51v-7.45zm20.69 6.75c.42 3.64 1.31 4.89 3.33 4.66 1.63-.19 2.55-1.62 2.39-3.84H48.3c-.27-2 .54-3.38 2.13-3.6s2.64.74 3 2.67c.11.58.42 1.53.76 1.59a9.63 9.63 0 0 0 3.12-.09c.17 0 .33-.7.36-1.09v-2.21c0-.3.35-.57.53-.85l.41.17v3.43a1.55 1.55 0 0 1-1.52 1.64q-.69.08-1.38.09c-2.61 0-2.75-.11-3.23-2.64-.19-1-.6-1.81-1.76-1.77-1 0-1.51.56-1.57 1.68h2.3c.74 2.87-.47 5.26-2.84 5.74a3.8 3.8 0 0 1-4.4-3c-.24-1.91-.12-2.47.76-2.58zm58.57 1.62h3.78c1.81 0 1.92-.09 1.9-2l-.1-5.1v-1.09l.38-.23c.21.27.6.54.61.81l.05 6.77a1.54 1.54 0 0 1-1.62 1.69H98.47c.25-.88.25-.88 1.68-.88h2.22c.35-1.86-1-2.87-2.14-4.12 1.95.14 2.4.78 3.31 4.15zm-10.99-5.14a2.19 2.19 0 0 1-.8 0c-.88-.31-1.5-.11-1.64.85a1.32 1.32 0 0 0 1.37 1.66 6.16 6.16 0 0 1 1.29.39l-.12.55h-2.72a1.81 1.81 0 0 0-2 1.88 1.86 1.86 0 0 0 1.94 2h1.38c.2 0 .36.29.54.45-.16.17-.29.46-.48.51a3.56 3.56 0 0 1-4.33-2.06c-.51-1.57.36-3 2.38-3.82-.39-1.19-.69-2.42.68-3.23.93-.41 1.79-.18 2.51.82z" fill="#266835"/><path d="M43.97 137.29l-.56-.77a2 2 0 0 0-2.65-.79 1.89 1.89 0 0 0-.94 1.3c0 .34.53.9 1 1.08.79.35 1.68.45 2.5.73s1.62 1 1.33 2a3.11 3.11 0 0 1-1.58 1.82c-2.24.83-4.08-.25-4.31-2.72.42.44.7.62.81.87a2.61 2.61 0 0 0 3.83.94c.88-.72.67-1.82-.5-2.23a19.56 19.56 0 0 1-2.5-.72c-.57-.3-1.31-1-1.3-1.5a2.77 2.77 0 0 1 1.06-2 2.41 2.41 0 0 1 3.81 1.99zM17.55 142l-.39.67-.21-.06v-7.54h.39l.11 2.57a5.6 5.6 0 0 1 2-.61 3.05 3.05 0 0 1 1.84 1 3.39 3.39 0 0 1-.19 4.1c-.88.87-2.26.87-3.55-.13zm3.54-2c0-1.42-.65-2.32-1.74-2.35a2 2 0 0 0-1.93 2.21c0 1.35.69 2.28 1.8 2.32s1.84-.75 1.87-2.18zm43.88-2.26l.11-2.65h.38v7.68l-.59-.65c-1.45.89-2.77.88-3.59-.07a3.6 3.6 0 0 1 0-4.25c.86-.99 2.06-1.02 3.69-.06zm-3.63 2.17c0 1.46.64 2.27 1.78 2.26s1.85-.85 1.86-2.24a2 2 0 0 0-1.83-2.29c-1.1-.02-1.81.86-1.8 2.27zM6.83 143a14.23 14.23 0 0 1-.85-1.72 1.29 1.29 0 0 0-1.4-1c-1.53-.08-2.84 0-3.13 1.89 0 .24-.4.42-.61.63l-.31-.23 2.87-7.08c0-.13 1-.12 1.09 0l2.66 6.93c.02.06-.08.15-.32.58zm-2.92-7.06l-1.42 3.66h2.8zm53.8 4.69c0 1.58-.66 2.16-2.14 2.15-1.66 0-2.49-1-2.46-3 0-1.75 1-2.89 2.52-2.83s2.29 1.13 2.26 3.12H53.5c.55.84.79 1.56 1.28 1.86 1.36.88 2.08-.36 2.93-1.3zm-.38-1.24c-.3-1-.68-1.76-1.76-1.74s-1.54.64-1.64 1.74zm56.08.72h-4c0 1.23.44 2.14 1.61 2a7.36 7.36 0 0 0 2.25-1.11c-.17 1.42-1 2-2.59 1.82a2.63 2.63 0 0 1-2.1-3.08c.14-1.71 1.25-2.82 2.71-2.69s2.21 1.2 2.12 3.06zm-.67-.69c-.17-1.2-.71-1.8-1.74-1.76s-1.46.74-1.6 1.76zm-63.29 3.24v-3.06c0-1.06 0-1.94-1.36-1.95s-1.65.82-1.69 1.91l-.09 3.12h-.47v-7.58h.4l.24 2.52a7.55 7.55 0 0 1 1.24-.51c1-.21 2.07-.05 2.23 1a30.13 30.13 0 0 1 .06 4.56zm47.25.03l-1.06-.43a15.56 15.56 0 0 1-2.14.5 1.37 1.37 0 0 1-1.63-1.3 1.52 1.52 0 0 1 1.33-1.79c.53-.14 1.12-.11 1.63-.3.3-.11.7-.51.69-.76s-.47-.88-.64-.85a26 26 0 0 0-2.71.77c0-.93.75-1.34 1.72-1.5 1.35-.23 2.27.31 2.42 1.43.08.59 0 1.2 0 1.79l.39 2.44zm-1.18-2.84a12.9 12.9 0 0 0-2.24.48 1.22 1.22 0 0 0-.64 1 1.34 1.34 0 0 0 .92.8c1.26.28 1.98-.52 1.96-2.28zm-79.72 2.83l-1-.39a6.71 6.71 0 0 1-2.3.42 2.33 2.33 0 0 1-1.44-1.28c-.32-.77.17-1.43 1-1.67.57-.16 1.19-.17 1.74-.37a3.53 3.53 0 0 0 .91-.75c-.32-.33-.65-.94-.94-.92a5.43 5.43 0 0 0-1.78.69c-.19.09-.31.32-.65.68-.1-1.62.81-2 1.83-2.07s2.06.18 2.28 1.45c.1.58 0 1.2 0 1.79l.35 2.42zm-1.21-2.81a13.26 13.26 0 0 0-2.24.46 1.24 1.24 0 0 0-.65 1 1.38 1.38 0 0 0 .92.8c1.35.29 2.05-.54 1.97-2.26zm10.38-1.41c0-.9.56-1.42 1.84-1.46 1.11 0 2 .28 2.19 1.57.08.64 0 1.29.06 1.93s.23 1.34.39 2.21l-1.14-.44a14.63 14.63 0 0 1-2.12.49 1.37 1.37 0 0 1-1.64-1.29 1.53 1.53 0 0 1 1.33-1.8c.53-.13 1.1-.13 1.62-.29.29-.09.75-.46.71-.6-.1-.38-.46-1-.64-1a19.16 19.16 0 0 0-2.6.68zm3.2 1.39a13.07 13.07 0 0 0-2.22.48 1.26 1.26 0 0 0-.65 1 1.33 1.33 0 0 0 .89.82c1.3.28 2.07-.57 1.98-2.3zm69.48-2.46a13.2 13.2 0 0 0 1.68-.24c1.68-.48 2.75.23 2.79 2v3.19c0 .11-.11.22-.36.7a9 9 0 0 1-.32-1.29 14.12 14.12 0 0 0-.09-2.61 2.12 2.12 0 0 0-1.14-1.39 1.36 1.36 0 0 0-1.75 1.3c-.12 1-.06 2-.1 3a.89.89 0 0 1-.33.62c-.64-1.76-.27-3.58-.38-5.28zm-14.1-.25a4 4 0 0 1 .22.87v2.76c0 .74.24 1.36 1.16 1.41s1.5-.25 1.67-1.09a22.42 22.42 0 0 0 .21-2.59l.09-1.36h.43V143l-.38-.6c-1.09.1-2.19.51-2.91.16s-.84-1.47-1-2.3a19.25 19.25 0 0 1 0-3zm-11.22 5.5v-5.23a9.91 9.91 0 0 0 1.6-.25c1.54-.53 2.68.15 2.76 1.78v3.73h-.49a7.71 7.71 0 0 1-.16-1v-2.35c0-.78-.23-1.68-1.37-1.67a1.57 1.57 0 0 0-1.66 1.65v2.34a9.53 9.53 0 0 1-.17 1.07zm5.57-1.54a10.06 10.06 0 0 0 2.2 1c.36.07.84-.48 1.27-.75a5 5 0 0 0-1-1.08c-.47-.26-1.12-.2-1.56-.48s-.93-.82-.9-1.21a2 2 0 0 1 3.9.3 6.53 6.53 0 0 0-.65-.48 8.17 8.17 0 0 0-1.75-.69c-.21 0-.74.4-.73.6a1.24 1.24 0 0 0 .57.93c.53.26 1.24.18 1.7.5s1.2 1 1.13 1.47a2.27 2.27 0 0 1-1.36 1.45c-1.75.54-2.91-.26-2.82-1.56z" fill="#63ba58"/><path d="M92.59 129.57c2.11-.47 2.93-1.48 3-3.62v-3c0-.28.29-.54.45-.81.18.25.52.49.52.74a32.56 32.56 0 0 1-.23 4.64 3.38 3.38 0 0 1-2.61 2.74 3 3 0 0 1-1.18-.2z" fill="#266835"/><path d="M107.79 140.69c-.36 1.74-1.08 2.26-2.55 2.07a2.63 2.63 0 0 1-2.17-2.9 2.7 2.7 0 0 1 2.29-2.85c1.26-.17 2.09.41 2.56 2.15-1.33-1.17-2.57-2.6-3.79-.51a2.34 2.34 0 0 0 .37 3c1.47 1.45 2.31-.11 3.29-.96z" fill="#63ba58"/><path d="M112.15 127.16v-9.41c.43.45.82.67.83.91l.1 8c0 .24-.42.48-.64.72zm-29.35-9.03v8.52c0 .21-.31.41-.47.61-.14-.18-.4-.37-.4-.56l-.08-8c0-.26.39-.52.6-.77z" fill="#266835"/><path d="M70.72 135.06v7.65c-.22-.07-.58-.13-.58-.19v-7.5zm-39.52 2.88a1.81 1.81 0 0 1 2.36-.81c1 .25 1.23 1 1.26 1.91v3.61l-.47.07a2.06 2.06 0 0 1-.31-.7v-2.49c-.07-.59-.24-1.54-.58-1.64-.58-.19-1.33.16-2 .29z" fill="#63ba58"/><g fill="#49b34a"><path d="M8.34 137.16l.26.67 2.07-.83a11.18 11.18 0 0 0-2 2.63 9.92 9.92 0 0 0-.07 3h-.45v-5.38z"/><ellipse cx="59.23" cy="138.87" rx=".22" ry="5.33"/></g><path d="M31.42 138.18l-.66 4.46h-.23v-5.77l.67 1.07z" fill="#63ba58"/><path d="M89.86 138.46l-.63 4.17h-.26v-5.41l.2-.06.48 1.09zm-66.47-1.24v5.4h-.32v-5.4zm28.51-.01v5.41h-.32v-5.41z" fill="#49b34a"/><path d="M24.97 117.05h-1.78l.71-1.66z" fill="#266835"/><path d="M89.66 138.25c.3-.9.94-1.11 1.85-.77l-1.65 1z" fill="#49b34a"/><path d="M28.4 120.3h.81v.81h-.81zm1.06 0h.81v.81h-.81zm-17.28 8.06h.81v.81h-.81zm1.06 0h.81v.81h-.81zm-9.79-6.25h.81v.81h-.81zm43.57 9.08h.81v.81h-.81zm1.07 0h.81v.81h-.81zm8.84-2.83h.81v.81h-.81z" fill="#266835"/><path d="M23.07 136.06h.32v.64h-.32zm28.51.01h.32v.64h-.32z" fill="#49b34a"/></svg>