<?xml version="1.0" encoding="utf-8"?>
<!-- Generator: Adobe Illustrator 27.0.1, SVG Export Plug-In . SVG Version: 6.00 Build 0)  -->
<svg version="1.1" id="Layer_1" xmlns="http://www.w3.org/2000/svg" xmlns:xlink="http://www.w3.org/1999/xlink" x="0px" y="0px"
	 viewBox="0 0 1280 800" style="enable-background:new 0 0 1280 800;" xml:space="preserve">
<style type="text/css">
	.st0{fill:#243C96;}
	.st1{fill:#D49173;}
	.st2{fill:none;}
	.st3{enable-background:new    ;}
</style>
<g>
	<g>
		<path class="st0" d="M367.8,303.7c-53.9,0-88.5,36.8-88.5,87.8c0,52,33.3,87.8,92.2,87.8c12.8,0,28-2.2,36.5-5.6v-68.8h-41.7
			c-10.1,0-18.4-8.2-18.4-18.4c0-3.1,2.5-5.9,5.9-5.9h75.7c3.3,0,5.9,2.7,5.9,5.9V487c0,4-2,5.9-5,7c-19.1,7.2-37.4,10.3-60.7,10.3
			c-72,0-118.4-47-118.4-112.8c0-63.9,44.8-112.8,114.9-112.8c23,0,42.5,3,60,9.5c3.4,1.2,5,3.3,4.5,6.7l-0.1,0.2
			c-5.6,10.2-17.3,15.1-28.6,12.3C391.5,304.9,380.2,303.7,367.8,303.7"/>
		<path class="st0" d="M482.1,282.5c11.8,0,21.5,9.7,21.5,21.5v190.6c0,3.3-2.7,5.9-5.9,5.9h-15.6c-3.4,0-5.9-2.8-5.9-5.9V288.4
			C476.2,285.3,478.7,282.5,482.1,282.5"/>
		<path class="st0" d="M652.1,303.7c-53.9,0-88.5,36.8-88.5,87.8c0,52,33.3,87.8,92.2,87.8c12.8,0,28-2.2,36.4-5.6v-68.8h-41.7
			c-10.2,0-18.4-8.2-18.4-18.4c0-3.1,2.5-5.9,5.9-5.9h75.7c3.3,0,5.9,2.7,5.9,5.9V487c0,4-2,5.9-5,7c-19.2,7.2-37.4,10.3-60.7,10.3
			c-71.9,0-118.3-47-118.3-112.8c0-63.9,44.8-112.8,114.9-112.8c23,0,42.5,3,60,9.5c3.4,1.2,5,3.3,4.5,6.7
			c-5.7,10.3-17.5,15.2-28.9,12.5C675.7,304.9,664.4,303.7,652.1,303.7"/>
		<path class="st1" d="M962.2,308.5c2.6,7.5,4.6,14.9,6,22.2c8,40.4-2.4,78.2-32.3,105.5c-29.6,25.5-66.9,31.9-105,21.2
			c-0.1,0-0.3-0.1-0.4-0.1c-0.1,0-0.2-0.1-0.3-0.1c-8.4-2.4-17-5.6-25.4-9.7c18.2,33.8,54,56.8,95.1,56.8c0.4,0,0.8,0,1.1,0
			c47.4-0.5,87.5-31.6,101.4-74.5c3.4-10.5,5.2-21.6,5.2-33.2C1007.7,360.1,989.8,328,962.2,308.5"/>
		<path class="st0" d="M962.2,308.5C962.2,308.5,962.2,308.5,962.2,308.5c-11.6-72-28.7-106.3-42.9-125.7c0,0,0,0,0-0.1c0,0,0,0,0,0
			c-0.5-0.8-5.1-6.9-10.8-9.5c-1.7-0.8-3.5-1.2-5.3-1.2c-3.9,0-7.5,2.1-9.5,7.6c-0.7,1.9-1.1,4-1.2,6c-0.8,20.1,1.2,54.3,36.4,93.6
			C938.2,289.6,951,298.8,962.2,308.5"/>
		<path class="st0" d="M820.8,448.3c0-59.5,48.5-107.7,108.2-107.7c9.8,0,19.2,1.3,28.2,3.7c-12.5-10.8-32.5-28.3-38.8-33.9
			c-37.4-33.2-38.1-86.2-37.9-95.6c-3.2,6.3-6.8,12.4-10.5,17.5c-12.9,17.4-34.8,50.1-55.6,89.7c-33.7,64.3-23.8,99.1-9.4,125.4
			c5.3,2.5,10.6,4.8,15.9,6.6L820.8,448.3z"/>
	</g>
	<g>
		<g>
			<path class="st0" d="M975.5,661H283.6c-17.8,0-32.2-15.9-32.2-35.5v-34c0-19.6,14.5-35.5,32.2-35.5h691.9
				c17.8,0,32.2,15.9,32.2,35.5v34C1007.7,645.1,993.3,661,975.5,661z M283.6,561.5c-15,0-27.3,13.5-27.3,30v34
				c0,16.6,12.2,30,27.3,30h691.9c15,0,27.3-13.5,27.3-30v-34c0-16.6-12.2-30-27.3-30H283.6z"/>
		</g>
		<rect x="251.3" y="556" class="st2" width="756.4" height="99.5"/>
		<g class="st3">
			<path class="st0" d="M347.1,629.8c0.7-0.8,1-1.7,1.1-2.7c0.1-1.5,0.2-4,0.3-7.5c0-3.6,0.1-8.3,0.1-14.2c0-9.1,0-15.1-0.1-18
				c0-1.2-0.5-2.3-1.3-3.1c-0.8-0.8-2.1-1.7-4-2.5h7.6l4.8-0.1c2.4-0.1,4.2-0.1,5.4-0.1c5.3,0,9.4,1.3,12.4,3.8
				c3,2.5,4.5,6,4.5,10.6c0,3.1-0.7,5.9-2.1,8.3c-1.4,2.4-3.3,4.2-5.7,5.5c-2.4,1.3-5,1.9-7.9,1.9c-1.3,0-2.5-0.2-3.6-0.6
				c-0.9-0.4-1.6-1-2.1-1.9c1.2,0.3,2.7,0.5,4.2,0.5c3.6,0,6.4-1.1,8.5-3.2c2.1-2.1,3.1-5,3.1-8.7c0-4.2-1.1-7.6-3.4-10.2
				c-2.3-2.6-5.5-3.9-9.6-3.9c-1.7,0-3.1,0.1-4.4,0.3c-0.6,0.1-0.9,0.6-0.9,1.3c0.1,9,0.1,15.8,0.1,20.4c0,3.2,0,5.6,0.1,7.2
				c0,6.5,0,11.2,0.1,14.1c0,1.2,0.5,2.1,1.3,2.9c0.8,0.8,2.2,1.5,4.1,2.1h-15.9C345.2,631.2,346.4,630.5,347.1,629.8z"/>
			<path class="st0" d="M389.2,629.8c0.7-0.8,1-1.7,1.1-2.7c0.2-2.4,0.3-7.2,0.3-14.4v-11.8c0-6.2,0-10.7-0.1-13.6
				c0-1.2-0.5-2.3-1.3-3.1c-0.8-0.8-2.1-1.7-4-2.5h7.6l4.4-0.1c2.1-0.1,3.7-0.1,4.9-0.1c5,0,9.1,1.1,12,3.3c3,2.2,4.5,5.3,4.5,9.4
				c0,3.2-0.7,5.9-2.1,8.1c-1.4,2.2-3.6,4.4-6.5,6.6c5.8,8.2,10.1,13.9,12.8,17.1c1.2,1.4,2.4,2.6,3.5,3.5c1,0.9,2.2,1.7,3.5,2.5
				h-8.9c-0.7,0-1.2,0-1.4-0.1c-0.2-0.1-0.5-0.4-0.9-0.8c-1.3-1.9-3.5-5.2-6.4-10c-1.2-2-3.4-5.4-6.7-10.2c-0.2-0.3-0.5-0.4-0.9-0.4
				l-8.6-0.1c0,8.3,0.1,13.8,0.3,16.5c0.1,1.2,0.5,2.1,1.4,2.9c0.8,0.8,2.2,1.5,4,2.1h-15.9C387.4,631.2,388.5,630.5,389.2,629.8z
				 M410.6,605.4c1.5-2,2.3-4.6,2.3-8c0-4.3-1-7.7-3-10.1c-2-2.4-4.9-3.6-8.9-3.6c-1.5,0-2.9,0.1-4.2,0.3c-0.6,0.1-0.9,0.6-0.9,1.3
				v21.3c0,0.4,0.2,0.7,0.5,0.8c1.9,0.7,4.2,1,7,1C406.7,608.3,409.1,607.3,410.6,605.4z"/>
			<path class="st0" d="M455.8,631.9h-23c1.9-0.8,3.1-1.7,3.8-2.5c0.6-0.8,1-1.8,1.1-3c0.2-2.4,0.3-8.1,0.3-17.2v-8.6
				c0-5.4,0-9.6-0.1-12.7c0-1.4-0.4-2.5-1.2-3.4c-0.8-0.9-2.1-1.9-4.1-2.9h22.2c1.2,0,3-0.1,5.2-0.3v9.6c-0.9-1.9-1.7-3.3-2.2-4.2
				c-0.6-0.9-1.2-1.6-2-2.1c-0.8-0.5-1.8-0.7-3-0.7h-9.4v20h10.1c1.8,0,3.6-0.3,5.3-0.9l-0.7,7.1c-0.6-1.5-1.1-2.5-1.6-3
				c-0.5-0.5-1.3-0.8-2.4-0.8h-10.7v2.8c0,8.7,0.1,14.4,0.3,17.2c0.1,1.1,0.5,1.9,1,2.4c0.5,0.5,1.4,0.7,2.6,0.7h7.2
				c1.3,0,2.4-0.3,3.2-0.8c0.8-0.5,1.6-1.3,2.2-2.2c0.6-0.9,1.4-2.3,2.4-4.2l-0.9,9.8C458.9,631.9,457,631.9,455.8,631.9z"/>
			<path class="st0" d="M485.6,623.1l-13.5-33.6c-0.9-2.4-1.9-4.1-2.8-5.3c-0.9-1.2-2.2-2-3.8-2.6h14.3c-1.2,0.4-2,0.9-2.5,1.4
				c-0.5,0.6-0.8,1.3-0.8,2.1c0,1,0.4,2.4,1.1,4.4l13.1,33h0.3l13.1-33.9c0.5-1.2,0.7-2.4,0.7-3.3c0-0.8-0.3-1.5-1-2
				c-0.7-0.5-1.8-1.1-3.4-1.6h13.1c-1.7,0.7-3,1.6-3.9,2.6s-1.7,2.6-2.6,4.8l-13.1,33.5l-0.7,1.6c-0.4,0.9-0.9,2.3-1.6,4
				c-0.7,1.7-1.2,3-1.5,3.8H489L485.6,623.1z"/>
			<path class="st0" d="M521.2,630c0.7-0.8,1.1-1.7,1.2-2.9c0.2-2.4,0.3-8.3,0.3-17.8v-8.8c0-5.7,0-10-0.1-13.1
				c0-1.4-0.4-2.5-1.2-3.2c-0.8-0.8-2.1-1.6-4.1-2.4h16.4c-2.2,0.8-3.7,1.7-4.5,2.4c-0.8,0.8-1.2,1.8-1.2,3.2v22
				c0,9,0.1,14.9,0.3,17.6c0.1,1.2,0.5,2.1,1.3,2.9c0.8,0.8,2,1.5,3.8,2.1h-15.9C519.2,631.4,520.4,630.7,521.2,630z"/>
			<path class="st0" d="M556.4,629.3c-4-2.1-7.1-5-9.5-8.7c-2.3-3.8-3.5-8.1-3.5-13.1s1.1-9.5,3.3-13.5c2.2-4,5.3-7.2,9.2-9.5
				s8.5-3.5,13.5-3.5c4.8,0,9.2,1.1,13.2,3.2c4,2.1,7.1,5.1,9.4,8.9c2.3,3.8,3.5,8.2,3.5,13.2s-1.2,9.4-3.5,13.4
				c-2.3,4-5.4,7.1-9.4,9.3c-4,2.3-8.4,3.4-13.2,3.4C564.7,632.4,560.3,631.4,556.4,629.3z M580.7,626.8c2.8-1.9,4.9-4.5,6.3-7.9
				c1.4-3.3,2.1-7,2.1-11.2c0-4.5-0.9-8.5-2.6-12.2c-1.8-3.6-4.2-6.5-7.4-8.6c-3.2-2.1-6.8-3.1-10.9-3.1c-3.9,0-7.2,1-10,2.9
				c-2.8,1.9-4.9,4.6-6.4,7.9c-1.5,3.3-2.2,7.1-2.2,11.3c0,4.4,0.9,8.4,2.6,12c1.7,3.6,4.2,6.4,7.4,8.5c3.2,2.1,6.9,3.1,11.1,3.1
				C574.6,629.7,577.9,628.7,580.7,626.8z"/>
			<path class="st0" d="M615.9,628.1c-3.6-2.9-5.4-7.3-5.4-13.1v-12.2c0-7.3,0-12.4-0.1-15.5c0-1.4-0.4-2.5-1.2-3.2
				c-0.8-0.8-2.1-1.6-4.1-2.4h17c-2.3,0.7-3.9,1.4-4.8,2.2c-0.8,0.8-1.3,1.9-1.3,3.4v27.3c0,4.8,1.4,8.5,4.2,11.1
				c2.8,2.6,6.5,3.9,11.1,3.9c4.6,0,8.2-1.2,10.9-3.6c2.7-2.4,4-5.9,4-10.6c0-6.1,0-10.7-0.1-13.7l-0.1-14.3c0-1.4-0.5-2.6-1.5-3.4
				c-1-0.8-2.6-1.6-4.8-2.2h14.4c-2.1,0.8-3.6,1.6-4.3,2.3c-0.7,0.7-1.1,1.8-1.1,3.3v27.8c0,5.8-1.7,10.1-5.2,13
				c-3.5,2.9-8,4.4-13.6,4.4C624.2,632.4,619.6,631,615.9,628.1z"/>
			<path class="st0" d="M664.3,630.8c-0.4-0.2-0.7-0.4-0.8-0.6c-0.2-0.2-0.2-0.6-0.2-1c0-0.3,0.1-1.9,0.3-4.6l0.3-4.4
				c0.9,3.5,2.2,6,3.9,7.6c1.7,1.6,4.1,2.3,7.2,2.3c3,0,5.4-0.8,7.1-2.3c1.7-1.5,2.5-3.6,2.5-6.4c0-2.5-0.8-4.6-2.3-6.4
				c-1.5-1.8-3.9-3.9-6.9-6.2c-2.3-1.8-4.1-3.4-5.6-4.8c-1.5-1.4-2.7-3-3.7-4.9c-1-1.9-1.5-3.9-1.5-6.2c0-3.6,1.2-6.5,3.8-8.7
				c2.5-2.2,5.9-3.3,10-3.3c1.4,0,2.6,0.1,3.6,0.2c1,0.1,2.2,0.3,3.5,0.6c1,0.2,1.7,0.3,2.1,0.3v9.1c-0.8-2.6-2-4.6-3.6-5.9
				c-1.6-1.3-3.9-2-6.8-2c-2.5,0-4.5,0.6-6,1.9c-1.5,1.3-2.2,3.2-2.2,5.8c0,2.1,0.7,4.1,2.2,5.7c1.5,1.7,3.6,3.7,6.5,5.9l1.7,1.3
				c3.1,2.4,5.6,4.8,7.4,7.1c1.8,2.3,2.7,5,2.7,8.1c0,4-1.4,7.2-4.3,9.6c-2.9,2.4-6.7,3.6-11.6,3.6
				C669.8,632.4,666.8,631.9,664.3,630.8z"/>
			<path class="st0" d="M721.9,631.9h-23.4c1.7-0.5,2.9-1.2,3.7-1.9c0.7-0.8,1.1-1.7,1.2-2.9c0.2-2.4,0.3-8.3,0.3-17.8v-8.8
				c0-5.7,0-10-0.1-13.1c0-1.4-0.4-2.5-1.2-3.2c-0.8-0.8-2.1-1.6-4.1-2.4h16.4c-2.2,0.8-3.7,1.7-4.5,2.4c-0.8,0.8-1.2,1.8-1.2,3.2
				v22c0,3.2,0,6.6,0.1,10.3c0.1,3.6,0.1,5.9,0.2,6.9c0.1,1.2,0.4,2,0.9,2.4c0.5,0.4,1.4,0.7,2.7,0.7h7.6c1.3,0,2.4-0.3,3.2-0.8
				c0.8-0.5,1.6-1.3,2.2-2.2c0.6-0.9,1.4-2.3,2.4-4.2l-0.9,9.8C725,631.9,723.1,631.9,721.9,631.9z"/>
			<path class="st0" d="M747,630c0.7-0.8,1.1-1.7,1.2-2.9c0.2-2.6,0.3-6.5,0.3-11.7v-4.9c-0.7-1.7-1.4-3-1.9-4l-11-19.6
				c-0.7-1.2-1.5-2.2-2.2-3c-0.8-0.8-1.8-1.5-3.1-2.2h12.5c-1.6,0.6-2.3,1.5-2.3,2.7c0,0.6,0.2,1.3,0.6,2.1l11.3,20.5h0.3l10.8-20.6
				c0.4-0.7,0.5-1.3,0.5-1.9c0-1.2-1-2.2-2.9-2.8h10.7c-1.4,0.4-2.5,1-3.3,1.8c-0.8,0.8-1.5,1.8-2.1,3.1l-12.4,22.8
				c0,8.4,0.1,14.2,0.3,17.6c0.1,1.2,0.5,2.1,1.3,2.9s2,1.5,3.8,2.1h-15.9C745.1,631.4,746.3,630.7,747,630z"/>
			<path class="st0" d="M823.9,628.1c0-0.5-0.1-1-0.3-1.6c-0.2-0.6-0.5-1.4-0.9-2.5l-4.3-10.6H801l-4.5,11.5
				c-0.5,1.2-0.7,2.3-0.7,3.1c0,0.8,0.4,1.6,1.2,2.1c0.8,0.6,2.1,1.1,3.9,1.7h-14.1c1.8-0.7,3.3-1.6,4.3-2.8c1-1.1,2-2.7,2.8-4.8
				l13.1-33.3l0.7-1.6c0.4-0.9,0.9-2.3,1.6-4c0.7-1.7,1.2-3,1.5-3.8h0.9l3.5,8.8l13.5,33.6c0.9,2.1,1.9,3.8,2.9,5.1
				c1.1,1.2,2.4,2.2,4,2.8h-16.6C822.2,630.7,823.9,629.5,823.9,628.1z M817.6,611.1l-7.8-19.4h-0.3l-7.6,19.4H817.6z"/>
			<path class="st0" d="M870.5,630.8c0.6-0.4,0.9-0.8,0.9-1.3c0-0.4-0.1-0.7-0.3-1.1c-0.2-0.4-0.5-0.8-0.7-1.2l-12.3-17.4
				l-12.9,17.8c-0.2,0.3-0.4,0.6-0.6,0.9c-0.2,0.3-0.3,0.7-0.3,1c0,0.5,0.3,0.9,1,1.3c0.6,0.4,1.7,0.8,3,1.2h-13.7
				c1.8-0.5,3.1-1,4-1.6s1.7-1.4,2.5-2.4l15.1-20.7l-14.9-21c-1-1.4-2-2.4-2.9-3.1s-2.1-1.2-3.7-1.5h15.3c-0.9,0.2-1.7,0.5-2.2,0.9
				c-0.5,0.4-0.8,0.8-0.8,1.4c0,0.6,0.3,1.4,0.9,2.3l11.6,16.3l12.1-16.5c0.5-0.6,0.7-1.2,0.7-1.7c0-0.4-0.3-0.9-1-1.2
				c-0.7-0.4-1.8-0.8-3.4-1.4h13.7c-1.6,0.4-2.9,1-3.9,1.6c-1,0.6-1.8,1.5-2.6,2.7L861.5,605l16,22.6c0.7,1.1,1.6,2,2.6,2.6
				c1,0.7,2.4,1.2,3.9,1.6h-16.2C869.1,631.5,869.9,631.2,870.5,630.8z"/>
			<path class="st0" d="M920.4,628.1c0-0.5-0.1-1-0.3-1.6c-0.2-0.6-0.5-1.4-0.9-2.5l-4.3-10.6h-17.5l-4.5,11.5
				c-0.5,1.2-0.7,2.3-0.7,3.1c0,0.8,0.4,1.6,1.2,2.1c0.8,0.6,2.1,1.1,3.9,1.7h-14.1c1.8-0.7,3.3-1.6,4.3-2.8c1-1.1,2-2.7,2.8-4.8
				l13.1-33.3l0.7-1.6c0.4-0.9,0.9-2.3,1.6-4c0.7-1.7,1.2-3,1.5-3.8h0.9l3.5,8.8l13.5,33.6c0.9,2.1,1.9,3.8,2.9,5.1
				c1.1,1.2,2.4,2.2,4,2.8h-16.6C918.8,630.7,920.4,629.5,920.4,628.1z M914.1,611.1l-7.8-19.4H906l-7.6,19.4H914.1z"/>
		</g>
	</g>
</g>
</svg>
