<svg xmlns="http://www.w3.org/2000/svg" xmlns:xlink="http://www.w3.org/1999/xlink" width="96" height="40.277" viewBox="0 0 96 40.277">
  <defs>
    <clipPath id="clip-path">
      <rect id="Rectangle_1" data-name="Rectangle 1" width="96" height="40.277" fill="none"/>
    </clipPath>
  </defs>
  <g id="Group_2" data-name="Group 2" transform="translate(0 0)">
    <g id="Group_1" data-name="Group 1" transform="translate(0 0)" clip-path="url(#clip-path)">
      <path id="Path_9" data-name="Path 9" d="M22.577,32.956a24.942,24.942,0,0,1-4.929,1.618,21.583,21.583,0,0,0,3.9-2.252,32.686,32.686,0,0,1-5.535-4.481c-4.4-4.479-6.208-11.488-6.946-16.709-1.844.583-3.159,1.131-3.159,1.131a27.269,27.269,0,0,1,3.057-1.887,50.357,50.357,0,0,1-.4-5.683A18.083,18.083,0,0,0,27.6,35.441a35.036,35.036,0,0,1-5.019-2.485" transform="translate(0 -2.063)" fill="#146394"/>
      <path id="Path_10" data-name="Path 10" d="M27.317,0a18.034,18.034,0,0,0-5.7.923,47.485,47.485,0,0,0-.3,6.013c3.154-1.219,7-1.911,10.106-.071,4.951,2.929-1.236,9.991-1.236,9.991s6.179-1.049,8.444,2.5c1.82,2.864.385,8.039-6.063,11.241a26.774,26.774,0,0,0,4.518,2.7A18.084,18.084,0,0,0,27.313,0Z" transform="translate(-9.37 0)" fill="#146394"/>
      <path id="Path_11" data-name="Path 11" d="M29.35,15.112c-1.437-1.716-4.85-1.465-7.953-.765.558,11.146,5.572,17.759,10.165,21.514,3.254-2.579,5.317-5.944,3.566-8.8-1.525-2.486-6.209-2.868-10.049-1.4,3.67-2.837,6.944-7.355,4.27-10.55" transform="translate(-9.408 -6.074)" fill="#146394"/>
      <path id="Path_12" data-name="Path 12" d="M80.9,64.337l-2.078-3.6c.829-.35,20.644-8.475,51.835-5.264l-.583,3.984c-29.787-3.07-48.985,4.8-49.174,4.881" transform="translate(-34.656 -24.06)" fill="#faa62e"/>
      <path id="Path_13" data-name="Path 13" d="M86.169,25.7l-.277,3.981a24.27,24.27,0,0,1-7.626,1.78c-8.079,0-11.309-5.49-11.309-10.587C66.966,14.447,72,9.863,79.114,9.863a27.377,27.377,0,0,1,5.848.755h.663v4.825l-1.2.151c-.875-3.408-2.682-4.464-6.179-4.464-4.913,0-7.627,4.283-7.627,9.11.005,6,3.165,9.923,7.934,9.923,3.466,0,4.973-1.689,6.36-4.976Z" transform="translate(-29.44 -4.337)" fill="#146394"/>
      <path id="Path_14" data-name="Path 14" d="M111.637,33.512V29.017l-2.593.844a2.647,2.647,0,0,0-2.049,2.293,2.371,2.371,0,0,0,2.291,2.382,6,6,0,0,0,2.351-1.025m2.618,3.016a2.655,2.655,0,0,1-2.533-1.84c-1.049.816-2.472,1.84-3.587,1.84-2.381,0-4.371-1.6-4.371-3.649a4.252,4.252,0,0,1,3.076-3.59l4.8-1.478v-.965c0-2.172-.482-3.712-2.11-3.712-2.08,0-3.8,3.108-3.8,3.108L104.251,24.1a8.72,8.72,0,0,1,6-2.262c2.984,0,4.25,2.051,4.25,4.735v5.943c0,1.386.452,1.99.905,1.99.3,0,.451-.059.964-.392l.361.933Z" transform="translate(-45.623 -9.602)" fill="#146394"/>
      <path id="Path_15" data-name="Path 15" d="M133.922,23.9a5.266,5.266,0,0,1,3.677-2.112,3.84,3.84,0,0,1,2.292,1.086l-1.086,2.081a6.788,6.788,0,0,0-2.292-.964c-.722,0-1.748.542-2.591,1.991v6.755c0,2.052.513,2.232,3.614,2.443v.934h-8.919V35.2c1.958-.211,2.381-.392,2.381-2.473V25.645c0-2.02-.18-2.2-2.2-2.323v-.868l5.124-.664Z" transform="translate(-56.55 -9.578)" fill="#146394"/>
      <path id="Path_16" data-name="Path 16" d="M152.372,27.145h5.578c.541-.059.541-.209.541-.723,0-1.841-.964-3.318-2.8-3.318-1.39,0-2.959,1.39-3.32,4.041m9.255,6.246a7.852,7.852,0,0,1-5.758,3.137,6.5,6.5,0,0,1-6.541-6.786c0-4.494,3.527-7.9,7.112-7.9a5.307,5.307,0,0,1,5.214,5.25c0,.663-.059,1.3-.932,1.387h-8.47c.03,4.223,2.532,5.822,4.671,5.822a6.207,6.207,0,0,0,4.039-1.75Z" transform="translate(-65.656 -9.602)" fill="#146394"/>
    </g>
  </g>
</svg>
