<svg xmlns="http://www.w3.org/2000/svg" width="40.717" height="37.359" viewBox="0 0 40.717 37.359">
  <g id="Group_12491" data-name="Group 12491" transform="translate(7738.565 3757.311)">
    <path id="Path_35057" data-name="Path 35057" d="M4550.707,871.959l.269.174.309-.107a13.943,13.943,0,0,1,4.135-.725h.121v4.739a.645.645,0,0,0,.739.637.656.656,0,0,0,.55-.655v-4.748h.121a14.666,14.666,0,0,1,4.134.725l.309.107.269-.174a13.6,13.6,0,0,1,7.772-1.826h0a.649.649,0,0,0,.671-.765c-.98-5.37-6.833-9.035-11.84-9.76a11.775,11.775,0,0,0-1.235-.107h-.187v-1.141a.645.645,0,0,0-.739-.638.656.656,0,0,0-.55.655v1.124h-.175a11.677,11.677,0,0,0-1.261.107c-5.021.752-10.874,4.417-11.854,9.773a.649.649,0,0,0,.67.765h0a13.6,13.6,0,0,1,7.773,1.839m3.584-11.062a9.335,9.335,0,0,1,1.141-.094,14.55,14.55,0,0,1,1.531,0,9.345,9.345,0,0,1,1.114.094c4.012.575,8.607,3.175,10.25,7.042a.649.649,0,0,1-.568.9,14.244,14.244,0,0,0-6.528,1.857,15.53,15.53,0,0,0-4.215-.7l-.417-.014h-.805l-.429.014a16.652,16.652,0,0,0-4.229.7,14.243,14.243,0,0,0-6.528-1.857.649.649,0,0,1-.568-.9c1.643-3.867,6.238-6.467,10.25-7.042" transform="translate(-12268.512 -4615)" fill="#f9a52d"/>
    <path id="Path_35058" data-name="Path 35058" d="M4492.347,1009.481l-10.041,4.214a.809.809,0,1,0,.621,1.494l10.041-4.214a1.032,1.032,0,0,1,1.208.3,1.015,1.015,0,0,1,.218.806,1,1,0,0,1-.47.7c-4.382,2.854-14.337,8.5-14.808,8.764-.016.017-.033.017-.05.034a5.929,5.929,0,0,1-4.281.6c-.1-.017-2.418-.3-7.907-.974l-2.821-.353V1009.9c.454-.034.857-.05,1.024-.05h.1a42.964,42.964,0,0,1,11.232,1.259c.487.1.974.2,1.478.3a1.115,1.115,0,0,1,.906,1.091.478.478,0,0,1-.017.134,1.2,1.2,0,0,1-.319.655,1.117,1.117,0,0,1-.789.319h-7.639a.806.806,0,0,0-.806.806.818.818,0,0,0,.806.806h7.673a2.731,2.731,0,0,0,2.719-2.384,2.475,2.475,0,0,0,.034-.369,2.734,2.734,0,0,0-2.216-2.686l-1.46-.3a44.788,44.788,0,0,0-11.651-1.293h-.084c-.185,0-.554.034-.991.05a.806.806,0,0,0-.771-.6h-6.045a.806.806,0,0,0-.806.806v13.666a.806.806,0,0,0,.806.806h6.045a.845.845,0,0,0,.738-.47l2.7.336c3.223.4,7.639.94,7.823.957a10.544,10.544,0,0,0,1.729.168,7.013,7.013,0,0,0,3.627-.957c.017,0,.017-.017.033-.017.1-.05,10.409-5.876,14.908-8.814a2.66,2.66,0,0,0,.621-3.9,2.712,2.712,0,0,0-3.122-.739m-29.885,11.887h-4.432V1009.33h4.432Z" transform="translate(-12194.452 -4744.402)" fill="#136494"/>
    <path id="Path_35059" data-name="Path 35059" d="M4488.894,1006.03l-.211-.505-10.04,4.214.212.505-.2-.509a1.329,1.329,0,0,0-.624.515,1.367,1.367,0,0,0-.218.742,1.344,1.344,0,0,0,.1.521l.505-.211-.509.2a1.329,1.329,0,0,0,.515.624,1.365,1.365,0,0,0,1.263.115h0l10.04-4.214h0a.483.483,0,0,1,.569.142l.426-.345-.431.339a.491.491,0,0,1,.115.3.437.437,0,0,1-.006.07v0a.506.506,0,0,1-.075.2.423.423,0,0,1-.136.13l-.008.005-.009.006c-1.086.707-2.526,1.593-4.08,2.525-2.331,1.4-4.918,2.9-6.966,4.085-1.024.59-1.914,1.1-2.569,1.473l-1.166.664-.063.036-.052.052.337.337-.252-.4a.476.476,0,0,0-.085.067l.337.337-.252-.4.226.362-.194-.38-.032.019.226.362-.194-.38.073.143-.072-.143h0l.073.143-.072-.143s-.02.009-.053.03a.614.614,0,0,0-.115.09l.387.388-.281-.47a4.571,4.571,0,0,1-1.182.5,5.2,5.2,0,0,1-1.341.165,7.988,7.988,0,0,1-1.382-.131h0l-.03,0-.195-.025c-.68-.086-3.052-.378-7.706-.947h0l-2.341-.293v-10.479h-.548l.04.547c.222-.016.432-.029.6-.037s.313-.012.379-.012h.135q.724-.045,1.443-.044a48.9,48.9,0,0,1,9.646,1.293h0c.487.1.975.2,1.481.3h0a.575.575,0,0,1,.333.2.553.553,0,0,1,.13.358v.008h0l.132,0-.131-.018v.015l.132,0-.131-.018.076.01-.075-.013v0l.076.01-.075-.013.011,0-.011,0h0l.011,0-.011,0,0,.009-.01.036,0,.037a.477.477,0,0,1-.062.184,1.027,1.027,0,0,1-.125.171l.412.361-.387-.388a.57.57,0,0,1-.4.158h-7.639a1.355,1.355,0,0,0-1.354,1.354,1.328,1.328,0,0,0,.109.527,1.38,1.38,0,0,0,.489.591,1.341,1.341,0,0,0,.756.235h7.673a3.309,3.309,0,0,0,2.335-.966l0,0,0,0a3.3,3.3,0,0,0,.922-1.894l-.544-.064.542.078a3.09,3.09,0,0,0,.039-.447,3.281,3.281,0,0,0-2.659-3.224l-.1.538.111-.537-1.46-.3h0a51.847,51.847,0,0,0-10.211-1.351q-.788,0-1.583.049l.035.547v-.548h-.084c-.124,0-.263.01-.435.02s-.367.023-.577.031l.021.548.527-.151a1.4,1.4,0,0,0-.471-.713,1.325,1.325,0,0,0-.828-.289h-6.044a1.354,1.354,0,0,0-1.354,1.354v13.666a1.354,1.354,0,0,0,1.354,1.354h6.044a1.349,1.349,0,0,0,.739-.224,1.417,1.417,0,0,0,.49-.549l-.49-.245-.068.544,2.7.336h0c1.612.2,3.522.437,5.053.624l1.926.234.591.071.176.021.1.01.049-.546-.09.54a11.087,11.087,0,0,0,1.819.175,7.567,7.567,0,0,0,3.9-1.032l-.277-.473v.548a.558.558,0,0,0,.153-.021.571.571,0,0,0,.207-.108.5.5,0,0,0,.044-.04l-.342-.342.318.365.024-.022-.342-.342.318.365-.346-.4.208.484a.536.536,0,0,0,.138-.087l-.346-.4.208.484-.209-.485v.528a.54.54,0,0,0,.209-.043l-.209-.485v.528h.13l.116-.058.02-.01.059-.033c.212-.119.974-.549,2.07-1.175,1.642-.938,4.029-2.312,6.414-3.718s4.764-2.842,6.4-3.91h0a3.208,3.208,0,0,0,.748-4.7l-.006-.008-.008-.009a3.286,3.286,0,0,0-2.48-1.144,3.24,3.24,0,0,0-1.27.26h0l.211.505.214.5a2.148,2.148,0,0,1,.842-.173,2.195,2.195,0,0,1,1.653.766l.414-.359-.428.342a2.12,2.12,0,0,1,.467,1.325,2.188,2.188,0,0,1-.025.329,2.116,2.116,0,0,1-.936,1.441h0c-1.114.728-2.6,1.64-4.2,2.6-2.4,1.437-5.049,2.978-7.111,4.163-1.031.593-1.915,1.1-2.544,1.455l-.742.42-.2.114-.054.03-.013.007h0l.181.332-.169-.338-.011.006.181.332-.169-.338.245.49v-.548a.575.575,0,0,0-.153.021.568.568,0,0,0-.207.108.553.553,0,0,0-.044.04l.342.342-.318-.365-.024.022.342.342-.318-.365.346.4-.208-.483a.539.539,0,0,0-.138.087l.346.4-.208-.483.209.485v-.528a.539.539,0,0,0-.209.043l.209.485v-.528h-.148l-.128.075a6.453,6.453,0,0,1-3.35.882,10.033,10.033,0,0,1-1.639-.16l-.02,0-.021,0h0l-.085-.01c-.344-.04-1.527-.182-3-.362s-3.226-.4-4.724-.583h0l-3.088-.384-.172.347a.322.322,0,0,1-.111.122.252.252,0,0,1-.138.045h-6.044a.258.258,0,0,1-.182-.075.248.248,0,0,1-.076-.183v-13.666a.257.257,0,0,1,.076-.182.249.249,0,0,1,.183-.076h6.044a.223.223,0,0,1,.145.051.3.3,0,0,1,.1.156l.118.414.43-.017c.226-.009.432-.022.6-.032s.306-.018.367-.018h.118q.758-.048,1.514-.047a50.852,50.852,0,0,1,9.995,1.33h0l1.461.3h.006a2.186,2.186,0,0,1,1.773,2.148,2.1,2.1,0,0,1-.028.292v.013a2.209,2.209,0,0,1-.623,1.262l.4.38-.388-.388a2.211,2.211,0,0,1-1.56.646h-7.673a.233.233,0,0,1-.093-.02.282.282,0,0,1-.12-.1.243.243,0,0,1-.045-.138.26.26,0,0,1,.076-.182.25.25,0,0,1,.183-.076h7.639a1.665,1.665,0,0,0,1.176-.479l.012-.013.013-.014a2.065,2.065,0,0,0,.257-.358,1.58,1.58,0,0,0,.194-.6l-.545-.061.532.133a1.145,1.145,0,0,0,.028-.158c0-.05,0-.093,0-.109a1.654,1.654,0,0,0-.386-1.061,1.675,1.675,0,0,0-.965-.568h0c-.5-.1-.987-.2-1.474-.3h0a49.857,49.857,0,0,0-9.863-1.315q-.751,0-1.511.046l.034.547v-.548h-.1c-.1,0-.246,0-.431.013s-.4.022-.634.039l-.507.038V1017.9l3.3.413h0l5.974.732,1.425.176.361.046.1.012.026,0h.005v0h0v0l.045-.294-.049.293h0l.045-.294-.049.293h0a9.043,9.043,0,0,0,1.572.148,6.3,6.3,0,0,0,1.623-.2,5.675,5.675,0,0,0,1.462-.619l.058-.035.048-.048-.338-.337.253.4a.51.51,0,0,0,.084-.067l-.338-.337.253.4-.226-.361.193.38.033-.019-.226-.361.193.38-.068-.134.067.135h0l-.068-.134.067.135s.02-.01.054-.029a.608.608,0,0,0,.114-.09l-.387-.387.272.476c.115-.066.829-.47,1.9-1.082,1.6-.917,4.011-2.3,6.431-3.729s4.85-2.89,6.507-3.969l-.3-.459.281.47a1.522,1.522,0,0,0,.485-.462,1.594,1.594,0,0,0,.244-.623v0a1.484,1.484,0,0,0,.022-.258,1.586,1.586,0,0,0-.35-.98l0,0,0,0a1.58,1.58,0,0,0-1.849-.462l-10.038,4.214h0a.263.263,0,0,1-.1.02.275.275,0,0,1-.147-.043.234.234,0,0,1-.092-.11l0-.008h0a.255.255,0,0,1-.02-.1.281.281,0,0,1,.043-.148.238.238,0,0,1,.111-.091h0l10.044-4.216h0Zm-29.884,11.886v-.548h-3.884v-10.942h3.336v11.49h.548v0h.548v-12.586h-5.528v13.134h5.528v-.548Z" transform="translate(-12191 -4740.951)" fill="#116595"/>
  </g>
</svg>
