<?xml version="1.0" encoding="utf-8"?>
<!-- Generator: Adobe Illustrator 26.3.1, SVG Export Plug-In . SVG Version: 6.00 Build 0)  -->
<svg version="1.1" id="Layer_1" xmlns="http://www.w3.org/2000/svg" xmlns:xlink="http://www.w3.org/1999/xlink" x="0px" y="0px"
	 viewBox="0 0 500 439.4" style="enable-background:new 0 0 500 439.4;" xml:space="preserve">
<style type="text/css">
	.st0{fill:#EA1F2F;}
	.st1{fill:#EA1E2E;}
	.st2{fill:#0174BC;}
	.st3{fill:#0577BD;}
	.st4{fill:#0476BD;}
	.st5{fill:#7B7C7F;}
	.st6{fill:#0677BD;}
	.st7{fill:#7A7B7E;}
	.st8{fill:#0475BC;}
	.st9{fill:#0777BD;}
	.st10{fill:#7B7B7E;}
	.st11{fill:#7C7C7F;}
	.st12{fill:#7E7F82;}
	.st13{fill:#797A7D;}
	.st14{fill:#7D7D80;}
	.st15{fill:#7C7D80;}
	.st16{fill:#7C7B7E;}
	.st17{fill:#818285;}
</style>
<g>
	<path class="st0" d="M135.6,187.1c2.4-0.3,4.8-0.6,7.2-0.9c3.5-0.4,7-0.8,10.5-1.3c0.3,0,0.6-0.1,0.9-0.2c0.1,0,0.3,0.1,0.4,0.1
		c3.7-0.3,7.3-0.6,11-0.9c0.3,0,0.7-0.2,1-0.3c1.8,0,3.5,0,5.3-0.1c9.4-0.5,18.9-0.5,28.3,0c5,0.3,10.1,0.6,15.1,1
		c4.1,0.4,8.1,1,12.2,1.5c0.6,0.1,1.2,0.1,1.7,0.1c1,0.2,2,0.5,3,0.7c2.1,0.4,4.1,0.7,6.2,1c7.4,1.6,14.7,3.4,21.9,5.7
		c0.2,0.1,0.4-0.1,0.7-0.1c0-0.5,0-0.9,0-1.3c0-9.5,0-19.1-0.1-28.6c0-2.8-0.2-5.6-0.4-8.3c-0.3-3.5-2-5.3-5.4-6
		c-1.3-0.3-2.6-0.4-3.9-0.5c-0.9-0.1-1.8,0-2.6-0.5c0-0.4-0.1-0.7-0.1-1.1c0.8-0.6,1.8-0.6,2.7-0.6c3.5,0.1,6.9,0.1,10.4,0.2
		c3.9,0.2,7.8,0.1,11.7,0c4.8-0.1,9.6-0.3,14.3-0.2c5.2,0.1,10.4,0.8,15.4,2.6c8.1,2.9,13.4,8.6,15.9,16.8c1.1,3.7,1,7.6,0.5,11.4
		c-0.8,6-3.2,11.4-6.7,16.4c-4.6,6.5-9.9,12.2-16.9,16.2c-0.2,0.1-0.4,0.3-0.8,0.6c0.7,0.6,1.2,1,1.8,1.5c6,4.5,11.5,9.6,16.2,15.5
		c6,7.6,10.4,16,13.1,25.3c0.1,0.3,0.2,0.6,0.2,0.9c0,0.1,0,0.3,0,0.6c-1.1,0.4-2.3,0.2-3.4,0.2c-1.1,0-2.2,0-3.3,0
		c-1.2,0-2.3,0-3.3,0c-0.3-0.3-0.5-0.3-0.5-0.5c-3.3-8.1-8.4-15-14.4-21.2c-8-8.5-17.4-15.1-27.5-20.7c-0.4-0.2-0.8-0.3-1.3-0.5
		c0,0.5-0.1,0.7-0.1,1c0,7.1,0,14.1,0.1,21.2c0.1,3.7,0.4,7.3,0.7,11c0.1,1,0.3,2,0.6,3c0.7,2.2,2.1,3.7,4.5,4
		c2,0.3,3.9,0.5,5.9,0.7c0.4,0,0.9,0,1.3,0.1c0.2,0.1,0.6,0.3,0.6,0.5c0,0.3-0.1,0.8-0.3,0.9c-0.3,0.2-0.8,0.3-1.2,0.4
		c-1.1,0.1-2.2,0.1-3.3,0.1c-4.8-0.1-9.5-0.3-14.3-0.4c-3.2,0-6.3,0.2-9.5,0.3c-1.2,0-2.5,0.1-3.7,0.1c-0.7,0-1.3,0-2-0.1
		c-0.6-0.1-1-0.5-0.9-1c0-0.5,0.4-0.7,0.9-0.8c0.9-0.1,1.9-0.2,2.8-0.4c0.5-0.1,1-0.2,1.5-0.3c1.4-0.3,2.4-1.2,2.9-2.4
		c0.3-0.7,0.6-1.5,0.7-2.3c0.3-1.7,0.7-3.5,0.8-5.2c0.2-4,0.4-8.1,0.5-12.1c0.1-7.4,0-14.8,0.1-22.3c0-0.5,0-1-0.1-1.6
		c-0.8-0.3-1.6-0.7-2.4-1c-6.2-2.5-12.5-4.6-19-6.4c-0.3-0.1-0.7-0.1-1.1-0.1c-3-0.7-6-1.5-9-2.2c-0.3-0.1-0.5-0.3-0.8-0.3
		c-7-1.5-14-2.7-21-3.6c-5-0.6-9.9-1-14.9-1.5c-8.1-0.8-16.3-0.9-24.4-0.7c-0.6,0-1.1,0.2-1.7,0.3c-4.1,0-8.2,0.3-12.3,0.8
		c-2.6,0.2-5.2,0.4-7.8,0.8c-4.3,0.6-8.5,1.3-12.7,2.1c-0.7,0.1-1.4,0.4-2.1,0.5c-4.8,0.8-9.4,1.9-14.1,3.2
		c-2.8,0.7-5.6,1.4-8.4,2.2c-1.7,0.5-3.3,1.1-5,1.6c-2,0.6-4,1.3-6,1.9c-1.8,0.6-3.5,1.3-5.3,2c-0.8,0.2-1.5,0.4-2.3,0.7
		c-13.4,5-26.3,11.1-38.9,18c-0.6,0.3-1.1,1-2,0.7l0,0c0.1-0.5,0.2-1,0.3-1.5c1.3-3.6,2.7-7.1,3.9-10.7c0.4-1.1,1-1.7,2-2.1
		c6.2-2.9,12.6-5.4,19.1-7.7c5.4-1.9,11-3.6,16.5-5.4c0.4-0.1,0.8-0.3,1.2-0.5c0.2,0,0.4,0,0.7,0c3.9-1.1,7.8-2.1,11.7-3.2
		c0.6-0.2,1.1-0.4,1.6-0.6c0.6-0.1,1.3-0.2,1.9-0.3c4.4-1,8.7-1.9,13.1-2.9c2-0.4,4-0.9,6-1.3c1.1-0.1,2.3-0.2,3.4-0.4
		C132.7,187.7,134.1,187.4,135.6,187.1z M272.5,197.9c0.3,0.3,0.4,0.4,0.5,0.5c3.7,1.8,7.4,3.6,11.1,5.4c0.6,0.3,1.3,0.4,1.9,0.5
		c2.2,0.1,4.4,0,6.6-0.3c4.5-0.6,8-2.8,10.5-6.5c1.6-2.3,2.6-4.8,3.4-7.4c1.3-4.7,1.6-9.4,1.2-14.2c-0.3-3.7-1-7.3-2.5-10.7
		c-3.7-8.5-10.1-13-19.3-13.9c-3-0.3-6,0-9,0.1c-0.8,0-1.6,0.2-2.4,0.4c-1.4,0.3-1.9,0.8-1.9,2.2c0,0.4,0,0.9,0,1.3
		c0,13.5,0,27,0,40.5C272.5,196.6,272.5,197.2,272.5,197.9z"/>
	<path class="st1" d="M265.6,31.3c29.3,16.8,58.5,33.5,87.8,50.2c0.1,0,0.1,0.3,0.1,0.4c-58.6,0-117.2,0-175.8,0
		c0-0.2,0-0.4,0.1-0.5C207,64.8,236.2,48,265.6,31.3z"/>
	<path class="st2" d="M274.7,136.9c2-1.4,86.3-49.6,88.1-50.4c1.6,0.6,84.9,48.2,87.8,50.1c-0.1,0.5-0.6,0.3-0.9,0.3
		c-0.5,0-1,0-1.5,0c-56.9,0-113.8,0-170.7,0C276.7,136.9,275.9,136.9,274.7,136.9z"/>
	<path class="st2" d="M256.7,136.6c-0.2,0.1-0.3,0.3-0.4,0.3c-58.4,0-116.7,0-175,0c-0.2-0.7,0.4-0.8,0.7-0.9
		c5-2.9,9.9-5.7,14.9-8.5c23.2-13.3,46.4-26.5,69.6-39.8c0.8-0.4,1.5-0.8,2.4-1.3c29.1,16.7,58.2,33.3,87.3,49.9
		C256.4,136.3,256.5,136.5,256.7,136.6z"/>
	<path class="st3" d="M406.4,185.8c0,7.6,0.1,15.1,0,22.7c-0.1,6.5-0.8,13.1-2.6,19.4c-1.3,4.6-3.1,9-6,12.9
		c-4.8,6.5-11.2,10.7-18.7,13.3c-3.9,1.4-8,2-12.1,2.2c-5.6,0.2-11.2-0.2-16.6-1.6c-13.7-3.6-22.2-12.4-25.9-25.9
		c-1.7-6.2-2.3-12.6-2.3-19c0-12.9,0-25.7,0-38.6c0-4.8-0.2-9.5-0.4-14.3c0-1.1-0.2-2.2-0.5-3.3c-0.5-1.9-1.7-3.2-3.5-3.9
		c-1.7-0.7-3.5-0.9-5.4-1c-0.7,0-1.3-0.1-2-0.2c-0.2,0-0.5-0.4-0.5-0.6c0-0.3,0.1-0.8,0.4-0.9c0.6-0.2,1.3-0.4,1.9-0.4
		c2.4,0,4.9,0,7.3,0.1c5.9,0.3,11.7,0.4,17.6,0c1.8-0.1,3.7-0.1,5.5-0.1c0.6,0,1.2,0.1,1.7,0.3c0.2,0.1,0.5,0.6,0.5,0.9
		c0,0.3-0.4,0.7-0.6,0.8c-1.1,0.2-2.3,0.3-3.5,0.5c-0.4,0.1-0.9,0.1-1.3,0.2c-1.7,0.5-3,1.4-3.5,3.1c-0.4,1.2-0.7,2.6-0.8,3.9
		c-0.2,3.7-0.4,7.3-0.4,11c0,14-0.1,28.1,0,42.1c0,6.3,0.5,12.6,2.2,18.8c1.3,4.8,3.3,9.3,6.7,13c5.1,5.7,11.4,9.1,19.2,9.6
		c5,0.3,9.8,0,14.5-1.8c7.9-3,13.5-8.4,16.5-16.4c1.6-4.4,2.5-8.9,3.1-13.5c0.5-4.3,0.6-8.6,0.6-13c0-13.2,0-26.3,0-39.5
		c0-2.8-0.1-5.6-0.2-8.4c0-1.3-0.2-2.6-0.4-3.9c-0.4-2.4-1.8-4-4.1-4.7c-1.4-0.4-2.9-0.6-4.3-0.8c-0.7-0.1-1.5-0.1-2.2-0.1
		c-0.6-0.1-1.1-0.4-1.1-0.9c0-0.5,0.4-0.9,1-1c0.6-0.1,1.2-0.2,1.7-0.1c2.2,0,4.4,0,6.6,0.1c5.1,0.3,10.1,0.4,15.2,0
		c1.3-0.1,2.6-0.1,4-0.1c1.2,0,2.4,0.5,3.4,0.3c1.2-0.2,2.3-0.3,3.5-0.3c2.5,0,5,0.1,7.5,0.2c5,0.3,10,0.2,15,0
		c1.9-0.1,3.8-0.1,5.7-0.2c0.6,0,1.2,0.1,1.7,0.2c0.6,0.1,1,0.7,0.9,1.1c-0.1,0.5-0.5,0.7-1,0.8c-1.2,0.2-2.3,0.3-3.5,0.5
		c-0.4,0.1-0.9,0.1-1.3,0.3c-1.6,0.5-2.8,1.6-3.4,3.2c-0.6,1.6-0.8,3.3-0.8,5c-0.1,3.4-0.2,6.8-0.2,10.1c0,19.3,0,38.7,0,58
		c0,6-0.1,12.1-0.3,18.1c-0.2,5.1-0.7,10.1-2.1,15c-1.7,6.1-4.7,11.4-9,15.9c-2.4,2.5-5,4.8-7.7,6.9c-3.1,2.3-6.2,4.5-9.3,6.7
		c-0.7,0.5-1.5,0.9-2.3,1.3c-0.3,0.2-0.7,0.2-1.1,0.2c-0.6,0-1.1-0.8-0.7-1.3c0.4-0.5,0.9-1,1.4-1.4c1.2-0.9,2.6-1.7,3.7-2.7
		c6.9-6,11.4-13.3,13.1-22.4c0.9-5,1.5-10,1.8-15.1c0.5-7.1,0.5-14.2,0.5-21.4c0-16.5,0-32.9,0-49.4c0-4.8,0-9.6-0.1-14.3
		c0-2.1-0.2-4.3-0.4-6.4c0-0.7-0.2-1.3-0.4-1.9c-0.5-1.9-1.8-3.2-3.6-3.9c-1.5-0.6-3.1-0.8-4.7-0.9c-0.9-0.1-1.9-0.2-2.8-0.3
		c-0.1,0-0.1-0.1-0.2-0.1c-2.1,0.4-4.2,0.7-6.2,1.2c-1.6,0.4-2.6,1.7-3.1,3.2c-0.3,1-0.5,2-0.6,3c-0.2,2.9-0.4,5.9-0.4,8.8
		C406.5,171.7,406.5,178.7,406.4,185.8C406.5,185.8,406.5,185.8,406.4,185.8z"/>
	<path class="st3" d="M117.5,197.4c4.6-1.3,9.3-2.4,14.1-3.2c1.3,0.6,2.5,1.2,3.8,1.8c4.7,2.4,8.8,5.6,12.2,9.6
		c9.9,11.9,8,28.3-1.6,38.4c-4.8,5-10.6,8-17.3,9.5c-4.4,1-8.8,1.4-13.3,1.1c-5.4-0.3-10.7-0.6-16.1-0.7c-4.3-0.1-8.5,0.2-12.8,0.3
		c-0.9,0-1.8,0-2.6,0c-0.3,0-0.7-0.2-1-0.4c-0.2-0.2-0.3-0.5-0.3-0.8c0-0.2,0.3-0.5,0.5-0.6c0.2-0.1,0.6-0.1,0.9-0.1
		c1-0.1,2-0.3,3.1-0.4c2.2-0.2,3.5-1.4,4.1-3.5c0.4-1.7,0.9-3.4,1-5.2c0.3-4,0.5-7.9,0.5-11.9c0.1-8.7,0.1-17.5,0.2-26.2
		c1.8-0.7,3.5-1.4,5.3-2c2-0.7,4-1.3,6-1.9c0,0.7,0.1,1.3,0.1,2c0,9.2,0,18.4,0.1,27.6c0,1.7,0,3.4,0.1,5.1c0.1,2.2,0.3,4.4,0.5,6.6
		c0.2,2.3,1.4,4,3.4,5.1c1,0.5,2,0.9,3,1.3c2.6,0.8,5.3,1.1,8,1.3c2.4,0.1,4.7,0.1,7-0.4c9.1-1.9,14.3-8.1,15.2-16.6
		c0.4-3.7,0.1-7.3-0.6-11c-1-5-2.9-9.7-6-13.8c-4.2-5.6-9.6-9.5-16.6-10.7C118,197.6,117.8,197.5,117.5,197.4z"/>
	<path class="st4" d="M154.2,190.9c4.1-0.5,8.2-0.8,12.3-0.8c0,5.6,0.1,11.2,0.1,16.7c0,4.9,0.2,9.8,0.9,14.7
		c0.6,4.1,1.5,8.1,3.1,11.9c3.5,7.8,9.1,13.2,17.2,16.1c2.7,0.9,5.4,1.2,8.2,1.4c3.7,0.3,7.3-0.1,10.9-1.1
		c7.5-2.3,13.6-6.6,17.2-13.7c1-2,1.8-4,2.5-6.1c1.7-5.3,2.4-10.8,2.6-16.3c0.2-5,0.1-10,0.2-15c0-0.9,0-1.8,0.1-2.6
		c3,0.7,6,1.5,9,2.2c0,5.4,0.1,10.7-0.4,16.1c-0.4,5.1-1.2,10.1-2.6,14.9c-3.7,12.6-12.1,20.7-24.3,25c-4,1.4-8.1,2-12.3,2.2
		c-5.5,0.2-11-0.2-16.4-1.6c-13.6-3.6-22.1-12.2-25.9-25.7c-1.4-5-2.1-10.1-2.2-15.2C154.2,206.2,154.2,198.5,154.2,190.9z"/>
	<path class="st5" d="M104.2,297.4c1.8-0.3,3.4-0.3,5.1,0c0.1,0.6,0.2,1.2,0.2,1.7c0,3.7,0,7.3,0,11c0,6.7,0,13.4,0,20.1
		c0,0.9,0,1.8,0.1,2.6c0.1,0.9,0.6,1.5,1.5,1.7c0.6,0.2,1.3,0.3,1.9,0.3c3.5,0,6.9,0.1,10.4,0c1.4,0,2.8-0.3,4.2-0.4
		c0.3,0,0.5-0.2,0.9-0.3c0-0.4,0-0.7-0.1-1.1c-0.9-3.7-3-6.7-6.1-8.9c-0.7-0.5-1.3-1-2-1.4c-0.8-0.5-1.2-1.3-1.1-2.2
		c0.1-0.8,0.1-1.6,0-2.4c-0.1-1.2,0.5-1.9,1.5-2.4c4.5-2.2,9.2-3.1,14.1-2.6c1.4,0.1,2.8,0.4,4.1,0.7c4.9,1.5,7.4,5.8,6.5,10.8
		c-0.6,3.5-2.5,6.2-5,8.6c-0.4,0.4-0.9,0.8-1.3,1.2c0,0,0,0.1,0,0.2c0.1,0.4,0.5,0.2,0.7,0.3c4.6,0,9.1,0,13.7,0
		c3,0,3.7-0.7,3.7-3.8c0-4.8,0-9.6,0-14.3c0-0.7,0-1.4,0.1-2.3c1.7-0.5,3.4-0.3,5.2-0.1c0,0.8,0.1,1.5,0.1,2.3c0,4.1,0,8.2,0,12.3
		c0,0.6,0,1.2,0,1.8c0.2,2,1.2,3.3,3.1,3.8c0.8,0.2,1.6,0.3,2.4,0.4c1.6,0.1,3.2,0,4.8,0c0.5,0,1-0.1,1.5-0.3
		c0.8-0.2,1.3-0.8,1.3-1.6c0.1-1.1,0.2-2.2,0.2-3.3c0-9.9,0-19.8,0-29.8c0-0.8-0.1-1.6,0.2-2.5c1.7-0.3,3.3-0.2,5.1,0
		c0.1,0.7,0.1,1.3,0.1,1.9c0,10.8,0,21.6,0,32.4c0,1-0.1,2.1-0.3,3.1c-0.6,3.4-2.8,4.7-5.6,5c-0.9,0.1-1.8,0-2.6,0.1
		c-1.7,0-3.4,0-5.1,0c-2.2,0.1-4-0.6-5.5-2.3c-0.1-0.2-0.3-0.3-0.5-0.4c-0.2,0.1-0.4,0.2-0.5,0.4c-1.4,1.7-3.4,2.3-5.5,2.3
		c-5.4,0-10.9,0-16.3,0c-2.5,0-3.9-0.4-6.9-1.7c-1.9,0.5-3.6,1-5.4,1.4c-0.9,0.2-1.9,0.3-2.8,0.3c-4.4,0-8.8,0-13.2,0
		c-1.1,0-2.2-0.2-3.2-0.5c-1.6-0.5-2.7-1.5-3.2-3.1c-0.4-1.3-0.7-2.6-0.7-3.9c-0.1-11.2,0-22.3,0-33.5
		C104.1,298.3,104.1,297.9,104.2,297.4z M134,332.1c1.9-1.2,3.4-2.5,4.5-4.3c0.6-1,1.1-2.1,1.4-3.2c0.8-2.9-0.6-5.2-3.5-6.1
		c-0.5-0.2-1-0.3-1.5-0.3c-1.9,0-3.8-0.1-5.7,0.1c-1.4,0.1-2.8,0.5-4.1,1.3C130.7,324.3,131.3,325.2,134,332.1z"/>
	<path class="st6" d="M106.7,192.9c-0.5,0.2-1.1,0.5-1.6,0.6c-3.9,1.1-7.8,2.1-11.7,3.2c-0.2,0.1-0.4,0-0.7,0c0-7.2,0-14.4,0-21.6
		c0-5.7-0.2-11.5-0.3-17.2c0-1.2-0.2-2.5-0.4-3.7c-0.4-2.4-1.8-4-4.1-4.7c-1.6-0.5-3.3-0.8-5-0.8c-0.7,0-1.3,0-2-0.2
		c-0.3-0.1-0.5-0.5-0.6-0.8c0-0.2,0.2-0.6,0.4-0.7c0.6-0.2,1.3-0.4,1.9-0.4c2.5,0,5,0,7.5,0.1c5.9,0.3,11.7,0.3,17.6,0
		c4.2-0.2,8.5-0.3,12.8,0.3c4,0.5,7.9,1.5,11.5,3.6c5.7,3.2,9.3,8,10.5,14.5c0.7,4.1,0.1,8.2-1.3,12.1c-1,2.9-2.5,5.5-4.3,7.9
		c-0.5,0.6-0.9,1.3-1.4,2c-1.5,0.3-3,0.6-4.4,0.9c-1.1,0.2-2.3,0.3-3.4,0.4c0.2-0.3,0.4-0.6,0.6-0.9c2.4-3.8,3.6-7.8,3.5-12.3
		c0-2.3-0.1-4.5-0.6-6.8c-0.6-3.2-1.6-6.3-3.3-9.1c-2.6-4.3-6.2-7.2-11.2-8.2c-3.2-0.7-6.4-0.5-9.6,0c-2.9,0.5-3,0.6-3,3.5
		c0,8.4,0,16.9,0,25.3c0,3.3,0,6.6,0,9.9c0,0.8-0.1,1.6,0.4,2.4c0.2,0.1,0.5,0.3,0.8,0.3C105.8,192.7,106.3,192.8,106.7,192.9z"/>
	<path class="st7" d="M283.3,337c-0.2,0.1-0.3,0.1-0.4,0.2c-1.6,1.9-3.9,2.3-6.2,2.4c-1.7,0.1-3.4,0-5.1,0c-2,0-3.7-0.6-5.1-2.2
		c-0.1-0.2-0.3-0.3-0.5-0.4c-0.1,0.1-0.3,0.1-0.4,0.2c-1.6,1.9-3.7,2.5-6.1,2.5c-2.1,0-4.3,0-6.4,0c-1.6,0-3.1-0.2-4.4-1.1
		c-0.2-0.1-0.5-0.2-0.9-0.3c-0.1,0.7-0.1,1.3-0.1,1.9c-0.4,5.5-3.6,9.6-8.8,11.1c-4,1.2-8.1,1.2-12.2-0.1c-5.1-1.7-8-5.3-8.6-10.6
		c-0.6-5.3,0.9-10.2,3.7-14.6c0.1-0.2,0.3-0.4,0.4-0.6c1.7,0.6,3.1,1.3,4.4,2.3c0,0.9-0.5,1.5-0.8,2.1c-0.9,1.8-1.8,3.7-2.1,5.8
		c-0.2,1.3-0.3,2.6-0.1,3.9c0.4,3.7,3,6.5,6.7,7.2c1.8,0.4,3.6,0.4,5.5,0.1c3.9-0.7,6.2-3.2,6.6-7.2c0.1-0.7,0-1.3,0-2
		c0-5.2,0-10.4,0-15.7c0-0.7,0-1.5,0-2.2c1.7-0.6,3.3-0.3,5-0.3c0.1,0.5,0.3,1,0.3,1.4c0,2.4,0,4.7,0,7.1c0,0.7,0,1.3,0,2
		c0,2.2,0.9,4,3.6,4.5c0.7,0.1,1.4,0.3,2.2,0.3c1.5,0,2.9,0,4.4,0c0.5,0,1-0.1,1.5-0.2c1.1-0.2,1.7-0.9,1.8-2c0.1-0.6,0.1-1.3,0.1-2
		c0-4.7,0-9.4,0-14.1c0-0.7,0.1-1.4,0.1-2.3c1.7-0.4,3.3-0.2,4.8-0.1c0.6,0.5,0.5,1.1,0.5,1.7c0,4.3,0,8.7,0,13c0,0.7,0,1.5,0.1,2.2
		c0.2,1.6,1.2,2.7,2.7,3.2c0.8,0.3,1.7,0.4,2.6,0.5c1.3,0.1,2.6,0.1,4,0c1.9-0.1,3.2-1,3.7-2.8c0.3-1,0.4-2,0.4-3
		c0.1-1.4,0-2.8,0.1-4.2c0.1-1.3,0.2-2.6,0.6-3.9c1-3.7,3.3-6.1,7-7.2c3-0.9,5.9-0.9,8.9,0c3.4,1,5.7,3.3,6.7,6.7
		c1.1,3.8,1.2,7.7,0.3,11.5c-1.2,4.8-4.3,7.5-9.2,8.2c-1.9,0.2-3.8,0.2-5.7-0.2c-1.8-0.4-3.5-1.1-4.9-2.3
		C283.8,337.3,283.5,337.2,283.3,337z M299.2,327c-0.2-1.6-0.2-3.3-0.7-4.8c-0.7-1.8-1.7-3.3-3.6-3.8c-2-0.6-4.1-0.6-6,0.5
		c-1.4,0.8-2.2,2.1-2.6,3.7c-0.8,2.9-0.8,5.8,0,8.7c0.1,0.4,0.3,0.8,0.5,1.2c0.6,1.1,1.5,2,2.8,2.4c1.6,0.5,3.3,0.7,5,0.2
		c2-0.5,3.4-1.7,4-3.7C298.8,329.9,298.9,328.4,299.2,327z"/>
	<path class="st5" d="M331.2,314.2c1.9-0.1,3.5-0.3,5,0.1c0.5,0.8,0.3,1.7,0.3,2.5c0,4.1,0,8.2,0,12.3c0,0.6,0,1.2,0,1.8
		c0.1,1.8,1,2.9,2.6,3.4c0.6,0.2,1.3,0.4,1.9,0.4c2.1,0.1,4.1,0.1,6.2,0c1.5-0.1,2.2-0.8,2.5-2.3c0.1-0.8,0.1-1.6,0.1-2.4
		c0-10,0-20,0-30c0-0.8,0-1.6,0-2.5c1.7-0.5,3.4-0.3,5-0.1c0.4,0.8,0.3,1.7,0.3,2.4c0,9.6,0,19.3,0,28.9c0,0.6,0,1.2,0,1.8
		c0.1,1.9,1,3.2,2.8,3.8c0.8,0.2,1.6,0.4,2.4,0.5c1.7,0.1,3.4,0,5.1,0c0.2,0,0.4,0,0.7,0c1.5-0.3,2.2-0.9,2.3-2.5c0.1-0.7,0-1.3,0-2
		c0-10.1,0-20.1,0-30.2c0-0.8,0-1.6,0-2.5c1.7-0.6,3.4-0.3,5.1-0.2c0.5,0.8,0.3,1.6,0.3,2.4c0,8,0,16,0,24c0,2.9,0,5.7,0,8.6
		c0,1.2-0.1,2.3-0.5,3.5c-0.6,1.7-1.8,2.9-3.5,3.4c-0.9,0.2-1.9,0.4-2.8,0.4c-2.2,0.1-4.4,0-6.6,0c-2.2,0-4.1-0.6-5.5-2.3
		c-0.1-0.2-0.3-0.3-0.5-0.4c-0.2,0.1-0.4,0.2-0.5,0.4c-1.5,1.7-3.4,2.3-5.5,2.3c-2.3,0-4.6,0-6.8,0c-2.2,0-4-0.7-5.5-2.4
		c-0.1-0.1-0.2-0.2-0.4-0.3c-0.2,0.2-0.5,0.4-0.8,0.7c-1.3,1.4-2.9,2-4.7,2c-3.9,0.1-7.8,0-11.7,0c-0.7,0-1.5-0.2-2.2-0.4
		c-1.7-0.5-2.9-1.6-3.5-3.4c-0.5-1.4-0.7-2.9-0.6-4.3c0-7.6,0-15.1,0-22.7c0-3.1,0-6.2,0-9.3c0-0.6,0.1-1.3,0.1-2.1
		c1.7-0.4,3.4-0.3,5-0.1c0.6,0.8,0.4,1.6,0.4,2.4c0,9.8,0,19.7,0,29.5c0,0.8,0,1.6,0,2.4c0.1,2.2,0.9,3,3.2,3c0.9,0,1.8,0,2.6,0
		c1.4,0,2.8,0,4.2,0c0.6,0,1.2-0.1,1.7-0.2c0.9-0.2,1.4-0.8,1.5-1.7c0.1-0.6,0.1-1.3,0.1-2c0-4.8,0-9.6,0-14.3
		C331.1,315.8,331.2,315.1,331.2,314.2z"/>
	<path class="st7" d="M29.8,335c0.6-1.7,1-3.1,1.7-4.4c0.7-0.3,1.2,0,1.8,0.2c1.8,0.7,3.5,1.4,5.3,2.1c2.1,0.8,4.2,1.5,6.3,1.8
		c0.7,0.1,1.3,0.2,2,0.2c2.9,0,5.9,0,8.8,0c2.9,0,3.7-0.7,3.7-3.6c0-4.8,0-9.7,0-14.5c0-0.7,0.1-1.4,0.1-2.3
		c1.8-0.4,3.4-0.3,5.2-0.1c0.1,0.6,0.2,1.2,0.2,1.8c0,5.1,0,10.3,0,15.4c0,1-0.1,2.1-0.3,3.1c-0.5,3-2.3,4.7-5.3,5.1
		c-0.7,0.1-1.3,0.1-2,0.1c-2.5,0-5,0-7.5,0c-0.6,0-1.2,0-1.7,0c-0.5,0.7,0,1.2,0.2,1.8c0.4,1.3,0.5,2.6,0.2,3.9
		c-0.5,2.2-1.7,3.9-3.7,5c-1.8,1-3.7,1.5-5.7,1.7c-0.7,0.1-1.3,0.1-2,0.1c-5.2,0-10.4,0-15.6,0c-2.2,0-4.4-0.3-6.5-1
		c-4.4-1.6-7-4.7-7.9-9.3c-1.1-5.8,0.5-11,3.6-15.9c0.1-0.2,0.3-0.3,0.6-0.5c1.5,0.5,2.9,1.3,4.3,2.2c-0.2,0.5-0.3,0.9-0.4,1.2
		c-0.5,1.1-1.1,2.2-1.6,3.4c-0.9,2.1-1.3,4.2-1.1,6.4c0.2,4.3,2.8,7.3,7.1,8c1.4,0.2,2.8,0.3,4.2,0.4c4.2,0,8.4,0,12.6,0
		c1.2,0,2.5-0.2,3.7-0.3c0.9-0.1,1.7-0.5,2.4-1.1c1.6-1.3,1.4-3.4,0.4-4.5c-0.7-0.7-1.5-1.4-2.4-1.9c-1.4-0.7-2.8-1.2-4.2-1.8
		c-1.6-0.6-3.2-1.1-4.8-1.7C30.9,335.5,30.5,335.3,29.8,335z"/>
	<path class="st8" d="M166.6,183.6c-0.3,0.1-0.7,0.3-1,0.3c-3.7,0.3-7.3,0.6-11,0.9c-0.1,0-0.3-0.1-0.4-0.1
		c-0.1-9.1,0.2-18.2-0.3-27.3c-0.1-1.2-0.2-2.3-0.5-3.5c-0.4-2.1-1.7-3.5-3.7-4.3c-1.6-0.6-3.3-0.9-5-0.9c-0.7,0-1.5,0-2.2-0.2
		c-0.3-0.1-0.6-0.5-0.6-0.8c0-0.3,0.2-0.8,0.5-0.8c0.6-0.2,1.3-0.3,1.9-0.3c2.4,0,4.8,0,7.3,0.1c5.8,0.3,11.6,0.4,17.4,0
		c1.8-0.1,3.7-0.1,5.5-0.1c0.6,0,1.2,0.1,1.7,0.3c0.4,0.1,0.6,0.4,0.6,0.8c0,0.5-0.3,0.8-0.8,0.9c-0.4,0.1-0.7,0.1-1.1,0.1
		c-1.1,0.2-2.2,0.3-3.3,0.5c-2.1,0.4-3.4,1.6-4,3.6c-0.3,1-0.5,2.1-0.6,3.2c-0.2,2.5-0.3,5-0.4,7.5
		C166.6,170.2,166.6,176.9,166.6,183.6z"/>
	<path class="st5" d="M437.3,351.9c-0.4-1.5-0.3-3-0.1-4.6c0.7-0.1,1.3-0.1,1.9-0.1c2.1,0,4.1,0,6.2,0c0.9,0,1.8-0.2,2.6-0.4
		c1.6-0.4,2.6-1.6,3-3.2c0.3-1.2,0.3-2.4,0.1-3.8c-0.6,0-1.1-0.1-1.6-0.1c-1.9,0-3.8,0-5.7,0c-1.6,0-3.2-0.3-4.8-0.8
		c-2.7-0.9-4.5-2.7-5.5-5.3c-0.5-1.4-0.9-2.8-0.9-4.3c-0.1-2.6-0.2-5.1,0.5-7.7c0.9-2.9,2.4-5.3,5-7c1.7-1,3.5-1.6,5.4-1.7
		c3.5-0.2,6.9,0.4,9.6,2.9c1.9,1.8,2.8,4.1,3.2,6.6c0.2,1.7,0.4,3.4,0.4,5c0.1,4.2,0,8.4,0,12.6c0,1.2-0.1,2.5-0.3,3.7
		c-0.7,4.9-3.9,7.8-8.9,8.2c-2,0.2-4.1,0.1-6.2,0.1C440,352.1,438.7,352.3,437.3,351.9z M450.9,334.8c0.2-0.4,0.3-0.5,0.3-0.6
		c0-3.2,0-6.5,0-9.7c0-1.3-0.5-2.6-1.1-3.8c-0.7-1.3-1.8-2.1-3.2-2.5c-3.6-1-6.7,0.5-8.1,4c-1.1,2.8-1.2,5.7-0.4,8.6
		c0.5,1.9,1.9,3.1,3.8,3.6c0.6,0.2,1.1,0.3,1.7,0.3C446.1,334.8,448.4,334.8,450.9,334.8z"/>
	<path class="st7" d="M76.3,352.1c-0.2-1.7-0.2-3.2,0-4.7c0.5-0.1,0.9-0.2,1.3-0.2c2.2,0,4.4,0,6.6,0c0.9,0,1.8-0.1,2.6-0.3
		c1.7-0.4,2.6-1.5,3.1-3.1c0.4-1.2,0.4-2.5,0.2-3.8c-0.5-0.1-1-0.2-1.5-0.2c-2,0-4,0-6,0c-1.5,0-2.9-0.3-4.3-0.7
		c-3-0.9-5.1-2.8-6.1-5.9c-1.4-4.3-1.3-8.7,0.3-13c1.9-5,6.4-7.5,11.9-7.2c1.5,0.1,3.1,0.3,4.5,0.9c2.7,1.1,4.6,3.1,5.6,5.9
		c0.5,1.5,0.9,3.1,0.9,4.7c0,6,0,12.1,0,18.1c0,1.2-0.3,2.4-0.7,3.4c-1.4,3.9-4.5,5.7-8.4,6c-2,0.2-4.1,0.1-6.2,0.1
		C79,352.1,77.8,352.1,76.3,352.1z M89.9,334.8c0.2-0.4,0.3-0.5,0.3-0.6c0-3,0.1-6,0-9c0-1.5-0.4-3-1.2-4.4
		c-0.8-1.3-1.9-2.3-3.4-2.6c-3.7-0.7-6.6,0.2-8.1,4.5c-0.3,0.7-0.4,1.6-0.5,2.3c-0.1,1.2-0.1,2.3-0.1,3.5c0.2,4.9,2.9,5.8,6,6.2
		c0.1,0,0.1,0,0.2,0C85.4,334.8,87.6,334.8,89.9,334.8z"/>
	<path class="st9" d="M238.4,187.9c-2.1-0.3-4.1-0.7-6.2-1c-1-0.2-2-0.4-3-0.7c0-6.5,0-13.1,0-19.6c0-2.6,0-5.3-0.1-7.9
		c-0.1-1.4-0.2-2.8-0.4-4.2c-0.4-2.5-1.8-4.3-4.3-5c-1.6-0.5-3.1-0.7-4.8-0.8c-0.7,0-1.3,0-2-0.2c-0.3-0.1-0.6-0.5-0.7-0.7
		c0-0.3,0.2-0.8,0.5-0.8c0.6-0.2,1.3-0.4,1.9-0.4c2.4,0,4.8,0,7.3,0.2c4.9,0.2,9.8,0.4,14.7,0c1.5-0.1,3.1-0.1,4.6-0.1
		c0.9,0,1.8,0.1,2.5,0.6c0,0.4,0.1,0.7,0.1,1.1c-0.5,0.4-1.2,0.5-1.9,0.5c-1,0.1-2,0.2-3,0.5c-2.4,0.5-3.9,1.9-4.5,4.3
		c-0.2,0.6-0.3,1.3-0.4,1.9c-0.2,2-0.4,3.9-0.4,5.9C238.5,170.2,238.5,179,238.4,187.9z"/>
	<path class="st10" d="M400,318.4c2-2.7,4.4-4.3,7.5-5.1c2.8-0.7,5.7-0.6,8.5,0.2c4.9,1.3,7.8,4.5,8.9,9.3c0.7,3.1,0.7,6.3,0.4,9.4
		c0,0.5-0.2,1-0.3,1.5c-1,4-3.2,5.4-6.8,5.8c-0.7,0.1-1.3,0.1-2,0.1c-3.4,0-6.8,0-10.1,0c-0.5,0-1,0-1.5,0c-1.2,0-2.4,0.2-3,1.4
		c-0.8,1.4-0.8,2.8-0.2,4.2c0.3,0.7,0.9,1.2,1.6,1.4c1,0.2,2,0.3,3,0.4c1,0.1,2.1-0.1,3.1,0.2c0.5,1.5,0.4,3,0.1,4.5
		c-2.8,0.6-6.9,0.3-9.2-0.7c-2.9-1.2-4.4-3.3-4.6-6.4c-0.1-1.1-0.1-2.2,0.1-3.3c0.6-3.6,3.4-6.2,7.3-6.6c0.8-0.1,1.6-0.1,2.4-0.1
		c2.9,0,5.7,0,8.6,0c1,0,2-0.2,3.1-0.3c1.4-0.2,2.2-1.1,2.6-2.4c0.1-0.4,0.2-0.7,0.2-1.1c0.1-2.4,0.2-4.7-0.4-7
		c-0.8-3-2.4-5.2-5.6-5.8c-3-0.6-5.9-0.1-8.3,1.9c-0.5,0.4-1,0.8-1.6,1.3C402.3,320.8,401.3,319.7,400,318.4z"/>
	<path class="st11" d="M487,314.2c1.6,0,3.1,0,4.7,0c0.1,0.5,0.3,0.9,0.3,1.3c0,5.7,0,11.3,0,17c0,1.2-0.3,2.3-0.6,3.4
		c-0.5,1.8-1.7,2.9-3.5,3.4c-0.8,0.2-1.6,0.4-2.4,0.4c-2.6,0.1-5.1,0-7.7,0c-1,0-1.9-0.2-2.8-0.6c-0.5-0.2-0.9-0.5-1.3-0.7
		c-0.6,0.2-0.5,0.6-0.5,1c0,1.2,0,2.4,0,3.5c0,0.9-0.2,1.8-0.4,2.6c-0.8,3.3-2.9,5.4-6.2,6.2c-1.7,0.4-3.7,0.5-5.8,0.1
		c-0.2-1.4-0.2-2.8,0-4.4c0.4-0.1,0.8-0.2,1.2-0.3c0.2,0,0.4,0,0.7,0c3.9,0.1,5.2-2.5,5.2-5.2c0-4.7,0-9.4,0-14.1
		c0-3.7,0-7.5,0-11.2c0-0.7,0-1.4,0.1-2.2c1.7-0.5,3.3-0.2,4.8-0.2c0.7,0.6,0.5,1.3,0.5,1.9c0,4.3,0,8.7,0,13c0,0.7,0,1.3,0.1,2
		c0.2,1.7,1.2,2.8,2.9,3.3c0.8,0.3,1.7,0.4,2.6,0.4c1.5,0.1,3.1,0,4.6,0c0.5,0,1-0.1,1.5-0.3c0.9-0.2,1.4-0.8,1.5-1.7
		c0.1-0.7,0.1-1.5,0.1-2.2c0-4.6,0-9.3,0-13.9C486.5,315.9,486.3,315.1,487,314.2z"/>
	<path class="st11" d="M24.3,387.4c0.1,0.1,0.1,0.3,0.2,0.3c2.8,2,3.1,4.8,2.6,7.9c-0.4,2.3-1.9,3.9-4.1,4.8
		c-1.3,0.5-2.7,0.7-4.1,0.8c-3.2,0.1-6.3,0-9.5,0c-0.3,0-0.6-0.1-0.9-0.2c-0.3-2.2-0.1-4.4-0.1-6.6c0-2.1,0-4.3,0-6.4
		c0-2.2,0-4.4,0-6.6c0-2.1-0.1-4.2,0-6.4c0.6-0.1,1-0.3,1.4-0.3c3,0,6,0,9,0c1,0,2.1,0.1,3,0.4c3,0.8,4.8,3.1,5,6.2
		c0.1,2.2-0.4,4.1-2.2,5.5c-0.1,0.1-0.2,0.2-0.3,0.3C24.3,387.3,24.3,387.3,24.3,387.4z M13.1,390.2c-0.2,2.2-0.2,4.4,0,6.8
		c2.3,0.2,4.4,0.2,6.6,0c0.4,0,0.8-0.3,1.2-0.5c1.2-0.7,1.8-2.1,1.6-3.6c-0.3-1.7-1.3-2.7-2.8-3C18.8,389.8,14.5,389.9,13.1,390.2z
		 M13.1,385.6c2.2,0.2,4.3,0.2,6.3,0c1.1-0.1,2-0.7,2.4-1.7c0.8-2,0.1-4.8-3-4.9c-1.5-0.1-2.9,0-4.4,0c-0.4,0-0.8,0.1-1.3,0.2
		C12.9,381.3,13,383.3,13.1,385.6z"/>
	<path class="st12" d="M179.7,400c0,2.8-0.1,5.2-0.1,7.7c-1.6,0.5-1.9,0.5-4.3,0.2c-0.1-0.4-0.2-0.8-0.2-1.2
		c-0.3-7-0.1-22.2,0.3-24.1c0.6,0,1.2-0.1,1.9-0.1c0.7,0,1.3,0,1.9,0c0.3,0.3,0.6,0.6,0.9,0.9c0.3-0.2,0.6-0.3,0.9-0.5
		c1.8-1.1,3.6-1,5.5-0.6c2.1,0.4,3.5,1.7,4.3,3.7c0.2,0.5,0.3,1,0.5,1.5c0.6,2.9,0.6,5.8,0,8.7c-1.1,4.7-5.8,6.9-10.1,4.8
		C180.8,400.7,180.5,400.5,179.7,400z M179.6,391.7c0.1,1,0.1,1.8,0.2,2.6c0.1,0.5,0.2,1,0.4,1.5c0.7,1.4,1.8,2,3.6,1.9
		c1.5-0.1,2.5-0.8,2.9-2.2c0.7-2.4,0.7-4.8,0-7.1c-0.2-0.7-0.7-1.3-1.3-1.7c-2.2-1.4-5-0.2-5.5,2.3
		C179.7,389.8,179.7,390.8,179.6,391.7z"/>
	<path class="st5" d="M125.7,382.2c-0.5-0.7-0.8-1.3-1.2-1.8c-1.3-1.6-3-2.1-4.9-1.8c-1.9,0.3-3.1,1.6-3.7,3.4
		c-0.2,0.8-0.4,1.6-0.4,2.4c-0.1,2.3-0.1,4.6,0,6.8c0,0.9,0.2,1.8,0.4,2.6c1.3,4.3,6.3,4.3,8.3,2c0.5-0.6,1-1.3,1.5-1.9
		c0.8-0.1,1.4,0.4,2,0.7c0.6,0.3,1.2,0.6,1.8,1c-0.2,0.5-0.2,0.9-0.4,1.2c-1.7,2.9-4.2,4.6-7.7,4.7c-1.3,0-2.7,0-3.9-0.3
		c-3.8-1-5.7-3.7-6.4-7.4c-0.7-3.8-0.6-7.6,0-11.4c0.3-2,1-3.9,2.5-5.3c3.1-3,6.7-3.3,10.6-2.1c2.6,0.8,4.3,2.7,5.4,5.2
		C128.4,381.1,127.2,381.6,125.7,382.2z"/>
	<path class="st13" d="M195.4,339.6c-1.6,0-3.2,0-4.8,0c-0.1-0.4-0.2-0.8-0.3-1.3c0-0.4,0-0.9,0-1.3c0-12.4,0-24.8,0-37.2
		c0-0.7,0-1.5,0-2.3c1.8-0.5,3.4-0.3,5-0.2c0.6,0.7,0.4,1.3,0.4,2c0,4.1,0,8.2,0,12.3c0,8.4,0,16.9,0,25.3
		C195.6,337.8,195.8,338.6,195.4,339.6z"/>
	<path class="st14" d="M431.4,401c-1.2,0.3-2.3,0.3-3.4,0.1c-0.3,0-0.6-0.5-1.1-0.9c-0.1,0-0.4,0.1-0.6,0.3c-1.9,1.2-4,1.3-6.2,0.9
		c-2.5-0.5-4.2-2.4-4.4-4.8c-0.2-3.1,1-5.1,3.6-6.1c1.2-0.4,2.4-0.6,3.7-0.6c1.3,0,2.6,0.1,3.8-0.1c0.5-0.8,0.3-1.4,0.2-2.1
		c-0.3-1.1-1-1.8-2.2-1.9c-2.3-0.2-3.5-0.4-6.2,1.1c-0.9-0.7-1.3-1.8-1.9-2.9c0.4-0.3,0.6-0.6,1-0.8c1.4-0.8,3-1.3,4.6-1.3
		c1.7,0,3.4-0.1,5,0.4c2.1,0.6,3.4,1.9,3.8,4.1c0.1,0.6,0.2,1.3,0.2,2c0,3.9,0,7.8,0,11.7C431.5,400.4,431.4,400.6,431.4,401z
		 M427.2,393.2c-1.6-0.1-3.1-0.2-4.5,0.1c-0.4,0.1-0.9,0.2-1.3,0.3c-0.9,0.4-1.3,1.1-1.3,2.1c0,1,0.4,1.7,1.4,2
		c0.9,0.2,1.9,0.3,2.8,0.2c2.3-0.3,3.1-1.5,3-3.3C427.3,394.2,427.2,393.9,427.2,393.2z"/>
	<path class="st15" d="M441.6,401c-1.6,0.3-2.8,0.2-4.2,0.1c-0.1-0.4-0.2-0.7-0.2-1.1c0-5.4,0-10.9,0-16.3c0-0.4,0.1-0.7,0.2-1.1
		c1.2-0.3,2.4-0.2,3.5-0.1c0.4,0,0.8,0.5,1.2,0.9c0.3-0.2,0.7-0.4,1.1-0.6c4.3-2.3,9.1,0.2,9.7,5c0.1,0.4,0.1,0.9,0.1,1.3
		c0,3.6,0,7.2,0,10.8c0,0.4-0.1,0.7-0.1,1.2c-1.4,0.2-2.7,0.2-4.1,0c-0.1-0.5-0.2-1-0.2-1.5c0-2.9,0-5.9,0-8.8c0-0.7,0-1.5-0.2-2.2
		c-0.3-1.6-1.5-2.6-3.1-2.6c-1.7-0.1-3,0.9-3.4,2.5c-0.2,0.8-0.2,1.6-0.2,2.4c0,2.6,0,5.1,0,7.7C441.6,399.3,441.6,400,441.6,401z"
		/>
	<path class="st16" d="M311.9,398.2c-1.6,2.1-3.7,3-6,3.3c-1.1,0.1-2.2,0.1-3.3,0c-3-0.3-5-1.8-6.2-4.6c-0.7-1.7-0.9-3.6-0.8-5.4
		c0-1.3,0.2-2.6,0.5-3.9c0.7-2.8,2.6-4.5,5.4-5.2c2-0.5,3.9-0.4,5.8,0.4c2,0.8,3.4,2.3,4.1,4.3c0.6,1.9,0.8,3.9,0.5,6
		c-0.5,0.1-1,0.2-1.5,0.2c-2.6,0-5.3,0-7.9,0c-0.7,0-1.5,0-2.2,0.1c-0.6,1.1,0,1.9,0.5,2.7c0.5,0.9,1.3,1.4,2.3,1.5
		c1.8,0.3,3.5,0.1,5-1.1c0.3-0.2,0.6-0.4,0.9-0.7C310.2,396.3,311.1,397.1,311.9,398.2z M307.6,389.8c0.2-1.3-0.3-2.3-1.1-3.1
		c-0.8-0.7-1.8-1-2.8-1c-1.9,0.1-4.1,1.7-3.4,4C302.1,390,305.6,390,307.6,389.8z"/>
	<path class="st16" d="M481.1,393.2c-0.2,1.4,0.3,2.3,0.9,3.1c0.6,0.8,1.5,1.2,2.5,1.3c1.7,0.1,3.4-0.1,4.7-1.3
		c0.2-0.2,0.5-0.3,0.7-0.5c1.1,0.6,1.8,1.4,2.7,2.3c-0.3,0.5-0.5,0.9-0.8,1.1c-1.6,1.4-3.4,2.2-5.6,2.3c-1,0-2.1,0.1-3.1,0
		c-2.8-0.4-4.8-1.8-5.9-4.4c-0.8-1.8-0.9-3.7-0.9-5.6c0-1.4,0.2-2.8,0.6-4.1c0.7-2.6,2.5-4.2,5.1-5c2-0.5,3.9-0.5,5.8,0.2
		c2.2,0.8,3.7,2.4,4.4,4.6c0.6,1.8,0.6,3.7,0.5,5.8c-0.6,0.1-1.1,0.2-1.5,0.2c-2.6,0-5.3,0-7.9,0C482.7,393.2,482,393.2,481.1,393.2
		z M481.1,389.8c2.7,0.3,5.7,0.2,7.3-0.1c0-1.5-0.2-2.2-1-2.9c-0.8-0.7-1.8-1.1-2.8-1c-1,0-2,0.3-2.8,1.2
		C481.2,387.7,480.8,388.6,481.1,389.8z"/>
	<path class="st16" d="M212,393c-1.5,0.3-2.8,0.1-4.1,0.1c-1.2,0-2.5,0-3.7,0c-1.3,0-2.6-0.1-3.9,0.1c-0.4,1.2,0.1,2,0.7,2.8
		c0.6,0.8,1.4,1.3,2.4,1.5c1.8,0.2,3.5,0.1,5-1.2c0.1-0.1,0.2-0.2,0.3-0.3c0.1-0.1,0.3-0.1,0.5-0.3c1.1,0.4,1.7,1.4,2.7,2.2
		c-0.3,0.5-0.5,0.8-0.8,1.1c-0.8,0.9-1.9,1.4-3,1.8c-2.1,0.8-4.3,0.9-6.5,0.4c-2.5-0.5-4.3-2.1-5.2-4.6c-0.3-1-0.6-2-0.7-3
		c-0.1-1.4-0.1-2.8,0-4.2c0.2-2.9,1.3-5.3,4.1-6.6c2.9-1.4,5.8-1.3,8.7,0.3c1.2,0.7,2.1,1.8,2.7,3.1
		C212.2,388.4,212.1,390.7,212,393z M207.5,389.8c0.3-1.2-0.1-2.1-0.8-2.9c-0.8-0.8-1.9-1.2-3-1.1c-1,0.1-2,0.4-2.7,1.2
		c-0.7,0.8-1.1,1.7-0.8,2.8C201.9,390,205.3,390.1,207.5,389.8z"/>
	<path class="st11" d="M133,391.9c0-1.5,0.1-3.1,0.6-4.6c0.5-1.8,1.5-3.2,3.1-4.1c3.1-1.7,6.3-1.8,9.4,0.1c1.4,0.8,2.3,2,2.8,3.5
		c1.1,3.2,1.1,6.4,0.1,9.5c-0.9,3-3.1,4.7-6.3,5.1c-1.1,0.1-2.2,0.1-3.3,0c-3-0.5-5.1-2.2-6-5.2c-0.2-0.6-0.3-1.1-0.4-1.7
		C133,393.7,133,392.8,133,391.9z M145.2,391.8c-0.1-1-0.1-2-0.3-3c-0.3-1.7-1.6-2.7-3.2-2.8c-1.8-0.1-3.2,0.7-3.8,2.4
		c-0.7,2.3-0.7,4.6,0,6.9c0.3,1,0.9,1.7,1.9,2c2.3,0.7,4.6,0.1,5.1-2.8C145.1,393.6,145.1,392.8,145.2,391.8z"/>
	<path class="st16" d="M244.3,389.8c0-0.5,0.1-0.8,0.1-1.1c-0.2-2-0.8-2.6-2.7-2.8c-1.8-0.2-3.7-0.2-5.3,0.9
		c-0.2,0.1-0.4,0.1-0.7,0.2c-0.8-0.8-1.2-1.8-1.7-2.9c0.4-0.3,0.7-0.6,1-0.8c1.4-0.8,3-1.3,4.6-1.3c1.6,0,3.2-0.1,4.8,0.4
		c2.5,0.7,3.8,2.2,4.1,4.8c0,0.4,0,0.9,0,1.3c0,3.6,0,7.2,0,10.8c0,0.5-0.1,1-0.1,1.6c-1.2,0.3-2.3,0.2-3.3,0.1
		c-0.3,0-0.6-0.5-1-0.9c-0.2,0.1-0.5,0.3-0.9,0.5c-2,1.2-4.2,1.2-6.4,0.6c-3-0.8-3.9-3-4-5.4c0-2.8,1.4-4.5,4-5.4
		c1.1-0.4,2.3-0.5,3.5-0.5C241.6,389.9,242.9,390.1,244.3,389.8z M244.2,393.3c-1.9-0.2-3.7-0.3-5.5,0.3c-1.1,0.3-1.6,1.1-1.6,2.1
		c0,1.1,0.7,1.9,1.8,2.2c0.7,0.1,1.5,0.1,2.2,0.1C243.8,397.8,244.9,396.2,244.2,393.3z"/>
	<path class="st14" d="M81.3,382.6c0.4-0.1,0.7-0.2,1-0.2c1,0,2,0,3.1,0c0.1,0.5,0.3,0.8,0.3,1.1c0,5.5,0,11,0,16.5
		c0,0.3-0.1,0.6-0.2,0.9c-1.2,0.3-2.4,0.2-3.5,0.1c-0.4,0-0.8-0.6-1.2-1c-1.1,0.7-2.3,1.3-3.7,1.4c-3.8,0.3-6.8-2.2-7-6
		c-0.2-4.2,0-8.5,0-12.8c1.4-0.5,2.7-0.3,4.2-0.2c0.1,0.6,0.2,1,0.2,1.5c0,3,0,6,0,9c0,0.8,0.1,1.6,0.3,2.4c0.5,1.5,1.6,2.1,3.2,2.1
		c1.6-0.1,2.7-0.9,3-2.4c0.2-0.8,0.2-1.6,0.2-2.4c0-2.6,0-5.3,0-7.9C81.2,384.1,81.3,383.4,81.3,382.6z"/>
	<path class="st5" d="M170.2,391.8c0,1.5-0.1,3.1-0.6,4.6c-1,3-3.3,4.9-6.5,5.1c-1.2,0.1-2.4,0.1-3.5-0.1c-2.8-0.6-4.7-2.2-5.5-5.1
		c-0.8-2.9-0.8-5.8-0.1-8.7c0.8-3,2.8-4.7,5.8-5.4c1.4-0.3,2.8-0.3,4.2,0c3.4,0.7,5.6,3.1,6,6.7
		C170.2,389.9,170.2,390.8,170.2,391.8z M158,391.7c0.1,1.1,0.1,2.1,0.3,3c0.3,1.8,1.6,2.8,3.4,2.9c2,0.1,3.2-0.7,3.8-2.6
		c0.1-0.4,0.2-0.9,0.2-1.3c0-1.2,0.1-2.5,0-3.7c-0.1-0.8-0.3-1.6-0.7-2.3c-0.5-1.1-1.5-1.6-2.7-1.7c-2-0.1-3.4,0.8-3.9,2.8
		C158.1,389.7,158.1,390.8,158,391.7z"/>
	<path class="st11" d="M394,401c-1.4,0.4-2.6,0.3-3.8,0.1c-0.3,0-0.6-0.6-1-0.9c-0.2,0.1-0.5,0.2-0.7,0.4c-1.7,1.2-3.6,1.2-5.5,0.8
		c-2.4-0.5-4.2-2.7-4.6-5.3c-0.1-0.4-0.1-0.9-0.1-1.3c0-3.7,0-7.3,0-11c0-0.3,0.1-0.6,0.1-1c1.3-0.5,2.7-0.3,4.1-0.2
		c0.1,0.6,0.2,1,0.2,1.5c0,3,0,6,0,9c0,0.8,0.1,1.6,0.3,2.4c0.5,1.5,1.6,2.1,3.2,2.1c1.6-0.1,2.7-0.9,3-2.4c0.2-0.8,0.2-1.6,0.2-2.4
		c0-2.6,0-5.3,0-7.9c0-0.7,0.1-1.4,0.1-2.2c1.4-0.3,2.7-0.2,4.2-0.1c0.1,0.4,0.3,0.8,0.3,1.3c0,5.4,0,10.7,0,16.1
		C394.1,400.2,394,400.5,394,401z"/>
	<path class="st15" d="M42.6,400.1c-1.5,1.2-3.2,1.7-5.1,1.4c-2.8-0.3-4.8-2.1-5.4-5c-0.1-0.6-0.2-1.3-0.2-2c0-3.7,0-7.3,0-11
		c0-0.3,0.1-0.6,0.1-1c1.4-0.3,2.7-0.2,4.2,0c0,0.7,0.1,1.3,0.1,2c0,2.6,0,5.3,0,7.9c0,0.8,0,1.6,0.1,2.4c0.3,1.5,1.2,2.4,2.6,2.6
		c1.7,0.2,2.9-0.4,3.6-1.8c0.4-0.8,0.4-1.7,0.4-2.6c0-2.7,0-5.4,0-8.1c0-0.7,0-1.4,0-2.3c1.5-0.5,2.8-0.3,4.1-0.2
		c0.3,1.8,0.4,16.1,0.1,18.4c-1.1,0.5-2.3,0.3-3.4,0.2C43.5,401.1,43.2,400.5,42.6,400.1z"/>
	<path class="st11" d="M357.6,398.4c0.2-0.3,0.4-0.6,0.6-0.8c0.6-0.6,1.2-1.3,1.9-2c0.5,0.2,0.9,0.4,1.2,0.6
		c1.2,0.8,2.5,1.3,3.9,1.5c1,0.2,2.1,0,3-0.4c0.8-0.3,1.3-1.2,1.2-1.9c-0.1-0.8-0.6-1.3-1.4-1.5c-1-0.2-2-0.3-3-0.5
		c-0.9-0.1-1.8-0.2-2.6-0.5c-2.2-0.6-3.5-2.1-3.7-4.4c-0.2-2.3,0.5-4.2,2.5-5.5c0.5-0.3,1-0.6,1.6-0.7c3.4-0.9,6.7-0.5,9.7,1.5
		c0.2,0.2,0.4,0.4,0.6,0.7c-0.6,1.1-1.3,2-2.3,2.8c-0.5-0.2-0.9-0.5-1.4-0.7c-1.1-0.5-2.2-0.8-3.4-0.8c-0.7,0-1.3,0.1-1.9,0.3
		c-0.7,0.2-1.1,0.7-1.1,1.5c0,0.8,0.4,1.3,1,1.5c0.7,0.2,1.4,0.4,2.1,0.5c1,0.2,2,0.2,3.1,0.4c2.8,0.6,4.3,2.1,4.6,4.6
		c0.2,1.9-0.5,4.6-3.2,6c-1.3,0.7-2.8,0.9-4.3,0.9C362.9,401.8,360.3,400.8,357.6,398.4z"/>
	<path class="st11" d="M341.7,400.9c-1.6,0.3-2.9,0.2-4.1,0.1c-0.1-0.4-0.2-0.6-0.2-0.8c0-5.7,0-11.3,0-17c0-0.2,0.1-0.4,0.2-0.7
		c1.3-0.2,2.6-0.2,3.9-0.1c0.2,0.4,0.3,0.7,0.5,1.1c0.4-0.2,0.8-0.5,1.1-0.7c4-2.3,9.9-0.4,10,5.7c0.1,3.7,0,7.5,0,11.2
		c0,0.3-0.1,0.6-0.1,1c-1.3,0.5-2.7,0.3-4.1,0.1c-0.1-0.6-0.1-1.1-0.1-1.6c0-2.9,0-5.9,0-8.8c0-0.9-0.1-1.8-0.4-2.6
		c-0.4-1.3-1.5-1.9-2.9-2c-1.5-0.1-2.6,0.5-3.2,1.8c-0.3,0.9-0.5,1.8-0.5,2.8c-0.1,2.6,0,5.3,0,7.9
		C341.7,399.3,341.7,400,341.7,400.9z"/>
	<path class="st11" d="M275.5,382.6c0.5-0.1,0.8-0.1,1.1-0.1c1,0,2,0,3.2,0c0.2,0.5,0.5,0.9,0.7,1.4c1,2.8,2,5.7,2.9,8.5
		c0.2,0.6,0.4,1.2,0.7,2.1c0.3-0.5,0.5-0.9,0.7-1.2c1-3,2-6,3-9c0.2-0.5,0.4-1.1,0.6-1.6c1.5-0.2,2.8-0.2,4.2,0
		c-0.2,1.5-5.2,15.4-6.5,18.2c-1.5,0.5-1.5,0.5-3.8,0.2c-0.2-0.3-0.5-0.7-0.6-1.1c-2-5.4-4-10.9-6-16.3
		C275.6,383.4,275.6,383.1,275.5,382.6z"/>
	<path class="st15" d="M472.6,385.3c-0.7,0.9-1.7,1.7-2.7,2.5c-0.6-0.4-1-0.8-1.5-1.1c-2.6-1.7-5.6-0.4-5.9,2.6
		c-0.2,1.7-0.2,3.4,0,5c0.4,3,3.2,4.2,5.8,2.6c0.5-0.3,1-0.7,1.5-1.1c0.5,0.3,1,0.7,1.4,1c0.5,0.4,0.9,0.9,1.4,1.4
		c-0.5,1.1-1.3,1.7-2.2,2.2c-2.5,1.4-5.1,1.4-7.7,0.6c-2.3-0.8-3.8-2.4-4.5-4.8c-0.8-3-0.8-6,0-8.9c0.7-2.6,2.5-4.3,5.1-5
		c3.3-0.8,6.3-0.4,8.8,2.1c0.2,0.2,0.3,0.3,0.4,0.5C472.6,385.1,472.5,385.1,472.6,385.3z"/>
	<path class="st14" d="M254.7,386.2c-0.7-0.2-1.2-0.3-1.7-0.4c-0.5-1-0.2-2-0.2-3c0.6-0.2,1.1-0.3,1.7-0.4c0.6-1.7,0-3.5,0.4-5.2
		c1.3-0.5,2-0.5,4.1-0.1c0.5,1.7,0,3.4,0.3,5.2c0.8,0.7,1.9,0,2.8,0.7c0.2,0.9,0.2,1.9,0,3c-0.9,0.1-1.7,0.2-2.7,0.3
		c-0.1,0.4-0.2,0.8-0.2,1.2c0,2.6,0,5.3,0,7.9c0,0.1,0,0.3,0,0.4c0.1,1.3,0.3,1.6,1.7,1.8c0.4,0.1,0.7,0.1,1.1,0.1
		c0.4,1.2,0.3,2.3,0.1,3.6c-1.8,0.5-3.6,0.4-5.3-0.4c-1.2-0.6-1.8-1.7-2-3c-0.1-0.7-0.1-1.5-0.1-2.2c0-2.4,0-4.8,0-7.3
		C254.7,387.7,254.7,387,254.7,386.2z"/>
	<path class="st12" d="M331.2,401c-1.4,0.3-2.8,0.3-4.3-0.1c-0.1-0.3-0.1-0.6-0.1-0.9c0-8.1,0-16.3,0-24.4c0-0.2,0.1-0.4,0.2-0.7
		c1.4-0.3,2.8-0.3,4.3,0c0.1,0.3,0.2,0.5,0.2,0.7c0,8.2,0,16.4,0,24.7C331.4,400.5,331.3,400.7,331.2,401z"/>
	<path class="st15" d="M217.3,401.1c-0.3-2.4-0.3-16.8,0-18.5c1.3-0.3,2.6-0.1,3.9-0.1c0.2,0.4,0.4,0.7,0.5,1c0.1,0,0.3,0.1,0.4,0
		c1.4-1.3,3.1-1.7,4.9-1.5c1.3,0.1,2.5,0.7,3.4,1.7c-0.6,1.3-1.5,2.1-2.3,3.1c-0.5-0.2-0.9-0.3-1.3-0.5c-0.4-0.1-0.8-0.3-1.3-0.4
		c-2-0.3-3.5,0.7-3.9,2.7c-0.2,0.9-0.2,1.7-0.2,2.6c0,2.4,0,4.8,0,7.3c0,0.7,0,1.5,0,2.2C220.1,401.5,218.8,401.2,217.3,401.1z"/>
	<path class="st11" d="M53.7,382.6c1.3,0,2.6,0,3.9,0c0.2,0.4,0.4,0.7,0.6,1.1c0.2-0.1,0.5-0.3,0.7-0.4c2.5-1.6,5.1-1.6,7.4,0
		c0.2,0.1,0.3,0.3,0.4,0.5c-0.6,1.5-0.7,1.6-2.4,3.2c-0.5-0.2-1-0.4-1.6-0.6c-2.5-0.8-4.4,0.4-4.7,3c-0.1,0.6-0.1,1.2-0.1,1.8
		c0,2.6,0,5.1,0,7.7c0,0.7,0,1.4,0,2.2c-1.5,0.5-2.8,0.3-4.3,0.2c-0.4-1.3-0.2-2.5-0.2-3.7c0-1.2,0-2.5,0-3.7c0-1.2,0-2.3,0-3.5
		c0-1.2,0-2.5,0-3.7C53.5,385.1,53.2,383.8,53.7,382.6z"/>
	<path class="st11" d="M88.2,408c0-1.3,0-2.4,0-3.4c0.5-0.7,1.2-0.4,1.7-0.5c1.1-0.2,1.5-0.6,1.6-1.7c0.1-0.6,0-1.2,0-1.8
		c0-5.2,0-10.4,0-15.6c0-0.7,0-1.5,0-2.1c1.5-0.5,2.1-0.5,4.3-0.2c0,0.4,0.1,0.8,0.1,1.2c0,6,0,12,0,18c0,0.5,0,1-0.1,1.5
		c-0.4,2.5-1.9,4.1-4.4,4.5C90.5,408.1,89.5,408,88.2,408z"/>
	<path class="st5" d="M400,382.5c1.5,0,2.7,0,4,0c0.2,0.4,0.4,0.7,0.5,1.1c3.7-2.2,6.3-2.2,8.6,0.2c-0.4,1.2-1.4,1.9-2.1,3
		c-0.6-0.2-1-0.4-1.5-0.5c-0.7-0.2-1.4-0.4-2.1-0.4c-1.2,0-2.1,0.6-2.6,1.8c-0.4,1-0.6,2-0.6,3c0,2.8,0,5.6,0,8.4c0,0.5,0,1,0,1.6
		c-1.4,0.6-2.8,0.3-4.2,0.2c-0.4-1.6-0.2-3.1-0.2-4.6c0-1.5,0-3.1,0-4.6c0-1.5,0-2.9,0-4.4C399.9,385.8,399.8,384.3,400,382.5z"/>
	<path class="st12" d="M308.3,294c0-0.8,0-1.5,0-2.3c0.7-0.2,1.4-0.3,2.1-0.5c0.3-0.5-0.1-1-0.3-1.4c-0.4-1.2-0.4-2.3-0.2-3.5
		c0.5-2.8,2.7-4.7,5.5-4.8c1.2-0.1,2.5-0.1,3.7,0.4c1,0.4,1.8,1,2.3,1.9c-0.2,1-1,1.3-1.7,1.8c-0.5-0.3-1-0.7-1.5-0.9
		c-1.4-0.8-3.1-0.7-4.1,0.2c-1.1,0.9-1.5,2.8-0.9,4.3c0.1,0.3,0.3,0.7,0.5,1c0.6,0.9,1.4,1.4,2.6,1.4c1.2-0.1,2.3,0,3.5,0
		c0.6,0,1.2,0.1,1.7,0.1c0.5,1.3,0.5,1.3,0.2,2.5C320,294.3,310.7,294.3,308.3,294z"/>
	<path class="st11" d="M267.3,382.6c1.4-0.2,2.6-0.2,4,0c0.3,2.1,0.1,4.1,0.2,6.1c0,2,0,4,0,5.9c0,2,0,4.1,0,6.2
		c-1.4,0.3-2.7,0.2-4.1,0.1c-0.1-0.3-0.3-0.7-0.3-1c0-5.6,0-11.1,0-16.7C267.2,383.2,267.2,383,267.3,382.6z"/>
	<path class="st17" d="M29.1,362.8c-0.5-1.7-0.5-4,0-5.7c1.5-0.4,3-0.2,4.5-0.1c0.5,0,0.8,0.4,0.8,0.9c0,1.4,0,2.8,0,4.2
		c0,0.5-0.3,0.9-0.8,0.9C32.2,363,30.6,363.2,29.1,362.8z"/>
	<path class="st17" d="M237.8,317.9c-1.9,0.3-3.5,0.2-5.3,0.1c-0.4-1.9-0.2-3.7-0.2-5.4c0.5-0.6,1.2-0.5,1.7-0.5c0.7,0,1.3,0,2,0
		c0.6,0,1.2-0.1,1.7,0.5C238,314.2,238,315.9,237.8,317.9z"/>
	<path class="st14" d="M490.3,351.1c-1.7,0-3.3,0-4.9,0c-0.8-0.9-0.4-1.9-0.4-2.8c0-0.9-0.2-1.9,0.2-2.8c1.7-0.5,3.5-0.5,5.2,0
		C490.8,347.1,490.8,349.1,490.3,351.1z"/>
	<path class="st17" d="M26.7,362.8c-1.7,0.3-3.3,0.2-4.8,0.1c-0.5,0-0.8-0.4-0.8-0.9c0-1.4,0-2.8,0-4.2c0-0.5,0.3-0.9,0.8-0.9
		c1.5-0.1,3-0.2,4.6,0.1C27,359,26.8,360.8,26.7,362.8z"/>
	<path class="st14" d="M262.2,345.5c0,1,0.1,1.6,0.1,2.3c0,1.1,0,2.2,0,3.2c-1.8,0.6-3.8,0.6-5.5,0c-0.2-1.7-0.2-3.4,0-5.3
		C258.6,345.2,260.3,345.5,262.2,345.5z"/>
	<path class="st14" d="M270,351.1c-1.8,0.5-3.5,0.3-5.3,0.2c-0.4-1.9-0.2-3.7-0.2-5.6c1.9-0.4,3.6-0.3,5.4-0.1
		C270.3,347.5,270.2,349.2,270,351.1z"/>
	<path class="st15" d="M332.6,302.3c0.2,2,0.3,3.7,0,5.4c-1.6,0.4-3.4,0.5-5.4,0.1c-0.3-0.8-0.1-1.7-0.2-2.5c0-0.9,0-1.7,0-2.7
		C328.9,301.9,330.6,302.2,332.6,302.3z"/>
	<path class="st14" d="M64.8,307.8c-1.7,0.3-3.4,0.2-5.1,0.1c-0.5-1.3-0.6-3-0.2-5.5c1.7-0.4,3.4-0.2,5.3-0.1
		C65.1,304.1,65.1,305.9,64.8,307.8z"/>
	<path class="st14" d="M411.9,351c0-1.8,0-3.5,0-5.1c0.9-0.7,1.9-0.4,2.8-0.4c0.9,0,1.7-0.1,2.7,0.2c0.3,1.7,0.2,3.5,0.1,5.2
		c-0.9,0.7-1.9,0.4-2.8,0.4C413.8,351.3,412.9,351.4,411.9,351z"/>
	<path class="st14" d="M166.5,302.3c0,1.6,0,3,0,4.4c0,0.4-0.1,0.7-0.1,1.1c-1.8,0.3-3.5,0.3-5.4,0c-0.2-1.8-0.1-3.5-0.1-5.4
		C162.8,301.9,164.5,302.2,166.5,302.3z"/>
	<path class="st14" d="M340.2,302.3c0.2,1.9,0.2,3.7,0,5.5c-1.8,0.3-3.5,0.3-5.3,0c-0.3-1.9-0.3-3.7,0-5.5
		C336.7,302.1,338.4,302.1,340.2,302.3z"/>
	<path class="st13" d="M158.6,307.9c-1.8,0-3.4,0-5.1,0c-0.5-1.8-0.3-3.6-0.1-5.5c1.7-0.4,3.4-0.2,5.1-0.1
		C159,304.1,158.8,305.9,158.6,307.9z"/>
	<path class="st11" d="M91.7,375c1.5-0.4,2.8-0.3,4.2-0.1c0,0.7,0.1,1.4,0.1,2c0,0.6,0,1.2,0,1.8c-1.5,0.5-2.8,0.3-4.3,0.2
		C91.5,377.6,91.6,376.4,91.7,375z"/>
	<path class="st14" d="M267.3,379c-0.2-1.5-0.2-2.7,0-4c1.4-0.4,2.7-0.4,4.1,0c0.2,1.3,0.2,2.5,0,3.8
		C270.1,379.2,268.8,378.9,267.3,379z"/>
	<path class="st0" d="M49.7,224.6c0,0.1-0.1,0.2-0.1,0.2c0,0,0-0.1,0-0.1C49.6,224.6,49.7,224.6,49.7,224.6
		C49.7,224.6,49.7,224.6,49.7,224.6z"/>
</g>
</svg>
