<?xml version="1.0" encoding="UTF-8"?>
<svg width="213px"
     height="47px"
     viewBox="0 0 213 47"
     version="1.1" xmlns="http://www.w3.org/2000/svg" xmlns:xlink="http://www.w3.org/1999/xlink">

    <defs>
        <linearGradient id="gradient_bg_default" x1="50%" y1="0%" x2="50%" y2="100%">
            <stop stop-color="#EDEDED" stop-opacity="0.15" offset="0%"></stop>
            <stop stop-color="#EDEDED" stop-opacity="0.2" offset="42.3432221%"></stop>
            <stop stop-color="#EDEDED" stop-opacity="0.6" offset="46.1465372%"></stop>
            <stop stop-color="#EDEDED" stop-opacity="0.8" offset="100%"></stop>
        </linearGradient>
        <linearGradient x1="50%" y1="0%" x2="50%" y2="100%" id="gradient_bg_hoverclick">
            <stop stop-color="#EDEDED" stop-opacity="0.2" offset="0%"></stop>
            <stop stop-color="#EDEDED" stop-opacity="0.5" offset="42.3432221%"></stop>
            <stop stop-color="#EDEDED" stop-opacity="0.6" offset="46.1465372%"></stop>
            <stop stop-color="#EDEDED" offset="100%"></stop>
        </linearGradient>
        <rect id="main_button_bg" x="0" y="0"
              width="211.0"
              height="45.0"
              rx="22.5">
        </rect>
        <filter id="button_shadow" x="-0.9%" y="-2.2%" width="101.9%" height="108.9%" filterUnits="objectBoundingBox">
            <feOffset dx="0" dy="1" in="SourceAlpha" result="shadowOffsetOuter1"></feOffset>
            <feGaussianBlur stdDeviation="0.5" in="shadowOffsetOuter1" result="shadowBlurOuter1"></feGaussianBlur>
            <feComposite in="shadowBlurOuter1" in2="SourceAlpha" operator="out" result="shadowBlurOuter1"></feComposite>
            <feColorMatrix values="0 0 0 0 0.28627451   0 0 0 0 0.28627451   0 0 0 0 0.28627451  0 0 0 0.5 0" type="matrix" in="shadowBlurOuter1"></feColorMatrix>
        </filter>
        <filter id="button_inner_shadow" x="-1.4%" y="-4.4%" width="102.8%" height="113.3%"
                filterUnits="objectBoundingBox">
            <feGaussianBlur stdDeviation="1.5" in="SourceAlpha" result="shadowBlurInner1"></feGaussianBlur>
            <feOffset dx="0" dy="-1" in="shadowBlurInner1" result="shadowOffsetInner1"></feOffset>
            <feComposite in="shadowOffsetInner1" in2="SourceAlpha" operator="arithmetic" k2="-1" k3="1"
                         result="shadowInnerInner1"></feComposite>
            <feColorMatrix values="0 0 0 0 1   0 0 0 0 1   0 0 0 0 1  0 0 0 1 0" type="matrix"
                           in="shadowInnerInner1"></feColorMatrix>
        </filter>
        <polygon id="mask_path_logo_src" points="0 0 34.9809142 0 34.9809142 21.8377712 0 21.8377712"></polygon>
        <polygon id="mask_path_logo_visa"
                 points="0 8.5531005e-05 46.880628 8.5531005e-05 46.880628 14.9164576 0 14.9164576"></polygon>
    </defs>

    <g id="SVG" stroke="none" stroke-width="1" fill="none" fill-rule="evenodd">
        <g id="button_group" transform="translate(1.000000, 0.000000)">
            <g id="button_bg_default_md">
                <use fill="black" fill-opacity="1" filter="url(#button_shadow)" xlink:href="#main_button_bg"></use>
                <use fill="#FFFFFF" fill-rule="evenodd" xlink:href="#main_button_bg"></use>
                <use fill="url(#gradient_bg_default)" fill-rule="evenodd" xlink:href="#main_button_bg"></use>
                <use fill="black" fill-opacity="1" filter="url(#button_inner_shadow)"
                     xlink:href="#main_button_bg"></use>
                <rect id="main_button_stroke"
                      stroke="#494949"
                      stroke-width="1.0"
                      stroke-linejoin="square"
                      x="0.5"
                      y="0.5"
                      width="210.0"
                      height="44.0"
                      rx="22.0">
                </rect>
            </g>

            <g id="main_content" transform="translate(17.000000, 9.000000)">

                <g id="md_logo_src" transform="translate(0.000000, 2.500000)">
                    <g id="vdcp_logo_lg">
                        <g id="SRC_icon/black">
                            <g>
                                <mask id="mask-6" fill="white">
                                    <use xlink:href="#mask_path_logo_src"></use>
                                </mask>
                                <g id="Clip-2"></g>

                                <path
                                    d="M34.6936897,10.220866 L26.3124636,0.499467767 C26.1357203,0.211277448 25.8161609,0.0187955996 25.45141,0.0187955996 C24.8951648,0.0187955996 24.4441877,0.466322552 24.4441877,1.01860968 C24.4441877,1.30959538 24.5695709,1.57156238 24.7695134,1.75432695 L32.3622337,10.8912246 L24.8538621,19.8545426 L24.0351839,19.8545426 L21.6102605,19.8545426 L28.7060077,11.6588891 C28.710567,11.6538308 28.7147241,11.6487725 28.7191494,11.6437142 L28.7206245,11.6442466 C28.9182874,11.4286031 29.0062567,11.1766196 29.0015632,10.9282301 C29.0062567,10.6799738 28.9182874,10.4279903 28.7206245,10.2123468 L28.7191494,10.2127461 C28.7147241,10.2076878 28.710567,10.2026295 28.7060077,10.1977043 L20.2327893,0.515308251 C20.2309119,0.513045325 20.2290345,0.510782398 20.227023,0.508519472 C20.0516207,0.215270847 19.7292452,0.0187955996 19.3608736,0.0187955996 L13.4099349,0.0187955996 C12.8536897,0.0187955996 12.4027126,0.466322552 12.4027126,1.01860968 C12.4027126,1.18619934 12.4257778,1.36044466 12.5180383,1.48304202 L20.4043027,10.9653688 L13.6829617,18.9698715 C13.643,19.0095393 13.0638238,19.8288517 12.0454713,19.8288517 L4.0181341,19.8288517 C2.92642912,19.8288517 2.02112261,18.9831828 2.02112261,17.8598396 L2.02112261,3.98424114 C2.02112261,3.00639076 2.92642912,2.00205083 4.04280843,2.00205083 L9.03681226,2.00205083 C9.62550958,2.00205083 10.0440345,1.60297712 10.0440345,1.01860968 C10.0440345,0.434242244 9.62550958,-0.000106490649 9.03681226,-0.000106490649 L3.99386207,0.0197273927 C1.60487739,0.0197273927 -2.68199234e-05,1.97556128 -2.68199234e-05,3.96387481 L-2.68199234e-05,17.8598396 C-2.68199234e-05,20.000701 1.90137165,21.8242202 3.99386207,21.8242202 L12.0189195,21.8242202 C12.4236322,21.8242202 12.7938812,21.7653842 13.1272529,21.6711399 C13.1748582,21.6576955 13.2217931,21.6434524 13.2677893,21.6286768 C14.3742452,21.2727318 15.0420613,20.5414073 15.1713333,20.3864634 L22.7356245,11.6355943 C23.0934023,11.2326603 23.1410077,10.6482928 22.7415249,10.2123468 L22.7400498,10.2127461 C22.7356245,10.2076878 22.7314674,10.2026295 22.7270421,10.1977043 L15.5718889,2.00205083 L18.0562184,2.00205083 L18.8748966,2.00205083 L26.3522912,10.9283633 L18.483728,20.3499903 C18.4811801,20.3527857 18.4860077,20.3609056 18.4971379,20.3735514 C18.4236513,20.5123886 18.3818123,20.6702609 18.3818123,20.8379837 C18.3818123,21.3901377 18.8327893,21.8377978 19.3889004,21.8377978 L25.3398391,21.8377978 C25.7083448,21.8377978 26.0304521,21.6410563 26.2061226,21.3479408 C26.208,21.3456779 26.2098774,21.343415 26.2117548,21.3412851 L34.6851073,11.6588891 C34.6895326,11.6538308 34.6936897,11.6487725 34.6981149,11.6437142 L34.69959,11.6442466 C35.0989387,11.2081674 35.0514674,10.6238 34.6936897,10.220866"
                                    id="Fill-1" fill="#000000" mask="url(#mask-6)"></path>
                            </g>
                        </g>
                    </g>
                </g>

                <g id="md_bar" transform="translate(41.000000, 2.500000)" fill-rule="nonzero">
                    <polygon id="divider" fill="#A3A3A3" points="0 0 0 22 1 22 1 0"></polygon>
                    <polygon id="divider-copy" fill="#FFFFFF" points="1 0 1 22 2 22 2 0"></polygon>
                </g>

                <g id="color_src_height_medium_am_visa"
                   display="{AM_VISA_DISPLAY_NONE_PLACEHOLDER}"
                   transform="translate(49.000000, 6.750000)">
                   <rect id="Rectangle" x="0" y="0" width="42" height="14"></rect>
                   <path d="M20.76398,0.238807896 L17.9615261,13.2956393 L14.5733428,13.2956393 L17.3759909,0.238807896 L20.76398,0.238807896 Z M35.0200932,8.66965553 L36.804073,3.76654625 L37.8307011,8.66965553 L35.0200932,8.66965553 Z M38.8006394,13.2956393 L41.9348837,13.2956393 L39.1999916,0.238807896 L36.3066787,0.238807896 C35.6568822,0.238807896 35.1082341,0.615791511 34.8643905,1.19674881 L29.7807566,13.2956393 L33.3386208,13.2956393 L34.0453013,11.3458909 L38.3925509,11.3458909 L38.8006394,13.2956393 Z M29.9574267,9.03270546 C29.9717933,5.58644046 25.1760734,5.39659399 25.209466,3.85711521 C25.2193673,3.38859502 25.6672551,2.89065927 26.6463182,2.76312734 C27.1326463,2.69984518 28.469709,2.6512708 29.9879071,3.34776158 L30.582373,0.579022062 C29.7671666,0.283705328 28.7178238,0 27.4127947,0 C24.0638283,0 21.7061559,1.77499677 21.6863533,4.3165398 C21.6651917,6.19603922 23.3689905,7.24454909 24.6532463,7.86962973 C25.9730303,8.50980519 26.416647,8.91968778 26.4110169,9.49193652 C26.4022804,10.3685976 25.3577912,10.7546768 24.3835817,10.7699652 C22.6795888,10.7968649 21.6910127,10.3115082 20.9027922,9.94536189 L20.288718,12.8062186 C21.0804331,13.1688814 22.5415531,13.483744 24.0576157,13.5 C27.6168389,13.5 29.9457781,11.7466778 29.9574267,9.03270546 L29.9574267,9.03270546 Z M15.9220541,0.238807896 L10.4320789,13.2956393 L6.84975263,13.2956393 L4.1484472,2.87537092 C3.98420224,2.23345375 3.84170129,1.99870984 3.34255969,1.72835763 C2.5291006,1.28789834 1.18368975,0.874532318 0,0.618113792 L0.0811517657,0.238807896 L5.84642171,0.238807896 C6.58125289,0.238807896 7.24230973,0.726293381 7.40907855,1.56986195 L8.83602946,9.12598374 L12.3622484,0.238807896 L15.9220541,0.238807896 L15.9220541,0.238807896 Z" id="Visa-Brand-Mark\vbm_blu-Copy" fill="#1A1F71"></path>
                </g>

                <g id="color_src_height_medium_am_mastercard"
                   display="{AM_MASTERCARD_DISPLAY_NONE_PLACEHOLDER}"
                   transform="translate(97.000000, 1.300000)">
                    <g id="MC_L@1x" transform="translate(0.000000, 0.550000)">
                        <rect id="Rectangle-path" fill="#FF5F00" fill-rule="nonzero" x="13.5443326" y="2.55483871"
                              width="11.3815626" height="18.0754839"></rect>
                        <path
                            d="M14.7474576,11.5925806 C14.7474576,7.92 16.509322,4.66258064 19.2173728,2.55483871 C17.2271186,1.02193549 14.7148305,0.0958064514 11.9741526,0.0958064514 C5.48135593,0.0958064514 0.228389831,5.23741936 0.228389831,11.5925806 C0.228389831,17.9477419 5.48135593,23.0893549 11.9741526,23.0893549 C14.7148305,23.0893549 17.2271186,22.1632258 19.2173728,20.6303226 C16.509322,18.5225806 14.7474576,15.2651613 14.7474576,11.5925806 L14.7474576,11.5925806 Z"
                            id="XMLID_330_" fill="#EB001B" fill-rule="nonzero"></path>
                        <path
                            d="M38.2389831,11.5925806 C38.2389831,17.9477419 32.9860169,23.0893549 26.4932203,23.0893549 C23.7525424,23.0893549 21.2402542,22.1632258 19.25,20.6303226 C21.990678,18.5225806 23.7199153,15.2651613 23.7199153,11.5925806 C23.7199153,7.92 21.9580508,4.66258064 19.25,2.55483871 C21.2402542,1.02193549 23.7525424,0.0958064514 26.4932203,0.0958064514 C32.9860169,0.0958064514 38.2389831,5.23741936 38.2389831,11.5925806 L38.2389831,11.5925806 Z M37.129661,18.7141936 L37.129661,18.3309677 L37.2927966,18.3309677 L37.2927966,18.2670968 L36.9012712,18.2670968 L36.9012712,18.3309677 L37.0644068,18.3309677 L37.0644068,18.7141936 L37.129661,18.7141936 L37.129661,18.7141936 Z M37.8800847,18.7141936 L37.8800847,18.2670968 L37.7495762,18.2670968 L37.6190678,18.5864516 L37.4885593,18.2670968 L37.3580508,18.2670968 L37.3580508,18.7141936 L37.4559322,18.7141936 L37.4559322,18.3629032 L37.5864407,18.6503226 L37.684322,18.6503226 L37.8148305,18.3629032 L37.8148305,18.7141936 L37.8800847,18.7141936 L37.8800847,18.7141936 Z"
                            id="Shape" fill="#F79E1B" fill-rule="nonzero"></path>
                    </g>
                </g>

                <g id="color_src_height_medium_am_americanexpress"
                   display="none"
                   transform="translate({AM_AMEX_X_RELATIVE_TO_SRC_LOGO_PLACEHOLDER}.000000, 0.000000)"
                   fill-rule="nonzero">
                    <rect id="Rectangle" fill="#FFFFFF" x="0" y="0" width="26.8981132" height="26.8981132"></rect>
                    <path
                        d="M0,0 L0,26.8981132 L26.8981132,26.8981132 L26.8981132,22.7911075 L22.962583,22.7911075 L21.6252425,21.2688425 L20.2542792,22.7911075 L9.7093783,22.7911075 L9.7093783,14.2383481 L6.08737925,14.2383481 L10.8046358,4.12465755 L15.0536972,4.12465755 L15.8522349,5.85538302 L15.8522349,4.12465755 L21.3033057,4.12465755 L22.1279009,6.35720094 L22.9348443,4.12465755 L26.8981132,4.12465755 L26.8981132,0 L0,0 Z M24.0645651,5.73013868 L22.3430858,10.1590811 L22.1279009,10.7146953 L21.912716,10.1590811 L20.200483,5.73013868 L17.3576887,5.73013868 L17.3576887,12.7051557 L14.0593075,5.73013868 L11.8713142,5.73013868 L8.57125189,12.7051557 L10.3910774,12.7051557 L10.9836764,11.3787425 L14.9192066,11.3787425 L15.5202113,12.7051557 L17.3576887,12.7051557 L18.9715755,12.7051557 L18.9715755,6.74302075 L19.3935396,7.80045283 L21.3386094,12.7051557 L22.9264387,12.7051557 L24.8631028,7.80045283 L25.2842264,6.74302075 L25.2842264,12.7051557 L26.8981132,12.7051557 L26.8981132,5.73013868 L24.0645651,5.73013868 Z M12.4538264,8.09633208 L12.9472387,7.00275566 L13.4398104,8.09633208 L14.3097962,10.0153443 L11.5930868,10.0153443 L12.4538264,8.09633208 Z M23.8493802,14.2383481 L21.670633,16.5700783 L19.5196245,14.2383481 L17.3576887,14.2383481 L11.3779019,14.2383481 L11.3779019,21.186467 L17.3576887,21.186467 L17.3576887,19.8155038 L12.9917887,19.8155038 L12.9917887,18.3890632 L17.2685887,18.3890632 L17.2685887,17.0265057 L12.9917887,17.0265057 L12.9917887,15.6101519 L17.3576887,15.6101519 L17.3576887,14.2383481 L20.5854623,17.7258566 L17.3576887,21.186467 L19.4204377,21.186467 L21.6168368,18.8471717 L23.7871783,21.186467 L25.9381868,21.186467 L22.7020075,17.6905528 L25.9381868,14.2383481 L23.8493802,14.2383481 Z M24.8546972,17.6989585 L26.8981132,19.7617075 L26.8981132,15.6639481 L24.8546972,17.6989585 Z"
                        id="Fill-1" fill="#006FCF"></path>
                </g>
                <g id="color_src_height_medium_am_discover"
                   display="{AM_DISCOVER_DISPLAY_NONE_PLACEHOLDER}"
                   transform="translate(142, 2.350000)" fill-rule="nonzero">
                    <path d="M34.5731707,11.9512195 C34.5731707,11.9512195 25.0782018,18.7344904 7.68292683,21.7682927 L34.5731707,21.7682927 L34.5731707,11.9512195 Z" id="Path" fill="#F78D1E"/>
                    <path d="M34.8732023,0 L0,0.00380901355 L0,22.195122 L35,22.195122 L35,0.00380901355 L34.8732023,0.00380901355 L34.8732023,0 Z M34.7464047,0.251394894 L34.7464047,21.939918 L0.253595345,21.939918 C0.253595345,21.6923322 0.253595345,0.498980775 0.253595345,0.251394894 C0.503348337,0.251394894 34.4928093,0.251394894 34.7464047,0.251394894" id="Shape" fill="#000000"/>
                    <path d="M3.19176942,6.40243902 L1.70731707,6.40243902 L1.70731707,11.5243902 L3.18389434,11.5243902 C3.97140221,11.5243902 4.53840788,11.341741 5.03453785,10.9336948 C5.62516875,10.4518117 5.97560976,9.7212147 5.97560976,8.96730079 C5.97560976,7.45558681 4.83372334,6.40243902 3.19176942,6.40243902 M4.37303123,10.2497317 C4.05409054,10.5334209 3.64064891,10.6577779 2.98701737,10.6577779 L2.71532715,10.6577779 L2.71532715,7.26905141 L2.98701737,7.26905141 C3.64064891,7.26905141 4.03834038,7.38563603 4.37303123,7.68486991 C4.72347223,7.99187609 4.93216182,8.46987305 4.93216182,8.95952848 C4.93216182,9.45307006 4.72347223,9.94272549 4.37303123,10.2497317" id="Shape" fill="#000000"/>
                    <rect id="Rectangle" fill="#000000" x="5.97560976" y="6.40243902" width="1" height="5.12195122"/>
                    <path d="M9.49941099,8.53534006 C8.85003079,8.30464678 8.65606008,8.15085126 8.65606008,7.86349647 C8.65606008,7.52757467 8.9976172,7.27259789 9.46567696,7.27259789 C9.79036706,7.27259789 10.0560226,7.40210991 10.3385452,7.7056537 L10.907807,6.9933376 C10.4397473,6.6007543 9.88313566,6.40243902 9.275923,6.40243902 C8.29341919,6.40243902 7.54283687,7.05809361 7.54283687,7.93229973 C7.54283687,8.66889933 7.8928275,9.04529363 8.90906535,9.39335717 C9.33495756,9.53905819 9.55001205,9.63214495 9.65964767,9.69690096 C9.87470215,9.83450748 9.98433777,10.0247283 9.98433777,10.247327 C9.98433777,10.6803828 9.62591363,11.0001156 9.14098685,11.0001156 C8.62232604,11.0001156 8.20908409,10.7532334 7.95607882,10.2877995 L7.25609756,10.9353596 C7.7536746,11.6395812 8.3566705,11.9512195 9.17893765,11.9512195 C10.3048111,11.9512195 11.097561,11.2308089 11.097561,10.19876 C11.097561,9.35288467 10.7349201,8.96839587 9.49941099,8.53534006" id="Path" fill="#000000"/>
                    <path d="M11.097561,9.18286493 C11.097561,10.7440882 12.3721788,11.9512195 14.015765,11.9512195 C14.4811682,11.9512195 14.8752935,11.8626965 15.3658537,11.6413891 L15.3658537,10.4221865 C14.933993,10.8366349 14.5524462,11.0016095 14.0660789,11.0016095 C12.980138,11.0016095 12.2086588,10.2451405 12.2086588,9.17079361 C12.2086588,8.1527795 13.0052949,7.34802526 14.015765,7.34802526 C14.5314821,7.34802526 14.9172217,7.52507119 15.3658537,7.94354339 L15.3658537,6.72836449 C14.8920648,6.49900953 14.5021323,6.40243902 14.0409219,6.40243902 C12.4057214,6.4064628 11.097561,7.64176055 11.097561,9.18286493" id="Path" fill="#000000"/>
                    <polygon id="Path" fill="#000000" points="23.0427166 10.0345919 21.6237704 6.40243902 20.4878049 6.40243902 22.7476081 11.9512195 23.309527 11.9512195 25.6097561 6.40243902 24.4818758 6.40243902"/>
                    <polygon id="Path" fill="#000000" points="26.0365854 11.5243902 29.0243902 11.5243902 29.0243902 10.6577779 27.0898993 10.6577779 27.0898993 9.27430697 28.9547158 9.27430697 28.9547158 8.40769459 27.0898993 8.40769459 27.0898993 7.26905141 29.0243902 7.26905141 29.0243902 6.40243902 26.0365854 6.40243902"/>
                    <path d="M32.4071119,7.914153 C32.4071119,6.95427292 31.728972,6.40243902 30.5442216,6.40243902 L29.0243902,6.40243902 L29.0243902,11.5243902 L30.0495783,11.5243902 L30.0495783,9.46861468 L30.1852063,9.46861468 L31.6053111,11.5243902 L32.8658537,11.5243902 L31.2103943,9.36757467 C31.9802827,9.2121285 32.4071119,8.69915615 32.4071119,7.914153 M30.3487577,8.76133462 L30.0495783,8.76133462 L30.0495783,7.2107591 L30.3647139,7.2107591 C31.0029633,7.2107591 31.3500114,7.47113143 31.3500114,7.96855916 C31.3500114,8.48153151 31.0029633,8.76133462 30.3487577,8.76133462" id="Shape" fill="#000000"/>
                    <path d="M20.9146341,9.17682927 C20.9146341,10.7084827 19.6718973,11.9512195 18.1402439,11.9512195 C16.6085905,11.9512195 15.3658537,10.7084827 15.3658537,9.17682927 C15.3658537,7.64517588 16.6085905,6.40243902 18.1402439,6.40243902 C19.6718973,6.40243902 20.9146341,7.64517588 20.9146341,9.17682927" id="Path" fill="#F78D1E"/>
                    <path d="M33.6758537,6.71278385 C33.6758537,6.51450799 33.5158537,6.40243902 33.2358537,6.40243902 L32.8658537,6.40243902 L32.8658537,7.40243902 L33.1458537,7.40243902 L33.1458537,7.01450799 L33.4658537,7.40243902 L33.8058537,7.40243902 L33.4258537,6.98864592 C33.5858537,6.95416316 33.6758537,6.85071489 33.6758537,6.71278385 M33.1858537,6.85071489 L33.1358537,6.85071489 L33.1358537,6.5920942 L33.1858537,6.5920942 C33.3258537,6.5920942 33.3958537,6.63519765 33.3958537,6.72140454 C33.3958537,6.80761144 33.3258537,6.85071489 33.1858537,6.85071489" id="Shape" fill="#000000"/>
                    <path d="M32.941512,6.40243902 C32.662905,6.40243902 32.4390244,6.6252113 32.4390244,6.90243902 C32.4390244,7.17966675 32.662905,7.40243902 32.941512,7.40243902 C33.2151438,7.40243902 33.4390244,7.17471625 33.4390244,6.90243902 C33.4390244,6.6301618 33.2151438,6.40243902 32.941512,6.40243902 M32.941512,7.31333011 C32.7226065,7.31333011 32.5385269,7.1301618 32.5385269,6.90243902 C32.5385269,6.67471625 32.7176314,6.49154794 32.941512,6.49154794 C33.1604174,6.49154794 33.3395219,6.67966675 33.3395219,6.90243902 C33.3395219,7.1301618 33.1604174,7.31333011 32.941512,7.31333011" id="Shape" fill="#000000"/>
                </g>
            </g>
        </g>
    </g>
</svg>