<?xml version="1.0" encoding="utf-8"?>
<!-- Generator: Adobe Illustrator 27.7.0, SVG Export Plug-In . SVG Version: 6.00 Build 0)  -->
<svg version="1.1" id="Layer_1" xmlns="http://www.w3.org/2000/svg" xmlns:xlink="http://www.w3.org/1999/xlink" x="0px" y="0px"
	 viewBox="0 0 74.9 66.6" style="enable-background:new 0 0 74.9 66.6;" xml:space="preserve">
<g>
	<g>
		<path d="M73,38.9c0,5.8-0.1,11.5,0,17.3c0.1,2.2-0.7,2.9-2.9,2.8c-3.9-0.1-7.7,0-11.6-0.1c-1.5,0-2.3,0.2-2.2,1.9
			c0.1,1.6-0.8,2.3-2.4,2.3c-2.7,0-5.3-0.1-8,0c-1.8,0-2.7-0.6-2.7-2.5c0-0.7,0.3-1.7-0.9-1.7c-1.9,0.1-2-1.1-2-2.5
			c0.1-3.5,0.1-7,0-10.5c0-2.6,0.7-4.8,2.6-6.6c0.9-0.8,1-1.4-0.2-2c-0.5-0.3-0.9-0.8-1.3-1.3c-0.6-0.9-1.1-1.9-0.6-3
			c0.5-1,1.7-0.7,2.5-0.6c2.8,0.5,3.8-0.7,4.7-3.3c2.1-6.7,8-10.3,16.2-10.4c2,0,4.1,0.1,6.1,0c2-0.1,2.7,0.5,2.6,2.6
			C72.9,27.2,73,33,73,38.9z M56.7,56.8c4.1,0,8.2,0,12.3,0c1,0,2,0.2,2-1.4c0-1.6-1.1-1.3-2.1-1.3c-2.5,0-5-0.1-7.5,0
			c-2.3,0.1-2.6-1.3-2.6-3.1c0-1.8,0.3-3.2,2.6-3.1c2.7,0.1,5.3,0,8,0c1.2,0,1.6-0.4,1.6-1.6c-0.1-1.9-0.1-3.8,0-5.7
			c0.1-1.8-0.5-2.2-2.2-2.2c-6.4,0.1-12.8,0-19.1,0c-3.9,0-7.1,3-7.2,6.9c-0.1,3.2,0,6.4-0.1,9.6c-0.1,1.6,0.6,1.9,2,1.9
			C48.5,56.8,52.6,56.8,56.7,56.8z M59.6,36.5L59.6,36.5c3.2,0,6.4,0,9.6,0c1.4,0,1.9-0.5,1.8-1.8c-0.1-2.5-0.1-5,0-7.5
			c0-1.4-0.4-1.9-1.8-1.9c-5.1,0.1-10.2,0.1-15.3,0c-1.2,0-2,0.4-2.6,1.4c-1.6,2.6-2.2,5.5-2.7,8.4c-0.2,1.3,0.5,1.4,1.5,1.3
			C53.2,36.5,56.4,36.5,59.6,36.5z M56.1,23.4c4.5,0,8.9,0,13.4,0c0.9,0,1.4-0.2,1.4-1.3c0-1.2-0.6-1.4-1.6-1.4
			c-1.8,0-3.7-0.1-5.5,0C61.1,21.1,58.4,21.5,56.1,23.4z M65.9,49.9c-1.3,0-2.6,0-3.9,0c-0.8,0-1.3,0.3-1.2,1.2c0,0.8,0.5,1,1.2,1
			c2.6,0,5.1,0,7.7,0c0.7,0,1.1-0.3,1.1-1.1c0-0.7-0.3-1.1-1.1-1.1C68.5,49.9,67.2,49.9,65.9,49.9z M50,59c-1.2,0-2.4,0-3.6,0
			c-0.7,0-1.1,0.3-1.1,1.1c0,0.6,0.3,1,0.9,1c2.4,0,4.8,0,7.3,0c0.7,0,0.8-0.5,0.9-1.1c0-0.7-0.3-1-0.9-1C52.3,59,51.2,59,50,59z
			 M43.3,34.9c0.7,0.9,1.4,1.9,2.7,1.5c0.4-0.1,0.5-0.9,0.4-1.2C45.6,34,44.4,34.7,43.3,34.9z"/>
	</g>
	<g>
		<path d="M1.6,43.7c0-3.4,0-6.8,0-10.3c0-3.1,0.3-3.3,3.3-2.1c2.7,1.1,5.3,2.4,7.6,4.1c1.6,1.1,3.2,1.9,5.1,2.4
			c5.5,1.4,11,2.9,16.5,4.4c3.5,1,4.8,2.6,4.8,6.2c0,2.1-0.1,4.3,0,6.4c0.1,1.8-0.5,2.6-2.5,2.5c-2.7-0.1-5.3,0-8-0.1
			c-1,0-1.6,0.3-2,1.4c-1.3,3.4-3.9,5.1-7.1,5c-3.4-0.1-5.7-1.9-6.8-5.1c-0.4-1-0.9-1.2-1.9-1.2c-2.4,0-4.7-0.1-7.1,0
			c-1.6,0.1-2.1-0.6-2.1-2.1C1.6,51.3,1.6,47.5,1.6,43.7z M3.6,48.2c0,1.8,0,3.6,0,5.5c0,1.2,0.4,1.7,1.6,1.6c1.6-0.1,3.2-0.1,4.8,0
			c1.5,0.1,2.3-0.3,2.8-1.8c1-2.7,3.1-4.2,6-4.5c2.9-0.3,5.7,0.7,6.7,3.3c1.2,3.1,3.2,3.2,5.8,3c1.2-0.1,2.4-0.1,3.6,0
			c1.4,0.1,1.8-0.5,1.8-1.9c-0.1-1.7-0.1-3.5,0-5.2c0.1-2.2-0.9-3.4-3-3.9c-6.2-1.6-12.3-3.3-18.5-4.9c-0.6-0.2-1.3-0.6-1.7,0
			c-2.1,2.8-5.1,2.2-7.9,2.1c-1.8-0.1-2.2,0.6-2.1,2.3C3.7,45.1,3.6,46.6,3.6,48.2z M19.5,61.5c2.9,0,5.2-2.3,5.3-5.1
			c0.1-2.9-2.4-5.4-5.3-5.5c-2.8,0-5.2,2.3-5.3,5.2C14.2,59.1,16.5,61.5,19.5,61.5z M7.1,39.4L7.1,39.4c0.9,0,1.8,0,2.7,0
			c1,0,1.6-0.7,1.9-1.4c0.3-0.8-0.7-1-1.2-1.4c-0.9-0.6-1.8-1.2-2.7-1.6c-1.3-0.6-2.7-2.1-3.8-1.3c-1,0.7-0.2,2.7-0.4,4.1
			c-0.1,1.3,0.5,1.8,1.7,1.7C5.9,39.3,6.5,39.4,7.1,39.4z"/>
	</g>
	<g>
		<path d="M44.1,21.9c-2.1,0.4-4.1,0.6-6.1,1c-1.2,0.2-1.6-0.2-1.7-1.3c-0.3-2.2-0.6-4.5-1.3-6.8c-0.7,1.5-1.4,3-2.1,4.4
			c-0.9,1.9-1.1,1.9-2.5,0.4c-1.3-1.4-2.7-2.9-4-4.3c-0.1-0.1-0.2-0.1-0.6-0.2c0.6,1.8,1.1,3.3,1.6,4.9c1.1,3.3,1.1,3.3-2.5,3
			c-1.3-0.1-2.5-0.2-3.9,0c1.8,1.4,3.6,2.8,5.5,4.1c1.2,0.8,1.2,1.4,0.3,2.4c-1.2,1.4-2.4,2.9-3.8,4.7c1.4-0.2,2.4-0.3,3.4-0.5
			c0.5-0.1,1-0.1,1.1,0.5c0.1,0.6-0.4,0.7-0.9,0.8c-1.6,0.3-3.1,0.6-4.7,0.8c-0.4,0.1-0.8,0.2-1.1-0.3c-0.2-0.5,0-0.8,0.3-1.1
			c1.4-1.7,2.7-3.5,4.2-5.2c0.7-0.8,0.6-1.2-0.2-1.8c-2.1-1.5-4.2-3.1-6.2-4.6c-0.5-0.4-1.5-0.7-1.2-1.6c0.4-1,1.4-0.4,2.1-0.4
			c1.8,0.1,3.7,0.3,5.5,0.6c1.2,0.2,1.5-0.1,1.1-1.3c-0.9-2.5-1.7-5-2.5-7.5c-0.2-0.6-0.8-1.3,0-1.8c0.8-0.4,1.2,0.5,1.6,0.9
			c1.8,1.9,3.6,3.8,5.3,5.8c0.9,1,1.2,0.7,1.6-0.3c0.8-1.8,1.6-3.7,2.5-5.5c0.2-0.4,0.3-1.1,1-1c0.7,0.1,0.6,0.7,0.7,1.2
			c0.4,2.5,0.8,5,1,7.5c0.1,1.5,0.7,1.8,2,1.5c1.9-0.4,3.9-0.7,5.8-1c0.5-0.1,1.1-0.3,1.4,0.3c0.3,0.5-0.1,0.9-0.4,1.2
			c-1.2,1.4-2.3,2.9-3.5,4.3c-0.3,0.4-0.7,0.9-1.3,0.4c-0.5-0.4-0.1-0.8,0.2-1.2C42.4,24.2,43.4,23.3,44.1,21.9z"/>
	</g>
	<g>
		<path d="M51.5,53.6c-2-0.2-4.2-1.2-5.7-3.3c-1.4-2.1-0.3-4,2.3-4c2.5,0,4.5,1.1,6.1,3.1c0.7,0.9,1.1,1.9,0.5,3
			C54.1,53.3,53.1,53.6,51.5,53.6z M51.4,51.5c0.4,0.1,0.9,0.2,1.2-0.3c0.3-0.5-0.2-0.8-0.5-1.1c-1-1-2.2-1.6-3.6-1.8
			c-0.4-0.1-0.8-0.1-1,0.3c-0.2,0.4,0.1,0.7,0.3,1C48.8,50.6,50,51.2,51.4,51.5z"/>
	</g>
	<g>
		<path d="M52.7,3.5v6.5h6.4v2.3h-6.4v6.5h-2.6v-6.5h-6.4v-2.3h6.4V3.5H52.7z"/>
	</g>
</g>
</svg>
