<svg xmlns="http://www.w3.org/2000/svg" width="39" height="39" viewBox="0 0 39 39">
  <g id="Group_6522" data-name="Group 6522" transform="translate(-940 -2888)">
    <path id="catalog" d="M30.875,9.75V4.875A4.881,4.881,0,0,0,26,0H8.125A8.134,8.134,0,0,0,0,8.125v13A8.134,8.134,0,0,0,8.125,29.25v1.625A8.134,8.134,0,0,0,16.25,39H30.875A8.134,8.134,0,0,0,39,30.875v-13A8.134,8.134,0,0,0,30.875,9.75Zm-14.242,0L27.521,4.306a1.612,1.612,0,0,1,.1.569V9.75H16.632ZM3.25,21.125v-13A4.881,4.881,0,0,1,8.125,3.25H22.367l-9.75,4.875a8.083,8.083,0,0,0-4.492,7.267V26A4.881,4.881,0,0,1,3.25,21.125Zm32.5,9.75a4.881,4.881,0,0,1-4.875,4.875H16.25a4.881,4.881,0,0,1-4.875-4.875V15.392A4.877,4.877,0,0,1,12,13H30.875a4.881,4.881,0,0,1,4.875,4.875ZM32.5,19.5a1.624,1.624,0,0,1-1.625,1.625H26a1.625,1.625,0,1,1,0-3.25h4.875A1.624,1.624,0,0,1,32.5,19.5ZM21.125,17.875v3.25A1.626,1.626,0,0,1,19.5,22.75H16.25a1.626,1.626,0,0,1-1.625-1.625v-3.25A1.626,1.626,0,0,1,16.25,16.25H19.5A1.626,1.626,0,0,1,21.125,17.875Z" transform="translate(940 2888)" fill="#136494"/>
    <path id="catalog-2" data-name="catalog" d="M32.5,29.25a1.624,1.624,0,0,1-1.625,1.625H26a1.625,1.625,0,1,1,0-3.25h4.875A1.624,1.624,0,0,1,32.5,29.25ZM21.125,27.625v3.25A1.626,1.626,0,0,1,19.5,32.5H16.25a1.626,1.626,0,0,1-1.625-1.625v-3.25A1.626,1.626,0,0,1,16.25,26H19.5A1.626,1.626,0,0,1,21.125,27.625Z" transform="translate(940 2888)" fill="#f9a52d"/>
  </g>
</svg>
