<svg xmlns="http://www.w3.org/2000/svg" width="39.617" height="39.617" viewBox="0 0 39.617 39.617">
  <g id="Group_12490" data-name="Group 12490" transform="translate(7709.679 4614.995)">
    <path id="Path_35082" data-name="Path 35082" d="M4486.368,24.7l.979-.979-2.805-2.8a1.525,1.525,0,0,1-.338-.512,1.6,1.6,0,0,1,0-1.19,1.523,1.523,0,0,1,.338-.512l2.805-2.8a3.823,3.823,0,0,0,.533-.68,5.189,5.189,0,0,0,.524-1.132,4.609,4.609,0,0,0,.154-.606,3.635,3.635,0,0,0,.062-.646V8.871a1.529,1.529,0,0,1,.123-.605,1.6,1.6,0,0,1,.573-.7,1.575,1.575,0,0,1,.41-.2,1.546,1.546,0,0,1,.463-.07h3.967a3.786,3.786,0,0,0,.851-.1,4.944,4.944,0,0,0,.6-.18,5.169,5.169,0,0,0,.846-.4,4.353,4.353,0,0,0,.4-.265,3.576,3.576,0,0,0,.374-.323l2.8-2.8a1.527,1.527,0,0,1,.512-.338,1.605,1.605,0,0,1,1.19,0,1.522,1.522,0,0,1,.512.338l2.8,2.8a3.822,3.822,0,0,0,.68.533,5.165,5.165,0,0,0,1.131.524,4.684,4.684,0,0,0,.606.154,3.619,3.619,0,0,0,.646.061h3.967a1.539,1.539,0,0,1,.6.123,1.6,1.6,0,0,1,.695.574,1.544,1.544,0,0,1,.269.872v3.967a3.781,3.781,0,0,0,.1.851,5.019,5.019,0,0,0,.18.6,5.14,5.14,0,0,0,.4.846,4.188,4.188,0,0,0,.264.4,3.493,3.493,0,0,0,.323.374l2.8,2.8a1.523,1.523,0,0,1,.338.512,1.606,1.606,0,0,1,0,1.19,1.527,1.527,0,0,1-.338.512h0l-2.8,2.8a3.826,3.826,0,0,0-.533.68,5.169,5.169,0,0,0-.524,1.132,4.767,4.767,0,0,0-.154.607,3.636,3.636,0,0,0-.061.646v3.967a1.548,1.548,0,0,1-.123.605,1.6,1.6,0,0,1-.574.7,1.567,1.567,0,0,1-.41.2,1.542,1.542,0,0,1-.462.07H4508.1a3.794,3.794,0,0,0-.851.1,4.936,4.936,0,0,0-.6.18,5.166,5.166,0,0,0-.846.4,4.414,4.414,0,0,0-.4.264,3.605,3.605,0,0,0-.374.323l-2.8,2.8a1.522,1.522,0,0,1-.512.338,1.605,1.605,0,0,1-1.19,0,1.527,1.527,0,0,1-.512-.338h0l-2.8-2.8a3.858,3.858,0,0,0-.68-.533,5.158,5.158,0,0,0-1.132-.524,4.632,4.632,0,0,0-.607-.154,3.609,3.609,0,0,0-.645-.061h-3.967a1.536,1.536,0,0,1-.605-.123,1.6,1.6,0,0,1-.7-.574,1.549,1.549,0,0,1-.268-.872V26.789a3.88,3.88,0,0,0-.1-.858,4.981,4.981,0,0,0-.18-.6,5.116,5.116,0,0,0-.406-.851,4.346,4.346,0,0,0-.27-.4,3.424,3.424,0,0,0-.333-.374l-.959,1,.979-.979-.979.979-.959,1a.978.978,0,0,1,.128.168,2.276,2.276,0,0,1,.233.506,1.947,1.947,0,0,1,.064.251,1.011,1.011,0,0,1,.018.163v3.967a4.305,4.305,0,0,0,.343,1.688,4.358,4.358,0,0,0,2.7,2.452,4.311,4.311,0,0,0,1.289.2h3.967a1.106,1.106,0,0,1,.227.032,2.227,2.227,0,0,1,.263.08,2.438,2.438,0,0,1,.391.185,1.581,1.581,0,0,1,.144.1.868.868,0,0,1,.082.069l2.8,2.8h0a4.294,4.294,0,0,0,1.436.949,4.372,4.372,0,0,0,3.257,0,4.3,4.3,0,0,0,1.436-.949l2.8-2.8a1.155,1.155,0,0,1,.189-.143,2.43,2.43,0,0,1,.519-.239,1.934,1.934,0,0,1,.248-.064.9.9,0,0,1,.151-.017h3.967a4.309,4.309,0,0,0,1.687-.343,4.358,4.358,0,0,0,2.452-2.7,4.308,4.308,0,0,0,.2-1.289V26.789a1.082,1.082,0,0,1,.032-.226,2.3,2.3,0,0,1,.08-.264,2.4,2.4,0,0,1,.184-.391,1.69,1.69,0,0,1,.1-.145.8.8,0,0,1,.069-.081l2.805-2.8h0a4.3,4.3,0,0,0,.949-1.435,4.381,4.381,0,0,0,0-3.257,4.3,4.3,0,0,0-.949-1.435l-2.805-2.8a1.163,1.163,0,0,1-.143-.19,2.444,2.444,0,0,1-.238-.519,2.031,2.031,0,0,1-.064-.248.893.893,0,0,1-.016-.151V8.871a4.3,4.3,0,0,0-.343-1.688,4.359,4.359,0,0,0-2.7-2.452,4.313,4.313,0,0,0-1.289-.2H4508.1a1.087,1.087,0,0,1-.227-.032,2.289,2.289,0,0,1-.264-.08,2.413,2.413,0,0,1-.39-.185,1.5,1.5,0,0,1-.145-.1.863.863,0,0,1-.082-.069l-2.8-2.8a4.3,4.3,0,0,0-1.436-.949,4.372,4.372,0,0,0-3.257,0,4.3,4.3,0,0,0-1.436.949l-2.8,2.8a1.151,1.151,0,0,1-.19.143,2.425,2.425,0,0,1-.519.239,1.976,1.976,0,0,1-.248.064.905.905,0,0,1-.151.017h-3.967a4.309,4.309,0,0,0-1.688.343,4.356,4.356,0,0,0-2.452,2.7,4.275,4.275,0,0,0-.2,1.289v3.967a1.155,1.155,0,0,1-.032.226,2.3,2.3,0,0,1-.08.263,2.444,2.444,0,0,1-.185.391c-.034.056-.067.106-.1.144a.888.888,0,0,1-.069.082l-2.805,2.8a4.285,4.285,0,0,0-.948,1.435,4.362,4.362,0,0,0,0,3.257,4.287,4.287,0,0,0,.948,1.435l2.805,2.8.019.019Z" transform="translate(-12191 -4615)" fill="#136494"/>
    <path id="Path_35083" data-name="Path 35083" d="M4574.382,80.391a1.378,1.378,0,0,0-.979.405l-11.071,11.071a1.384,1.384,0,0,0,1.958,1.957l11.071-11.071a1.384,1.384,0,0,0-.979-2.362" transform="translate(-12258.699 -4682.516)" fill="#f9a52d"/>
    <path id="Path_35084" data-name="Path 35084" d="M4624.231,140.9h-.017a1.845,1.845,0,1,0,0,3.69h.017a1.845,1.845,0,1,0,0-3.69" transform="translate(-12309.465 -4733.333)" fill="#f9a52d"/>
    <path id="Path_35085" data-name="Path 35085" d="M4566.608,83.272h-.017a1.845,1.845,0,0,0,0,3.691h.017a1.845,1.845,0,0,0,0-3.691" transform="translate(-12261.068 -4684.935)" fill="#f9a52d"/>
  </g>
</svg>
