<svg xmlns="http://www.w3.org/2000/svg" width="34.028" height="39" viewBox="0 0 34.028 39">
  <g id="Group_6524" data-name="Group 6524" transform="translate(-636.698 -3169)">
    <path id="flame" d="M26.012,36.206c-.128,1.418-.349-2.7-.531-2.571a18.012,18.012,0,0,0,.531-4.492c0-4.126-3.737-5.772-7.475-9.506-4.074,4.074-7.475,5.38-7.475,9.506a39.981,39.981,0,0,0,1.121,7.063C15.472,37.4,28.978,33.916,26.012,36.206Z" transform="translate(635.019 3168.952)" fill="#f9a52d"/>
    <path id="flame-2" data-name="flame" d="M25.879,6.816c-1.823-1.549-3.708-3.148-5.6-5.037L18.544.048,16.823,1.78a23.418,23.418,0,0,0-5.39,9.912c-.024-.084-.047-.162-.07-.255l-1.03-3.993-3,2.818c-3.014,2.826-5.8,6.207-5.8,11.775A16.861,16.861,0,0,0,14.156,38.5a17.849,17.849,0,0,0,4.371.548,17,17,0,0,0,17.03-17.007C35.558,15.034,31.071,11.225,25.879,6.816Zm.112,24.8c-.177.136-.366.25-.548.377-8.383,5.01-13.749.079-13.725.153a12.137,12.137,0,0,1-5.3-10.107,8.877,8.877,0,0,1,1.848-5.6c.177.28.364.549.562.813a3.661,3.661,0,0,0,3.77,1.388,3.76,3.76,0,0,0,2.862-2.9,25.69,25.69,0,0,1,3.32-8.638c1.371,1.261,2.714,2.4,3.942,3.445,5.229,4.438,7.962,6.966,7.962,11.5A12.062,12.062,0,0,1,25.991,31.615Z" transform="translate(635.168 3168.952)" fill="#136494"/>
  </g>
</svg>
