<svg xmlns="http://www.w3.org/2000/svg" xmlns:xlink="http://www.w3.org/1999/xlink" viewBox="0 0 193.05 68.61" xmlns:v="https://vecta.io/nano"><style><![CDATA[.G{isolation:isolate}]]></style><defs><radialGradient id="A" cx="32.22" cy="-.13" r="13.67" gradientTransform="matrix(1, 0, 0, -1.04, 0, 72.5)" gradientUnits="userSpaceOnUse"><stop offset="0" stop-color="#e9f6f5"/><stop offset=".11" stop-color="#e3f3f5"/><stop offset=".32" stop-color="#afe1ee"/><stop offset=".67" stop-color="#5ecaea"/></radialGradient><radialGradient id="B" cx="29.91" cy="-2.44" r="6.86" gradientTransform="matrix(1, 0, 0, -1.04, 0, 72.5)" gradientUnits="userSpaceOnUse"><stop offset=".02" stop-color="#79d2f7"/><stop offset=".24" stop-color="#4191ce"/><stop offset=".36" stop-color="#1c76bc"/><stop offset=".52" stop-color="#2e5dab"/><stop offset=".71" stop-color="#1f3364"/></radialGradient><path id="C" d="M159.94 48.88a.46.46 0 0 1-.23 0 .22.22 0 0 1-.08-.18v-.31a.52.52 0 0 1 0-.14.18.18 0 0 1 .07-.08h.1 1.33V42.5h.8v6.38z"/></defs><g transform="translate(-5.95 -42.93)" fill-rule="evenodd"><path d="M29.48,70A6.48,6.48,0,1,1,23,76.45,6.47,6.47,0,0,1,29.48,70Z" fill="url(#A)"/><path d="M29.48,72.91a3.55,3.55,0,1,1-3.56,3.54,3.54,3.54,0,0,1,3.56-3.54Z" fill="url(#B)"/></g><g fill="#2e5dab"><path d="M.63 27.07C4.23 10.16 22.15 0 22.15 0l-.1 22.48s-9.62-.1-17.69 10.6a44.71 44.71 0 0 1-3.73-6.01z"/><path d="M4.39 33.07a43.51 43.51 0 0 1-3.76-6 28.27 28.27 0 0 0-.58 5.89c0 21.56 21.88 34.11 21.88 34.11l.12-22c-8-1.06-14-7.18-17.62-12"/></g><path d="M.8 26.33c0 .11-.14.62-.17.74a44.71 44.71 0 0 0 3.76 6l.41-.53a54.15 54.15 0 0 1-4-6.21z" fill="#fff"/><g fill="#2e5dab"><path d="M46.49 39.99c-3.6 16.91-21.52 27.08-21.52 27.08l.08-22.49s9.62.1 17.69-10.6a43.56 43.56 0 0 1 3.75 6.01z"/><path d="M42.73 33.98a42.58 42.58 0 0 1 3.76 6 28.37 28.37 0 0 0 .63-5.9c0-21.56-21.93-34.09-21.93-34.09l-.07 22c8 1.06 14 7.19 17.61 12"/></g><path d="M46.32 40.73c0-.12.15-.63.17-.74a42.81 42.81 0 0 0-3.76-6l-.41.53a52.66 52.66 0 0 1 4 6.21z" fill="#fff"/><g fill="#2c3a8f"><path d="M68.26 13.51a5.51 5.51 0 0 0 .05.77 1 1 0 0 0 .22.49.93.93 0 0 0 .46.26 3.31 3.31 0 0 0 .79.08h.79a1.05 1.05 0 0 1 .62.14.5.5 0 0 1 .21.46v.79a.77.77 0 0 1-.07.36.49.49 0 0 1-.18.2.67.67 0 0 1-.26.09h-.32-1.32a5.38 5.38 0 0 1-1.3-.08 3.14 3.14 0 0 1-.88-.38 1.55 1.55 0 0 1-.54-.54 2.38 2.38 0 0 1-.28-.66 6.69 6.69 0 0 1-1.61.74 5.85 5.85 0 0 1-1.55.21 5.17 5.17 0 0 1-1.39-.19 3.88 3.88 0 0 1-1.26-.61A3.12 3.12 0 0 1 59.15 13a3.2 3.2 0 0 1 .36-1.53 4.08 4.08 0 0 1 .93-1.22 6.26 6.26 0 0 1 1.32-.93 13.79 13.79 0 0 1 1.52-.7 15.53 15.53 0 0 1 1.54-.55l1.37-.39V6.46h2.06v7zm-2-4a17.3 17.3 0 0 0-2.09.51 9.35 9.35 0 0 0-1.6.69 3.5 3.5 0 0 0-1 .89 1.77 1.77 0 0 0-.38 1.1 1.7 1.7 0 0 0 .21.85 1.73 1.73 0 0 0 .56.55 2.56 2.56 0 0 0 .76.29 3.54 3.54 0 0 0 .86.09 5.37 5.37 0 0 0 1.49-.2 4.64 4.64 0 0 0 1.23-.58V9.49zm-3.67-5.83a1.1 1.1 0 0 1 .1-.47 1.16 1.16 0 0 1 .26-.39 1 1 0 0 1 .38-.26 1.1 1.1 0 0 1 .47-.1 1.26 1.26 0 0 1 .86.36 1.36 1.36 0 0 1 .27.39 1.28 1.28 0 0 1 .1.47 1.12 1.12 0 0 1-.1.48 1.05 1.05 0 0 1-.27.38 1.21 1.21 0 0 1-.39.26 1.24 1.24 0 0 1-.47.1 1.18 1.18 0 0 1-.86-.35 1.15 1.15 0 0 1-.4-.89zm3.25 0a1.1 1.1 0 0 1 .1-.47 1.33 1.33 0 0 1 .26-.39 1.22 1.22 0 0 1 .38-.26 1.1 1.1 0 0 1 .47-.1 1.12 1.12 0 0 1 .48.1 1.16 1.16 0 0 1 .39.26 1.33 1.33 0 0 1 .26.39 1.1 1.1 0 0 1 .1.47 1.12 1.12 0 0 1-.1.48 1 1 0 0 1-.26.38 1.33 1.33 0 0 1-.39.26 1.29 1.29 0 0 1-.48.1 1.2 1.2 0 0 1-1.21-1.22z"/><path d="M74.05 15.59a3.39 3.39 0 0 1-.51.75 2.44 2.44 0 0 1-.58.49 2.47 2.47 0 0 1-.69.26 4.28 4.28 0 0 1-.84.08h-.89a1 1 0 0 1-.59-.1.5.5 0 0 1-.21-.46v-.79a.85.85 0 0 1 .06-.35.59.59 0 0 1 .18-.2.79.79 0 0 1 .27-.1h.32.54a2.55 2.55 0 0 0 1.27-.32 1.67 1.67 0 0 0 .74-1 15.5 15.5 0 0 1 .74-2.11 9.9 9.9 0 0 1 .86-1.51 5.68 5.68 0 0 1 .92-1 4.94 4.94 0 0 1 .93-.61 3.62 3.62 0 0 1 .88-.29 4.29 4.29 0 0 1 .76-.07 4.42 4.42 0 0 1 1.4.21 4.27 4.27 0 0 1 1.12.59 4.33 4.33 0 0 1 .85.86 5.73 5.73 0 0 1 .61 1 5.66 5.66 0 0 1 .35 1.08 4.85 4.85 0 0 1 .11 1 3.94 3.94 0 0 1-.11.94 4.89 4.89 0 0 1-.35 1 4.29 4.29 0 0 1-.59.91 4 4 0 0 1-.85.77 4.27 4.27 0 0 1-1.12.52 4.76 4.76 0 0 1-1.41.19 6.08 6.08 0 0 1-1.38-.26 5.94 5.94 0 0 1-1.17-.39 4.87 4.87 0 0 1-.92-.55 3.89 3.89 0 0 1-.7-.54zm6.73-2.38a3.64 3.64 0 0 0-.15-1 3.54 3.54 0 0 0-.49-1 2.72 2.72 0 0 0-.82-.8 2.28 2.28 0 0 0-2.41 0 3.45 3.45 0 0 0-1 .93 5.93 5.93 0 0 0-.71 1.32 6.93 6.93 0 0 0-.41 1.53 1.31 1.31 0 0 0 .44.34 8.15 8.15 0 0 0 .77.32 8.6 8.6 0 0 0 .94.24 5.26 5.26 0 0 0 1 .09 7.29 7.29 0 0 0 1.19-.09 2.81 2.81 0 0 0 .9-.32 1.48 1.48 0 0 0 .58-.61 2.22 2.22 0 0 0 .2-.95zM85.97.76h2v12.31a9.35 9.35 0 0 0 0 1 2.15 2.15 0 0 0 .18.64.72.72 0 0 0 .36.33 1.49 1.49 0 0 0 .57.1h.77a1.08 1.08 0 0 1 .62.14.52.52 0 0 1 .2.46v.79a.93.93 0 0 1-.06.36.49.49 0 0 1-.18.2.78.78 0 0 1-.27.09h-.32-.98a3.08 3.08 0 0 1-1.3-.25 2.61 2.61 0 0 1-.91-.7 3.05 3.05 0 0 1-.53-1 4.94 4.94 0 0 1-.17-1.31V.76z"/><path d="M94.85 14.56a5.76 5.76 0 0 1-1-.9l-.89-1.08-.74-1a7.42 7.42 0 0 0-.54-.7c0-.16.08-.34.14-.55l.2-.59a3.08 3.08 0 0 1 .23-.51.74.74 0 0 1 .24-.29l.85-.41a10.57 10.57 0 0 1 1.13-.39 11.94 11.94 0 0 1 1.36-.3 9.68 9.68 0 0 1 1.56-.12 6.59 6.59 0 0 1 1.24.12 4.76 4.76 0 0 1 1.14.36 2.47 2.47 0 0 1 .84.61 1.26 1.26 0 0 1 .32.88 4.69 4.69 0 0 1-.08.84 5.09 5.09 0 0 1-.35 1.1 8.2 8.2 0 0 1-.78 1.35 12 12 0 0 1-1.36 1.61 2.73 2.73 0 0 0 .65.22 6.72 6.72 0 0 0 .85.17l1 .11h1.11.94a1.05 1.05 0 0 1 .62.14.5.5 0 0 1 .21.46v.79a.77.77 0 0 1-.07.36.55.55 0 0 1-.17.2.78.78 0 0 1-.27.09h-.32-1.55a9.07 9.07 0 0 1-1.71-.15 13.25 13.25 0 0 1-1.44-.35 9.6 9.6 0 0 1-1.11-.43l-.73-.39-1 .5a10.79 10.79 0 0 1-1.18.43 12.23 12.23 0 0 1-1.32.29 9.93 9.93 0 0 1-1.46.11h-1.45a1 1 0 0 1-.62-.14.5.5 0 0 1-.21-.46v-.79a.93.93 0 0 1 .06-.36.58.58 0 0 1 .18-.2.78.78 0 0 1 .27-.09 1.67 1.67 0 0 1 .32 0h1.61 1.18c.37 0 .69-.08 1-.13a5.75 5.75 0 0 0 .71-.17 1.38 1.38 0 0 0 .39-.24zm4.11-3.77a.81.81 0 0 0-.16-.48 1.56 1.56 0 0 0-.46-.41 3.26 3.26 0 0 0-.75-.29 4.37 4.37 0 0 0-1-.11 6.83 6.83 0 0 0-1.41.17 8.32 8.32 0 0 0-1.66.56 7.74 7.74 0 0 0 .48.76 10 10 0 0 0 .76 1 12.14 12.14 0 0 0 .93 1 5.31 5.31 0 0 0 1 .77 5.08 5.08 0 0 0 1-.74 6.63 6.63 0 0 0 .73-.82 4.1 4.1 0 0 0 .46-.77 1.5 1.5 0 0 0 .08-.64z"/><path d="M102.95 17.17a1 1 0 0 1-.61-.14.5.5 0 0 1-.21-.46v-.79a.85.85 0 0 1 .06-.35.5.5 0 0 1 .18-.2.79.79 0 0 1 .27-.1h.32 3.09V.75h2v16.41h-5.1zm9.1-16.41h2v16.42h-2zm19.66 12.75a5.51 5.51 0 0 0 .05.77 1 1 0 0 0 .22.49 1 1 0 0 0 .46.26 3.31 3.31 0 0 0 .79.08h.8a1 1 0 0 1 .61.14.5.5 0 0 1 .21.46v.79a.93.93 0 0 1-.06.36.49.49 0 0 1-.18.2.78.78 0 0 1-.27.09h-.32-1.31a5.33 5.33 0 0 1-1.3-.14 3.22 3.22 0 0 1-.89-.38 1.74 1.74 0 0 1-.54-.54 2.38 2.38 0 0 1-.28-.66 6.46 6.46 0 0 1-1.6.74 5.87 5.87 0 0 1-1.56.21 5 5 0 0 1-1.38-.19 3.83 3.83 0 0 1-1.27-.61 3.41 3.41 0 0 1-.93-4.17 4.44 4.44 0 0 1 .93-1.22 6.08 6.08 0 0 1 1.33-.93 12.28 12.28 0 0 1 1.52-.7 14.55 14.55 0 0 1 1.53-.52l1.38-.39V6.46h2.05v7zm-2.06-4a17.12 17.12 0 0 0-2.08.51 9.84 9.84 0 0 0-1.61.69 3.76 3.76 0 0 0-1 .89 1.82 1.82 0 0 0-.37 1.1 1.54 1.54 0 0 0 .76 1.4 2.62 2.62 0 0 0 .77.29 3.51 3.51 0 0 0 .85.09 5.44 5.44 0 0 0 1.5-.2 4.64 4.64 0 0 0 1.23-.58V9.49zm-3.67-5.83a1.1 1.1 0 0 1 .1-.47 1.56 1.56 0 0 1 .26-.39 1.22 1.22 0 0 1 .38-.26 1.12 1.12 0 0 1 .48-.1 1.1 1.1 0 0 1 .47.1 1.16 1.16 0 0 1 .39.26 1.36 1.36 0 0 1 .27.39 1.28 1.28 0 0 1 .1.47 1.12 1.12 0 0 1-.1.48 1.19 1.19 0 0 1-.27.38 1.33 1.33 0 0 1-.39.26 1.28 1.28 0 0 1-.47.1 1.16 1.16 0 0 1-.86-.35 1.19 1.19 0 0 1-.36-.89zm3.26 0a1.1 1.1 0 0 1 .1-.47 1.56 1.56 0 0 1 .26-.39 1.22 1.22 0 0 1 .38-.26 1.12 1.12 0 0 1 .48-.1 1.1 1.1 0 0 1 .47.1 1.16 1.16 0 0 1 .39.26 1.36 1.36 0 0 1 .27.39 1.18 1.18 0 0 1 0 1 1.19 1.19 0 0 1-.27.38 1.33 1.33 0 0 1-.39.26 1.28 1.28 0 0 1-.47.1 1.21 1.21 0 0 1-1.22-1.22z"/><path d="M139.17 14.41a3.93 3.93 0 0 0 1.21.53 7.39 7.39 0 0 0 1.68.18h.09a1.17 1.17 0 0 1 .62.13.55.55 0 0 1 .2.47v.79a.88.88 0 0 1-.06.35.44.44 0 0 1-.18.2.74.74 0 0 1-.26.1h-.33-.09a5.41 5.41 0 0 1-2-.31 5 5 0 0 1-1.34-.78 2.54 2.54 0 0 1-.76.77 2.16 2.16 0 0 1-1.21.32h-2.69a1 1 0 0 1-.61-.14.5.5 0 0 1-.21-.46v-.79a.93.93 0 0 1 .06-.36.49.49 0 0 1 .18-.2.78.78 0 0 1 .27-.09 1.62 1.62 0 0 1 .32 0h2.31a.65.65 0 0 0 .57-.33 1.77 1.77 0 0 0 .21-1V8.35h2.05v6.06zm-4 6.19a1 1 0 0 1 .1-.48 1.22 1.22 0 0 1 .64-.65 1.07 1.07 0 0 1 .47-.1 1.1 1.1 0 0 1 .47.1 1.16 1.16 0 0 1 .39.26 1.36 1.36 0 0 1 .27.39 1.29 1.29 0 0 1 .1.48 1.1 1.1 0 0 1-.1.47 1.15 1.15 0 0 1-.27.38 1.16 1.16 0 0 1-.39.26 1.28 1.28 0 0 1-.47.1 1.12 1.12 0 0 1-.86-.35 1.14 1.14 0 0 1-.34-.86zm3.25 0a1.29 1.29 0 0 1 .1-.48 1.16 1.16 0 0 1 .26-.39 1.42 1.42 0 0 1 .38-.26 1.1 1.1 0 0 1 .47-.1 1.12 1.12 0 0 1 .48.1 1 1 0 0 1 .38.26 1.19 1.19 0 0 1 .27.39 1.18 1.18 0 0 1 0 1 1 1 0 0 1-.27.38 1 1 0 0 1-.38.26 1.29 1.29 0 0 1-.48.1 1.2 1.2 0 0 1-1.21-1.21z"/><path d="M144.3 8.21l1.37-.35a7.37 7.37 0 0 1 1.56-.15 4.13 4.13 0 0 1 1.55.27 3.36 3.36 0 0 1 1.17.77 4 4 0 0 1 .79 1.17 6.21 6.21 0 0 1 .43 1.48l.23 1.41a7.55 7.55 0 0 0 .29 1.18 2.44 2.44 0 0 0 .45.82.89.89 0 0 0 .69.3h1.06a1.08 1.08 0 0 1 .62.14.52.52 0 0 1 .21.46v.79a.92.92 0 0 1-.07.36.49.49 0 0 1-.18.2.73.73 0 0 1-.26.09h-.33-11.72a1 1 0 0 1-.61-.14.5.5 0 0 1-.21-.46v-.79a.85.85 0 0 1 .06-.35.5.5 0 0 1 .18-.2.79.79 0 0 1 .27-.1h.32 8.12a1.7 1.7 0 0 1-.39-.65 6.11 6.11 0 0 1-.26-1.14l-.24-1.33a3.61 3.61 0 0 0-.46-1.2 2.47 2.47 0 0 0-.85-.85 2.74 2.74 0 0 0-1.44-.32 4.1 4.1 0 0 0-.57 0l-.66.1-.63.14a2.4 2.4 0 0 0-.5.18V8.21zm1.9 12.39a1.12 1.12 0 0 1 .1-.48 1.16 1.16 0 0 1 .26-.39 1.42 1.42 0 0 1 .38-.26 1.1 1.1 0 0 1 .47-.1 1.12 1.12 0 0 1 .48.1 1 1 0 0 1 .38.26 1.19 1.19 0 0 1 .27.39 1.12 1.12 0 0 1 .1.48 1.1 1.1 0 0 1-.1.47 1 1 0 0 1-.27.38 1 1 0 0 1-.38.26 1.29 1.29 0 0 1-.48.1 1.2 1.2 0 0 1-1.21-1.21z"/><path d="M159.05 14.41a3.93 3.93 0 0 0 1.21.53 7.39 7.39 0 0 0 1.68.18h.11a1.17 1.17 0 0 1 .62.13.56.56 0 0 1 .21.47v.79a.87.87 0 0 1-.07.35.44.44 0 0 1-.18.2.74.74 0 0 1-.26.1h-.33-.11a5.41 5.41 0 0 1-2-.31 5 5 0 0 1-1.34-.78 2.54 2.54 0 0 1-.76.77 2.16 2.16 0 0 1-1.21.32h-2.73a1 1 0 0 1-.61-.14.5.5 0 0 1-.21-.46v-.79a.93.93 0 0 1 .06-.36.58.58 0 0 1 .18-.2.78.78 0 0 1 .27-.09 1.67 1.67 0 0 1 .32 0h2.31a.65.65 0 0 0 .57-.33 1.77 1.77 0 0 0 .21-1V8.35h2v6.06zm-4 6.19a1.12 1.12 0 0 1 .1-.48 1.22 1.22 0 0 1 .64-.65 1.1 1.1 0 0 1 .47-.1 1.26 1.26 0 0 1 .86.36 1.36 1.36 0 0 1 .27.39 1.29 1.29 0 0 1 .1.48 1.1 1.1 0 0 1-.1.47 1.15 1.15 0 0 1-.27.38 1.07 1.07 0 0 1-.39.26 1.24 1.24 0 0 1-.47.1 1.2 1.2 0 0 1-1.21-1.21zm3.25 0a1.29 1.29 0 0 1 .1-.48 1.16 1.16 0 0 1 .26-.39 1.42 1.42 0 0 1 .38-.26 1.1 1.1 0 0 1 .47-.1 1.12 1.12 0 0 1 .48.1 1.16 1.16 0 0 1 .39.26 1.33 1.33 0 0 1 .26.39 1.12 1.12 0 0 1 .1.48 1.1 1.1 0 0 1-.1.47 1.12 1.12 0 0 1-.26.38 1.16 1.16 0 0 1-.39.26 1.29 1.29 0 0 1-.48.1 1.2 1.2 0 0 1-1.21-1.21z"/><path d="M167.19 14.38a3.79 3.79 0 0 0 1.24.54 6.4 6.4 0 0 0 1.68.18h.1a1.1 1.1 0 0 1 .61.14.51.51 0 0 1 .21.47v.79a.91.91 0 0 1-.06.35.58.58 0 0 1-.18.2.78.78 0 0 1-.27.09 1.67 1.67 0 0 1-.32 0h-.15a5.71 5.71 0 0 1-2-.3 4.67 4.67 0 0 1-1.35-.79 2.26 2.26 0 0 1-.76.78 2.19 2.19 0 0 1-1.22.31h-2.67a1.11 1.11 0 0 1-.61-.13.53.53 0 0 1-.21-.47v-.77a.88.88 0 0 1 .06-.35.5.5 0 0 1 .18-.2.79.79 0 0 1 .27-.1h.32 2.31a.64.64 0 0 0 .57-.32 1.81 1.81 0 0 0 .21-1V.74h2v13.64z"/><path d="M172.35 8.21l1.37-.35a7.37 7.37 0 0 1 1.56-.15 4.13 4.13 0 0 1 1.55.27 3.36 3.36 0 0 1 1.17.77 4 4 0 0 1 .79 1.17 6.21 6.21 0 0 1 .43 1.48l.23 1.41a7.55 7.55 0 0 0 .29 1.18 2.44 2.44 0 0 0 .45.82.89.89 0 0 0 .69.3h1.06a1.08 1.08 0 0 1 .62.14.52.52 0 0 1 .21.46v.79a.92.92 0 0 1-.07.36.49.49 0 0 1-.18.2.73.73 0 0 1-.26.09h-.33-11.71a1.08 1.08 0 0 1-.62-.14.52.52 0 0 1-.21-.46v-.79a.83.83 0 0 1 .07-.35.44.44 0 0 1 .18-.2.74.74 0 0 1 .26-.1h.33 8.12a1.85 1.85 0 0 1-.4-.65 6.21 6.21 0 0 1-.25-1.14l-.24-1.33a3.61 3.61 0 0 0-.46-1.2 2.56 2.56 0 0 0-.85-.85 2.74 2.74 0 0 0-1.44-.32 4.24 4.24 0 0 0-.58 0l-.65.1-.63.14a2.21 2.21 0 0 0-.5.18V8.21zm1.39-4a1.28 1.28 0 0 1 .1-.47 1.16 1.16 0 0 1 .26-.39 1.46 1.46 0 0 1 .38-.27 1.28 1.28 0 0 1 .47-.1 1.12 1.12 0 0 1 .48.1 1.05 1.05 0 0 1 .38.27 1.19 1.19 0 0 1 .27.39 1.1 1.1 0 0 1 .1.47 1.07 1.07 0 0 1-.1.47 1 1 0 0 1-.27.39 1.14 1.14 0 0 1-.38.25 1.12 1.12 0 0 1-.48.1 1.14 1.14 0 0 1-.9-.35 1.12 1.12 0 0 1-.31-.84z"/><path d="M181.94 17.17a1.08 1.08 0 0 1-.62-.14.52.52 0 0 1-.21-.46v-.79a.83.83 0 0 1 .07-.35.44.44 0 0 1 .18-.2.74.74 0 0 1 .26-.1h.33 3.1V.75h2.05v16.41h-5.17zM190.99.76h2.06v16.42H191zm-53.38 46.45a1.8 1.8 0 0 1 .45-1.33 1.92 1.92 0 0 1 1.38-.44h1.19v1.82a1.76 1.76 0 0 0 0 .43.92.92 0 0 0 .08.25.25.25 0 0 0 .15.1.66.66 0 0 0 .21 0h.42a.48.48 0 0 1 .24 0 .22.22 0 0 1 .08.18v.31a.52.52 0 0 1 0 .14l-.07.08a.19.19 0 0 1-.1 0h-.69a1.23 1.23 0 0 1-.42-.07.91.91 0 0 1-.37-.21 1.05 1.05 0 0 1-.25-.4 1.51 1.51 0 0 1-.1-.6V46.2h-.16a2.86 2.86 0 0 0-.53 0 1 1 0 0 0-.39.16.68.68 0 0 0-.25.34 1.46 1.46 0 0 0-.09.56v1.31a1.81 1.81 0 0 1-.19.81 2.13 2.13 0 0 1-.53.71 2.6 2.6 0 0 1-.85.49 3.41 3.41 0 0 1-1.14.19 4.21 4.21 0 0 1-1.07-.12 3.1 3.1 0 0 1-.78-.32 2.25 2.25 0 0 1-.55-.45 2.73 2.73 0 0 1-.34-.52 2.08 2.08 0 0 1-.18-.51 1.8 1.8 0 0 1-.05-.44 3.63 3.63 0 0 1 .14-.95 2.4 2.4 0 0 1 .2-.39 2 2 0 0 1 .21-.32l.66.36a1.1 1.1 0 0 0-.15.26c0 .11-.09.21-.13.32a3.4 3.4 0 0 0-.07.34 1.87 1.87 0 0 0 0 .34 2.12 2.12 0 0 0 0 .33 1.25 1.25 0 0 0 .13.35 1.15 1.15 0 0 0 .24.35 1.47 1.47 0 0 0 .39.29 2.53 2.53 0 0 0 .59.21 3.74 3.74 0 0 0 .79.07 2.9 2.9 0 0 0 .81-.1 2.24 2.24 0 0 0 .6-.3 1.33 1.33 0 0 0 .38-.41.91.91 0 0 0 .13-.48v-1.5zm-3 4.69a.63.63 0 0 1 0-.19.46.46 0 0 1 .25-.25.62.62 0 0 1 .38 0 .46.46 0 0 1 .25.25.62.62 0 0 1 0 .38.65.65 0 0 1-.1.15l-.15.1a.63.63 0 0 1-.19 0 .45.45 0 0 1-.47-.47zm1.26 0a.5.5 0 0 1 .14-.34.4.4 0 0 1 .15-.1.52.52 0 0 1 .18 0 .58.58 0 0 1 .19 0 .4.4 0 0 1 .15.1.65.65 0 0 1 .1.15.47.47 0 0 1 0 .38.65.65 0 0 1-.1.15.56.56 0 0 1-.15.1.58.58 0 0 1-.19 0 .44.44 0 0 1-.46-.44z"/><path d="M141.52 48.88a.46.46 0 0 1-.23 0 .22.22 0 0 1-.08-.18v-.31a.52.52 0 0 1 0-.14.18.18 0 0 1 .07-.08h.1 1.58v-2.73h.8v3.44zm1.43-5a.63.63 0 0 1 0-.19.46.46 0 0 1 .25-.25.62.62 0 0 1 .38 0 .46.46 0 0 1 .25.25.62.62 0 0 1 0 .38.65.65 0 0 1-.1.15l-.15.1a.63.63 0 0 1-.19 0 .47.47 0 0 1-.34-.13.51.51 0 0 1-.1-.34zm5.1 4.83a.79.79 0 0 1-.23.09l-.24.06h-.23-.2a2 2 0 0 1-.85-.16 1.45 1.45 0 0 1-.57-.41 1.64 1.64 0 0 1-.32-.56 1.86 1.86 0 0 1-.1-.61 2 2 0 0 1 .13-.73 1.93 1.93 0 0 1 .38-.59 2.07 2.07 0 0 1 .6-.39 1.94 1.94 0 0 1 .78-.15 2.46 2.46 0 0 1 .37 0 1.23 1.23 0 0 1 .37.12 1.56 1.56 0 0 1 .35.24 1.36 1.36 0 0 1 .29.37 1.64 1.64 0 0 1 .19.54 3.13 3.13 0 0 1 .08.73v.81a3.13 3.13 0 0 1-.22 1.22 2.09 2.09 0 0 1-.6.8 2.59 2.59 0 0 1-.92.47 6.67 6.67 0 0 1-1.18.23l-.09-.77a3.75 3.75 0 0 0 .88-.15 2.59 2.59 0 0 0 .65-.27 1.71 1.71 0 0 0 .45-.39 1.42 1.42 0 0 0 .23-.5zm-.78-.62a.9.9 0 0 0 .23 0 .91.91 0 0 0 .23 0h.19.14v-.52a2.83 2.83 0 0 0-.09-.78 1.31 1.31 0 0 0-.23-.46.71.71 0 0 0-.32-.23 1.16 1.16 0 0 0-.36 0 .92.92 0 0 0-.38.07.85.85 0 0 0-.31.21 1.15 1.15 0 0 0-.21.33 1.3 1.3 0 0 0 0 .81 1 1 0 0 0 .21.32 1.1 1.1 0 0 0 .37.22 1.46 1.46 0 0 0 .49.01zm2.91-5.59h.79v4.77a2.06 2.06 0 0 0 0 .39.53.53 0 0 0 .07.25.33.33 0 0 0 .13.13.5.5 0 0 0 .23 0h.29a.48.48 0 0 1 .24 0 .21.21 0 0 1 .08.18v.31a.39.39 0 0 1 0 .13.16.16 0 0 1-.08.08h-.1-.53a1.29 1.29 0 0 1-.51-.1 1 1 0 0 1-.35-.28 1.22 1.22 0 0 1-.21-.41 2 2 0 0 1-.06-.51V42.5z"/><path d="M153.63 47.86a1.75 1.75 0 0 1-.38-.35c-.12-.13-.24-.28-.34-.41l-.29-.4-.21-.27v-.21a1.55 1.55 0 0 1 .08-.23 1.72 1.72 0 0 1 .09-.19c0-.06.06-.1.09-.11l.33-.16a2.26 2.26 0 0 1 .44-.15c.16 0 .34-.09.53-.12a5.6 5.6 0 0 1 .6 0 2.52 2.52 0 0 1 .48 0 2 2 0 0 1 .45.14.8.8 0 0 1 .32.24.47.47 0 0 1 .13.34 2 2 0 0 1 0 .32 2.57 2.57 0 0 1-.14.42 3.79 3.79 0 0 1-.3.53 4.52 4.52 0 0 1-.53.62.73.73 0 0 0 .25.09 2.79 2.79 0 0 0 .33.06h.39.79a.48.48 0 0 1 .24 0 .21.21 0 0 1 .08.18v.31a.39.39 0 0 1 0 .13.19.19 0 0 1-.07.08.21.21 0 0 1-.1 0h-.72a3.55 3.55 0 0 1-.67-.06 5.07 5.07 0 0 1-.56-.14 2.57 2.57 0 0 1-.43-.17l-.29-.15a3.54 3.54 0 0 1-.39.19 3.61 3.61 0 0 1-.46.17 4.36 4.36 0 0 1-.52.11 3.45 3.45 0 0 1-.57 0h-.57a.48.48 0 0 1-.24 0 .22.22 0 0 1-.08-.18v-.31a.52.52 0 0 1 0-.14.27.27 0 0 1 .07-.08.35.35 0 0 1 .11 0h.74.46.38l.28-.07a.43.43 0 0 0 .2-.03zm1.6-1.46a.34.34 0 0 0-.07-.19.57.57 0 0 0-.18-.16 1.1 1.1 0 0 0-.29-.11 1.61 1.61 0 0 0-.39 0 2.88 2.88 0 0 0-.55.06 3.25 3.25 0 0 0-.64.22 1.8 1.8 0 0 0 .18.3l.3.38a4.27 4.27 0 0 0 .36.38 3 3 0 0 0 .37.3 1.83 1.83 0 0 0 .37-.29 2.15 2.15 0 0 0 .29-.32 1.65 1.65 0 0 0 .18-.29.75.75 0 0 0 .07-.28z"/><path d="M158.78 47.8a1.68 1.68 0 0 0 .47.21 3.11 3.11 0 0 0 .66.07h0a.48.48 0 0 1 .24 0 .21.21 0 0 1 .08.18v.31a.39.39 0 0 1 0 .13.19.19 0 0 1-.07.08.21.21 0 0 1-.1 0h-.17a2.09 2.09 0 0 1-.77-.13 1.48 1.48 0 0 1-.52-.3.79.79 0 0 1-.3.3.83.83 0 0 1-.46.13h-1.07a.46.46 0 0 1-.23 0 .22.22 0 0 1-.08-.18v-.31a.52.52 0 0 1 0-.14.18.18 0 0 1 .07-.08h.1 1a.24.24 0 0 0 .22-.12.67.67 0 0 0 .08-.38v-2.12h.8v2.35zm-1.53-4a.65.65 0 0 1 0-.19.44.44 0 0 1 .1-.15.4.4 0 0 1 .15-.1.58.58 0 0 1 .19 0 .57.57 0 0 1 .18 0 .4.4 0 0 1 .15.1.44.44 0 0 1 .1.15.47.47 0 0 1 0 .38.44.44 0 0 1-.1.15.56.56 0 0 1-.15.1.57.57 0 0 1-.18 0 .45.45 0 0 1-.34-.13.44.44 0 0 1-.1-.26zm1.27 0a.63.63 0 0 1 0-.19.65.65 0 0 1 .1-.15.4.4 0 0 1 .15-.1.58.58 0 0 1 .19 0 .63.63 0 0 1 .19 0 .46.46 0 0 1 .25.25.62.62 0 0 1 0 .38.65.65 0 0 1-.1.15l-.15.1a.63.63 0 0 1-.19 0 .45.45 0 0 1-.34-.13.51.51 0 0 1-.1-.26z"/><use xlink:href="#C"/><path d="M163.46 42.5h.8v6.38h-.8zm8.51 5.57a1.89 1.89 0 0 0 0-.31 3.1 3.1 0 0 0-.06-.39c0-.13-.06-.27-.1-.41s-.09-.26-.14-.38l.78-.22c0 .09.06.19.1.29l.09.35c0 .12.06.24.08.37s0 .25.05.37a1.47 1.47 0 0 0 .5.25 2.73 2.73 0 0 0 .69.08h0a.48.48 0 0 1 .24 0 .21.21 0 0 1 .08.18v.31a.23.23 0 0 1 0 .13.11.11 0 0 1-.07.08.18.18 0 0 1-.1 0h-.16a2 2 0 0 1-.7-.1 1.56 1.56 0 0 1-.5-.25 3 3 0 0 1-.26.91 2.39 2.39 0 0 1-.54.71 2 2 0 0 1-.8.46 3.23 3.23 0 0 1-1.06.17 2.8 2.8 0 0 1-1.09-.19 2.27 2.27 0 0 1-.77-.52 2.23 2.23 0 0 1-.46-.75 2.64 2.64 0 0 1-.15-.89 2.28 2.28 0 0 1 0-.45 2.36 2.36 0 0 1 .1-.46 2.6 2.6 0 0 1 .15-.42 2 2 0 0 1 .18-.36l.68.38a1.58 1.58 0 0 0-.13.26 2.11 2.11 0 0 0-.1.3c0 .11-.05.21-.07.32s0 .22 0 .32a2.08 2.08 0 0 0 .11.66 1.51 1.51 0 0 0 .32.53 2 2 0 0 0 .53.36 2.07 2.07 0 0 0 .73.13 2.36 2.36 0 0 0 .78-.13 1.67 1.67 0 0 0 .58-.38 1.62 1.62 0 0 0 .36-.61 2.44 2.44 0 0 0 .13-.7zm-1.79-3.34a.65.65 0 0 1 0-.19.65.65 0 0 1 .1-.15.4.4 0 0 1 .15-.1.58.58 0 0 1 .19 0 .63.63 0 0 1 .19 0 .46.46 0 0 1 .25.25.62.62 0 0 1 0 .38.65.65 0 0 1-.1.15l-.15.1a.63.63 0 0 1-.19 0 .45.45 0 0 1-.34-.13.52.52 0 0 1-.1-.3z"/><path d="M175.97 47.8a1.62 1.62 0 0 0 .48.21 3 3 0 0 0 .65.07h0a.46.46 0 0 1 .23 0 .21.21 0 0 1 .08.18v.31a.24.24 0 0 1 0 .13.14.14 0 0 1-.07.08.21.21 0 0 1-.1 0h-.19a2.13 2.13 0 0 1-.77-.13 1.48 1.48 0 0 1-.52-.3.83.83 0 0 1-.29.3.87.87 0 0 1-.47.13h-1.06a.48.48 0 0 1-.24 0 .22.22 0 0 1-.08-.18v-.31a.52.52 0 0 1 0-.14.27.27 0 0 1 .07-.08h.1 1a.26.26 0 0 0 .23-.12.77.77 0 0 0 .08-.38v-2.12h.79v2.35zm-1.56 2.41a.58.58 0 0 1 0-.19.56.56 0 0 1 .1-.15.31.31 0 0 1 .15-.1.58.58 0 0 1 .19 0 .65.65 0 0 1 .19 0 .44.44 0 0 1 .15.1.4.4 0 0 1 .1.15.58.58 0 0 1 0 .19.57.57 0 0 1 0 .18.4.4 0 0 1-.1.15.65.65 0 0 1-.15.1.65.65 0 0 1-.19 0 .42.42 0 0 1-.34-.14.44.44 0 0 1-.1-.29zm1.27 0a.58.58 0 0 1 0-.19.56.56 0 0 1 .1-.15.39.39 0 0 1 .16-.1.53.53 0 0 1 .18 0 .58.58 0 0 1 .19 0 .31.31 0 0 1 .15.1.4.4 0 0 1 .1.15.45.45 0 0 1 0 .37.56.56 0 0 1-.1.15.4.4 0 0 1-.15.1.58.58 0 0 1-.19 0 .45.45 0 0 1-.34-.14.47.47 0 0 1-.1-.29z"/><path d="M178.5 48.27a1.64 1.64 0 0 1-.2.29.83.83 0 0 1-.23.19.79.79 0 0 1-.27.1 1.61 1.61 0 0 1-.33 0h-.34a.48.48 0 0 1-.24 0 .22.22 0 0 1-.08-.18v-.31a.52.52 0 0 1 0-.14.2.2 0 0 1 .08-.08.29.29 0 0 1 .1 0h.33a.92.92 0 0 0 .49-.13.71.71 0 0 0 .29-.4 5.15 5.15 0 0 1 .29-.82 4 4 0 0 1 .33-.59 2.31 2.31 0 0 1 .36-.39 1.93 1.93 0 0 1 .36-.23 1.26 1.26 0 0 1 .34-.12h.3a1.66 1.66 0 0 1 1 .32 1.33 1.33 0 0 1 .33.34 2.55 2.55 0 0 1 .24.39 2.25 2.25 0 0 1 .13.42 1.9 1.9 0 0 1 .05.4 1.72 1.72 0 0 1-.05.37 2.14 2.14 0 0 1-.13.38 2.64 2.64 0 0 1-.23.35 1.53 1.53 0 0 1-.33.29 2 2 0 0 1-.44.21 1.93 1.93 0 0 1-.55.07 3.1 3.1 0 0 1-.54 0 4.72 4.72 0 0 1-.45-.16 1.77 1.77 0 0 1-.36-.2zm2.61-.93a1.72 1.72 0 0 0-.05-.37 1.47 1.47 0 0 0-.19-.4 1.18 1.18 0 0 0-.32-.31.81.81 0 0 0-.47-.13.85.85 0 0 0-.47.13 1.45 1.45 0 0 0-.38.36 2.09 2.09 0 0 0-.28.51 2.64 2.64 0 0 0-.15.6.43.43 0 0 0 .17.13l.3.12.37.09a2.33 2.33 0 0 0 .37 0 3.15 3.15 0 0 0 .46 0 .91.91 0 0 0 .35-.12.56.56 0 0 0 .22-.24.74.74 0 0 0 .07-.37zm2.99-6.54h-.11-.15a.63.63 0 0 0-.32.07.25.25 0 0 0-.12.25.35.35 0 0 0 0 .17.44.44 0 0 0 .12.15.64.64 0 0 0 .2.11.87.87 0 0 0 .3 0h.13v.38h-1.38v-.36h.5a.2.2 0 0 1-.08-.08.31.31 0 0 1-.1-.12.77.77 0 0 1-.07-.16 1.33 1.33 0 0 1 0-.21.54.54 0 0 1 .05-.22.39.39 0 0 1 .14-.2.62.62 0 0 1 .24-.13 1 1 0 0 1 .35 0h.17.19zm-1 1.7h.8v4.77a3.84 3.84 0 0 0 0 .39 1 1 0 0 0 .07.25.35.35 0 0 0 .14.13.48.48 0 0 0 .22 0h.3a.46.46 0 0 1 .23 0 .21.21 0 0 1 .08.18v.31a.24.24 0 0 1 0 .13.11.11 0 0 1-.07.08.21.21 0 0 1-.1 0h-.54a1.24 1.24 0 0 1-.5-.1.89.89 0 0 1-.35-.28.94.94 0 0 1-.21-.41 1.66 1.66 0 0 1-.07-.51V42.5z"/><path d="M186.69 47.8a1.46 1.46 0 0 0 .47.21 3 3 0 0 0 .65.07h0a.48.48 0 0 1 .24 0 .21.21 0 0 1 .08.18v.31a.39.39 0 0 1 0 .13.16.16 0 0 1-.08.08.18.18 0 0 1-.1 0h-.16a2.09 2.09 0 0 1-.77-.13 1.62 1.62 0 0 1-.53-.3.86.86 0 0 1-.76.43h-1.06a.48.48 0 0 1-.24 0 .22.22 0 0 1-.08-.18v-.31a.29.29 0 0 1 0-.14.13.13 0 0 1 .07-.08.29.29 0 0 1 .1 0h1a.25.25 0 0 0 .22-.12.67.67 0 0 0 .08-.38v-2.12h.8v2.35zm-1.53-4a.63.63 0 0 1 0-.19 1.3 1.3 0 0 1 .1-.15.54.54 0 0 1 .16-.1.52.52 0 0 1 .18 0 .58.58 0 0 1 .19 0 .4.4 0 0 1 .15.1.65.65 0 0 1 .1.15.47.47 0 0 1 0 .38.65.65 0 0 1-.1.15.56.56 0 0 1-.15.1.58.58 0 0 1-.19 0 .48.48 0 0 1-.34-.13.47.47 0 0 1-.1-.26zm1.26 0a.65.65 0 0 1 0-.19.65.65 0 0 1 .1-.15.4.4 0 0 1 .15-.1.58.58 0 0 1 .19 0 .57.57 0 0 1 .18 0 .4.4 0 0 1 .15.1.49.49 0 0 1 0 .68.56.56 0 0 1-.15.1.57.57 0 0 1-.18 0 .45.45 0 0 1-.34-.13.44.44 0 0 1-.1-.26z"/><path d="M189.85 47.79a1.47 1.47 0 0 0 .49.22 2.52 2.52 0 0 0 .71.06h0a.48.48 0 0 1 .24 0 .21.21 0 0 1 .08.18v.31a.39.39 0 0 1 0 .13.16.16 0 0 1-.08.08c0 0-.06 0-.1 0h-.16a2.19 2.19 0 0 1-.78-.13 1.48 1.48 0 0 1-.52-.3.86.86 0 0 1-.3.3.84.84 0 0 1-.47.12h-1.06a.39.39 0 0 1-.24 0 .21.21 0 0 1-.08-.18v-.31a.52.52 0 0 1 0-.14.19.19 0 0 1 .08-.07.23.23 0 0 1 .1 0h1a.25.25 0 0 0 .22-.12.67.67 0 0 0 .08-.38v-5.07h.79v5.3z"/><use xlink:href="#C" x="31.11"/><path d="M61.12 44.85a1.25 1.25 0 0 0-.52.31 1.29 1.29 0 0 0-.35.52 1.9 1.9 0 0 0-.13.75 1.82 1.82 0 0 0 .13.74 1.53 1.53 0 0 0 .35.54 1.44 1.44 0 0 0 .52.31 1.79 1.79 0 0 0 .62.1 2.09 2.09 0 0 0 .67-.1 2.69 2.69 0 0 0 .57-.26l.33.76a2.66 2.66 0 0 1-.73.3 3.6 3.6 0 0 1-.88.11 2.91 2.91 0 0 1-1-.19 2.27 2.27 0 0 1-.79-.52 2.59 2.59 0 0 1-.5-.79 3 3 0 0 1-.18-1 2.72 2.72 0 0 1 .18-1 2.59 2.59 0 0 1 .5-.79 2.16 2.16 0 0 1 .79-.53 2.87 2.87 0 0 1 1-.18 3.17 3.17 0 0 1 .88.11 2.86 2.86 0 0 1 .73.3l-.33.76a2.44 2.44 0 0 0-.57-.26 2 2 0 0 0-.67-.1 1.79 1.79 0 0 0-.62.11zm3.54 3.94a1.87 1.87 0 0 1-.57-.37 1.67 1.67 0 0 1-.39-.56 1.87 1.87 0 0 1-.14-.71 1.74 1.74 0 0 1 .14-.69 1.61 1.61 0 0 1 .39-.57 1.73 1.73 0 0 1 .57-.38 1.92 1.92 0 0 1 .72-.14 1.89 1.89 0 0 1 .72.14 1.59 1.59 0 0 1 .57.38 1.61 1.61 0 0 1 .39.57 1.74 1.74 0 0 1 .15.69 1.92 1.92 0 0 1-.15.71 1.67 1.67 0 0 1-.39.56 1.7 1.7 0 0 1-.57.37 1.89 1.89 0 0 1-.72.14 1.92 1.92 0 0 1-.72-.14zm1.12-.72a1 1 0 0 0 .29-.2 1.08 1.08 0 0 0 .19-.31 1.17 1.17 0 0 0 0-.74.81.81 0 0 0-.19-.3.86.86 0 0 0-.29-.21 1 1 0 0 0-.4-.08.93.93 0 0 0-.39.08.81.81 0 0 0-.3.21.91.91 0 0 0-.19.3 1.17 1.17 0 0 0 0 .74 1 1 0 0 0 .19.31.93.93 0 0 0 .3.2.94.94 0 0 0 .39.07 1 1 0 0 0 .4-.07zm2.95.72a1.77 1.77 0 0 1-1-.93 1.87 1.87 0 0 1-.14-.71 1.74 1.74 0 0 1 .14-.69 1.92 1.92 0 0 1 .39-.57 1.84 1.84 0 0 1 .57-.38 1.92 1.92 0 0 1 .72-.14 1.89 1.89 0 0 1 .72.14 1.72 1.72 0 0 1 1 1 1.58 1.58 0 0 1 .15.69 1.74 1.74 0 0 1-.15.71 1.79 1.79 0 0 1-.38.56 1.85 1.85 0 0 1-.58.37 1.89 1.89 0 0 1-.72.14 1.92 1.92 0 0 1-.72-.19zm1.12-.72a1 1 0 0 0 .29-.2.89.89 0 0 0 .19-.31 1.17 1.17 0 0 0 0-.74.7.7 0 0 0-.19-.3.86.86 0 0 0-.29-.21 1 1 0 0 0-.4-.08.93.93 0 0 0-.39.08.81.81 0 0 0-.3.21.75.75 0 0 0-.18.3 1 1 0 0 0 0 .74.79.79 0 0 0 .18.31.93.93 0 0 0 .3.2.94.94 0 0 0 .39.07 1 1 0 0 0 .4-.07zm2.04 2.1v-4.61a4.54 4.54 0 0 1 .66-.14 5.32 5.32 0 0 1 .69 0 2.16 2.16 0 0 1 .83.14 1.83 1.83 0 0 1 .62.37 1.71 1.71 0 0 1 .39.56 2 2 0 0 1 .13.7 1.91 1.91 0 0 1-.14.71 1.79 1.79 0 0 1-.38.56 1.84 1.84 0 0 1-.6.37 2.16 2.16 0 0 1-.78.14h-.26-.32v1.2zm1.16-2.1h.25a1.22 1.22 0 0 0 .75-.2 1.05 1.05 0 0 0 0-1.45 1.22 1.22 0 0 0-.79-.23H73h-.27v1.88a1.11 1.11 0 0 0 .32 0zm4.82 0h.28l.24-.09a.51.51 0 0 0 .18-.12l.37.74a3.21 3.21 0 0 1-.62.26 3 3 0 0 1-.85.11 1.84 1.84 0 0 1-.74-.14 1.69 1.69 0 0 1-.58-.37 1.8 1.8 0 0 1-.52-1.27 1.89 1.89 0 0 1 .14-.72 2.27 2.27 0 0 1 .38-.57 1.68 1.68 0 0 1 .57-.36 2 2 0 0 1 1.41 0 1.72 1.72 0 0 1 .56.41 1.9 1.9 0 0 1 .36.64 2.37 2.37 0 0 1 .1.86H76.5a.77.77 0 0 0 .35.51 1.22 1.22 0 0 0 .66.17h.09a.6.6 0 0 0 .27-.06zm-1-1.8a.82.82 0 0 0-.31.45h1.75a.7.7 0 0 0-.3-.47 1.07 1.07 0 0 0-.58-.16 1 1 0 0 0-.59.2zm4.35-.03h-.17-.19-.19a.29.29 0 0 0-.12 0v2.56h-.84v-3.21l.33-.06h.36.33.3.63v.8zm1.88 2.63a1.73 1.73 0 0 1-.51-.19 1.3 1.3 0 0 1-.35-.35 1.05 1.05 0 0 1-.13-.52 1 1 0 0 1 .12-.5 1.22 1.22 0 0 1 .32-.36 1.64 1.64 0 0 1 .5-.21 2.47 2.47 0 0 1 .63-.08h.3.35 0a.38.38 0 0 0-.21-.39 1.48 1.48 0 0 0-.56-.1h-.29l-.32.07-.31.09a1.69 1.69 0 0 0-.27.11l.11-.85a2.44 2.44 0 0 1 .52-.17 2.84 2.84 0 0 1 .66-.08 2.23 2.23 0 0 1 .6.08 1.09 1.09 0 0 1 .47.23 1 1 0 0 1 .32.42 1.44 1.44 0 0 1 .12.61v2a3.9 3.9 0 0 1-.71.2 4.87 4.87 0 0 1-.75.07 2.47 2.47 0 0 1-.61-.08zm1-1.52a1.51 1.51 0 0 0-.3 0 1.42 1.42 0 0 0-.3 0 .61.61 0 0 0-.24.07.42.42 0 0 0-.18.14.32.32 0 0 0-.06.2.32.32 0 0 0 .21.32 1.31 1.31 0 0 0 .52.09 1.77 1.77 0 0 0 .32 0 1.32 1.32 0 0 0 .3-.07v-.68zm2.19-1.86v-1.22h.83v1.22h1.28v.78h-1.28v1.22a1.17 1.17 0 0 0 0 .29.4.4 0 0 0 .1.18.38.38 0 0 0 .18.09 1.2 1.2 0 0 0 .28 0h.71v.78h-.8a2.52 2.52 0 0 1-.6-.06 1 1 0 0 1-.42-.17.76.76 0 0 1-.24-.34 1.41 1.41 0 0 1-.08-.5v-1.49h-.6v-.78zm2.9-.63a.4.4 0 0 1-.14-.34.41.41 0 0 1 .14-.32.54.54 0 0 1 .36-.13.5.5 0 0 1 .34.12.42.42 0 0 1 .14.32.42.42 0 0 1-.14.33.51.51 0 0 1-.35.12.58.58 0 0 1-.35-.1zm.77.63v3.37h-.84v-3.37zm.47 0h.88l.85 2.58.89-2.58h.88l-1.16 3.37h-1.18zm5.84 2.58l.28-.07.24-.09a.51.51 0 0 0 .18-.12l.37.74a3.21 3.21 0 0 1-.62.26 3 3 0 0 1-.85.11 1.84 1.84 0 0 1-.74-.14 1.69 1.69 0 0 1-.58-.37 1.8 1.8 0 0 1-.39-.57 1.78 1.78 0 0 1-.13-.7 1.89 1.89 0 0 1 .14-.72 1.84 1.84 0 0 1 .38-.57 1.68 1.68 0 0 1 .57-.36 1.75 1.75 0 0 1 .7-.13 1.87 1.87 0 0 1 .71.13 1.72 1.72 0 0 1 .56.41 2.09 2.09 0 0 1 .36.64 2.37 2.37 0 0 1 .1.86H94.9a.74.74 0 0 0 .35.51 1.22 1.22 0 0 0 .66.17h.08a.65.65 0 0 0 .28.01zm-1-1.8a.94.94 0 0 0-.31.45h1.76a.78.78 0 0 0-.3-.47 1.07 1.07 0 0 0-.58-.16 1 1 0 0 0-.61.2zm4.72-2.26h.87v4.85h-.87zm2.29 1.47h.41.38.31a2.93 2.93 0 0 1 .61.06 1.2 1.2 0 0 1 .49.21 1 1 0 0 1 .33.43 1.65 1.65 0 0 1 .13.68v2.1h-.84V47a.66.66 0 0 0-.75-.81h-.3a2 2 0 0 0-.33 0v2.59h-.84v-3.24zm5.23 2.59c.12 0 .18-.11.18-.2a.2.2 0 0 0-.11-.2 1.6 1.6 0 0 0-.44-.14h-.27a2 2 0 0 1-.89-.36.8.8 0 0 1-.33-.69.9.9 0 0 1 .38-.75 1.65 1.65 0 0 1 1-.28 3.33 3.33 0 0 1 .78.08 2.26 2.26 0 0 1 .65.23l-.3.77a1.57 1.57 0 0 0-.26-.1 1.32 1.32 0 0 0-.3-.09l-.31-.06h-.24c-.35 0-.52.07-.52.22a.22.22 0 0 0 .12.19 1.37 1.37 0 0 0 .44.13h.27a2.15 2.15 0 0 1 1 .4.93.93 0 0 1 .29.72.86.86 0 0 1-.38.74 1.42 1.42 0 0 1-.48.21 2.62 2.62 0 0 1-.67.08h-.41a2.79 2.79 0 0 1-.4-.07l-.37-.11a2.37 2.37 0 0 1-.32-.14l.32-.81a2.44 2.44 0 0 0 .54.24 2.52 2.52 0 0 0 .67.09 1.93 1.93 0 0 0 .36-.1zm4.65-2.58v3.19c-.12 0-.24.07-.34.11l-.34.08h-.35-.41a2.22 2.22 0 0 1-.59-.07 1.08 1.08 0 0 1-.48-.23 1.14 1.14 0 0 1-.33-.42 1.58 1.58 0 0 1-.11-.65v-2h.84v1.82a.9.9 0 0 0 .16.63.63.63 0 0 0 .51.17h.33l.33-.07v-2.53h.83zm2.38.75h-.14-.19-.19a.29.29 0 0 0-.12 0v2.56h-.85v-3.21l.34-.06h.35.33.3.68v.8z"/><path d="M116.43 48.87a1.63 1.63 0 0 1-.51-.19 1.17 1.17 0 0 1-.35-.35 1 1 0 0 1-.13-.52 1 1 0 0 1 .12-.5 1.1 1.1 0 0 1 .32-.36 1.64 1.64 0 0 1 .5-.21 2.47 2.47 0 0 1 .63-.08h.3.35 0a.38.38 0 0 0-.21-.39 1.48 1.48 0 0 0-.56-.1h-.29l-.32.07a1.58 1.58 0 0 0-.31.09 1.69 1.69 0 0 0-.27.11l.11-.85a2.26 2.26 0 0 1 .52-.17 2.78 2.78 0 0 1 .66-.08 2.23 2.23 0 0 1 .6.08 1.15 1.15 0 0 1 .47.23 1 1 0 0 1 .32.41 1.45 1.45 0 0 1 .11.61v2a3.58 3.58 0 0 1-.7.2 4.87 4.87 0 0 1-.75.07 2.43 2.43 0 0 1-.61-.07zm1-1.52a2.26 2.26 0 0 0-.6 0 .61.61 0 0 0-.24.07.39.39 0 0 0-.17.14.27.27 0 0 0-.07.2.32.32 0 0 0 .21.32 1.35 1.35 0 0 0 .52.09 1.77 1.77 0 0 0 .32 0 1.32 1.32 0 0 0 .3-.07v-.68zm2.32-1.87h.41.38.32a2.91 2.91 0 0 1 .6.06 1.24 1.24 0 0 1 .5.21 1.12 1.12 0 0 1 .33.43 1.84 1.84 0 0 1 .12.68v2.1h-.84V47a.66.66 0 0 0-.75-.81h-.29a2 2 0 0 0-.34 0v2.59h-.83v-3.24zm3.35.97a1.52 1.52 0 0 1 .37-.56 1.65 1.65 0 0 1 .58-.37 1.83 1.83 0 0 1 .71-.14 2.48 2.48 0 0 1 .63.07 3.93 3.93 0 0 1 .54.2l-.34.76a1.11 1.11 0 0 0-.37-.15 1.44 1.44 0 0 0-.43-.06 1 1 0 0 0-.39.07.65.65 0 0 0-.3.19.79.79 0 0 0-.2.31 1.12 1.12 0 0 0-.07.38 1 1 0 0 0 .07.4.83.83 0 0 0 .2.3.67.67 0 0 0 .3.19 1 1 0 0 0 .39.07 1.88 1.88 0 0 0 .43-.05 1.73 1.73 0 0 0 .37-.16l.34.76a3 3 0 0 1-.54.2 2.48 2.48 0 0 1-.63.07 1.83 1.83 0 0 1-.71-.13 1.92 1.92 0 0 1-.58-.37 1.52 1.52 0 0 1-.37-.56 1.78 1.78 0 0 1-.14-.7 1.65 1.65 0 0 1 .14-.72zm5.37 1.62l.28-.07.24-.09a.51.51 0 0 0 .18-.12l.37.74a3.21 3.21 0 0 1-.62.26 3 3 0 0 1-.85.11 1.84 1.84 0 0 1-.74-.14 1.69 1.69 0 0 1-.58-.37 1.8 1.8 0 0 1-.39-.57 1.78 1.78 0 0 1-.13-.7 1.89 1.89 0 0 1 .14-.72 2 2 0 0 1 .38-.57 1.68 1.68 0 0 1 .57-.36 1.78 1.78 0 0 1 .7-.13 1.87 1.87 0 0 1 .71.13 1.72 1.72 0 0 1 .56.41 1.9 1.9 0 0 1 .36.64 2.37 2.37 0 0 1 .1.86h-2.65a.74.74 0 0 0 .35.51 1.22 1.22 0 0 0 .66.17h.09a.6.6 0 0 0 .27.01zm-1-1.8a.86.86 0 0 0-.3.45h1.75a.78.78 0 0 0-.3-.47 1.06 1.06 0 0 0-1.15 0zm-64.95-9.91a5.14 5.14 0 0 1-3-3.05 6.39 6.39 0 0 1-.41-2.3 6.18 6.18 0 0 1 .41-2.3 5.72 5.72 0 0 1 1.15-1.84 5.32 5.32 0 0 1 1.83-1.21 6.37 6.37 0 0 1 2.4-.44 9.39 9.39 0 0 1 2.29.27 6.26 6.26 0 0 1 1.8.7l-.76 1.75a5.94 5.94 0 0 0-1.44-.6 6.9 6.9 0 0 0-1.74-.27 4.35 4.35 0 0 0-1.44.24 3.18 3.18 0 0 0-1.2.72 3.28 3.28 0 0 0-.82 1.21 4.52 4.52 0 0 0-.3 1.72 4.57 4.57 0 0 0 .3 1.73 3.5 3.5 0 0 0 .82 1.22 3.18 3.18 0 0 0 1.2.72 4.27 4.27 0 0 0 1.44.24 6 6 0 0 0 1.19-.12 5.45 5.45 0 0 0 1.1-.36v-2h-2.5v-1.85h4.49v5.23a4.73 4.73 0 0 1-.93.44 9.15 9.15 0 0 1-1.12.31 11.46 11.46 0 0 1-1.17.21c-.41 0-.79.07-1.15.07a6.39 6.39 0 0 1-2.44-.44zm13.35.09a3.93 3.93 0 0 1-1.48-1 3.82 3.82 0 0 1-.84-1.38 6.15 6.15 0 0 1-.26-1.79v-6.85h2v6.35a6.05 6.05 0 0 0 .14 1.36 2.44 2.44 0 0 0 .47 1 2.19 2.19 0 0 0 .87.6 4.49 4.49 0 0 0 2.65 0 2.09 2.09 0 0 0 .87-.6 2.46 2.46 0 0 0 .48-1 5.6 5.6 0 0 0 .15-1.36v-6.35h2v6.81a5.83 5.83 0 0 1-.29 1.83 3.67 3.67 0 0 1-.83 1.45 4 4 0 0 1-1.49 1 7.22 7.22 0 0 1-4.44 0zm18.18-1.67v1.85H86.9v-11.2h2v9.34h5.15zm3-9.35h7.13v1.85h-5.13v2.67h4.65v1.87h-4.65v4.81h-2zm18.51 10.93a5.19 5.19 0 0 1-3-3.05 6.66 6.66 0 0 1 0-4.6 5.58 5.58 0 0 1 1.16-1.84 5.32 5.32 0 0 1 1.83-1.21 6.3 6.3 0 0 1 2.4-.44 9.39 9.39 0 0 1 2.29.27 6.31 6.31 0 0 1 1.79.7l-.76 1.75a5.62 5.62 0 0 0-1.44-.6 6.84 6.84 0 0 0-1.78-.27 4.35 4.35 0 0 0-1.44.24 3.35 3.35 0 0 0-1.2.72 3.41 3.41 0 0 0-.82 1.21 4.52 4.52 0 0 0-.3 1.72 4.57 4.57 0 0 0 .3 1.73 3.64 3.64 0 0 0 .82 1.22 3.35 3.35 0 0 0 1.2.72 4.27 4.27 0 0 0 1.44.24 6 6 0 0 0 1.19-.12 5.15 5.15 0 0 0 1.11-.36v-2h-2.5v-1.85h4.49v5.23a4.47 4.47 0 0 1-.93.44 9.15 9.15 0 0 1-1.12.31 11.46 11.46 0 0 1-1.17.21c-.41 0-.79.07-1.14.07a6.3 6.3 0 0 1-2.42-.44zm18.05-10.93v1.85h-5.16v2.67h4.68v1.87h-4.68v3h5.19v1.86h-7.18V25.43zm5.64 11.2h-2v-11.2h3.07l4.09 9.34v-9.34h1.94v11.2h-3.05l-4.09-9.34v9.34zm18.44-11.2v1.85h-5.16v2.67h4.68v1.87h-4.68v3h5.19v1.86h-7.18V25.43zm5.67 6.78v4.42h-2v-11.2h4.19a5.46 5.46 0 0 1 1.87.28 3.77 3.77 0 0 1 1.27.76 2.88 2.88 0 0 1 .72 1.09 3.55 3.55 0 0 1 .23 1.25 3.89 3.89 0 0 1-.12 1 2.89 2.89 0 0 1-.39.88 3.33 3.33 0 0 1-.71.75 3.57 3.57 0 0 1-1 .54l2.93 4.69h-2.3l-2.73-4.41h-2zm0-1.72h1.76a6 6 0 0 0 1-.08 2 2 0 0 0 .77-.26 1.31 1.31 0 0 0 .49-.5 1.71 1.71 0 0 0 .17-.79 1.3 1.3 0 0 0-.6-1.21 3.5 3.5 0 0 0-1.84-.37h-1.76v3.21zm17.56 6.14l-1-2.63h-4.64l-.94 2.63h-2.09l4.15-11.19h2.41l4.24 11.19zm-1.61-4.5l-1.66-4.65-1.66 4.65zm13.74 2.65v1.85h-7.15v-11.2h2v9.34h5.15z"/></g><g fill="#56b7e7"><path d="M134.87 59.96h.69v4.46a1.07 1.07 0 0 0 .43.24 2.12 2.12 0 0 0 .62.08h0a.39.39 0 0 1 .21 0 .17.17 0 0 1 .07.16v.26a.27.27 0 0 1 0 .11l-.06.07h-.09-.14a1.63 1.63 0 0 1-.63-.1 1.27 1.27 0 0 1-.43-.24 2.43 2.43 0 0 1-.23.79 1.68 1.68 0 0 1-.46.62 2 2 0 0 1-.69.4 2.55 2.55 0 0 1-.91.15 2.38 2.38 0 0 1-.93-.17 1.82 1.82 0 0 1-.66-.44 1.84 1.84 0 0 1-.39-.64 2.21 2.21 0 0 1-.13-.76 2.77 2.77 0 0 1 .12-.79 2.06 2.06 0 0 1 .12-.35 1.31 1.31 0 0 1 .17-.31l.58.32a1.13 1.13 0 0 0-.11.22c0 .08-.05.17-.08.26a1.37 1.37 0 0 0 0 .28 1.32 1.32 0 0 0 0 .28 1.41 1.41 0 0 0 .09.55 1.27 1.27 0 0 0 .28.46 1.19 1.19 0 0 0 .45.3 1.71 1.71 0 0 0 .62.11 1.78 1.78 0 0 0 .67-.11 1.27 1.27 0 0 0 .49-.32 1.29 1.29 0 0 0 .31-.52 2.08 2.08 0 0 0 .11-.69v-4.76z"/><path d="M138.35 64.5a2.1 2.1 0 0 0 .4.18 3 3 0 0 0 .56 0h0a.38.38 0 0 1 .21 0c0 0 .07.07.07.15v.26a.37.37 0 0 1 0 .12.17.17 0 0 1-.06.06h-.09-.14a2 2 0 0 1-.66-.1 1.46 1.46 0 0 1-.44-.26 1 1 0 0 1-.25.26.72.72 0 0 1-.4.11h-.91a.41.41 0 0 1-.21 0 .18.18 0 0 1-.06-.16v-.25a.37.37 0 0 1 0-.12.12.12 0 0 1 .06-.06.13.13 0 0 1 .08 0h.88a.23.23 0 0 0 .19-.11.56.56 0 0 0 .08-.32v-1.82h.68v2zm-.75 2.06a.76.76 0 0 1 0-.16.38.38 0 0 1 .09-.13.43.43 0 0 1 .13-.09.41.41 0 0 1 .16 0h.15a.43.43 0 0 1 .13.09.38.38 0 0 1 .09.13.41.41 0 0 1 0 .16.8.8 0 0 1 0 .15.25.25 0 0 1-.09.13.3.3 0 0 1-.13.09h-.15a.38.38 0 0 1-.38-.37z"/><path d="M143.29 65.42q-.45 0-.81 0a6.52 6.52 0 0 1-.68-.1l-.46.07a4.41 4.41 0 0 1-.52 0h-.54-.93a.39.39 0 0 1-.21 0 .18.18 0 0 1-.06-.16v-.26a.18.18 0 0 1 0-.11.18.18 0 0 1 0-.07h.09 1.16 0a.7.7 0 0 1-.18-.2c0-.08-.08-.16-.12-.24a.88.88 0 0 1 .02-.28 1.8 1.8 0 0 1 0-.22 1.3 1.3 0 0 1 .11-.56 1.58 1.58 0 0 1 .33-.48 1.39 1.39 0 0 1 .51-.32 1.92 1.92 0 0 1 .69-.12 1.5 1.5 0 0 1 .58.1 1.43 1.43 0 0 1 .42.29 1.23 1.23 0 0 1 .26.42 1.55 1.55 0 0 1 .09.53 1.73 1.73 0 0 1 0 .32c0 .1 0 .2-.07.29l-.09.25-.08.19h1a.41.41 0 0 1 .21 0 .18.18 0 0 1 .06.16v.25a.37.37 0 0 1 0 .12.17.17 0 0 1-.06.06.13.13 0 0 1-.08 0h-.53zm-2.75-4.3a.41.41 0 0 1 0-.16.38.38 0 0 1 .09-.13.36.36 0 0 1 .12-.08.47.47 0 0 1 .16 0 .42.42 0 0 1 .16 0 .57.57 0 0 1 .13.08.6.6 0 0 1 .09.13.41.41 0 0 1 0 .16.78.78 0 0 1 0 .16.6.6 0 0 1-.09.13.57.57 0 0 1-.13.08.29.29 0 0 1-.16 0 .36.36 0 0 1-.28-.11.38.38 0 0 1-.09-.26zm.11 2.63a1 1 0 0 0 .32.71 1.1 1.1 0 0 0 .35.2 1.55 1.55 0 0 0 .43.07h.24a1.12 1.12 0 0 0 .1-.16.85.85 0 0 0 .09-.22 1.6 1.6 0 0 0 .08-.26 1.27 1.27 0 0 0 0-.28 1.06 1.06 0 0 0-.07-.37.71.71 0 0 0-.18-.27.82.82 0 0 0-.25-.16.73.73 0 0 0-.3-.06 1.12 1.12 0 0 0-.31.05.81.81 0 0 0-.47.4 1.1 1.1 0 0 0-.03.35zm1-2.63a.76.76 0 0 1 0-.16.6.6 0 0 1 .09-.13.57.57 0 0 1 .13-.08.32.32 0 0 1 .31 0 .32.32 0 0 1 .13.08.38.38 0 0 1 .09.13.41.41 0 0 1 0 .16.76.76 0 0 1 0 .16.38.38 0 0 1-.09.13.32.32 0 0 1-.13.08.27.27 0 0 1-.15 0 .38.38 0 0 1-.41-.37z"/><path d="M145.41 64.5a1.85 1.85 0 0 0 .4.18 3 3 0 0 0 .55 0h0a.38.38 0 0 1 .21 0 .16.16 0 0 1 .07.15v.26a.21.21 0 0 1 0 .12.1.1 0 0 1-.05.06h-.09-.14a2 2 0 0 1-.66-.1 1.46 1.46 0 0 1-.44-.26 1 1 0 0 1-.25.26.72.72 0 0 1-.4.11h-.91a.41.41 0 0 1-.21 0 .18.18 0 0 1-.06-.16v-.25a.22.22 0 0 1 0-.12.09.09 0 0 1 .06-.06.13.13 0 0 1 .08 0h.88a.23.23 0 0 0 .19-.11.56.56 0 0 0 .07-.32v-1.82h.69v2zm-1.3-3.38a.41.41 0 0 1 0-.16.33.33 0 0 1 .21-.21.34.34 0 0 1 .32 0 .57.57 0 0 1 .13.08l.09.13a.41.41 0 0 1 0 .16.78.78 0 0 1 0 .16l-.09.13a.57.57 0 0 1-.13.08.29.29 0 0 1-.16 0 .39.39 0 0 1-.29-.11.42.42 0 0 1-.08-.26zm1.08 0a.41.41 0 0 1 0-.16.33.33 0 0 1 .21-.21.34.34 0 0 1 .32 0 .33.33 0 0 1 .21.21.44.44 0 0 1 0 .32.33.33 0 0 1-.21.21.29.29 0 0 1-.16 0 .38.38 0 0 1-.29-.11.42.42 0 0 1-.08-.26z"/><path d="M148.46 64.52a1.3 1.3 0 0 0 .44.17 2.67 2.67 0 0 0 .5 0h.27a.22.22 0 0 0 .19-.1.6.6 0 0 0 .07-.33v-1.41h.69v1.58a1.27 1.27 0 0 0 .44.2 2.38 2.38 0 0 0 .55.06h.27a.22.22 0 0 0 .19-.1.59.59 0 0 0 .08-.33v-1.82h.68v2a1.38 1.38 0 0 0 .42.21 2.13 2.13 0 0 0 .6.08h0a.33.33 0 0 1 .2 0 .17.17 0 0 1 .08.16v.26a.18.18 0 0 1 0 .11.1.1 0 0 1-.05.06.16.16 0 0 1-.09 0h-.14a1.55 1.55 0 0 1-1.15-.4.87.87 0 0 1-.26.28.69.69 0 0 1-.42.11h-.41a2.41 2.41 0 0 1-.6-.08 1.28 1.28 0 0 1-.53-.3.84.84 0 0 1-.26.27.73.73 0 0 1-.41.11h-.41-.29l-.28-.05-.28-.11a1.11 1.11 0 0 1-.24-.16.75.75 0 0 1-.25.25.79.79 0 0 1-.4.1h-1.25a.37.37 0 0 1-.2 0 .16.16 0 0 1-.07-.15v-.26a.37.37 0 0 1 0-.12.17.17 0 0 1 .06-.06.32.32 0 0 1 .09 0h1.22a.21.21 0 0 0 .19-.11.66.66 0 0 0 .07-.32v-1.08h.69v1.32z"/><path d="M155.05 64.89a.94.94 0 0 1-.18.25.58.58 0 0 1-.19.16.79.79 0 0 1-.23.09 2.4 2.4 0 0 1-.28 0h-.29a.38.38 0 0 1-.21 0 .17.17 0 0 1-.07-.16v-.25a.37.37 0 0 1 0-.12l.06-.06a.16.16 0 0 1 .09 0h.3a.81.81 0 0 0 .41-.11.53.53 0 0 0 .25-.34 5.23 5.23 0 0 1 .25-.71 3.3 3.3 0 0 1 .28-.5 2 2 0 0 1 .31-.33 1.35 1.35 0 0 1 .31-.2.88.88 0 0 1 .29-.09h.26a1.34 1.34 0 0 1 .46.08 1.62 1.62 0 0 1 .37.19 2 2 0 0 1 .29.29 1.68 1.68 0 0 1 .2.34 1.42 1.42 0 0 1 .11.35 1.5 1.5 0 0 1 0 .35 1.17 1.17 0 0 1-.08.44 1.38 1.38 0 0 0 .42.21 2.4 2.4 0 0 0 .58.06h0a.41.41 0 0 1 .21 0 .18.18 0 0 1 .06.16v.26a.27.27 0 0 1 0 .11s0 .05-.06.07h-.08-.15a2.61 2.61 0 0 1-.42 0 1.52 1.52 0 0 1-.34-.1 1 1 0 0 1-.26-.16 1.37 1.37 0 0 1-.22-.19 1.48 1.48 0 0 1-.47.38 1.4 1.4 0 0 1-.68.15 2.31 2.31 0 0 1-.46 0 3.56 3.56 0 0 1-.39-.13 3.14 3.14 0 0 1-.31-.18c-.01-.13-.09-.24-.14-.31zm2.23-.79a1 1 0 0 0 0-.32 1.44 1.44 0 0 0-.16-.33.87.87 0 0 0-.27-.27.77.77 0 0 0-.81 0 1.18 1.18 0 0 0-.32.31 2.28 2.28 0 0 0-.24.44 2.72 2.72 0 0 0-.13.51.32.32 0 0 0 .15.1 1.27 1.27 0 0 0 .26.11l.31.08a1.63 1.63 0 0 0 .31 0h.4a1 1 0 0 0 .3-.11.46.46 0 0 0 .19-.2.75.75 0 0 0 .01-.35z"/><path d="M158.85 65.42a.38.38 0 0 1-.21 0 .17.17 0 0 1-.07-.16v-.25a.37.37 0 0 1 0-.12l.06-.06a.16.16 0 0 1 .09 0h1.14v-4.86h.68v5.45zm3-5.46h.69v5.46h-.69zm7.7 4.03a1.5 1.5 0 0 1 .38-1.13 1.62 1.62 0 0 1 1.18-.38h1v1.59a1.66 1.66 0 0 0 0 .36.47.47 0 0 0 .07.21.22.22 0 0 0 .13.09.48.48 0 0 0 .18 0h.37a.41.41 0 0 1 .21 0 .18.18 0 0 1 .06.16v.26a.18.18 0 0 1 0 .11.12.12 0 0 1-.06.06.11.11 0 0 1-.08 0h-.59a1.09 1.09 0 0 1-.36-.06.75.75 0 0 1-.31-.18 1.05 1.05 0 0 1-.22-.34 1.35 1.35 0 0 1-.09-.52v-1.18h-.13a3 3 0 0 0-.45 0 .79.79 0 0 0-.34.14.64.64 0 0 0-.21.29 1.28 1.28 0 0 0-.07.48v1.12a1.7 1.7 0 0 1-.16.69 2 2 0 0 1-.46.6 2.21 2.21 0 0 1-.72.42 2.72 2.72 0 0 1-1 .16 3.62 3.62 0 0 1-.91-.1 2.41 2.41 0 0 1-.67-.27 2 2 0 0 1-.46-.39 1.72 1.72 0 0 1-.3-.44 2 2 0 0 1-.15-.43 1.89 1.89 0 0 1 0-.38 2.73 2.73 0 0 1 0-.41 2.23 2.23 0 0 1 .09-.39 3.65 3.65 0 0 1 .14-.35 2.27 2.27 0 0 1 .18-.28l.56.31-.13.22-.1.27a2.17 2.17 0 0 0-.08.57.92.92 0 0 0 0 .28 1.24 1.24 0 0 0 .1.31 1.42 1.42 0 0 0 .21.29 1.3 1.3 0 0 0 .34.25 2 2 0 0 0 .49.17 2.82 2.82 0 0 0 .69.07 2.45 2.45 0 0 0 .69-.09 2 2 0 0 0 .51-.25 1.2 1.2 0 0 0 .33-.35.87.87 0 0 0 .11-.41v-1.26z"/><path d="M174.61 64.49a1.19 1.19 0 0 0 .41.18 2.29 2.29 0 0 0 .56.06h0a.37.37 0 0 1 .2 0c.05 0 .07.07.07.15v.26a.37.37 0 0 1 0 .12.17.17 0 0 1-.06.06h-.09-.14a2 2 0 0 1-.66-.1 1.77 1.77 0 0 1-.45-.26.88.88 0 0 1-.25.26.76.76 0 0 1-.41.11h-.91a.41.41 0 0 1-.21 0 .18.18 0 0 1-.06-.16v-.25a.37.37 0 0 1 0-.12.17.17 0 0 1 .06-.06h.08.88a.23.23 0 0 0 .19-.11.56.56 0 0 0 .08-.32v-4.34h.68z"/><path d="M178.6 63.12h-.17-.2-.21-.18a.88.88 0 0 0-.27 0 .64.64 0 0 0-.25.12.67.67 0 0 0-.18.25.86.86 0 0 0-.08.38.92.92 0 0 0 .08.38.75.75 0 0 0 .2.29.72.72 0 0 0 .31.2 1.35 1.35 0 0 0 .41.07h.92v.68h-3.37a.37.37 0 0 1-.2 0 .17.17 0 0 1-.07-.16v-.26a.31.31 0 0 1 0-.11l.06-.07h.09 1.12a1.58 1.58 0 0 1-.15-.43 2.09 2.09 0 0 1-.05-.42 1.74 1.74 0 0 1 .1-.61 1.51 1.51 0 0 1 .31-.5 1.45 1.45 0 0 1 .48-.34 1.39 1.39 0 0 1 .61-.12h.18.21.2.15zm6.66 1.61v-.26c0-.1 0-.22-.05-.33s0-.24-.09-.36l-.12-.32.67-.18.08.25c0 .09 0 .19.08.29s0 .21.07.32 0 .21 0 .31a1 1 0 0 0 .42.21 2.53 2.53 0 0 0 .6.07h0a.34.34 0 0 1 .2 0 .16.16 0 0 1 .07.15v.26a.37.37 0 0 1 0 .12.17.17 0 0 1-.06.06h-.08-.15a2 2 0 0 1-.59-.08 1.17 1.17 0 0 1-.43-.22 2.21 2.21 0 0 1-.23.78 1.91 1.91 0 0 1-1.15 1 2.5 2.5 0 0 1-.9.14 2.68 2.68 0 0 1-.94-.16 1.93 1.93 0 0 1-.66-.45 1.73 1.73 0 0 1-.38-.64 2.13 2.13 0 0 1-.13-.76 2.56 2.56 0 0 1 0-.39c0-.13.05-.26.08-.39a3 3 0 0 1 .13-.36 1.31 1.31 0 0 1 .17-.31l.58.32a.82.82 0 0 0-.11.23 1.45 1.45 0 0 0-.09.25v.28.28a1.5 1.5 0 0 0 .1.56 1.27 1.27 0 0 0 .73.75 1.71 1.71 0 0 0 .62.12 1.69 1.69 0 0 0 .66-.12 1.3 1.3 0 0 0 .5-.32 1.29 1.29 0 0 0 .31-.52 2.15 2.15 0 0 0 .09-.58zm-1.52-2.85a.41.41 0 0 1 0-.16.6.6 0 0 1 .09-.13.57.57 0 0 1 .13-.08.34.34 0 0 1 .32 0 .33.33 0 0 1 .21.21.44.44 0 0 1 0 .32.57.57 0 0 1-.08.13.6.6 0 0 1-.13.09.41.41 0 0 1-.16 0 .38.38 0 0 1-.29-.11.42.42 0 0 1-.09-.27z"/><path d="M188.68 64.5a1.85 1.85 0 0 0 .4.18 3 3 0 0 0 .55 0h0a.41.41 0 0 1 .21 0c0 0 .06.07.06.15v.26a.22.22 0 0 1 0 .12.09.09 0 0 1-.06.06h-.08-.15a2 2 0 0 1-.65-.1 1.46 1.46 0 0 1-.44-.26.92.92 0 0 1-.26.26.68.68 0 0 1-.4.11h-.9a.38.38 0 0 1-.21 0 .19.19 0 0 1-.07-.16v-.25a.21.21 0 0 1 0-.12.1.1 0 0 1 .05-.06.16.16 0 0 1 .09 0h.88a.24.24 0 0 0 .19-.11.66.66 0 0 0 .07-.32v-1.82h.68v2zm-1.32 2.06a.41.41 0 0 1 0-.16.44.44 0 0 1 .22-.22.41.41 0 0 1 .16 0 .45.45 0 0 1 .16 0 .48.48 0 0 1 .21.22.41.41 0 0 1 0 .16.4.4 0 0 1 0 .15.25.25 0 0 1-.09.13.27.27 0 0 1-.12.09.45.45 0 0 1-.16 0 .38.38 0 0 1-.29-.12.37.37 0 0 1-.09-.25zm1.07 0a.76.76 0 0 1 0-.16.38.38 0 0 1 .09-.13.43.43 0 0 1 .13-.09.4.4 0 0 1 .15 0 .41.41 0 0 1 .16 0 .43.43 0 0 1 .13.09.38.38 0 0 1 .09.13.41.41 0 0 1 0 .16.8.8 0 0 1 0 .15.25.25 0 0 1-.09.13.3.3 0 0 1-.13.09.41.41 0 0 1-.16 0 .41.41 0 0 1-.4-.4z"/><path d="M192.66 63.12h-.17-.2-.21-.18a.78.78 0 0 0-.26 0 .62.62 0 0 0-.26.12.67.67 0 0 0-.18.25.86.86 0 0 0-.07.38.92.92 0 0 0 .07.38.75.75 0 0 0 .2.29.72.72 0 0 0 .31.2 1.35 1.35 0 0 0 .41.07h.93v.68h-3.37a.37.37 0 0 1-.2 0 .17.17 0 0 1-.07-.16v-.26a.31.31 0 0 1 0-.11l.06-.07h.09 1.12a2 2 0 0 1-.15-.43 2.09 2.09 0 0 1-.05-.42 1.74 1.74 0 0 1 .1-.61 1.69 1.69 0 0 1 .31-.5 1.45 1.45 0 0 1 .48-.34 1.39 1.39 0 0 1 .61-.12h.18.21.2.15zm-130.09-2.4v.47h-2.76v2h2.5v.49h-2.5v2.18h2.79v.48h-3.28v-5.58zm2.96 5.61a4.93 4.93 0 0 1-.55 0 3.06 3.06 0 0 1-.63-.06 1 1 0 0 1-.47-.25 1.05 1.05 0 0 1-.29-.48 2.33 2.33 0 0 1-.1-.76v-2.21h.47v2a3 3 0 0 0 .06.66 1 1 0 0 0 .19.39.69.69 0 0 0 .32.19 2.12 2.12 0 0 0 .47 0h.48a3.1 3.1 0 0 0 .51-.11v-3.17h.48v3.81a1.26 1.26 0 0 1-.42 1.13 1.83 1.83 0 0 1-1.15.34h-.32-.32l-.32-.08-.33-.13-.08-.59.41.21.3.1.32.06h.3a1.4 1.4 0 0 0 .84-.23.9.9 0 0 0 .31-.77v-.09zm4.4-.53a2.53 2.53 0 0 0 .61-.27l.23.43a2.64 2.64 0 0 1-.7.3 3.05 3.05 0 0 1-.85.1 1.83 1.83 0 0 1-.75-.15 2 2 0 0 1-.6-.4 1.73 1.73 0 0 1-.39-.6 2.05 2.05 0 0 1 0-1.54 1.66 1.66 0 0 1 .4-.6 1.94 1.94 0 0 1 .6-.41 2 2 0 0 1 .73-.14 1.68 1.68 0 0 1 .72.14 1.49 1.49 0 0 1 .56.39 1.83 1.83 0 0 1 .37.62 2.58 2.58 0 0 1 .14.9h-3.17a1.56 1.56 0 0 0 .11.48 1.31 1.31 0 0 0 .28.45 1.5 1.5 0 0 0 .43.3 1.38 1.38 0 0 0 .55.1 2.47 2.47 0 0 0 .73-.1zm-1.25-2.73a1.38 1.38 0 0 0-.4.26 1.36 1.36 0 0 0-.27.39 1.82 1.82 0 0 0-.14.38h2.6a1.24 1.24 0 0 0-.12-.41 1.19 1.19 0 0 0-.27-.38.88.88 0 0 0-.38-.24 1.21 1.21 0 0 0-.48-.09 1.74 1.74 0 0 0-.54.09zm12.54-.51a5.89 5.89 0 0 1 .69 0 3 3 0 0 1 .63.07 1.27 1.27 0 0 1 .51.24 1.19 1.19 0 0 1 .32.48 2.37 2.37 0 0 1 .11.77v2.21h-.43v-2a2 2 0 0 0-.08-.66 1 1 0 0 0-.21-.39.79.79 0 0 0-.35-.19 2.09 2.09 0 0 0-.48-.06 5.38 5.38 0 0 0-1 .11v3.2h-.48v-3.6zm10.63-.01h.55a2.62 2.62 0 0 1 .64.07 1.11 1.11 0 0 1 .5.24 1.19 1.19 0 0 1 .32.48 2.35 2.35 0 0 1 .11.76v2.22h-.47v-2a2.25 2.25 0 0 0-.08-.65 1 1 0 0 0-.22-.39.72.72 0 0 0-.34-.19 1.75 1.75 0 0 0-.48-.06 5.39 5.39 0 0 0-1 .11v3.2h-.48v-5.58h.48v1.9c.11-.07.28-.1.47-.11zm5.51 3.25a2.65 2.65 0 0 0 .6-.27l.23.43a2.58 2.58 0 0 1-.69.3 3.08 3.08 0 0 1-.86.1 1.87 1.87 0 0 1-1.34-.55 1.91 1.91 0 0 1-.4-.6 2.19 2.19 0 0 1 0-1.54 1.6 1.6 0 0 1 .41-.6 1.89 1.89 0 0 1 .59-.41 2 2 0 0 1 .73-.14 1.73 1.73 0 0 1 .73.14 1.67 1.67 0 0 1 .56.39 1.83 1.83 0 0 1 .37.62 3.15 3.15 0 0 1 .14.9h-3.17a1.53 1.53 0 0 0 .1.48 1.48 1.48 0 0 0 .28.45 1.84 1.84 0 0 0 .43.3 1.47 1.47 0 0 0 .56.1 2.57 2.57 0 0 0 .73-.1zm-1.25-2.73a1.26 1.26 0 0 0-.4.26 1.62 1.62 0 0 0-.28.39 1.71 1.71 0 0 0-.13.38h2.6a2 2 0 0 0-.12-.41 1.36 1.36 0 0 0-.27-.38 1 1 0 0 0-.38-.24 1.26 1.26 0 0 0-.49-.09 1.73 1.73 0 0 0-.53.09zm6.22-2.35h3.19v.47h-2.7v2h2.42v.49h-2.42v2.66h-.5v-5.58zm6.72 1.87v3.54l-.8.18a4.23 4.23 0 0 1-.7.06 3 3 0 0 1-.62-.06 1.1 1.1 0 0 1-.48-.25 1.26 1.26 0 0 1-.29-.48 2.64 2.64 0 0 1-.1-.76v-2.21h.47v2a2.89 2.89 0 0 0 .07.66 1 1 0 0 0 .19.39.59.59 0 0 0 .32.18 1.63 1.63 0 0 0 .47.06 2.82 2.82 0 0 0 .48 0 3.28 3.28 0 0 0 .51-.1v-3.17h.48zm1.5 0v-1.34h.5v1.34h1.52v.48h-1.52v1.81a2.09 2.09 0 0 0 0 .48.7.7 0 0 0 .13.3.68.68 0 0 0 .26.16 1.4 1.4 0 0 0 .4 0h.75v.46h-.7a2.28 2.28 0 0 1-.54-.07 1 1 0 0 1-.43-.21 1.05 1.05 0 0 1-.29-.39 1.61 1.61 0 0 1-.1-.59v-2h-.79v-.46zm5.93 0v3.54l-.8.18a4.23 4.23 0 0 1-.7.06 2.9 2.9 0 0 1-.62-.06 1.1 1.1 0 0 1-.48-.25 1.05 1.05 0 0 1-.29-.48 2.33 2.33 0 0 1-.1-.76v-2.21h.47v2a2.42 2.42 0 0 0 .07.66.94.94 0 0 0 .18.39.66.66 0 0 0 .33.18 1.56 1.56 0 0 0 .46.06 2.74 2.74 0 0 0 .48 0 2.88 2.88 0 0 0 .51-.1v-3.17h.49zm2.57.48a3.75 3.75 0 0 0-.45 0 1.75 1.75 0 0 0-.33.07v3.14h-.47v-3.52l.58-.13a3.05 3.05 0 0 1 .6-.06h.68v.5zm3.44 2.73a2.71 2.71 0 0 0 .61-.27l.23.43a2.64 2.64 0 0 1-.7.3 3.05 3.05 0 0 1-.85.1 1.83 1.83 0 0 1-.75-.15 2 2 0 0 1-.6-.4 1.73 1.73 0 0 1-.39-.6 2.05 2.05 0 0 1 0-1.54 1.66 1.66 0 0 1 .4-.6 1.94 1.94 0 0 1 .6-.41 2 2 0 0 1 .73-.14 1.68 1.68 0 0 1 .72.14 1.49 1.49 0 0 1 .56.39 1.83 1.83 0 0 1 .37.62 2.58 2.58 0 0 1 .14.9h-3.17a1.56 1.56 0 0 0 .11.48 1.31 1.31 0 0 0 .28.45 1.5 1.5 0 0 0 .43.3 1.38 1.38 0 0 0 .55.1 2.47 2.47 0 0 0 .73-.1zm-1.25-2.73a1.38 1.38 0 0 0-.4.26 1.36 1.36 0 0 0-.27.39 1.82 1.82 0 0 0-.14.38h2.62a1.54 1.54 0 0 0-.12-.41 1.19 1.19 0 0 0-.27-.38.88.88 0 0 0-.38-.24 1.21 1.21 0 0 0-.48-.09 1.74 1.74 0 0 0-.56.09z"/></g><text class="G" transform="translate(73.67 66.58)" fill="#56b7e7" font-size="8.62" font-family="MicrosoftPhagsPa,Microsoft PhagsPa">O</text><text class="G" transform="translate(83.72 66.58)" fill="#56b7e7" font-size="8.62" font-family="MicrosoftPhagsPa,Microsoft PhagsPa"><tspan xml:space="preserve"> T</tspan></text></svg>