<svg xmlns="http://www.w3.org/2000/svg" xmlns:xlink="http://www.w3.org/1999/xlink" width="120.068" height="49.262" viewBox="0 0 120.068 49.262">
  <defs>
    <clipPath id="clip-path">
      <rect id="Rectangle_6587" data-name="Rectangle 6587" width="120.068" height="49.262" fill="#136494"/>
    </clipPath>
  </defs>
  <g id="Group_6528" data-name="Group 6528" transform="translate(0 0)">
    <g id="Group_6519" data-name="Group 6519" transform="translate(0 0)" clip-path="url(#clip-path)">
      <path id="Path_2322" data-name="Path 2322" d="M92.513,41.028a1.84,1.84,0,0,0-1,.272,1.993,1.993,0,0,0-.686.709V38.7h-1.25v8.172h1.247V43.936a1.816,1.816,0,0,1,.388-1.262,1.355,1.355,0,0,1,1.914-.055c.019.018.036.036.055.055a1.811,1.811,0,0,1,.388,1.262v2.936h1.246V43.936a3.266,3.266,0,0,0-.628-2.179,2.1,2.1,0,0,0-1.677-.734M97.4,13.332h-.81a.386.386,0,0,1-.289-.126.424.424,0,0,1-.12-.3.38.38,0,0,1,.12-.283.4.4,0,0,1,.289-.114.467.467,0,0,1,.366.167l.335-.324a.944.944,0,0,0-.723-.336.855.855,0,0,0-.618.241.779.779,0,0,0-.252.587.792.792,0,0,0,.178.492h-.429v.506H97.4ZM90.644,28.059H89.4v2.936a1.81,1.81,0,0,1-.388,1.262,1.355,1.355,0,0,1-1.915.056c-.018-.018-.037-.036-.055-.056a1.82,1.82,0,0,1-.387-1.262V28.059H85.406v2.936a3.271,3.271,0,0,0,.629,2.185,2.115,2.115,0,0,0,1.687.728,1.841,1.841,0,0,0,1.012-.283,2.029,2.029,0,0,0,.7-.734l.073.932h1.142Zm4-.031a1.84,1.84,0,0,0-1.721.911l-.084-.881H91.7V33.82h1.248V31.289a2.078,2.078,0,0,1,.506-1.566,1.785,1.785,0,0,1,1.279-.477,1.5,1.5,0,0,1,.2.01l.251-1.195a3.656,3.656,0,0,0-.482-.031ZM87.731,45.768a.927.927,0,0,1-.743-.3,1.328,1.328,0,0,1-.262-.891V42.216h1.352V41.1H86.726V39.216H85.689L85.521,41.1h-.81v1.114h.765V44.6a2.44,2.44,0,0,0,.581,1.8,2.028,2.028,0,0,0,1.493.576,2.423,2.423,0,0,0,.911-.168l-.315-1.114a1.309,1.309,0,0,1-.419.074M79.085,33.819V30.883a3.267,3.267,0,0,0-.629-2.179,2.1,2.1,0,0,0-1.677-.734,1.856,1.856,0,0,0-1.027.283,2.045,2.045,0,0,0-.691.734l-.074-.933H73.846v5.763H75.1V30.881a1.806,1.806,0,0,1,.388-1.262,1.355,1.355,0,0,1,1.914-.055c.019.018.036.036.055.055a1.811,1.811,0,0,1,.388,1.262v2.936Zm18.168-4.112a1.644,1.644,0,0,1,1.215-.506,1.734,1.734,0,1,1,0,3.468,1.741,1.741,0,0,1-1.721-1.728,1.675,1.675,0,0,1,.506-1.231m.994,4.186a2.263,2.263,0,0,0,1.185-.325,2.083,2.083,0,0,0,.81-.828l.073,1.079h1.142V28.06h-1.142l-.073,1.089a2.108,2.108,0,0,0-.81-.843,2.254,2.254,0,0,0-1.185-.33,2.562,2.562,0,0,0-1.949.87,3.086,3.086,0,0,0,0,4.18,2.577,2.577,0,0,0,1.954.87M83.48,30.537a9.531,9.531,0,0,0-1.028-.283A5.09,5.09,0,0,1,81.584,30c-.238-.1-.356-.224-.356-.378a.444.444,0,0,1,.272-.4,1.525,1.525,0,0,1,.723-.147,2.76,2.76,0,0,1,.87.147,1.525,1.525,0,0,1,.691.44l.754-.754a2.906,2.906,0,0,0-2.347-.954,2.574,2.574,0,0,0-1.6.461,1.534,1.534,0,0,0-.3,2.148.633.633,0,0,0,.046.058,1.982,1.982,0,0,0,.87.56,10.146,10.146,0,0,0,1.022.278,4.512,4.512,0,0,1,.864.267c.238.1.356.245.356.419a.505.505,0,0,1-.288.466,1.594,1.594,0,0,1-.782.162,2.844,2.844,0,0,1-.98-.177,1.994,1.994,0,0,1-.768-.472l-.849.817a2.915,2.915,0,0,0,1.178.754,4.207,4.207,0,0,0,1.417.252,2.828,2.828,0,0,0,1.661-.467,1.565,1.565,0,0,0,.665-1.367,1.45,1.45,0,0,0-.357-1.005,2,2,0,0,0-.869-.571m-1.006,13.5a1.82,1.82,0,0,1-.387,1.262,1.354,1.354,0,0,1-1.915.055c-.019-.018-.037-.035-.055-.055a1.821,1.821,0,0,1-.388-1.262V41.105H78.48v2.936a3.265,3.265,0,0,0,.629,2.185,2.114,2.114,0,0,0,1.687.728,1.845,1.845,0,0,0,1.012-.282,2.027,2.027,0,0,0,.7-.734l.074.932H83.72V41.107H82.473Zm34.43.985-1.489-3.918h-1.334l2.263,5.615q-.481,1.353-1.316,1.352a1.7,1.7,0,0,1-.681-.137l-.355,1.114a2.85,2.85,0,0,0,1.089.21,2.02,2.02,0,0,0,1.456-.561,4.873,4.873,0,0,0,1.058-1.828l2.107-5.763h-1.315Zm-4.191.744a.929.929,0,0,1-.744-.3,1.327,1.327,0,0,1-.261-.891V42.218h1.351V41.1H111.7V39.218h-1.038L110.5,41.1h-.81v1.114h.765V44.6a2.44,2.44,0,0,0,.581,1.8,2.028,2.028,0,0,0,1.492.576,2.425,2.425,0,0,0,.912-.168l-.314-1.114a1.313,1.313,0,0,1-.419.074m-1.352-13.131a1.693,1.693,0,1,1,1.382-2.714l1.039-.691a3.051,3.051,0,0,0-1.059-.911,2.9,2.9,0,0,0-1.362-.336,2.96,2.96,0,1,0,0,5.92,2.884,2.884,0,0,0,1.393-.351,2.846,2.846,0,0,0,1.048-.959l-1.027-.691a1.632,1.632,0,0,1-1.418.734m4.19-2.169a1.378,1.378,0,0,1,.506-.932,1.63,1.63,0,0,1,1.1-.388,1.7,1.7,0,0,1,1.126.383,1.356,1.356,0,0,1,.506.937Zm4.526.472a2.879,2.879,0,0,0-.848-2.091,2.929,2.929,0,0,0-4.142-.013l-.019.018a2.868,2.868,0,0,0-.857,2.085,2.834,2.834,0,0,0,.88,2.1,3,3,0,0,0,2.19.865,3.3,3.3,0,0,0,1.4-.314,2.842,2.842,0,0,0,1.089-.849l-1-.629a1.91,1.91,0,0,1-1.5.629,1.827,1.827,0,0,1-1.132-.361,1.491,1.491,0,0,1-.6-.911h4.5c.022-.335.031-.513.031-.535M73.289,43.863l.974-2.835,1,2.835Zm.261-4.641-2.713,7.649h1.456l.62-1.771h2.712l.62,1.771H77.7l-2.713-7.649Zm34.523-.137a.714.714,0,0,0-.524.226.743.743,0,1,0,1.049,0,.714.714,0,0,0-.524-.226m-2.19,1.99a1.839,1.839,0,0,0-1.721.911l-.084-.88h-1.138V46.87h1.246V44.339a2.082,2.082,0,0,1,.506-1.566,1.787,1.787,0,0,1,1.279-.477,1.508,1.508,0,0,1,.2.01l.251-1.195a3.34,3.34,0,0,0-.482-.031Zm1.561,5.794h1.246V41.107h-1.246Zm-7.417-1.682a1.7,1.7,0,1,1,0-2.4,1.695,1.695,0,0,1,0,2.4m-1.2-4.151a2.969,2.969,0,1,0,2.086.87,2.858,2.858,0,0,0-2.086-.87m8.926-7.211V30.89a3.267,3.267,0,0,0-.629-2.179,2.1,2.1,0,0,0-1.677-.734,1.867,1.867,0,0,0-1.027.283,2.043,2.043,0,0,0-.69.734l-.073-.933h-1.142v5.763h1.245V30.888a1.821,1.821,0,0,1,.388-1.262,1.355,1.355,0,0,1,1.915-.054c.019.017.037.035.055.054a1.821,1.821,0,0,1,.388,1.262v2.936Zm-29.2-12.485a.656.656,0,0,0-.2.482.681.681,0,0,0,.2.493.654.654,0,0,0,.487.21.673.673,0,0,0,.492-.21.694.694,0,0,0-.488-1.185.651.651,0,0,0-.492.21m22.335-11.8a.691.691,0,0,0,.2-.492.691.691,0,0,0-1.383,0,.683.683,0,0,0,.2.492.655.655,0,0,0,.488.21.676.676,0,0,0,.492-.21M95.66,14.27v3.939a2.207,2.207,0,0,0,.54,1.545,1.832,1.832,0,0,0,1.418.592h7.218a1.688,1.688,0,0,1,2.693,0h7.26a1.813,1.813,0,0,0,1.417-.592,2.222,2.222,0,0,0,.536-1.545V12.175h-1.226V18.21q0,.922-.724.921h-7.26a.646.646,0,0,1-.545-.246,1.082,1.082,0,0,1-.189-.675v-3.1h-1.215v3.1a1.075,1.075,0,0,1-.189.675.65.65,0,0,1-.554.246H97.622q-.733,0-.734-.921V14.274Zm7.087-4.732a.673.673,0,0,0,.21-.492.654.654,0,0,0-.21-.487.673.673,0,0,0-.481-.2.665.665,0,0,0-.494.2.7.7,0,0,0,.006.979.665.665,0,0,0,.969,0M74.777,1.806a.672.672,0,0,0,.488-.2.7.7,0,1,0-.488.2m30.979,12.568a.641.641,0,0,0,.21-.482.661.661,0,0,0-.21-.487.691.691,0,0,0-.492-.2.657.657,0,0,0-.483.2.674.674,0,0,0-.21.492.658.658,0,0,0,.2.492.688.688,0,0,0,.974,0l.006-.006m13.829-2.2h-1.226v8.172h1.226Zm-46.9-8.216a1.333,1.333,0,0,1,.985-.414H74.96v1.4a1.414,1.414,0,0,1-.366,1.012,1.217,1.217,0,0,1-.921.388,1.329,1.329,0,0,1-.985-.414,1.4,1.4,0,0,1,0-1.98m41.794.859a.9.9,0,1,1,1.3,1.244l-.028.028a.9.9,0,0,1-1.273-1.273M116.4,3.5a1.2,1.2,0,0,1,.681-.2,1.177,1.177,0,0,1,.922.4,1.544,1.544,0,0,1,.355,1.063V6.357h-1.812a1.178,1.178,0,0,0,.4-.9,1.537,1.537,0,0,0-1.007-1.425A1.334,1.334,0,0,1,116.4,3.5M73.668,7.572a2.1,2.1,0,0,0,1.813-.891,1.437,1.437,0,0,0,1.435.891H87.131a1.545,1.545,0,0,0,1.342-.67,1.508,1.508,0,0,0,1.34.67H99.971a1.687,1.687,0,0,1,2.362-.33,1.67,1.67,0,0,1,.33.33h16.916V4.763a2.74,2.74,0,0,0-.7-1.924,2.33,2.33,0,0,0-1.792-.765,2.381,2.381,0,0,0-1.409.44,2.523,2.523,0,0,0-.906,1.142,1.694,1.694,0,0,0-1.064.624,1.817,1.817,0,0,0-.423,1.179,1.168,1.168,0,0,0,.387.9H102.663a.657.657,0,0,1-.555-.246,1.086,1.086,0,0,1-.188-.676v-3.1l-1.215.01V5.439a1.086,1.086,0,0,1-.189.676.646.646,0,0,1-.545.246H89.814c-.49,0-.733-.3-.733-.922v-3.1H87.855v3.1q0,.922-.724.922H76.921q-.733,0-.733-.922v-3.1H73.681a2.514,2.514,0,0,0-1.844.765,2.547,2.547,0,0,0-.777,1.865,2.612,2.612,0,0,0,2.615,2.609h.005m-.765-5.763a.692.692,0,0,0,.5-1.178l0,0a.679.679,0,0,0-.5-.2.694.694,0,0,0-.487,1.183.675.675,0,0,0,.487.2m16.5-.506h-.81a.4.4,0,0,1-.289-.12.4.4,0,0,1-.12-.3.389.389,0,0,1,.115-.282.4.4,0,0,1,.294-.115.462.462,0,0,1,.368.157l.335-.325A.936.936,0,0,0,88.587,0a.864.864,0,0,0-.617.236.774.774,0,0,0-.252.592.72.72,0,0,0,.177.482h-.428v.506h1.948ZM71.364,33.834h1.33V26.186h-1.33Zm9.061-12.491a.694.694,0,0,0,0,.98.665.665,0,0,0,.941.028.249.249,0,0,0,.028-.028.681.681,0,0,0,.211-.493.659.659,0,0,0-.211-.487.672.672,0,0,0-.481-.2.662.662,0,0,0-.492.2m-5.669-6.962a.709.709,0,0,0,0-1l0,0a.711.711,0,0,0-1.215.5.7.7,0,0,0,.209.513.689.689,0,0,0,.506.21.71.71,0,0,0,.514-.221M90.809,16.74a1.379,1.379,0,0,1,1.949-.021l.021.021a1.4,1.4,0,1,1-2.378.99,1.361,1.361,0,0,1,.4-.99M82.1,20.349H91.8a2.615,2.615,0,1,0-2.619-2.611v0a1.642,1.642,0,0,0,.691,1.393H81.335a.654.654,0,0,1-.555-.246,1.082,1.082,0,0,1-.189-.675v-3.1l-1.215.01v3.091a1.081,1.081,0,0,1-.188.675.644.644,0,0,1-.545.246h-.81q-.724,0-.723-.921v-3.1H75.883V19.69a1.894,1.894,0,0,1-.466,1.336,1.6,1.6,0,0,1-2.258.078.945.945,0,0,1-.078-.078,1.891,1.891,0,0,1-.467-1.336V16.159H71.389V19.69a3.036,3.036,0,0,0,.828,2.195,2.817,2.817,0,0,0,3.948.11,2.972,2.972,0,0,0,.923-1.959.91.91,0,0,0,.743.314h.81a1.686,1.686,0,0,1,2.692,0H82.1Zm25.527-5.962a.7.7,0,1,0-.983,0,.7.7,0,0,0,.983,0M29.975.7,13.3,46.876h8.5L35.868,6.612,49.941,46.876h8.5L41.76.7ZM0,46.876H8.171V.7H0Z" transform="translate(0 0)" fill="#136494"/>
      <path id="Path_2323" data-name="Path 2323" d="M27.444,29.684,21.522,46.629a68.594,68.594,0,0,1,5.452-5.757A93.771,93.771,0,0,1,50.222,25.128,120.829,120.829,0,0,1,63.6,19.607,111.013,111.013,0,0,0,27.444,29.684" transform="translate(0.267 0.243)" fill="#136494"/>
    </g>
  </g>
</svg>
