<svg xmlns="http://www.w3.org/2000/svg" width="41.34" height="37.951" viewBox="0 0 41.34 37.951">
  <g id="Group_6525" data-name="Group 6525" transform="translate(-1248.425 -3169)">
    <path id="tachometer-alt-fastest" d="M34.534,6.241A20.747,20.747,0,0,0,6.2,36.531,8.632,8.632,0,0,0,12.266,39H29.152a8.368,8.368,0,0,0,5.8-2.227,20.838,20.838,0,0,0-.417-30.532Zm-1.957,28.02a4.948,4.948,0,0,1-3.425,1.281H12.266a5.187,5.187,0,0,1-3.648-1.483A17.289,17.289,0,1,1,36.795,15.373a17.664,17.664,0,0,1,1.2,6.388,17.119,17.119,0,0,1-5.415,12.5Z" transform="translate(1248.365 3167.951)" fill="#136494"/>
    <path id="tachometer-alt-fastest-2" data-name="tachometer-alt-fastest" d="M32.923,21.693a1.729,1.729,0,0,1-1.957-1.466A10.411,10.411,0,0,0,20.7,11.337C11.6,11.165,6.8,22.9,13.454,29.119a1.73,1.73,0,1,1-2.42,2.472C2.182,23.177,8.5,7.733,20.7,7.88A13.892,13.892,0,0,1,34.394,19.736a1.729,1.729,0,0,1-1.468,1.957Zm.519,5.609a1.729,1.729,0,0,1-2.279.889L22.748,24.5a3.458,3.458,0,1,1,1.383-3.167l8.415,3.693a1.729,1.729,0,0,1,.9,2.279Z" transform="translate(1248.365 3167.951)" fill="#f9a52d"/>
  </g>
</svg>
