<?xml version="1.0" encoding="utf-8"?>
<!-- Generator: Adobe Illustrator 27.3.1, SVG Export Plug-In . SVG Version: 6.00 Build 0)  -->
<svg version="1.1" id="Layer_1" xmlns="http://www.w3.org/2000/svg" xmlns:xlink="http://www.w3.org/1999/xlink" x="0px" y="0px"
	 viewBox="0 0 1488 348" style="enable-background:new 0 0 1488 348;" xml:space="preserve">
<style type="text/css">
	.st0{fill:#13673D;}
	.st1{fill-rule:evenodd;clip-rule:evenodd;fill:#D1AD4D;}
	.st2{fill-rule:evenodd;clip-rule:evenodd;fill:#0D0D0D;}
	.st3{fill:#181818;stroke:#181818;stroke-width:0.75;stroke-miterlimit:10;}
	.st4{fill:#1B5F39;}
	.st5{fill:#181818;}
	.st6{fill:#141414;}
</style>
<g>
	<path d="M63.2,318h19.7l0.1,8.9c0,6.5-1.2,10.6-3.7,12.5s-7.9,2.8-16.3,2.8c-7.7,0-12.9-1.2-15.4-3.7s-3.8-7.6-3.8-15.3
		c0-9.8,0.5-16,1.5-18.6c1.2-3.1,3.1-5.3,5.7-6.4c2.5-1.1,6.8-1.6,12.9-1.6c8,0,13.1,0.9,15.4,2.5s3.5,5.5,3.5,11.3h-8.6
		c-0.2-2.9-0.8-4.8-1.9-5.5s-3.9-1.1-8.5-1.1c-4.9,0-8,0.6-9.4,1.8c-1.3,1.2-2,4.1-2,8.6l0,4.5l0.1,5.7c0,4.4,0.7,7.3,2,8.5
		s4.3,1.8,9.1,1.8c4.6,0,7.6-0.5,8.8-1.5s1.9-3.5,1.9-7.3l0-1.8H63.2V318z"/>
	<path d="M117.8,297.1h8.5v29.8c0,6.2-1.2,10.4-3.6,12.4s-7.3,3-14.7,3c-7.8,0-12.9-1-15.4-2.9s-3.6-5.9-3.6-12v-30.3h8.5v30.3
		c0,3.3,0.6,5.4,1.8,6.3c1.2,0.9,4,1.3,8.3,1.3c4.5,0,7.3-0.5,8.4-1.4c1.2-0.9,1.7-3.1,1.7-6.6V297.1z"/>
	<path d="M142.7,297.1v37.2h21v7.6h-29.5v-44.8L142.7,297.1L142.7,297.1z"/>
	<path d="M176.5,304.2v12.1h20.1v7.1h-20.1v18.4H168v-44.8h29.7v7.1L176.5,304.2L176.5,304.2z"/>
	<path d="M248.4,297.1h8.5v29.8c0,6.2-1.2,10.4-3.6,12.4s-7.3,3-14.7,3c-7.8,0-12.9-1-15.4-2.9c-2.4-1.9-3.6-5.9-3.6-12v-30.3h8.5
		v30.3c0,3.3,0.6,5.4,1.8,6.3c1.2,0.9,4,1.3,8.3,1.3c4.5,0,7.3-0.5,8.4-1.4s1.7-3.1,1.7-6.6L248.4,297.1L248.4,297.1z"/>
	<path d="M306.4,297.1v44.8H292l-12.8-24.6c-0.6-1.2-1.6-3.4-3-6.4l-1.4-3.2l-1.4-3.2H273l0.1,3l0.1,2.9l0.1,5.9v25.7h-8.5v-44.8
		h14.4l11.6,22.7c1,2,2.2,4.5,3.6,7.3l1.7,3.6l1.7,3.7h0.3l-0.1-2.9l-0.1-2.9l-0.1-5.8v-25.8L306.4,297.1L306.4,297.1z"/>
	<path d="M322.7,297.1v44.8h-8.5v-44.8H322.7z"/>
	<path d="M349.3,296.7c8.1,0,13.4,1.4,15.7,4c2.3,2.7,3.5,8.8,3.5,18.1c0,10.3-1.2,16.7-3.5,19.4s-8,4-17.1,4
		c-8.1,0-13.4-1.3-15.8-4c-2.4-2.6-3.6-8.4-3.6-17.4c0-10.7,1.2-17.4,3.5-20.1S340.1,296.7,349.3,296.7z M348.6,304
		c-5.7,0-9,0.7-10,2.2c-1,1.5-1.4,6.5-1.4,15.2c0,6.4,0.6,10.3,1.7,11.6s4.5,2,10,2c5.3,0,8.4-0.7,9.5-2.2s1.6-6,1.6-13.4
		c0-7.5-0.5-11.9-1.5-13.3S354.1,304,348.6,304z"/>
	<path d="M415.8,297.1v44.8h-14.4l-12.8-24.6c-0.6-1.2-1.6-3.4-3-6.4l-1.4-3.2l-1.4-3.2h-0.3l0.1,3l0.1,2.9l0.1,5.9v25.7h-8.5v-44.8
		h14.4l11.6,22.7c1,2,2.2,4.5,3.6,7.3l1.7,3.6l1.7,3.7h0.3l-0.1-2.9l-0.1-2.9l-0.1-5.8v-25.8L415.8,297.1L415.8,297.1z"/>
	<path class="st0" d="M467.6,333.3h-19.3l-2.8,8.6h-9l14.9-44.8h12.8l15.1,44.8h-8.8L467.6,333.3z M465.6,327l-7.7-23.3l-7.6,23.3
		H465.6z"/>
	<path class="st0" d="M491.6,297.1v37.2h21v7.6h-29.5v-44.8L491.6,297.1L491.6,297.1z"/>
	<path class="st0" d="M560.8,333.3h-19.3l-2.8,8.6h-9l14.9-44.8h12.8l15.1,44.8h-8.8L560.8,333.3z M558.9,327l-7.7-23.3l-7.6,23.3
		H558.9z"/>
	<path class="st0" d="M614.4,297.1v44.8h-8.5v-19.4h-21v19.4h-8.5v-44.8h8.5v18.3h21v-18.3L614.4,297.1L614.4,297.1z"/>
	<path class="st0" d="M630.8,297.1v37.2h21v7.6h-29.5v-44.8L630.8,297.1L630.8,297.1z"/>
	<path class="st0" d="M664.6,297.1v44.8h-8.5v-44.8H664.6z"/>
	<path class="st0" d="M699.6,333.3h-19.3l-2.8,8.6h-9l14.9-44.8h12.8l15.1,44.8h-8.8L699.6,333.3z M697.6,327l-7.7-23.3l-7.6,23.3
		H697.6z"/>
	<path d="M761.7,326.9h5v1.7c0,6.1-1,9.9-3.1,11.4c-2.1,1.5-7.3,2.3-15.7,2.3c-7.5,0-12.3-1.3-14.3-4c-2-2.7-3-9-3-18.9
		c0-7.8,0.2-12.6,0.7-14.6s1.8-3.8,3.9-5.4c2.5-1.8,8-2.8,16.4-2.8c5.7,0,9.5,0.9,11.5,2.7c2,1.8,3,5.2,3,10.3l0,1.2h-5l0-1.4
		c0-3.6-0.6-5.9-1.8-7s-3.8-1.5-7.9-1.5c-7.2,0-11.6,0.6-13.2,1.8c-1.6,1.2-2.4,4.5-2.4,10c0,12.6,0.5,20,1.6,22.1s4.7,3.2,11,3.2
		c6,0,9.7-0.5,11.1-1.4s2.2-3.3,2.2-7.1L761.7,326.9z"/>
	<path d="M788.8,296.6c8.5,0,13.8,1.2,15.9,3.7s3.2,8.6,3.2,18.5c0,10.6-1,17.2-3,19.7c-2,2.5-7.4,3.7-16,3.7
		c-8.6,0-13.9-1.2-16-3.7s-3.1-8.9-3.1-19.2v-3.1l0.1-4.2c0-6,1.3-10,4-12.2S781.4,296.6,788.8,296.6z M788.7,300.9
		c-7.1,0-11.2,0.8-12.4,2.4s-1.8,7-1.8,16.2c0,9.2,0.6,14.7,1.8,16.2s5.3,2.4,12.4,2.4c7.1,0,11.3-0.8,12.5-2.4s1.8-7,1.8-16.2v-2.9
		l0-4.2c0-4.9-0.8-8.1-2.5-9.4C798.8,301.5,794.9,300.9,788.7,300.9z"/>
	<path d="M830,296.6c8.5,0,13.8,1.2,15.9,3.7s3.2,8.6,3.2,18.5c0,10.6-1,17.2-3,19.7c-2,2.5-7.4,3.7-16,3.7c-8.6,0-13.9-1.2-16-3.7
		s-3.1-8.9-3.1-19.2v-3.1l0.1-4.2c0-6,1.3-10,4-12.2S822.6,296.6,830,296.6z M829.9,300.9c-7.1,0-11.2,0.8-12.4,2.4s-1.8,7-1.8,16.2
		c0,9.2,0.6,14.7,1.8,16.2s5.3,2.4,12.4,2.4c7.1,0,11.3-0.8,12.5-2.4s1.8-7,1.8-16.2v-2.9l0-4.2c0-4.9-0.8-8.1-2.5-9.4
		C840,301.5,836.1,300.9,829.9,300.9z"/>
	<path d="M854.8,341.9v-44.8h18.8h1.7c5,0,8.5,1,10.3,2.9s2.8,5.6,2.8,10.9c0,5.1-1,8.6-2.9,10.5s-5.5,2.8-10.8,2.8l-2,0h-12.9v17.6
		H854.8z M859.9,320h12c5,0,8.2-0.5,9.6-1.5c1.4-1,2.1-3.4,2.1-7.1c0-4.3-0.5-7.1-1.4-8.2s-3.2-1.7-6.8-1.7l-1.9,0h-13.6L859.9,320
		L859.9,320z"/>
	<path d="M897.7,301.3v15.3h22.7v4.3h-22.7v16.7h23.7v4.3h-28.8v-44.8h28.8v4.3L897.7,301.3L897.7,301.3z"/>
	<path d="M927.9,341.9v-44.8h21.3c4.8,0,8.2,1,10.2,2.9s3,5.2,3,9.9c0,4.1-0.5,7-1.6,8.6s-3.1,2.7-6.1,3.2v0.1
		c4.8,0.4,7.1,3.2,7.1,8.7v11.5h-5v-10.3c0-5.2-2.3-7.8-6.8-7.8h-1.7H933v18.1L927.9,341.9L927.9,341.9z M933,319.5h14.6
		c3.8,0,6.5-0.6,7.9-1.8s2.1-3.4,2.1-6.6c0-4-0.5-6.7-1.6-7.9s-3.3-1.8-6.7-1.8H933L933,319.5L933,319.5z"/>
	<path d="M997.3,332.4h-22.7l-3.5,9.5h-5.3l16.4-44.8h7.1l16.7,44.8h-5.3L997.3,332.4z M995.8,328.6l-9.9-27.4l-9.8,27.4H995.8z"/>
	<path d="M1026.3,301.8v40.1h-5v-40.1h-14.6v-4.7h34.1v4.7H1026.3z"/>
	<path d="M1050.3,297.1v44.8h-5.1v-44.8H1050.3z"/>
	<path d="M1088,297.1h5.4l-15.8,44.8h-7.2l-16-44.8h5.4l11.9,33.8l1.2,3.5c0.4,1.3,0.8,2.5,1.1,3.5h0.1c0.7-2.2,1.4-4.5,2.2-6.8
		L1088,297.1z"/>
	<path d="M1100.6,301.3v15.3h22.7v4.3h-22.7v16.7h23.7v4.3h-28.8v-44.8h28.8v4.3L1100.6,301.3L1100.6,301.3z"/>
	<path d="M1152.7,297.1v44.8h-5.1v-44.8H1152.7z"/>
	<path d="M1199.6,297.1v44.8h-8.3l-18.8-30.5l-3.1-5l-1.5-2.5l-1.5-2.5h-0.1l0,1.7l0,1.7v3.4v33.8h-5.1v-44.8h8.3l16.4,26.7l4.3,7
		l2.1,3.5l2.1,3.5h0.1l0-1.7l0-1.7v-3.4v-34L1199.6,297.1L1199.6,297.1z"/>
	<path d="M1238.8,309.2h-5c0-3.6-0.6-5.9-1.8-6.9s-4-1.5-8.5-1.5c-5.3,0-8.7,0.5-10.2,1.4s-2.3,3-2.3,6.2c0,3.6,0.6,5.8,1.8,6.6
		c1.2,0.8,4.8,1.3,10.7,1.6c7,0.3,11.4,1.2,13.3,2.7s2.8,4.8,2.8,9.8c0,5.5-1.1,9.1-3.3,10.7c-2.2,1.6-7,2.4-14.4,2.4
		c-6.4,0-10.8-0.8-12.9-2.4s-3.2-4.9-3.2-9.9l0-2h5v1.1c0,4,0.6,6.5,1.8,7.5c1.2,1,4.4,1.5,9.4,1.5c5.8,0,9.4-0.5,10.7-1.5
		c1.3-1,2-3.6,2-7.8c0-2.7-0.5-4.5-1.4-5.5c-0.9-0.9-2.8-1.5-5.7-1.6l-5.2-0.3l-5-0.3c-7.6-0.5-11.4-4.5-11.4-11.8
		c0-5.1,1.1-8.5,3.3-10.2c2.2-1.7,6.6-2.6,13.2-2.6c6.7,0,11.1,0.8,13.1,2.4C1237.8,300.6,1238.8,304,1238.8,309.2z"/>
	<path d="M1276.2,297.1h5.1v31.4c0,5.7-1.1,9.4-3.4,11.2c-2.3,1.8-7.1,2.7-14.4,2.7c-6.8,0-11.5-0.9-14-2.6s-3.7-5-3.7-9.8v-1.5
		v-31.4h5.1v31.4c0,4.2,0.7,6.9,2.1,8s4.8,1.6,10.2,1.6c5.9,0,9.5-0.5,11-1.6c1.4-1.1,2.2-3.7,2.2-8L1276.2,297.1L1276.2,297.1z"/>
	<path d="M1289.7,341.9v-44.8h21.3c4.8,0,8.2,1,10.2,2.9s2.9,5.2,2.9,9.9c0,4.1-0.5,7-1.6,8.6s-3.1,2.7-6.1,3.2v0.1
		c4.8,0.4,7.1,3.2,7.1,8.7v11.5h-5.1v-10.3c0-5.2-2.3-7.8-6.8-7.8h-1.7h-15.3v18.1L1289.7,341.9L1289.7,341.9z M1294.8,319.5h14.6
		c3.8,0,6.5-0.6,7.9-1.8s2.1-3.4,2.1-6.6c0-4-0.5-6.7-1.6-7.9s-3.3-1.8-6.7-1.8h-16.3L1294.8,319.5L1294.8,319.5z"/>
	<path d="M1359.1,332.4h-22.7l-3.4,9.5h-5.3l16.4-44.8h7.1l16.7,44.8h-5.3L1359.1,332.4z M1357.6,328.6l-9.9-27.4l-9.8,27.4H1357.6z
		"/>
	<path d="M1410.7,297.1v44.8h-8.3l-18.8-30.5l-3.1-5l-1.5-2.5l-1.5-2.5h-0.1l0,1.7l0,1.7v3.4v33.8h-5.1v-44.8h8.3l16.4,26.7l4.3,7
		l2.1,3.5l2.1,3.5h0.1l0-1.7l0-1.7v-3.4v-34L1410.7,297.1L1410.7,297.1z"/>
	<path d="M1448.6,326.9h5v1.7c0,6.1-1,9.9-3.1,11.4c-2.1,1.5-7.3,2.3-15.7,2.3c-7.5,0-12.3-1.3-14.3-4s-3.1-9-3.1-18.9
		c0-7.8,0.2-12.6,0.7-14.6s1.8-3.8,3.9-5.4c2.5-1.8,8-2.8,16.4-2.8c5.7,0,9.6,0.9,11.5,2.7s3,5.2,3,10.3l0,1.2h-5l0-1.4
		c0-3.6-0.6-5.9-1.8-7s-3.8-1.5-7.9-1.5c-7.2,0-11.6,0.6-13.2,1.8c-1.6,1.2-2.4,4.5-2.4,10c0,12.6,0.5,20,1.6,22.1
		c1.1,2.2,4.7,3.2,11,3.2c5.9,0,9.7-0.5,11.1-1.4s2.2-3.3,2.2-7.1L1448.6,326.9z"/>
	<path d="M1462.6,301.3v15.3h22.7v4.3h-22.7v16.7h23.7v4.3h-28.8v-44.8h28.8v4.3L1462.6,301.3L1462.6,301.3z"/>
</g>
<g id="Layer_3">
	<g id="svgg_1_">
		<path id="path0_1_" class="st1" d="M127.5,3c-0.9,0.2-2.6,0.6-3.6,0.8c-6.8,1.2-8.9,1.7-13.9,3.4c-7.2,2.5-19,8.1-20.7,10.1
			c-0.3,0.4-1.4,1.1-2.4,1.8l-1.8,1.1l2.1,0.5c6.1,1.3,12.8,0,13.9-2.7c0.2-0.6,6.3-4.7,9.8-6.6c3.9-2.2,8.5-4.1,16.1-6.7
			C132.8,2.6,133.4,1.2,127.5,3 M156.4,2.9c0.2,0.3,1.5,0.8,2.9,1c1.4,0.2,3.5,0.8,4.7,1.3c4.6,1.9,5.2,2.2,5.9,2.3
			c4.3,0.9,16.4,8.3,21.6,13.3c1.5,1.5,16.2,2.5,16.2,1.2c0-0.7-5.2-4.6-7-5.1c-0.3-0.1-1.9-0.9-3.3-1.8
			c-6.6-3.9-21.2-9.1-30.3-10.8c-1.9-0.3-4.8-0.9-6.6-1.3C156.6,2.2,156,2.2,156.4,2.9 M129.5,8.2c-6.9,2.4-24.2,11.6-24.2,13
			c0,0.2,3.6,0.5,8,0.5h8l2.1-3.4c1.2-1.9,3.9-5.1,6.2-7.2C134,7,133.9,6.6,129.5,8.2 M136.1,10.4c-3.4,2.3-9.5,7.7-8.7,7.7
			c0.1,0-0.3,0.8-1,1.6l-1.3,1.6l5.1,0.4c2.8,0.2,6.5,0.5,8.3,0.5l3.2,0.1V15C141.6,6.5,141.8,6.6,136.1,10.4 M145.9,14.7
			c0,8.3-0.6,7.8,9.1,7.3l7.8-0.5l-1.9-2.7c-2.1-3-6.6-7-10.6-9.5C145.9,6.7,145.9,6.8,145.9,14.7 M161.5,11.8
			c2.4,2.2,5.1,5.5,6.3,7.3l2,3.3l3.7-0.1c2-0.1,5.7-0.2,8.2-0.5l4.5-0.4l-4.3-2.7c-5.9-3.8-10.7-6.2-17.2-8.8
			C157,6.9,156.6,7.2,161.5,11.8 M74,30.3c-5.3,5.5-9,10.2-12.6,15.9c-1.3,2-2.9,4.5-3.4,5.3l-1.1,1.6l4,0.5
			c5.1,0.6,9.9,2.7,11.7,5.1c1.7,2.2,2.2,2.3,2.7,0.5c1.3-4.1,8.7-18.1,13-24.6c5.8-8.7,5.8-8.3-2.8-8.9l-6.7-0.5L74,30.3
			 M196.2,26.4c0,0.2,0.5,0.9,1.1,1.4s2.2,2.2,3.5,3.8c1.3,1.6,2.8,3.3,3.2,3.7c0.4,0.5,0.8,1.1,0.8,1.4s0.2,0.7,0.5,0.8
			c1.4,0.6,11.8,18.5,11.3,19.3c-0.1,0.2,0.2,1,0.8,1.7l1,1.4l1.8-1.5c0.9-0.8,2.6-1.8,3.6-2.2s2.7-1.1,3.8-1.5
			c1.1-0.5,2.2-0.9,2.5-0.9c2,0,5-1.9,4.3-2.7c-0.4-0.5-0.6-0.9-0.3-0.9c1.9,0-11.8-15.9-19.2-22.3l-2.3-2h-8.1
			C199.9,26,196.2,26.2,196.2,26.4 M96.4,29.4c-1.3,1.5-3.4,3.9-4.5,5.3c-1.2,1.3-2.5,2.9-2.9,3.3c-0.4,0.5-0.8,0.9-0.8,1
			s3.9,0.1,8.7-0.1c6.2-0.2,9.5,0,11.8,0.6l3.2,0.9l2.7-5.5c1.5-3,3-6.1,3.3-6.9l0.6-1.5h-9.9h-9.9L96.4,29.4 M122.5,28.1
			c-0.2,0.8-0.6,1.5-0.9,1.5s-0.4,0.2-0.2,0.6c0.2,0.3,0.1,0.6-0.2,0.6c-0.4,0-0.6,0.5-0.6,1.1c0,0.6-0.8,2.7-1.8,4.7
			c-1.8,3.7-1.7,4.3,0.5,5.3c0.8,0.4,4.2,5.2,6.7,9.4l2.6,4.4h6.6h6.6l-0.2-14.4l-0.2-14.4l-9.2-0.2l-9.2-0.2L122.5,28.1
			 M146.8,41.5v14.8h15c8.3,0,15-0.2,15-0.5c0-3.2-4.3-17-7.2-23.2c-0.9-1.9-1.5-3.4-1.3-3.4c0.1-0.1-0.2-0.6-0.9-1.3
			c-1.1-1.2-1.8-1.3-10.9-1.3h-9.7L146.8,41.5 M171.3,27.1c0,0.3,0.2,0.8,0.6,1c0.5,0.3,5.1,9,5.4,10.2c0.1,0.2,0.5,1.5,1.1,2.7
			c2.4,5.6,3.1,7.9,3.6,12.3l0.4,3.6h13.8c13.7,0,15.5-0.2,14-2c-0.3-0.4-1.9-3.3-3.6-6.5c-2.7-5.2-6.1-10.8-7.8-12.5
			c-0.3-0.4-1.5-1.7-2.5-3c-1-1.3-2.6-3.2-3.6-4.3l-1.7-2h-9.9C175.5,26.6,171.3,26.8,171.3,27.1 M84.5,47.2
			c-0.9,1.5-2.3,4.1-3.2,5.9l-1.6,3.2h5.4c3.2,0,5.4-0.2,5.4-0.6c0-0.3-0.2-0.6-0.6-0.6c-0.8,0-3.3-5.5-3.7-8.2L86,44.4L84.5,47.2
			 M130.5,59.7c-1.3,1.3-0.3,5,2,6.9c9,7.8,9.7,7.7,9.7-0.7v-6.6h-5.6C133.5,59.3,130.7,59.5,130.5,59.7 M146.1,60.1
			c-0.2,0.5-0.2,3.6-0.1,7.1l0.2,6.3l2.1,0.6c1.4,0.4,3.5,1.9,6.1,4.5c2.2,2.2,5,4.5,6.4,5.2c1.3,0.7,2.6,1.4,2.7,1.6
			c0.6,0.7,2.1,0.9,6.7,0.8c5.7-0.1,8.5,0.9,10.2,4.2c2.4,4.3,2.7,3.8,2.3-3.8c-0.2-3.8-0.5-7.6-0.6-8.4s-0.4-2.9-0.7-4.5
			c-0.6-4.8-1.5-8.8-2.6-11.6l-0.9-2.6h-15.7C149.7,59.3,146.4,59.5,146.1,60.1 M183.4,61.4c0,1.2,0.2,2.8,0.6,3.8
			c0.3,0.9,0.7,2.9,0.9,4.2s0.6,4.3,0.9,6.7c0.3,2.3,0.6,4.6,0.6,5c0,0.6,0.6,0.4,2.2-0.2c2-0.9,2.2-0.9,3.8,0
			c0.9,0.6,2.6,1.2,3.8,1.3c1.1,0.2,3.2,0.6,4.5,0.9c2.4,0.6,5.5,0.4,11.3-0.4c2.7-0.4,2.9-0.6,4.7-4.1l2-3.8l-1.6-3.1
			c-0.8-1.7-1.7-4.1-1.9-5.4c-0.2-1.3-0.8-3.4-1.3-4.7l-0.9-2.3h-14.8h-14.8L183.4,61.4 M77.8,61.3c-0.5,0.8-1,2.2-1.2,3.2
			c-0.8,4.2-1.2,5.6-2.4,8.2c-1.3,2.6-1.3,2.7-0.2,5.5c2,5.2,2.4,8.8,1.4,11.5c-0.5,1.3-0.8,2.6-0.6,2.7c0.8,0.8,28.7,0.4,29-0.4
			c0.1-0.4,0.3-4.9,0.4-10l0.2-9.2h-2.7c-4,0-6-2.2-7.2-7.8c-1-4.9-1.1-4.9-8.8-4.9C79.1,59.9,78.6,60,77.8,61.3 M107.6,85.5
			c0,3.1-0.1,6.1-0.2,6.5c-0.1,0.8,0.6,0.9,5,0.7l5.2-0.2l-1.2-1.3c-0.6-0.7-2-2.3-3.1-3.4s-2.6-3.4-3.3-5
			C108,78.7,107.6,79.2,107.6,85.5 M72.5,97.1c0,0.1,0.4,1.2,1,2.2c1.7,3.4,1.7,7.1,0,12.2l-1.5,4.7l1.5,5.3
			c0.8,2.9,1.7,6.1,2.1,7.1l0.6,1.6h14.4c7.9,0,14.6-0.1,14.8-0.3c0.3-0.3,0.1-1.9-1.3-10.9c-0.4-2.7-0.8-8.7-0.8-13.5l-0.1-8.7
			H87.8C79.4,96.9,72.5,97,72.5,97.1 M106.8,99.2c0.4,2.5,1.6,15.3,1.8,19.6c0.1,1.5,0.3,3.2,0.5,3.9s0.5,2.7,0.7,4.5
			c0.4,4.5-0.4,4.3,16.7,4.1l15.4-0.2l-0.2-8.2c-0.1-4.5-0.2-10.6-0.3-13.4c-0.2-8.7-4.6-11.2-7.1-3.9c-2.3,6.6-8.4,2.9-8.4-5v-3.6
			h-9.7h-9.7L106.8,99.2 M191.1,97.9c-0.1,0.2-0.1,1.8,0.2,3.5c1,6-0.2,18.2-2.7,27.4l-0.9,3.2l13.7-0.1l13.7-0.2l0.8-3.9
			c0.4-2.2,0.9-4.8,1.1-5.8c0.4-2.2-1.2-6.2-3.7-8.8c-3-3.2-4.7-7.2-5-11.5l-0.3-4.1h-8.4C195.2,97.5,191.3,97.7,191.1,97.9
			 M146.5,127.9c0,3.6,0.1,3.6,1.6,3.8c0.9,0.1,2.4,0.1,3.3,0.2c9.1,0.6,27.9,0.9,27.5,0.3c-1.5-2.4-6.8-3-13.9-1.5
			c-2,0.4-7.1-0.6-9.7-2c-1-0.5-2-1-2.1-1c-1-0.2-2.9-1.2-4.3-2.2C146.5,123.7,146.5,123.8,146.5,127.9 M71.8,134.1
			c-1.9,2.4-4.7,3.3-12.2,3.9l-5.3,0.4l3.4,5.1c1.9,2.9,4.7,6.7,6.2,8.6c1.5,1.9,3.5,4.3,4.3,5.4c3.4,4.4,2.5,4.1,13.2,4.4
			c5.4,0.2,9.9,0.2,9.9,0.1c0-0.1-0.4-0.6-0.8-1c-1.3-1.3-5.3-7.1-5.3-7.8c0-0.3-0.2-0.6-0.4-0.6c-0.6,0-4.2-6.2-8.8-15.6l-2.5-5
			L71.8,134.1 M78.6,134.8c0,0.9,2.7,5.9,5,9c0.6,0.9,0.9,1.6,0.7,1.6s-0.2,0.2,0.1,0.4c0.4,0.2,1.6,1.8,2.7,3.5
			c1.2,1.6,2.2,3.2,2.4,3.3c0.2,0.2,1.9,2.3,3.9,4.7l3.5,4.4h9.4h9.3l-0.4-1.3c-0.2-0.8-0.6-1.9-0.9-2.6c-2-4.8-5.5-15.6-6.4-20.3
			c-0.8-3.7-0.4-3.6-15.5-3.6C80.7,133.9,78.6,134,78.6,134.8 M111.9,134.7c0,3.2,5,18.9,8.3,25.6l0.9,2h10.2
			c5.6,0,10.3-0.2,10.5-0.4c0.1-0.2,0.4-6.6,0.5-14.1l0.2-13.6l-15.3-0.2C114.4,133.9,111.9,134,111.9,134.7 M148.2,147.4
			c0.1,7.4,0.3,13.8,0.4,14.2c0.2,0.6,2.6,0.8,10.4,0.6l10.2-0.2l1-2.2c1.9-3.8,7.1-18.4,7.9-22.5c0.2-0.9,0.5-2,0.8-2.6
			c0.3-0.9-1.2-0.9-15.3-0.9h-15.7L148.2,147.4 M184.7,135.4c0,2.6-2.6,11.4-6.3,21.2c-0.9,2.4-1.6,4.4-1.6,4.7s4.3,0.4,9.5,0.4h9.5
			l2.1-2.9c1.1-1.6,2.4-3.2,2.8-3.6c3.6-3.8,12.9-18.7,13-20.7c0-0.6-3.3-0.8-14.5-0.8h-14.6V135.4 M217.5,137.7
			c-0.4,1.4-0.7,2.6-0.7,2.6c0.4,0-7.6,14.1-8.5,14.9c-0.6,0.5-4.3,6.4-4.3,6.9c0,0.2,4.1,0.4,9.1,0.4h9.1l2.4-2.6
			c6-6.5,10.7-13.7,11.6-17.7l0.4-2l-4.9-0.4c-6.2-0.5-11.1-1.9-12.1-3.4C218.6,134.6,218.3,134.8,217.5,137.7 M77.3,166.9
			c0,0.4,3.1,3.4,3.5,3.4c0.2,0,1.1,0.6,2,1.4c1.6,1.5,9.9,7.1,14.6,9.8c11.3,6.6,25,11.3,36.8,12.3c4.3,0.4,4.9,0.4,3.9-0.3
			c-0.6-0.4-1.4-0.8-1.9-0.8c-0.4,0-1.5-0.3-2.5-0.7s-2.2-0.8-2.9-0.9c-4.1-0.8-19.6-8.9-21.9-11.4c-0.3-0.4-1.8-1.6-3.3-2.7
			c-3.1-2.4-7.3-6.6-8.7-8.8C96.2,166.7,77.3,165.6,77.3,166.9 M100.4,167.1c0,1.1,10.5,9.3,16.2,12.7c4.6,2.7,17,7.3,17.7,6.6
			c0.2-0.2-0.2-0.6-0.8-1c-3.9-2.2-11.3-11.3-13.7-16.7l-0.8-2h-9.2C104.5,166.6,100.4,166.9,100.4,167.1 M124.1,167.1
			c0,0.7,1.9,4.5,2.7,5.4c0.4,0.4,1.1,1.3,1.5,2.1c1.3,2,5,6.2,6.5,7.4c0.8,0.6,1.7,1.5,2.1,1.9c1.2,1.1,5.1,3.4,5.9,3.4
			c0.5,0,0.6-0.9,0.4-3.2c-0.2-1.8-0.5-6.2-0.7-9.8s-0.5-6.9-0.6-7.1C141.4,166.5,124.1,166.5,124.1,167.1 M149.4,168.5
			c-0.1,1-0.1,2-0.2,2.3s-0.3,2.9-0.6,5.9s-0.6,6.8-0.8,8.3c-0.2,1.9-0.1,2.9,0.3,2.9c1.4,0,9.7-6.9,12.4-10.2
			c1.5-1.9,3-3.8,3.3-4.1c0.3-0.4,0.4-0.8,0.2-1.1c-0.2-0.2-0.1-0.4,0.2-0.4c0.6,0,3.2-4.2,3.2-5.1c0-0.2-4.1-0.4-9.1-0.4h-9.1
			L149.4,168.5 M171,170.1c-2.6,6-7.1,11.5-11.7,14.4c-1.4,0.9-2.6,1.8-2.6,2c0,0.9,11.4-2.6,15.3-4.8c1.5-0.8,3.4-1.9,4.2-2.4
			c3.8-2.2,15.2-11.7,14.6-12.3c-0.2-0.2-4.4-0.3-9.4-0.3h-9L171,170.1 M195.3,170.6c-2,2.1-5.5,5.4-7.9,7.2
			c-2.4,1.9-4.9,3.9-5.7,4.6c-2.2,1.9-14.6,7.8-17.2,8.2c-1.3,0.2-2.4,0.6-2.6,0.9c-0.2,0.3-0.8,0.5-1.3,0.6c-0.6,0-1.9,0.4-2.9,0.9
			c-1.7,0.8-1.5,0.9,3.1,0.6c11.3-0.7,24.1-5,36.7-12.2c5-2.9,16.5-11,18.8-13.2l1.5-1.5l-9.4,0.1l-9.4,0.1L195.3,170.6"/>
		<path id="path1_1_" class="st2" d="M29.1,53.3C8.7,54.2,2.7,60,8.6,72.9c1.6,3.6,1.7,4.3,0.4,6.7c-1.3,2.6-1.7,7.6-0.9,13.1
			c0.6,4.1,0.5,5-0.6,8.2c-1.6,4.5-1.6,7.9,0.1,13c1.2,3.8,1.3,4.1,0.4,10c-1.8,12.4-2.3,18.9-1.6,21.4c2,6.6,7.1,12.3,13.7,15.3
			c20.6,9.5,22,11.4,23.9,33.7c0.7,8.1,1.5,14.5,2.2,16.4c1.3,4,3.8,9,5,10.4c0.6,0.6,1.8,2.2,2.7,3.4c2.5,3.3,22.1,22.7,26.4,26.1
			c12.9,10.2,44,20.6,49.3,16.5c1.3-1,1.6-49.3,0.4-57.7c-1.1-7.2-4.5-10.2-15-13.3c-9.8-2.9-19.2-5.9-19.8-6.4
			c-0.6-0.4-2.6-1.6-8.2-4.8c-1.5-0.8-2.9-1.7-3.1-1.9s-1.8-1.5-3.6-2.7c-7.8-5.6-14.9-12.8-22.1-22.1c-1.7-2.2-3.4-4.3-3.8-4.8
			c-0.5-0.4-0.8-1-0.8-1.2c0-0.2-0.7-1.2-1.6-2.2c-3.6-4.2-4.6-6.6-3.8-9.3l0.8-2.4l5.2-0.4c18-1.2,22.5-5.3,17.9-16.3
			c-1.2-2.8-1.2-6.5,0-10.9c1.3-4.9,1.2-9-0.2-11.4l-1.2-2l1.7-3.1c3.6-6.6,3.6-11.1,0.2-18.4c-0.9-1.9-0.9-2.2,0.4-4.3
			c4.6-8.2-1.2-16-12.7-17.4c-1.7-0.2-3.2-0.6-3.4-0.9C56.6,52.6,44,52.7,29.1,53.3 M228.4,55.8c-0.8,0.3-2,0.5-2.6,0.3
			c-0.6-0.1-1.1,0-1.1,0.2s-0.4,0.6-0.9,0.6s-2.2,1.2-3.8,2.7l-2.9,2.7v4.7c0,3.8,0.2,5,1.3,6.5c1.3,1.9,1.3,2.1-0.9,7
			c-1.8,3.8-1.3,10,1,14.6l2,3.9l-1.3,2.3c-1.5,2.7-1.6,4.8-0.4,9.3c1.8,6.9,1.8,8.2,0.1,13.7c-1.5,4.7-1.8,11-0.4,9.7
			c0.2-0.2,0.9,0.4,1.5,1.2c2,2.6,7.6,3.9,16.4,3.9c9,0.1,8.9,6.4-0.3,16.5c-0.6,0.6-1.1,1.4-1.1,1.6s-0.3,0.8-0.8,1.3
			c-0.4,0.4-2.6,3.1-4.8,5.7c-6.4,7.7-15.6,15.9-23,20.6c-1.4,0.9-2.7,1.8-2.9,2c-0.9,1.1-10.1,5.7-13.4,6.7c-1.5,0.4-3.2,1-3.9,1.3
			c-0.6,0.2-4.2,1.2-7.9,2.2c-14.4,3.6-16.3,5.7-17.2,19.1c-1.1,15.6-0.8,50.7,0.4,51.9c1.2,1.2,7.5,1.3,12.1,0.2
			c24.2-6.2,33.2-11.3,51-28.9c19.5-19.3,21.6-23,22.6-40c1.3-20.2,2-22.5,8.9-28.7c2.2-2,5.9-4.3,9.9-6.2c9.8-4.7,9.8-4.8,12.9-7.8
			c6.9-6.6,7.8-14.2,4-34.4c-0.6-2.9,0.1-6.7,1.4-7.9c1-0.9,0.4-9-0.8-12.5c-1-2.9-1.1-3.9-0.6-5.4c1-2.8,0.8-12.6-0.2-14.4
			c-1.3-2.2-1.1-4.8,0.7-8.5c4.1-8.7,0.8-14.8-9.5-17.8C269.7,54.9,231.1,54.6,228.4,55.8 M63.4,59.5c4.5,3,5,7.3,1,9.7
			C61.6,71,18,72.1,14.9,70.5c-3.8-2-3.6-7.8,0.4-10.4C18.8,57.8,60.2,57.3,63.4,59.5 M275.3,61.4c4.3,1.8,5.4,7.7,1.9,10.3
			c-2.2,1.6-44.9,1.7-48.7,0.1c-5.5-2.3-5.5-8-0.1-10.8C231.1,59.5,271.9,60,275.3,61.4 M63.2,79.8c5.4,2.9,5.1,9-0.3,10.4
			s-47,1.5-48.7,0.1c-3.1-2.5-2.7-7.4,0.9-9.9C18.6,77.8,58.6,77.3,63.2,79.8 M275.3,81.4c3.8,1.6,5.2,7.1,2.6,10.4l-1.3,1.7
			l-23.1-0.4c-25.3-0.4-26.1-0.5-28.1-3.4c-1.9-2.8-1.7-4.1,1-6.8l2.4-2.3H251C268.8,80.5,273.7,80.7,275.3,81.4 M61.1,99.3
			c3.4,0.9,6.2,4.4,5.7,7.1c-0.7,4.4-0.2,4.4-20.6,4.4c-10,0-20.6,0.3-23.5,0.7c-8.1,1-10.8-0.3-10.8-5.2c0-4.2,3-6.6,9-7
			C29.1,98.7,58.7,98.7,61.1,99.3 M269.5,100.9c6.4,0.4,9.3,2.3,10.1,6.6c0.9,4.8-2,6.4-10,5.6c-3.2-0.3-13.7-0.4-23.4-0.2
			c-19.7,0.4-20,0.3-21.2-3.4c-1.3-3.8,1.1-7.1,6-8.3C233.4,100.6,262,100.4,269.5,100.9 M63.2,120.3c4,2.3,4.8,4.6,2.9,8.5
			c-1.5,3.2-3,3.4-22.2,3.2c-9.4-0.1-20,0.1-23.7,0.3l-6.5,0.5l-0.9-2.2c-1.2-2.9-1.1-5.2,0.2-7.7c2.2-4.1,2.7-4.3,26.4-4.3h21.2
			L63.2,120.3 M276.3,122.1c6.3,4.7,3.2,13.5-4.3,12.4c-1.9-0.2-12.3-0.5-23.4-0.5c-19.3-0.1-20.2-0.1-21.6-1.3
			c-4.5-3.6-2.6-10.5,3.3-11.6C235.4,120,274.7,120.9,276.3,122.1"/>
	</g>
</g>
<path class="st3" d="M673.8,170c1.1,0.6,1.8,1.5,2,2.7l-4.2,0.3c-0.4,0-0.7,0.2-0.9,0.4c-0.8,0.9-1.1,1.9-0.9,3.2
	c0.1,0.3,0.3,0.5,0.6,0.6c2.2,0.3,3.9,0.4,5.1,0.1c1.8-0.4,2.3,0.4,1.5,2.2c-0.1,0.3-0.4,0.5-0.7,0.5l-11.7-0.1
	c-0.3,0-0.5-0.2-0.5-0.5c0-1.3,0.7-2.2,2-2.5c0.3-0.1,0.5-0.3,0.5-0.6C667,171.9,669.4,169.8,673.8,170z"/>
<path class="st4" d="M995.7,236.2c2,0.1,3.9,0,5.9-0.4c2.5-0.4,4.3-1.6,5.4-3.5c0.6-1.1,1-3.1,1-5.8c0.2-12.1,0.3-24.2,0.2-36.3
	c0,0,0-0.5-0.1-1.5c-0.1-2,0.8-3.2,2.8-3.7c1.6-0.4,3.2-0.8,4.8-1.2c0.3-0.1,0.7,0.1,0.8,0.4c0,0.1,0,0.1,0,0.2c0,14,0,28.1,0,42.1
	c0,7.3-2.9,12.4-8.5,15.2c-2,1-4.9,1.6-8.6,1.7c-7.8,0.3-15.8,0.4-23.8,0.3c-0.7,0-1.2-0.5-1.3-1.1c0-0.2,0-0.4,0.1-0.5l2.9-5.2
	c0.1-0.2,0.4-0.4,0.8-0.4l8.2-0.5c0.3,0,0.5-0.3,0.5-0.5l0.1-44.6c0-0.4,0.3-0.7,0.7-0.9l5.3-1.7c1.4-0.5,2.2,0,2.2,1.4l0.3,46
	C995.2,236,995.4,236.2,995.7,236.2z"/>
<circle class="st3" cx="443.3" cy="186.8" r="2.5"/>
<circle class="st3" cx="452.3" cy="186.8" r="2.5"/>
<circle class="st3" cx="707.5" cy="186.7" r="2.5"/>
<circle class="st3" cx="698.4" cy="186.7" r="2.5"/>
<path class="st3" d="M448.4,237.2c-0.1-0.2-0.3-0.2-0.5-0.1c0,0,0,0-0.1,0.1c-1.9,2.4-4.2,4.1-6.9,5.2c-1.8,0.7-4.6,1.1-8.3,1.2
	c-26.1,0.5-46.3,0.4-60.5-0.1c-3-0.1-5.3-1.3-6.7-3.7c-0.9-1.4-1.3-3.7-1.4-6.8c-0.1-9.1-0.2-23.4-0.2-42.7c0-1.9,0.1-3.4,0.3-4.6
	c0.1-0.3,0.3-0.6,0.6-0.7c1.8-0.9,2.6-0.4,2.5,1.6c-0.1,1.2-0.1,1.9-0.1,1.9c0.1,14.9,0.1,29.9,0.3,44.8c0,2.2,0.7,4,2,5.4
	c0.9,0.9,2.2,1.4,3.9,1.6c6.2,0.4,12.8,0.5,19.9,0.3c0.5,0,0.9-0.5,0.9-1c-0.1-5.9-0.1-11.5,0.1-16.8c0.1-5.2,0.7-9,1.9-11.5
	c2.9-6.3,8.4-9.3,16.6-9.1c2.3,0.3,4.9,1.8,6.4,3.2c0.2,0.2,0.3,0.5,0.2,0.8c-0.3,1.1-1,1.7-2,1.7c-0.5,0-1.3-0.3-2.1-0.9
	c-3.1-2.1-6.4-2.3-9.9-0.5c-2.5,1.2-4.3,3-5.4,5.3c-0.8,1.5-1.2,3.9-1.3,7.1c-0.2,6.7-0.2,13.6-0.1,20.9c0,0.5,0.4,1,1,1
	c11.6,0.1,22.8,0.1,33.5-0.2c3.3-0.1,5.7-0.5,7.2-1.3c1.6-0.9,2.9-2.1,3.9-3.7c0.7-1.2,1.2-2.8,1.4-4.9c0.8-8.3,1.1-16.5,0.8-24.9
	c-0.1-2.1,0.8-2.9,2.6-2.6c0.3,0.1,1.5,0.3,1.5,0.6c0,8.6,0.2,17.1,0.6,25.6c0.1,2.8,0.7,4.9,1.6,6.3c0.9,1.3,1,2.4,2.4,3.2
	c1.1,0.7,2.5,1.1,4.3,1.4c3.9,0.6,7.4,0.6,10.6,0.1c4.3-0.7,7.1-3.3,8.3-7.7c0.7-2.5,1-6.9,1-13.2c-0.1-10.8-0.2-21.5-0.2-32.2
	c0-2,5-1.8,5-1.5c-0.5,23.1-0.6,36.9-0.2,41.2c-0.4,10-4.4,14.2-12.5,16.5c-2.7,0.8-6.6,0.9-11.8,0.3
	C454.6,243.1,451,241,448.4,237.2z"/>
<path class="st3" d="M734.7,185.5c0.7,0,1.6-0.1,1.6-0.1c0.2,12.5,0,28,0.2,40.6c0.1,4.1,0.5,7.1,1.4,8.8c1.6,3.1,4.3,4.9,8.1,5.3
	c1.4,0.2,2.9,0.3,4.5,0.4c1.4,0.1,2.9,0,4.5-0.2c6.5-0.9,10-4.6,10.5-11.2c0.4-5.9,0.2-32.1,0.2-40.7c0-1.5,2.2-2.8,3.7-2.8l0.5,0
	c0,0-0.1,15.7,0.2,23.5c0.1,3.3,0.1,6.3,0.1,8.8c0,2.9-0.1,5.9-0.1,8.8c-0.1,4.2-1.5,7.3-2.5,9.2c-2,3.9-5.4,6.3-10.3,7.2
	c-3.6,0.7-7.3,0.9-11,0.5c-4.3-0.4-7.9-2.4-10.9-6.1c-0.3-0.4-0.9-0.4-1.3-0.1c0,0-0.1,0.1-0.1,0.1c-3,3.6-6.6,5.6-10.9,6
	c-3.3,0.3-6.5,0.2-9.8-0.1c-4.1-0.5-7.4-2.4-9.9-5.7c-0.3-0.4-0.9-0.5-1.3-0.2c-0.1,0-0.1,0.1-0.2,0.1c-1.9,2.2-4.1,3.8-6.6,4.8
	c-1.6,0.6-4.2,1.1-7.8,1.2c-5.5,0.3-9.2,0.2-11-0.2c-3-0.7-5.2-2.3-6.4-4.7c-0.7-1.4-1.1-3.8-1.2-7.2c-0.3-15.2-0.3-30.3,0.1-45.5
	c0-0.3,0.2-0.6,0.4-0.8c0.9-0.5,1.8-0.7,2.8-0.5c0.3,0,0.5,0.3,0.5,0.6c0.1,16.1,0.1,32.3,0.1,48.4c0,2.1,0.7,3.8,2.1,5.1
	c1.1,0.9,2.7,1.4,4.8,1.5c2.1,0.1,5,0,8.8-0.1c4.4-0.1,7.7-1.7,9.9-4.6c0.9-1.2,1.4-2.9,1.5-5.2c0.7-14,0.9-22.3,0.6-25
	c-0.2-1.8,1.8-2.7,3.7-2.8c0.4,0,0.7,0.3,0.7,0.6c0.3,3.3,0.4,6.4,0.3,9.1c-0.1,5-0.1,10.1,0.2,15.1c0.2,3.9-0.1,6.7,1.1,8.4
	c1.8,2.5,4.6,4,8.5,4.3c1.6,0.1,3,0.2,4.2,0.2c1.5,0,2.9-0.1,4.1-0.3c3.3-0.4,5.7-2,7.2-4.6c2.4-3.5,1.7-37.1,1.4-47.1
	C732,186.9,733.2,185.6,734.7,185.5z"/>
<ellipse transform="matrix(0.9578 -0.2874 0.2874 0.9578 -40.9028 95.0964)" class="st3" cx="303.5" cy="186.9" rx="2" ry="2.2"/>
<path class="st4" d="M1025.9,243.4c-0.3-0.1-0.5-0.3-0.5-0.6l-0.3-55.5c0-0.3,0.2-0.6,0.5-0.7l6-1.8c0.6-0.2,1.3,0.2,1.5,0.8
	c0,0.1,0,0.2,0,0.3v56.7c0,0.4-0.3,0.8-0.7,0.9C1030.7,243.9,1028.6,243.8,1025.9,243.4z"/>
<path class="st5" d="M1290.1,243.5c-1.4,0.3-2.9,0.4-4.4,0.3c-0.1,0-0.7,0-1.7,0.1c-1.4,0.1-2.1-0.7-2-2.1c0.1-0.9,0.1-1.4,0.1-1.4
	c0-17.5,0-35,0-52.5c0-0.5,0.6-1,1.4-1.3l6-1.5c0.4-0.1,1,0.1,1.2,0.6c0,0,0,3.5,0,4.9C1290.3,204.3,1289.8,239.5,1290.1,243.5z"/>
<circle class="st6" cx="1459.7" cy="188.8" r="4.3"/>
<circle class="st6" cx="1447.4" cy="188.8" r="4.3"/>
<path class="st5" d="M1480.3,185.3c0,0,0,8.3,0,8.4c-0.1,12.5,0,25.1,0.3,37.6l0,11.7c0,0.3-0.2,0.5-0.5,0.6c-2.3,0.4-4.6,0.4-6.9,0
	c-0.3,0-0.5-0.3-0.5-0.6l-0.1-55.6c0-0.3,0.2-0.6,0.6-0.7C1475.3,185.9,1480.3,185.3,1480.3,185.3z"/>
<path class="st4" d="M902.7,195.1C902.7,195.1,902.7,195.1,902.7,195.1l0.1,7.2c0,6.3,0.1,12.5,0,18.8c0,5.2,0.1,8.3,0.5,9.3
	c1.1,3.7,4.1,5.6,9,5.7c3.8,0.1,8.1,0.1,12.7,0.1c0.5,0,0.9-0.4,0.9-0.9c0-0.1,0-0.2,0-0.3c-1.3-4.1-1.5-8.6-0.5-13.4
	c0.8-4,2.8-6.8,5.9-8.4c2.9-1.4,5.9-1.7,9.3-0.8c4.4,1.2,7.1,4.3,8.1,9.4c0.9,4.5,0.4,9.1-1.5,13.8c-0.1,0.2,0,0.4,0.2,0.5
	c0,0,0.1,0,0.1,0l7.4,0c0.3,0,0.5-2.7,0.7-3.8c0.8-4.9,0.3-9.7-0.7-14.3c-0.8-3.5-2-6.2-3.7-8.1c-2.2-2.4-5.1-3.7-8.7-3.8
	c-6.7-0.3-13.3-0.4-20-0.2c-0.8,0-0.9-0.2-0.3-0.8c1.6-1.6,3.3-3,5.1-4.4c1.3-1,2.8-1.6,4.4-1.8c6-0.8,12-0.3,17.9,1.2
	c4.2,1.1,7.4,3.2,9.7,6.3c1.7,2.3,3,5.7,3.8,10.2c0.7,3.6,1,7.2,1,10.9c0,5.2,0,10.3-0.1,15.4c0,0.4-0.3,0.6-0.7,0.6h-50.6
	c-4,0-8-1.2-11.9-3.5c-1.4-0.8-2.7-0.8-4.1,0.2c-2,1.4-4.3,2.4-6.9,2.8c-1.1,0.2-3.5,0.4-7.3,0.5c-3,0.1-5.9,0.1-8.9-0.1
	c-3.6-0.2-7.2-1.7-10.8-4.3c-0.4-0.3-0.9-0.3-1.3,0c-2.9,2.2-6.4,3.5-10.4,3.9c-5.2,0.5-10.5,0.6-15.7,0.3c-3.9-0.2-7.6-2-11-5.4
	c-0.3-0.3-0.8-0.3-1.2,0c0,0,0,0,0,0c-3.3,3.4-7.3,5.2-11.8,5.3c-11.1,0.2-17.2-5.1-18.3-16.1c-0.3-3.2-0.3-6.5,0-9.8
	c0.8-9,5.7-14.1,14.5-15.5c3.4-0.5,10.1-0.5,20.3-0.1c0.3,0,0.5,0.2,0.5,0.5c0.5,9,0.7,15.7,0.4,20.1c-0.2,3.1,0.1,6,0.9,8.6
	c0.6,1.8,1.6,3,3,3.8c1.6,0.8,3.4,1.2,5.6,1.2c3.7,0,7.5,0,11.2-0.1c2.9,0,5.1-1,6.5-2.9c1-1.3,1.5-3.4,1.6-6.3
	c0.2-6.3,0.2-12.9,0.1-19.8c0-1.6,0.7-2.6,2.1-3l4.8-1.2c0.7-0.2,1.5,0.3,1.7,1.2c0,0.1,0,0.3,0,0.4c-0.1,8.2-0.1,15.7,0.1,22.7
	c0.1,2.7,0.5,4.7,1.3,5.9c1.2,1.9,3.2,3,5.8,3.2c1.9,0.2,4,0.2,6.5,0.1c4-0.1,6.2-0.2,6.5-0.2c5.4-0.7,8.1-4.2,8-10.7
	c-0.1-9.7,0.1-21.7,0.4-35.9c0-0.1,0-1,0-1.8c0-0.9,0.7-1.7,1.6-1.9c2-0.3,5.1-0.7,6-0.5C902.9,185.5,902.7,195,902.7,195.1z
	 M804.8,234.4c2.8,1.8,5.7,2.2,8.7,1.3c1.8-0.5,3.1-1.4,4.1-2.6c0.9-1.2,1.5-2.8,1.8-4.8c0.7-5.8,0.9-11.9,0.3-18.5
	c0-0.3-0.3-0.5-0.6-0.5c-3.1-0.2-6.1-0.1-8.8,0.1c-2.5,0.2-4.3,0.7-5.4,1.5c-1.6,1.1-2.6,2.8-3.2,5.1c-1.3,5.4-0.9,10.8,1.1,16.1
	C803.3,233,804,233.8,804.8,234.4z M933.6,234.7c3.3,2.3,5.8,1.8,7.5-1.7c1.7-3.5,1.9-7.1,0.6-11c-0.5-1.3-1.1-2.3-2-3
	c-1.2-0.8-2.4-1.1-3.8-0.8c-1.5,0.4-2.6,1.5-3.3,3.3c-1.4,3.5-1.5,7.4-0.1,11.6C932.7,233.8,933.1,234.3,933.6,234.7z"/>
<path class="st5" d="M1335.1,202.2c3.5,0.8,6.2,1.8,8.2,2.8c4.6,2.5,7,6.6,7.2,12.2c0.3,8.6,0.3,17.2-0.1,25.8
	c0,0.3-0.2,0.5-0.5,0.5c-11.4,0.4-22.8,0.4-34.2,0c-0.2,0-0.3-0.2-0.3-0.3c0,0,0-0.1,0-0.1c1-2.3,2.4-4.2,4.2-6
	c0.2-0.2,0.5-0.3,0.8-0.4l21.4-0.5c0.3,0,0.5-0.2,0.5-0.5c0.1-5.7,0.1-11.5,0.1-17.2c0-3.4-1.3-5.9-3.8-7.7
	c-2.5-1.7-5.6-2.2-9.1-1.2c-3.4,0.9-6.4,2.9-8.9,6c-0.2,0.2-0.3,0.2-0.3-0.1c-0.1-1.6-0.1-3.1-0.2-4.7c-0.1-2.4,0.9-4.1,2.9-5.2
	c2.3-1.3,4.7-2.3,7.2-3l0.6-0.1c1.3-0.3,2.6-0.3,3.9-0.2L1335.1,202.2z"/>
<path class="st5" d="M1274.5,185.4c0,0,0-0.1,0-0.1c-0.1-0.2-0.3-0.3-0.5-0.3l-7.7,2.4c0,0,0,11.2,0,16.9c0,0.1,0,0.2,0,0.2
	s0.1,13.3,0.1,20c0,3.1-0.4,5.5-1.1,7.2c-1.3,2.8-3.8,4.3-7.4,4.4c-5.2,0.1-10.3,0.2-15.5,0.2c0,0-0.1,0-0.1,0c-0.6,0-1-0.6-1-1.2
	c0.5-6.7-0.2-12.9-2.2-18.8c-0.9-2.7-2-4.9-3.3-6.6c-1.6-2.2-3.6-3.8-5.8-4.9c-2.3-1.1-4.9-1.9-8.1-2.4c-2.9-0.4-5.7-0.4-8.2,0.2
	c-5,1.2-9.8,3.7-14.2,7.4c0,0-0.1,0.1-0.1,0.1c-0.5,0.5-0.5,1.2,0,1.7l4.3,4.1c0.2,0.2,0.6,0.2,0.8,0c0.7-0.5,2-1.6,3.9-3.2
	c3.3-2.8,7.7-3.8,12.9-3.1c3.4,0.5,6.1,2,8,4.6c1.4,1.9,2.3,4.6,2.9,8.1c0.6,4.1,0.8,8.5,0.6,13.2c0,0.4-0.4,0.8-0.8,0.8
	c-14.5,0.1-29,0.1-43.6-0.1c-6.5-0.1-9.8-3.5-9.8-10.2c0-12.6,0-26.6,0-39.2c0-0.1-8.4,2.5-8.4,2.9l-0.1,16.1
	c0.1,7.3-0.1,14.6-0.6,21.9c-0.2,2.7-0.8,4.6-1.8,5.8c-1.6,1.8-4,2.3-7.1,2.4c-3.9,0.2-4.8,0.3-7.6,0.3c-3.7,0.1-6.5-0.3-8.5-2.3
	c-1.3-1.3-2.1-3.6-2.4-6.7c-0.4-4.1-0.5-8.2-0.3-12.4c0,0,0,0,0,0c0.2-3.4,0.2-6.7,0.1-10.1c0-0.2,0-0.6,0.1-1.2
	c0.1-1-0.4-1.3-1.4-0.7l-6.4,1.7c-0.4,0.1-0.6,0.5-0.6,1c0,5.6,0,11.1,0,16.5c0,2.9-0.2,5.5-0.6,7.6c-0.4,2.1-1.2,3.7-2.5,4.6
	c-1.4,1.1-3.2,1.7-5.4,1.8c-3.7,0.2-7,0.1-10-0.3c-2.9-0.4-5.3-1.2-7.2-2.4c-2.3-1.5-4-3.5-5.1-5.9c-1.2-2.5-3.4-8.2-6.8-17
	c-1.8-4.9-5.7-8.3-11.4-10.1l-1.8-0.5c-2-0.5-4.1-0.5-5.5-0.5c-0.7,0-1.5,0.1-2.2,0.3l-3.5,0.9c-4.4,1.6-8.2,3.9-11.3,7.3
	c-0.2,0.2-0.3,0.6-0.2,0.8c0.4,1.1,1.2,2,2.3,2.5c0.3,0.1,2,1.5,2.8,0.7c1.2-1.2,2.8-2.2,4.7-3.3c1.9-1,3.6-1.7,5.3-2
	c5.3-1.1,9.8,0.7,13.5,5.1c0.9,1.1,1.5,2.5,1.7,4.3c0,0,0,0.1,0,0.1c0,0.3-0.2,0.5-0.5,0.5c-2.7,0-5.4,0-8.1-0.1
	c-4.1-0.1-8,0.7-11.7,2.4c-7.3,3.3-11.5,9-12.7,17c-1,6.7,0.5,12.5,4.6,17.3c5.1,6,11.9,8.8,20.3,8.2c4.8-0.3,8.8-1.4,11.8-3.2
	c0.3-0.2,0.5-0.5,0.5-0.8l0.1-7c0-0.6-0.2-0.7-0.7-0.3c-2.6,1.9-5.4,3.1-8.4,3.7c-2.7,0.5-5.2,0.6-7.5,0.3c-2.6-0.4-5-1.4-7.1-3
	c-3.2-2.5-5-5.8-5.2-9.9c-0.4-7.3,2.1-12.4,7.7-15.4c2.1-1.1,5-1.7,8.6-1.8c3.3-0.1,6.9-0.1,10.6,0c0.6,0,1.2,0.5,1.3,1.1
	c2.3,10.5,8.2,16.5,17.7,18c2.7,0.4,5.8,0.7,9.4,0.7c3.2,0,6.3-0.3,9.4-1c1.3-0.3,2.5-0.8,3.7-1.5c1.1-0.6,2.3-1.3,3.4-2.1
	c0.4-0.2,0.8-0.2,1.1,0.1c2.8,2.5,6.1,3.9,9.9,4.2c2.8,0.2,5.7,0.3,8.5,0.2c4.4-0.1,7.2-0.3,8.5-0.6c3-0.6,5.7-1.9,8.2-4
	c0.2-0.2,0.6-0.2,0.9,0c4.4,3.1,9.1,4.6,13.9,4.7c21.8,0.1,43.6,0,65.4-0.3c5-0.1,8.6-0.5,10.6-1.3c3.8-1.4,6.5-4,8.3-7.7
	c1-2.1,1.5-5.2,1.6-9.4C1274.7,211.8,1274.7,198.8,1274.5,185.4z"/>
<path class="st3" d="M291.3,244c-1.4-0.3-2.8-0.6-4.2-0.8c-4.6-0.7-6.9-3-7-6.9c0-2.1,0.6-2.3,1.8-0.6c1.7,2.4,4.1,3.9,7,4.6
	c2.5,0.5,6.5,0.5,12,0c4.3-0.4,7.2-2.4,8.7-5.9c0.7-1.6,1.1-4.8,1.2-9.4c0.2-6.5,0.2-12.9,0.1-19.4c0-2.3,1-3.2,3-2.6
	c0.3,0.1,0.5,0.3,0.5,0.6c0.1,7.2,0.1,14.4,0.1,21.6c0,4.5-0.5,7.9-1.5,10c-2.6,5.7-7.8,8.6-15.7,8.6c-0.9,0-1.7,0.7-1.8,1.7
	c-0.3,5.8-2.8,10.2-7.3,13c-2.9,1.8-6.2,2.8-9.9,3.1c-3.3,0.3-6.7,0.1-10.1-0.4c-7-1-11.8-4.6-14.6-10.6c-1.8-3.8-2.5-8.5-2.3-14
	c0.2-4.8,1.1-9.5,2.7-14.1c0.2-0.6,0.5-1.1,0.9-1.6c2.3-2.4,2.8-1.6,1.6,2.4c-1.1,3.5-1.7,7.1-1.8,10.7c-0.2,3.8-0.1,6.8,0.3,9.1
	c0.5,3.2,1.7,6,3.7,8.5c2.4,3,5.5,5,9.4,5.9c3.6,0.8,7.5,0.8,11.6-0.1c7.3-1.6,11.3-5.8,12.1-12.7C291.8,244.3,291.6,244,291.3,244z
	"/>
<path class="st3" d="M595.4,214.3c0.5-2,0.7-3.7,0.4-5.2c-0.4-2.4,0-4.4,1.3-6.1c1.4-0.7,2.2-0.3,2.3,1.2c0.3,4.2,0.3,7.6,0,10.2
	c-0.2,1.9-0.2,5.5,0,10.9c0.2,4.8,0.8,8.1,1.8,9.9c1.9,3.3,5.9,4.3,10.8,4.3c3.9,0,6.5-0.2,8-0.5c4.3-0.9,6.3-2.9,7.3-7.3
	c0.7-3.1,1-6.1,0.9-8.8c-0.2-5.2,0.8-9.5,2.8-12.9c2.1-3.5,5.6-5.4,10.4-5.8c9.1-0.7,14.6,3.3,16.4,12c1.1,5,1.1,10.2,0.1,15.5
	c-0.7,3.7-2.4,6.7-5,8.7c-2.4,1.9-5.4,3-8.9,3.2c-5.1,0.2-9.4-1.8-13-6.2c-0.3-0.4-0.9-0.4-1.3-0.1c0,0-0.1,0.1-0.1,0.1
	c-3,3.6-6.9,5.9-11.4,6.4c-3.3,0.3-6.5,0.3-9.8,0c-4.2-0.5-7.4-2.7-10.2-6.2c-0.2-0.3-0.7-0.3-1-0.1c0,0,0,0-0.1,0.1
	c-3.3,3.5-6.8,5.5-10.7,5.9c-4,0.5-9.9,0.5-17.7,0.1c-0.3,0-0.6,0.2-0.6,0.5c-0.3,1-0.8,3-1.4,6c-0.6,2.8-2,5.2-4.1,7
	c-1.7,1.5-4,2.6-6.9,3.4c-4.4,1.2-9.2,1.6-14.5,1.1c-10-0.9-16.3-6.3-18.6-16.1c-0.5-2.1-1.1-6.6-1.9-13.4c-0.3-2.8,0.8-4.2,3.2-4.4
	c0.3,0,0.5,0.2,0.5,0.4c0,0,0,0,0,0c0,1.8,0.1,3.7,0.2,5.5c0,0,0,1.4,0.1,3.9c0.1,3.1,0.7,6,1.7,8.9c1.1,3.1,2.7,5.5,4.9,7.4
	c2.5,2.1,5.3,3.5,8.6,4c2.6,0.4,5.7,0.6,9.2,0.4c3.3-0.1,6.3-0.9,9.1-2.2c1-0.5,2-1.3,2.9-2.5c0.7-0.9,1.3-2,1.7-3.3
	c0.9-3.1,1.3-6.4,1.2-10.1c-0.2-6.8-0.1-15.6,0.3-26.2c0-0.3,0.1-0.7,0.3-0.9c1.7-2.5,2.6-2.1,2.7,1.1c0.6,12.9,0.8,20.7,0.5,23.5
	c-0.2,2.2,0.5,3.2,2.3,3.1c0.9-0.1,1.4-0.1,1.4-0.1c2.7,0,5.5,0,8.2-0.1c4.5-0.1,7.3-0.3,8.2-0.6c2.2-0.6,4-1.8,5.4-3.6
	c1-1.4,1.7-3.3,1.9-5.8C595.4,225,595.6,219.7,595.4,214.3z M634.3,212.5c-2.1,4.3-2.9,8.8-2.5,13.4c0.2,2.8,0.6,5,1.1,6.7
	c0.7,2.5,2.1,4.4,4.1,5.7c4,2.7,8.2,2.6,12.6-0.3c1.4-0.4,2.3-1.3,2.7-2.8c2.9-7.3,3-14.6,0.2-22c-0.9-3-3.1-4.8-6.7-5.5
	C640.4,206.7,636.6,208.3,634.3,212.5z"/>
<path class="st3" d="M597.1,203c-1.3,1.7-1.7,3.7-1.3,6.1c0.3,1.5,0.1,3.2-0.4,5.2c-0.4-3.4-0.3-6.8,0.2-10.2
	c0.1-0.4,0.2-0.7,0.4-0.9C596.3,203,596.6,202.9,597.1,203z"/>
<path class="st3" d="M349.8,240.4c0-0.2-0.2-0.4-0.4-0.4c-0.1,0-0.1,0-0.2,0.1c-2.7,1.8-5.6,2.9-8.7,3.3c-3.3,0.4-6.2,0-9-1.2
	c-4-1.8-6.6-5.2-7.6-9.9c-0.6-2.7-0.8-5.6-0.8-8.8c0.1-4,0.4-6.9,0.9-8.8c0.8-3,2.3-5.5,4.6-7.5c2-1.7,4.6-2.8,7.8-3.2
	c7.7-0.9,13.1,2,16,8.9c1,2.3,1.5,5.3,1.6,9c0.1,4.5,0,9-0.1,13.6c-0.2,7.2-0.5,11.6-0.9,13.1c-1.1,4.7-3.9,8.5-8.2,11.2
	c-2.2,1.4-4.9,2.1-8,2c-2.5,0-4.1-0.1-4.9-0.3c-1.8-0.3-3.2-1.3-4.3-2.8c-1.3-1.8-1-2.3,1.1-1.4c2.7,1.1,5.5,1.6,8.5,1.4
	c4.8-0.3,8.2-2.5,10.4-6.7C349.4,248.1,350.2,244.3,349.8,240.4z M331.8,237.8c4.4,2.9,8.5,3.2,12.1,1c2.6-1.5,4.3-4.1,5.3-7.6
	c1.1-4.1,1.2-8.6,0.4-13.5c-0.5-3.1-1.7-5.6-3.5-7.5c-1.8-1.8-4.2-2.9-7.1-3.1c-3.1-0.2-5.7,0.7-7.8,2.9c-1.5,1.6-2.7,3.9-3.4,7
	c-1.2,5.2-1,10.4,0.6,15.7C329.1,235.1,330.2,236.8,331.8,237.8z"/>
<path class="st5" d="M1463.6,202.9c-0.1-0.2-0.3-0.4-0.6-0.3l-6.9,2.1c-0.3,0.1-0.5,0.4-0.5,0.8c0,6.7,0,13.4,0,20.1
	c0,2.7-0.4,4.9-1.3,6.7c-0.8,1.6-2,2.7-3.6,3.4c-1,0.4-2.6,0.6-4.7,0.7c-4.9,0.1-10.2,0-15.9-0.1c0,0,0,0-0.1,0c-0.6,0-1-0.5-1-1.1
	c0.3-4.1,0.1-8-0.4-11.7c-0.7-4.7-1.8-8.4-3.2-11.1c-2.3-4.3-5.9-7.2-11-8.8c-3.1-1.3-6.5-1.7-9.8-1.4l-1.4,0.1
	c-5.6,1.1-10.8,3.8-15.7,8c0,0-0.1,0.1-0.1,0.1c-0.5,0.5-0.5,1.3,0,1.7l4.6,4.2c0,0,0,0,0,0c0.2,0.2,0.5,0.1,0.7-0.1
	c2.4-2.8,5.4-4.7,8.9-5.9c2.6-0.5,5.3-0.6,7.9-0.3l0.1,0c4.6,0.8,7.6,3.2,8.9,7.1c1.9,5.5,2.6,11.7,2.2,18.6c0,0.5-0.4,0.9-0.9,0.9
	c-16.1,0.1-31.7,0-47-0.2c-1.6,0-2.8-0.5-3.6-1.4c-0.6-0.7-0.9-1.8-0.9-3.4c-0.2-15.2-0.4-30.7-0.4-46.3c0,0,0-0.1,0-0.1
	c-0.1-0.2-0.3-0.4-0.5-0.3l-6.4,1.9c-0.5,0.1-0.8,0.6-0.8,1.2c-0.1,15.2-0.1,30.1,0.2,44.7c0,2.4,0.5,4.3,1.4,5.7
	c1.2,1.9,2.8,3.3,4.8,4.2c1.6,0.7,4.4,1.1,8.5,1.2c23,0.3,45.9,0.3,68.9,0c4.8-0.1,8.2-0.6,10.4-1.5c3.7-1.6,6.3-4.2,7.9-7.8
	c1-2.3,1.5-6.3,1.5-11.8c0-6.4,0-12.9,0-19.5C1463.6,203,1463.6,203,1463.6,202.9z"/>
<path class="st3" d="M497.1,187.3c0-1.2,0-1.9-0.1-2c-0.3-0.6-2.4-0.6-4,0.1c-0.4,0.2-0.7,0.6-0.7,1l0.1,11.1
	c0,14.4,0,28.7-0.2,43.1c0,1.1,0.1,1.8,0.3,2.2c0.4,0.7,2.4,1,3.5,1c0.6,0,1.1-0.5,1.1-1.1l0-46.2
	C497,193.4,497.1,190.3,497.1,187.3z M496.7,210.3C496.7,210.3,496.7,210.3,496.7,210.3c0.1,0.1,0.1,0.1,0.1,0.1
	C496.7,210.4,496.7,210.3,496.7,210.3z M496.8,210.6c0,0,0-0.1,0-0.1C496.8,210.6,496.8,210.6,496.8,210.6z"/>
<circle class="st5" cx="1081.2" cy="238.7" r="4.3"/>
<path class="st5" d="M1469.8,261.8c-1.2,0-1.5-0.5-0.7-1.5c0.6-0.8,1.6-1.4,3-1.7c0.3-0.1,0.5-0.3,0.5-0.6c-0.2-4.6,1.9-6.8,6.5-6.6
	c1.9,0.1,2.6,0.9,2.2,2.4c-0.1,0.3-0.4,0.4-0.7,0.3c-3.5-0.9-5.3,0.4-5.2,3.9c0,0.3,0.2,0.6,0.5,0.7c1.4,0.5,2.9,0.6,4.5,0.5
	c1.5-0.2,2.3,0.2,2.4,1.2c0.1,0.8-0.5,1.5-1.2,1.6c-0.1,0-0.1,0-0.2,0L1469.8,261.8z"/>
<circle class="st4" cx="856.1" cy="257.1" r="4.3"/>
<circle class="st4" cx="868.4" cy="257" r="4.3"/>
<circle class="st6" cx="1144" cy="257.2" r="4.3"/>
<circle class="st6" cx="1219.2" cy="190.1" r="4.3"/>
<circle class="st6" cx="1131.3" cy="257.2" r="4.3"/>
<circle class="st3" cx="267.8" cy="273.5" r="2.4"/>
<circle class="st3" cx="277.7" cy="273.5" r="2.4"/>
<circle class="st4" cx="819.6" cy="187.1" r="4.1"/>
<circle class="st4" cx="806.9" cy="187.1" r="4.1"/>
<circle class="st3" cx="603" cy="259.1" r="2.3"/>
<circle class="st3" cx="593.2" cy="259.1" r="2.3"/>
<circle class="st3" cx="544.7" cy="216.2" r="2.3"/>
</svg>
