<svg id="ic_badge_credit_card" data-name="ic_badge_credit card" xmlns="http://www.w3.org/2000/svg" width="48" height="48" viewBox="0 0 48 48">
  <rect id="Rectangle_2188" data-name="Rectangle 2188" width="48" height="48" fill="#1f212b" opacity="0"/>
  <g id="Group_6689" data-name="Group 6689" transform="translate(1.912 9.684)">
    <path id="Path_3330" data-name="Path 3330" d="M41.86,9.684H6.14a4.262,4.262,0,0,0-4.228,4.287V34.029A4.262,4.262,0,0,0,6.14,38.316H41.86a4.262,4.262,0,0,0,4.228-4.287V13.971A4.262,4.262,0,0,0,41.86,9.684ZM2.912,17.121H45.088v6.057H2.912ZM6.14,10.684H41.86a3.261,3.261,0,0,1,3.228,3.287v2.15H2.912v-2.15A3.261,3.261,0,0,1,6.14,10.684ZM41.86,37.316H6.14a3.261,3.261,0,0,1-3.228-3.287V24.178H45.088v9.851A3.261,3.261,0,0,1,41.86,37.316Z" transform="translate(-1.912 -9.684)" fill="#1f212b"/>
    <path id="Path_3331" data-name="Path 3331" d="M21.984,30.26a6.239,6.239,0,0,1-2.122.372,16.344,16.344,0,0,1-4.54-.622,16.835,16.835,0,0,0-5.058-.628,18.069,18.069,0,0,0-3.362.549.5.5,0,1,0,.227.974,17.41,17.41,0,0,1,3.157-.523,15.459,15.459,0,0,1,4.792.6,17.345,17.345,0,0,0,4.784.653,7.237,7.237,0,0,0,2.46-.431.5.5,0,1,0-.338-.941Z" transform="translate(-1.912 -9.684)" fill="#1f212b"/>
  </g>
</svg>
