<svg xmlns="http://www.w3.org/2000/svg" width="40.592" height="37.454" viewBox="0 0 40.592 37.454">
  <g id="Group_12485" data-name="Group 12485" transform="translate(12191 4607.034)">
    <path id="Path_35060" data-name="Path 35060" d="M19.341,28.908H12.9a1.611,1.611,0,1,1,0-3.222H17.73V19.243a1.611,1.611,0,1,1,3.222,0V27.3a1.611,1.611,0,0,1-1.611,1.611M38.67,12.8v4.832a4.832,4.832,0,0,1-4.833,4.833H29.005a1.611,1.611,0,1,1,0-3.222h4.248a16.094,16.094,0,1,0-19.77,23.064,1.612,1.612,0,1,1-1.173,3A19.33,19.33,0,1,1,35.449,16.624V12.8a1.611,1.611,0,1,1,3.222,0" transform="translate(-12191 -4615)" fill="#136494"/>
    <path id="Path_35061" data-name="Path 35061" d="M131.331,174.918a3.08,3.08,0,0,1,1.085,1.364,5.08,5.08,0,0,1,.375,2.014,3.83,3.83,0,0,1-.512,1.964,3.682,3.682,0,0,1-1.418,1.383,4.084,4.084,0,0,1-2.021.5,4.432,4.432,0,0,1-2.136-.508,3.65,3.65,0,0,1-1.494-1.529,5.2,5.2,0,0,1-.55-2.5v-1.039a5.974,5.974,0,0,1,.844-3.26,5.344,5.344,0,0,1,2.2-1.995,6.5,6.5,0,0,1,2.885-.661h.313a.145.145,0,0,1,.145.145v1.957a.145.145,0,0,1-.145.145,4.317,4.317,0,0,0-2.277.569,2.517,2.517,0,0,0-1.162,1.823,2.992,2.992,0,0,1,.951-.634,3.09,3.09,0,0,1,1.227-.237,2.907,2.907,0,0,1,1.689.489m-1.915,4.8a1.486,1.486,0,0,0,.462-.6,2.064,2.064,0,0,0,.168-.841,1.751,1.751,0,0,0-.39-1.227,1.307,1.307,0,0,0-1.009-.424,1.49,1.49,0,0,0-.764.187,1.3,1.3,0,0,0-.489.485v.8a2.367,2.367,0,0,0,.329,1.4,1.208,1.208,0,0,0,1.039.443,1.06,1.06,0,0,0,.654-.222" transform="translate(-12297.77 -4754.347)" fill="#f9a52d"/>
    <path id="Path_35062" data-name="Path 35062" d="M195.832,180.369a3.511,3.511,0,0,1-1.38,1.571,3.931,3.931,0,0,1-2.048.527,3.981,3.981,0,0,1-2.067-.527,3.508,3.508,0,0,1-1.383-1.567,5.891,5.891,0,0,1-.493-2.538v-2.148a5.943,5.943,0,0,1,.493-2.545,3.54,3.54,0,0,1,1.376-1.578,4.231,4.231,0,0,1,4.112,0,3.573,3.573,0,0,1,1.387,1.582,5.885,5.885,0,0,1,.5,2.537v2.148a5.9,5.9,0,0,1-.493,2.534m-2.56-6.63a1.05,1.05,0,0,0-1.773,0,3.189,3.189,0,0,0-.3,1.609v2.82a3.124,3.124,0,0,0,.306,1.616,1.007,1.007,0,0,0,.9.47.975.975,0,0,0,.875-.474,3.16,3.16,0,0,0,.3-1.613v-2.82a3.125,3.125,0,0,0-.31-1.605" transform="translate(-12352.414 -4754.665)" fill="#f9a52d"/>
    <path id="Path_35063" data-name="Path 35063" d="M250.245,213.287a1.369,1.369,0,0,1-.532-1.122,1.564,1.564,0,0,1,.274-.892,1.89,1.89,0,0,1,.8-.649,2.911,2.911,0,0,1,1.237-.243,3.492,3.492,0,0,1,1.306.225,1.925,1.925,0,0,1,.861.637l.006.008a.605.605,0,0,1-.5.95h-.525a.633.633,0,0,1-.576-.342.378.378,0,0,0-.078-.11.715.715,0,0,0-.5-.135.7.7,0,0,0-.406.118.375.375,0,0,0-.171.327q0,.4.874.542a5.06,5.06,0,0,1,1.092.284,1.854,1.854,0,0,1,.767.555,1.469,1.469,0,0,1,.3.956,1.408,1.408,0,0,1-.3.882,2,2,0,0,1-.859.616,3.438,3.438,0,0,1-1.293.225,2.946,2.946,0,0,1-1.327-.279,2.156,2.156,0,0,1-.854-.716l-.006-.009a.568.568,0,0,1,.472-.883h.533a.553.553,0,0,1,.484.309.535.535,0,0,0,.151.177.967.967,0,0,0,.6.164.808.808,0,0,0,.478-.12.38.38,0,0,0,.166-.325.267.267,0,0,0-.095-.207.934.934,0,0,0-.317-.158,6.6,6.6,0,0,0-.647-.166,3.345,3.345,0,0,1-1.406-.616" transform="translate(-12404.876 -4788.365)" fill="#f9a52d"/>
  </g>
</svg>
