<svg id="ic_payment_click_to_pay" data-name="ic_payment_click to pay" xmlns="http://www.w3.org/2000/svg" width="48" height="32" viewBox="0 0 48 32">
  <g id="Rectangle_3381" data-name="Rectangle 3381" fill="#fff" stroke="#dbdee8" stroke-width="1">
    <rect width="48" height="32" rx="4" stroke="none"/>
    <rect x="0.5" y="0.5" width="47" height="31" rx="3.5" fill="none"/>
  </g>
  <g id="b" transform="translate(10.001 6.574)">
    <g id="c" transform="translate(-0.001)">
      <path id="Path_9714" data-name="Path 9714" d="M17.492,9.46c-.057-.074-.111-.146-.168-.216Q14.113,5.357,10.9,1.473a.846.846,0,0,1-.182-.938A.836.836,0,0,1,11.55.014q2.515,0,5.03,0a.864.864,0,0,1,.682.306Q19.232,2.6,21.2,4.876q1.647,1.9,3.3,3.8a.964.964,0,0,1,0,1.527l-5.7,6.626c-.079.092-.155.185-.255.3.1.008.164.017.227.017.78,0,1.56.006,2.341-.005a.463.463,0,0,0,.315-.136q3.122-3.734,6.23-7.48c.031-.037.057-.078.094-.129-.06-.076-.115-.148-.171-.217L21.194,1.443A.846.846,0,0,1,21.277.221.862.862,0,0,1,22.5.337q3.542,4.146,7.086,8.289c.048.057.1.113.145.17a.907.907,0,0,1-.017,1.3q-3,3.459-6.009,6.917c-.441.507-.875,1.02-1.315,1.529a.857.857,0,0,1-.68.307q-2.527,0-5.055,0a.82.82,0,0,1-.8-.495A.848.848,0,0,1,16,17.4q3.2-3.86,6.406-7.722c.063-.076.125-.153.2-.247-.064-.08-.123-.157-.184-.231q-3.041-3.656-6.085-7.31a.421.421,0,0,0-.249-.168c-.887-.012-1.775-.007-2.727-.007.09.109.147.182.207.251l5.806,6.7a.954.954,0,0,1,.009,1.507q-3.138,3.656-6.276,7.312a3.7,3.7,0,0,1-2.949,1.358c-2.2,0-4.4,0-6.6,0A3.5,3.5,0,0,1,0,15.274Q0,9.4,0,3.522A3.413,3.413,0,0,1,2.818.07,3.733,3.733,0,0,1,3.437.016Q5.566,0,7.695,0A.845.845,0,0,1,8.6.946a.807.807,0,0,1-.849.77c-.39.012-.78,0-1.17,0q-1.507,0-3.013,0A1.776,1.776,0,0,0,1.726,3.575q0,5.851,0,11.7a1.7,1.7,0,0,0,1.843,1.849c2.216,0,4.432,0,6.648,0a1.762,1.762,0,0,0,1.426-.64q2.9-3.464,5.791-6.939a.836.836,0,0,0,.058-.092Z" transform="translate(0.001)"/>
    </g>
  </g>
</svg>
