<svg xmlns="http://www.w3.org/2000/svg" xmlns:xlink="http://www.w3.org/1999/xlink" width="91.425" height="38.357" viewBox="0 0 91.425 38.357">
  <defs>
    <clipPath id="clip-path">
      <rect id="Rectangle_1" data-name="Rectangle 1" width="91.425" height="38.357" fill="#fff"/>
    </clipPath>
  </defs>
  <g id="Group_1" data-name="Group 1" clip-path="url(#clip-path)">
    <path id="Path_1" data-name="Path 1" d="M12.652,14.613a7.388,7.388,0,0,0,.057-1.573,7.788,7.788,0,0,0,1.366-.028c-.018-.163-.036-.323-.051-.48a8.047,8.047,0,0,1-1.554,0l-.3-.034.033.3a6.375,6.375,0,0,1-.139,2.183c.174-.113.371-.235.589-.37" transform="translate(-5.626 -5.829)" fill="#fff"/>
    <path id="Path_2" data-name="Path 2" d="M15.138,18.67c-.537,0-.822-.157-.824-.241s.3-.266.872-.28h.025a1.39,1.39,0,0,1,.188.018c-.01-.062-.022-.128-.032-.189a1.281,1.281,0,0,0-.156-.014h-.03c-.527.013-1.058.177-1.052.469s.527.431,1.009.431H15.2a1.418,1.418,0,0,0,.31-.046c-.011-.061-.022-.122-.03-.184a1.21,1.21,0,0,1-.283.044Z" transform="translate(-6.59 -8.378)" fill="#fff"/>
    <path id="Path_3" data-name="Path 3" d="M15.9,17.157c-.018-.112-.033-.222-.051-.334a2.7,2.7,0,0,1-.36-.475l-.2.064a3.045,3.045,0,0,0,.5.647c.035.035.07.066.1.1" transform="translate(-7.133 -7.625)" fill="#fff"/>
    <path id="Path_4" data-name="Path 4" d="M22.965,11.089a2.021,2.021,0,0,0,.066-.306,2.176,2.176,0,0,0,.3.189l.262-.079-.078-.031a1.822,1.822,0,0,1-.5-.334l-.161-.164v.229a1.832,1.832,0,0,1-.11.572Z" transform="translate(-10.608 -4.834)" fill="#fff"/>
    <path id="Path_5" data-name="Path 5" d="M14.259,14.49a6.728,6.728,0,0,0,.8-.064c-.009-.067-.017-.132-.025-.2a6.334,6.334,0,0,1-.87.063h-.1v.1a6.519,6.519,0,0,1-.049.757l.218-.129c.024-.227.03-.418.033-.53" transform="translate(-6.533 -6.635)" fill="#fff"/>
    <path id="Path_6" data-name="Path 6" d="M20.472,33q-.222-.516-.415-1.039A1.094,1.094,0,0,0,20.472,33" transform="translate(-9.348 -14.907)" fill="#fff"/>
    <path id="Path_7" data-name="Path 7" d="M23.06,40.535a1.356,1.356,0,0,0,.661-.288c-.071-.112-.137-.222-.205-.334a1.857,1.857,0,0,1-.367.21,2,2,0,0,1,.24-.414c-.072-.119-.15-.235-.222-.355a1.722,1.722,0,0,0-.43.856.306.306,0,0,0,.29.323h.034Z" transform="translate(-10.604 -18.355)" fill="#fff"/>
    <path id="Path_8" data-name="Path 8" d="M21.295,39.729v.09h.09c.04,0,.389.022.874.022a13.524,13.524,0,0,0,1.484-.077c-.047-.061-.092-.126-.138-.188a16.13,16.13,0,0,1-2.118.045,12.007,12.007,0,0,1,.233-3.171c-.043-.087-.086-.173-.128-.26a11.41,11.41,0,0,0-.3,3.538" transform="translate(-9.92 -16.879)" fill="#fff"/>
    <path id="Path_9" data-name="Path 9" d="M21.5,31.609a23.754,23.754,0,0,1-4.694,1.541,20.555,20.555,0,0,0,3.712-2.145,31.128,31.128,0,0,1-5.272-4.268C11.053,22.472,9.335,15.8,8.633,10.824,6.876,11.38,5.624,11.9,5.624,11.9a25.97,25.97,0,0,1,2.911-1.8,47.958,47.958,0,0,1-.384-5.412A17.221,17.221,0,0,0,26.281,33.976a33.365,33.365,0,0,1-4.78-2.367" transform="translate(0 -2.188)" fill="#fff"/>
    <path id="Path_10" data-name="Path 10" d="M27.031,0A17.175,17.175,0,0,0,21.6.879a45.222,45.222,0,0,0-.287,5.726c3-1.161,6.662-1.82,9.624-.067,4.715,2.79-1.177,9.515-1.177,9.515s5.885-1,8.041,2.383c1.734,2.727.367,7.656-5.774,10.705a25.5,25.5,0,0,0,4.3,2.573A17.222,17.222,0,0,0,27.027,0Z" transform="translate(-9.939 0)" fill="#fff"/>
    <path id="Path_11" data-name="Path 11" d="M28.971,15.051c-1.368-1.634-4.619-1.4-7.574-.729.531,10.615,5.306,16.913,9.68,20.489,3.1-2.456,5.064-5.661,3.4-8.379C33.022,24.063,28.56,23.7,24.9,25.1c3.495-2.7,6.613-7,4.067-10.047" transform="translate(-9.979 -6.442)" fill="#fff"/>
    <path id="Path_12" data-name="Path 12" d="M80.8,63.878l-1.979-3.43c.789-.334,19.66-8.071,49.365-5.013l-.555,3.794C99.263,56.306,80.981,63.8,80.8,63.878" transform="translate(-36.761 -25.522)" fill="#faa62e"/>
    <path id="Path_13" data-name="Path 13" d="M85.253,24.943l-.264,3.791a23.114,23.114,0,0,1-7.263,1.7c-7.694,0-10.77-5.228-10.77-10.083.009-6.118,4.8-10.483,11.577-10.483a26.072,26.072,0,0,1,5.569.719h.631v4.595l-1.147.144c-.833-3.245-2.554-4.251-5.885-4.251-4.679,0-7.264,4.079-7.264,8.676,0,5.715,3.014,9.45,7.556,9.45,3.3,0,4.736-1.609,6.057-4.739Z" transform="translate(-31.228 -4.6)" fill="#fff"/>
    <path id="Path_14" data-name="Path 14" d="M111.261,32.956V28.675l-2.469.8a2.521,2.521,0,0,0-1.951,2.184,2.258,2.258,0,0,0,2.182,2.269,5.716,5.716,0,0,0,2.239-.976m2.494,2.872a2.528,2.528,0,0,1-2.412-1.752c-1,.777-2.354,1.752-3.416,1.752-2.267,0-4.163-1.522-4.163-3.475a4.05,4.05,0,0,1,2.929-3.419l4.568-1.408v-.919c0-2.069-.459-3.535-2.009-3.535-1.981,0-3.617,2.96-3.617,2.96l-1.407-2.039a8.3,8.3,0,0,1,5.713-2.154c2.842,0,4.048,1.953,4.048,4.51v5.66c0,1.32.43,1.895.862,1.895.286,0,.43-.057.918-.374l.344.889Z" transform="translate(-48.394 -10.185)" fill="#fff"/>
    <path id="Path_15" data-name="Path 15" d="M133.669,23.8a5.015,5.015,0,0,1,3.5-2.011,3.656,3.656,0,0,1,2.183,1.034L138.32,24.8a6.465,6.465,0,0,0-2.183-.918,3.206,3.206,0,0,0-2.468,1.9v6.433c0,1.954.489,2.125,3.442,2.327v.89h-8.494v-.862c1.865-.2,2.267-.374,2.267-2.355V25.461c0-1.924-.172-2.1-2.095-2.212v-.827l4.88-.632Z" transform="translate(-59.985 -10.16)" fill="#fff"/>
    <path id="Path_16" data-name="Path 16" d="M152.227,26.892h5.312c.515-.056.515-.2.515-.688,0-1.753-.918-3.16-2.665-3.16-1.324,0-2.818,1.323-3.162,3.848m8.814,5.949a7.477,7.477,0,0,1-5.484,2.988,6.187,6.187,0,0,1-6.229-6.463c0-4.28,3.359-7.527,6.773-7.527a5.054,5.054,0,0,1,4.966,5c0,.631-.057,1.234-.888,1.321h-8.066c.029,4.021,2.411,5.544,4.449,5.544a5.911,5.911,0,0,0,3.846-1.667Z" transform="translate(-69.644 -10.185)" fill="#fff"/>
    <path id="Path_17" data-name="Path 17" d="M31.64,8.461c-.261,0-.4.456-.445.953h.2c.042-.491.177-.747.241-.747s.2.26.242.761l.2.013c-.033-.51-.173-.978-.44-.98" transform="translate(-14.549 -3.946)" fill="#fff"/>
    <path id="Path_18" data-name="Path 18" d="M34.347,9.973a1.093,1.093,0,0,0-.539.222c.1.012.191.032.284.047a.675.675,0,0,1,.255-.081.094.094,0,0,1,.066.018.145.145,0,0,1,.006.117c.06.012.118.03.179.043a.305.305,0,0,0-.052-.29.261.261,0,0,0-.2-.077" transform="translate(-15.767 -4.651)" fill="#fff"/>
    <path id="Path_19" data-name="Path 19" d="M28.813,10.048a.27.27,0,0,0-.062.163l.194-.026v-.01a.1.1,0,0,1,.066-.018.438.438,0,0,1,.074.014c.128-.013.257-.023.387-.031a.993.993,0,0,0-.461-.169.264.264,0,0,0-.2.076" transform="translate(-13.409 -4.651)" fill="#fff"/>
    <path id="Path_20" data-name="Path 20" d="M48.776,48.149a6.432,6.432,0,0,0-.059.757,6.367,6.367,0,0,0-.72.054c-.086.082-.174.164-.267.245a6.545,6.545,0,0,1,1.084-.1h.1V49a6.126,6.126,0,0,1,.115-1.168c-.083.107-.169.21-.258.313" transform="translate(-22.261 -22.31)" fill="#fff"/>
    <path id="Path_21" data-name="Path 21" d="M31.232,7.994a5.036,5.036,0,0,1-1.4-1.008l-.072-.073-.073.073a4.982,4.982,0,0,1-1.4,1.008,2.712,2.712,0,0,0-1.116.924l.292-.052a2.445,2.445,0,0,1,.9-.685,4.909,4.909,0,0,0,1.4-.984,4.933,4.933,0,0,0,1.4.984,2.528,2.528,0,0,1,1.087.942c.094.032.19.06.285.095a2.709,2.709,0,0,0-1.3-1.224" transform="translate(-12.668 -3.224)" fill="#fff"/>
    <path id="Path_22" data-name="Path 22" d="M23.8,35.14a1.121,1.121,0,0,0,.166-.539,1.107,1.107,0,0,0,.5.264c-.22.1-.442.191-.667.277ZM13.25,34.884c-.118-.094-.129-.555-.065-.91l.2-1.112-.64.926c-.205.3-.537.62-.689.6-.038,0-.086-.069-.127-.172-.057-.147-.119-.3-.181-.444a2.82,2.82,0,0,1-.356-2.012,3.8,3.8,0,0,0,1.578-.4c.062-.031.12-.067.176-.1a2.472,2.472,0,0,0,.152.435c.021.051.042.1.061.153a1.791,1.791,0,0,1,.112.59v.233l.159-.163a1.9,1.9,0,0,1,.5-.334l.152-.064a2.463,2.463,0,0,0,.413-.2c.015.067.031.133.052.2a3.8,3.8,0,0,0,.83,1.4c-.231.567-.935.858-1.676,1.161-.148.061-.3.124-.443.188-.1.046-.178.058-.21.034Zm-1.078-.019a1.116,1.116,0,0,0,.5-.262,1.117,1.117,0,0,0,.167.537c-.224-.086-.446-.177-.664-.274ZM4.7,27.7a.884.884,0,0,0,.195.1c.144.057.289.117.435.177a4.759,4.759,0,0,0,1.735.485,1.709,1.709,0,0,0,.473-.066,2.505,2.505,0,0,0,.123.61A6.317,6.317,0,0,1,7.8,31.214l-.034.3.3-.033a6.292,6.292,0,0,1,2.207.147,2.559,2.559,0,0,0,.61.122,3.491,3.491,0,0,0,.417,2.208c.06.145.121.292.177.438a1.057,1.057,0,0,0,.1.194A15.253,15.253,0,0,1,4.7,27.7Zm-.276-.591q-.146-.333-.276-.666a1.123,1.123,0,0,0,.544.17,1.126,1.126,0,0,0-.267.5M3.927,25.83a15.188,15.188,0,0,1,0-9.748.976.976,0,0,0,.064.211c.062.141.123.287.183.433a3.5,3.5,0,0,0,1.266,1.858A2.457,2.457,0,0,0,5.1,19.1a6.294,6.294,0,0,1-1.458,1.666l-.236.189.236.189A6.265,6.265,0,0,1,5.1,22.815a2.51,2.51,0,0,0,.343.517A3.492,3.492,0,0,0,4.172,25.19c-.059.146-.121.29-.184.432a1.025,1.025,0,0,0-.064.213Zm.5-11.024a1.094,1.094,0,0,0,.262.5,1.128,1.128,0,0,0-.54.168c.086-.221.178-.442.275-.662Zm.888,1.017,1.111.2L5.5,15.386c-.3-.206-.617-.539-.6-.69,0-.041.069-.088.172-.127.148-.058.3-.12.444-.182a2.8,2.8,0,0,1,2.009-.356,3.817,3.817,0,0,0,.4,1.577c.033.062.068.121.1.178a2.564,2.564,0,0,0-.437.151L7.441,16a1.728,1.728,0,0,1-.59.112H6.621l.163.161a1.785,1.785,0,0,1,.334.5c.022.049.043.1.065.151a2.359,2.359,0,0,0,.2.415c-.066.014-.131.031-.2.051a3.8,3.8,0,0,0-1.4.836c-.575-.239-.864-.938-1.17-1.678-.061-.149-.123-.3-.187-.444-.045-.1-.056-.18-.032-.211a1.427,1.427,0,0,1,.91-.06Zm3.433.65q-.2.43-.368.882A1.888,1.888,0,0,0,7.6,17.3a1.824,1.824,0,0,1-.234-.445c-.022-.053-.044-.1-.066-.156a1.94,1.94,0,0,0-.248-.41,2.006,2.006,0,0,0,.465-.112l.154-.062a1.727,1.727,0,0,1,.485-.152,1.92,1.92,0,0,0,.59.514Zm-.368,8.083q.164.454.368.888a1.912,1.912,0,0,0-.595.518,1.847,1.847,0,0,1-.486-.152c-.051-.022-.1-.043-.154-.063a2.019,2.019,0,0,0-.465-.111,1.966,1.966,0,0,0,.249-.411c.022-.05.044-.1.065-.152a1.751,1.751,0,0,1,.236-.453,2.38,2.38,0,0,0,.268.019,1.788,1.788,0,0,0,.513-.078ZM7.341,18.08a2.615,2.615,0,0,0-1.474,1.4,5.048,5.048,0,0,1-1.006,1.405l-.073.072.073.072a5.053,5.053,0,0,1,1.006,1.405,2.617,2.617,0,0,0,1.476,1.4,1.21,1.21,0,0,0,.343.054.959.959,0,0,0,.444-.112c.03.112.059.216.092.322a1.549,1.549,0,0,1-.888-.037,3.349,3.349,0,0,1-1.8-1.461,6,6,0,0,0-1.37-1.645,6,6,0,0,0,1.37-1.646,3.339,3.339,0,0,1,1.8-1.459,1.549,1.549,0,0,1,.888-.036c-.034.11-.062.212-.092.321a1.042,1.042,0,0,0-.789-.047Zm.211,1.649A1.5,1.5,0,0,0,6.68,19.2a.244.244,0,0,0-.26.227.289.289,0,0,0,0,.03,1.53,1.53,0,0,0,.489.888,1.352,1.352,0,0,0,.192.166c-.083,0-.168-.009-.25-.009-.6,0-1.235.142-1.235.453a.252.252,0,0,0,.081.177,1.865,1.865,0,0,0,1.155.278,2.134,2.134,0,0,0,.25-.01,1.436,1.436,0,0,0-.192.168,1.541,1.541,0,0,0-.489.888.264.264,0,0,0,.075.191.257.257,0,0,0,.185.068,1.509,1.509,0,0,0,.873-.527,1.486,1.486,0,0,0,.234-.327,10.258,10.258,0,0,0,.289,1.721.831.831,0,0,1-.676.062,2.447,2.447,0,0,1-1.347-1.282,4.885,4.885,0,0,0-.981-1.4,4.969,4.969,0,0,0,.982-1.407A2.415,2.415,0,0,1,7.4,18.278a.834.834,0,0,1,.677.06,10.392,10.392,0,0,0-.289,1.721,1.469,1.469,0,0,0-.234-.326Zm.2.888a1.544,1.544,0,0,1-.712-.4,1.338,1.338,0,0,1-.436-.753.081.081,0,0,1,.019-.061.074.074,0,0,1,.055-.015,1.341,1.341,0,0,1,.738.47,1.5,1.5,0,0,1,.334.63c0,.043,0,.086,0,.128m0,.688v.126a1.49,1.49,0,0,1-.333.63,1.345,1.345,0,0,1-.739.47.088.088,0,0,1-.057-.016.1.1,0,0,1-.018-.06,1.384,1.384,0,0,1,.437-.754,1.551,1.551,0,0,1,.71-.4m0-.237a2.34,2.34,0,0,1-.9.152A1.721,1.721,0,0,1,5.837,21a.062.062,0,0,1-.022-.034c0-.073.363-.253,1.035-.253a2.334,2.334,0,0,1,.9.146v.106c0,.036,0,.069,0,.1ZM5.311,26.094c-.353.067-.818.053-.91-.062-.024-.031-.013-.112.03-.211.065-.145.126-.294.188-.445.305-.741.595-1.444,1.17-1.678a3.806,3.806,0,0,0,1.4.832c.066.02.132.036.2.05a2.522,2.522,0,0,0-.2.419l-.064.148a1.782,1.782,0,0,1-.332.5l-.162.161h.228a1.807,1.807,0,0,1,.589.111c.051.019.1.04.15.061a2.668,2.668,0,0,0,.436.15,1.948,1.948,0,0,0-.1.176,3.8,3.8,0,0,0-.407,1.583,2.817,2.817,0,0,1-2.012-.358c-.149-.062-.3-.125-.445-.181-.1-.041-.168-.089-.172-.128-.018-.15.3-.485.6-.691l.929-.642Zm3.811.078a1.042,1.042,0,0,0-.6.521,2.615,2.615,0,0,0-.055,2.032,5.058,5.058,0,0,1,.282,1.705v.1h.1a5.069,5.069,0,0,1,1.706.282,2.523,2.523,0,0,0,.97.179,2.273,2.273,0,0,0,1.06-.234,1.045,1.045,0,0,0,.519-.6c.1.056.194.112.295.163a1.56,1.56,0,0,1-.658.606,3.34,3.34,0,0,1-2.305.244,6.023,6.023,0,0,0-2.131-.2,5.975,5.975,0,0,0-.2-2.132,3.339,3.339,0,0,1,.243-2.307,1.543,1.543,0,0,1,.606-.658c.055.1.106.2.16.292m1.117,1.6a1.49,1.49,0,0,0-.405-.068h-.06c-.484,0-1.006.133-1.013.423a.266.266,0,0,0,.082.189,1.527,1.527,0,0,0,.971.28h.03a1.714,1.714,0,0,0,.222-.018c-.061.052-.123.11-.184.17-.419.421-.777.974-.555,1.2a.247.247,0,0,0,.181.067,1.863,1.863,0,0,0,1.013-.621c.061-.06.116-.122.169-.183a1.491,1.491,0,0,0-.018.254c.012.523.176,1.053.465,1.053.1,0,.232-.065.333-.353a2.132,2.132,0,0,0,.1-.723,1.483,1.483,0,0,0-.069-.407,10.525,10.525,0,0,0,1.425,1.017.827.827,0,0,1-.438.526,2.42,2.42,0,0,1-1.853.049,4.881,4.881,0,0,0-1.688-.3,4.783,4.783,0,0,0-.3-1.688A2.429,2.429,0,0,1,8.7,26.785a.826.826,0,0,1,.527-.437,10.611,10.611,0,0,0,1.013,1.427m.372.415a1.559,1.559,0,0,1-.761.222H9.824a1.364,1.364,0,0,1-.842-.222.1.1,0,0,1-.03-.055c0-.084.288-.241.827-.241h.057a1.49,1.49,0,0,1,.695.216c.026.028.052.053.077.081Zm.312.319a2.306,2.306,0,0,1-.533.744,1.743,1.743,0,0,1-.871.562.07.07,0,0,1-.039-.007c-.053-.054.069-.43.555-.912a2.326,2.326,0,0,1,.744-.534Zm.252.24a1.5,1.5,0,0,1,.214.7,2.014,2.014,0,0,1-.083.658c-.052.156-.118.222-.158.222-.088,0-.266-.307-.279-.871a1.575,1.575,0,0,1,.222-.789,1.03,1.03,0,0,0,.08.08Zm2.665,1.79c.288.134.582.259.882.368a1.863,1.863,0,0,0-.054.784,1.824,1.824,0,0,1-.445.234l-.156.066a1.958,1.958,0,0,0-.41.25,1.968,1.968,0,0,0-.111-.466l-.065-.157a1.782,1.782,0,0,1-.152-.483,1.882,1.882,0,0,0,.5-.6Zm4.138.992a1.555,1.555,0,0,1-.395.712,1.4,1.4,0,0,1-.75.438.088.088,0,0,1-.065-.019c-.06-.064.044-.4.454-.795a1.479,1.479,0,0,1,.633-.339c.035,0,.076,0,.117,0Zm.234.005h.222a2.3,2.3,0,0,1,.144.9c0,.681-.176,1.034-.252,1.035s-.252-.354-.252-1.035a2.344,2.344,0,0,1,.132-.9Zm.577-.009a1.465,1.465,0,0,1,.63.339c.411.392.515.732.454.795a.089.089,0,0,1-.064.019,1.389,1.389,0,0,1-.749-.438,1.557,1.557,0,0,1-.4-.712c.036,0,.078,0,.124,0M25.208,34.5c-.053.026-.1.059-.157.086a1.209,1.209,0,0,0,.068-.13c-.142-.071-.284-.141-.431-.223-.036.086-.079.145-.111.148-.142.012-.453-.272-.666-.556-.181-.1-.364-.2-.55-.3l.082.444c.066.354.053.819-.063.911-.03.025-.11.012-.211-.031-.144-.063-.293-.125-.444-.188a3.727,3.727,0,0,1-1.511-.9c-.157.058-.312.112-.473.171a3.709,3.709,0,0,0,1.8,1.179c.146.061.291.12.432.183a1.009,1.009,0,0,0,.2.066,15.169,15.169,0,0,1-9.729,0,1.023,1.023,0,0,0,.207-.066c.14-.063.286-.122.432-.184a3.5,3.5,0,0,0,1.856-1.265,2.543,2.543,0,0,0,.518.346,6.282,6.282,0,0,1,1.666,1.457l.188.236.189-.236a6.27,6.27,0,0,1,1.666-1.458,2.043,2.043,0,0,0,.259-.149c-.467.152-.958.291-1.465.423a8.833,8.833,0,0,0-.646.657,5.96,5.96,0,0,0-1.645-1.37,3.33,3.33,0,0,1-1.458-1.8,1.569,1.569,0,0,1-.038-.89c.112.033.216.062.324.091a1.048,1.048,0,0,0-.058.789,2.627,2.627,0,0,0,1.4,1.476,4.993,4.993,0,0,1,1.4,1.008l.072.073.073-.073a4.967,4.967,0,0,1,1.4-1.008,2.693,2.693,0,0,0,1.328-1.284l-.17-.118a2.487,2.487,0,0,1-1.228,1.223,4.849,4.849,0,0,0-1.4.983,4.931,4.931,0,0,0-1.4-.983,2.419,2.419,0,0,1-1.277-1.347.827.827,0,0,1,.06-.677,10.4,10.4,0,0,0,1.722.289,1.52,1.52,0,0,0-.328.235c-.382.366-.665.845-.461,1.057a.259.259,0,0,0,.2.077,1.554,1.554,0,0,0,.877-.489,1.429,1.429,0,0,0,.166-.192c-.006.084-.009.168-.009.25,0,.595.14,1.236.451,1.237s.453-.641.453-1.237c0-.082,0-.168-.008-.25a1.81,1.81,0,0,0,1.043.681.26.26,0,0,0,.2-.075c.2-.213-.077-.692-.459-1.058a1.421,1.421,0,0,0-.328-.234c.29-.025.575-.061.859-.112q-.288-.212-.576-.434a10.311,10.311,0,0,1-1.182.072A10.061,10.061,0,0,1,10.287,14.9c-.043-.223-.088-.445-.126-.654a10.486,10.486,0,0,0-.934,1.321.832.832,0,0,1-.526-.437,2.429,2.429,0,0,1-.047-1.856,2.953,2.953,0,0,0,.174-.567l-.221.076a2.862,2.862,0,0,1-.137.411,2.63,2.63,0,0,0,.055,2.033,1.044,1.044,0,0,0,.6.519c-.055.1-.112.2-.162.295a1.565,1.565,0,0,1-.61-.659A3.345,3.345,0,0,1,8.11,13.08c.014-.041.026-.087.038-.13q-.312.11-.555.207a2.89,2.89,0,0,0-.058.371,3.479,3.479,0,0,0-2.2.416c-.147.061-.293.121-.445.178a1.072,1.072,0,0,0-.194.1A15.264,15.264,0,0,1,9.468,8.6C9.455,8.4,9.442,8.2,9.433,8.01A15.708,15.708,0,0,0,25.785,34.781c-.187-.088-.378-.179-.577-.277" transform="translate(-1.224 -3.736)" fill="#fff"/>
    <path id="Path_23" data-name="Path 23" d="M36.877,53.445a3.649,3.649,0,0,1-.86,1.158c.42-.259.833-.529,1.228-.816.013-.024.027-.048.039-.072-.135-.084-.271-.179-.407-.27" transform="translate(-16.798 -24.926)" fill="#fff"/>
    <path id="Path_24" data-name="Path 24" d="M53.415,41.093h.221l-.162-.16a1.5,1.5,0,0,1-.123-.143c-.014.1-.032.2-.052.307.071,0,.115,0,.115,0" transform="translate(-24.858 -19.024)" fill="#fff"/>
    <path id="Path_25" data-name="Path 25" d="M27.063,3.353a15.186,15.186,0,0,1,4.873.8,1.078,1.078,0,0,0-.213.067c-.141.062-.288.122-.433.182a3.509,3.509,0,0,0-1.857,1.265,2.441,2.441,0,0,0-.517-.344A6.222,6.222,0,0,1,27.25,3.867l-.19-.236-.189.236A6.244,6.244,0,0,1,25.2,5.327a2.475,2.475,0,0,0-.518.344,3.5,3.5,0,0,0-1.853-1.265c-.147-.059-.293-.121-.435-.183a1.106,1.106,0,0,0-.214-.067,15.183,15.183,0,0,1,4.878-.8M32.13,4.635a1.419,1.419,0,0,1,.064.911l-.2,1.11.641-.927c.205-.3.536-.618.689-.6.041.005.087.069.127.172.057.148.12.3.182.445a2.821,2.821,0,0,1,.357,2.012,3.786,3.786,0,0,0-1.58.4c-.061.033-.119.067-.176.1a2.535,2.535,0,0,0-.152-.435c-.021-.051-.042-.1-.061-.15a1.791,1.791,0,0,1-.11-.591V6.859l-.16.163a1.793,1.793,0,0,1-.5.334l-.147.062a2.539,2.539,0,0,0-.418.2c-.015-.066-.031-.131-.051-.2a3.828,3.828,0,0,0-.831-1.4c.239-.574.936-.863,1.676-1.169.15-.061.3-.123.443-.188.1-.041.177-.053.208-.028m1.084.02a1.1,1.1,0,0,0-.5.263,1.106,1.106,0,0,0-.169-.545c.226.091.449.184.672.282m7.47,7.162a1.025,1.025,0,0,0-.2-.1c-.143-.057-.29-.117-.435-.178a3.5,3.5,0,0,0-2.207-.418,2.549,2.549,0,0,0-.122-.611A6.282,6.282,0,0,1,37.577,8.3L37.61,8l-.3.038A6.331,6.331,0,0,1,35.1,7.893a2.452,2.452,0,0,0-.609-.122,3.49,3.49,0,0,0-.419-2.208c-.06-.145-.121-.291-.177-.437a.96.96,0,0,0-.1-.2,15.245,15.245,0,0,1,6.886,6.885m.275.591q.146.335.277.667a1.119,1.119,0,0,0-.539-.168,1.11,1.11,0,0,0,.262-.5Zm.5,1.277a15.217,15.217,0,0,1,0,9.748,1.028,1.028,0,0,0-.067-.212c-.062-.142-.122-.288-.183-.433a3.5,3.5,0,0,0-1.264-1.858,2.438,2.438,0,0,0,.346-.517,6.234,6.234,0,0,1,1.457-1.667l.236-.188-.237-.186a6.211,6.211,0,0,1-1.456-1.666,2.408,2.408,0,0,0-.346-.517,3.513,3.513,0,0,0,1.266-1.858c.059-.146.12-.291.181-.433a1.036,1.036,0,0,0,.067-.215Zm-.5,11.025a1.114,1.114,0,0,0-.262-.5,1.118,1.118,0,0,0,.539-.167c-.089.225-.181.446-.277.663ZM39.59,15.82a3.79,3.79,0,0,0-1.4-.831,1.829,1.829,0,0,0-.2-.051,2.522,2.522,0,0,0,.2-.414c.022-.051.043-.1.065-.153a1.806,1.806,0,0,1,.334-.5l.163-.161h-.23a1.79,1.79,0,0,1-.589-.112l-.157-.061a2.489,2.489,0,0,0-.432-.149,1.964,1.964,0,0,0,.1-.178,3.8,3.8,0,0,0,.4-1.578,2.809,2.809,0,0,1,2.011.358c.148.062.3.124.443.182.1.04.167.087.171.127.018.15-.3.484-.6.689l-.924.64,1.11-.2c.354-.065.815-.054.909.065.026.031.012.111-.031.211-.065.146-.127.294-.188.444-.3.737-.593,1.435-1.168,1.67ZM37,14.957c-.11-.3-.234-.595-.369-.883a1.9,1.9,0,0,0,.595-.516,1.789,1.789,0,0,1,.481.15l.16.065a1.878,1.878,0,0,0,.465.11,1.941,1.941,0,0,0-.249.411c-.022.051-.043.1-.066.156a1.754,1.754,0,0,1-.234.445,1.867,1.867,0,0,0-.783.06Zm.623,3.944a1.549,1.549,0,0,1,.713.4,1.336,1.336,0,0,1,.436.755.063.063,0,0,1-.049.075.052.052,0,0,1-.026,0,1.35,1.35,0,0,1-.739-.469,1.524,1.524,0,0,1-.339-.634c0-.042,0-.083,0-.124Zm.334-1.444a1.348,1.348,0,0,1,.738-.471.094.094,0,0,1,.058.017.106.106,0,0,1,.018.06,1.393,1.393,0,0,1-.438.754,1.548,1.548,0,0,1-.712.395V18.09a1.508,1.508,0,0,1,.338-.633Zm.57.847a1.726,1.726,0,0,1,1.012.222.065.065,0,0,1,.021.033.077.077,0,0,1-.021.035,1.721,1.721,0,0,1-1.009.222h0a2.3,2.3,0,0,1-.894-.146v-.222a2.327,2.327,0,0,1,.894-.145m-3.76-6.972a1.56,1.56,0,0,1,.763-.231h.025a1.363,1.363,0,0,1,.84.222.091.091,0,0,1,.03.057c0,.084-.288.241-.83.241h-.053a1.5,1.5,0,0,1-.7-.216c-.023-.025-.049-.051-.074-.077Zm-.312-.32a2.326,2.326,0,0,1,.534-.745,1.739,1.739,0,0,1,.874-.563.038.038,0,0,1,.048.024.037.037,0,0,1,0,.024,1.748,1.748,0,0,1-.562.871,2.294,2.294,0,0,1-.744.533c-.049-.051-.1-.1-.148-.148Zm-.252-.241a1.5,1.5,0,0,1-.215-.7,1.366,1.366,0,0,1,.187-.853.092.092,0,0,1,.054-.031c.089,0,.267.308.28.872a1.549,1.549,0,0,1-.228.788ZM21.435,4.439c.05-.02.1-.043.15-.062a1.107,1.107,0,0,0-.169.54H21.41c-.012.222-.02.444-.028.666a1.633,1.633,0,0,1,.111.152l.641.926-.2-1.11c-.065-.356-.055-.817.064-.912.032-.024.111-.013.211.031.147.066.3.127.445.189.738.305,1.434.6,1.672,1.169a3.941,3.941,0,0,0-.753,1.2c.2-.05.394-.1.593-.137a3.277,3.277,0,0,1,1.252-1.322A5.85,5.85,0,0,0,27.058,4.4,5.989,5.989,0,0,0,28.7,5.769a3.344,3.344,0,0,1,1.412,1.682,7.552,7.552,0,0,1,.679.334,2.284,2.284,0,0,1,.375-.189l.152-.065a1.886,1.886,0,0,0,.41-.249,1.99,1.99,0,0,0,.112.466c.02.051.042.1.063.156a1.781,1.781,0,0,1,.152.484,2,2,0,0,0-.19.184,3.394,3.394,0,0,1,.308.368,1.758,1.758,0,0,1,.458-.345,3.339,3.339,0,0,1,2.307-.243,6.037,6.037,0,0,0,2.13.194,6.015,6.015,0,0,0,.2,2.133,3.344,3.344,0,0,1-.243,2.308,1.573,1.573,0,0,1-.607.657c-.052-.1-.105-.2-.161-.294a1.041,1.041,0,0,0,.6-.52A2.612,2.612,0,0,0,36.91,10.8a5.064,5.064,0,0,1-.282-1.707v-.1h-.1a5.057,5.057,0,0,1-1.7-.282,2.625,2.625,0,0,0-2.033.056,1.084,1.084,0,0,0-.444.438c.043.074.088.148.125.222a.833.833,0,0,1,.42-.483,2.432,2.432,0,0,1,1.855-.049,4.92,4.92,0,0,0,1.688.3,4.791,4.791,0,0,0,.3,1.688,2.426,2.426,0,0,1-.047,1.857.827.827,0,0,1-.526.436,10.438,10.438,0,0,0-1.016-1.425,1.5,1.5,0,0,0,.4.068H35.6c.485,0,1.009-.133,1.014-.424a.261.261,0,0,0-.08-.188,1.528,1.528,0,0,0-.972-.282h-.034a1.466,1.466,0,0,0-.222.019c.06-.053.122-.112.184-.17a1.88,1.88,0,0,0,.62-1.013.235.235,0,0,0-.219-.249h-.03a1.862,1.862,0,0,0-1.012.621c-.059.058-.117.119-.171.183a1.4,1.4,0,0,0,.019-.254C34.689,9.53,34.526,9,34.23,9a.263.263,0,0,0-.184.089,1.519,1.519,0,0,0-.237.984,1.482,1.482,0,0,0,.067.4A10.674,10.674,0,0,0,32.5,9.491a3.291,3.291,0,0,1,.236.756,10.065,10.065,0,0,1,4.391,8.31c0,.116,0,.232-.009.348a4.361,4.361,0,0,1,.723.863l.033.054a1.451,1.451,0,0,0,.831.49.253.253,0,0,0,.184-.068.26.26,0,0,0,.076-.189,1.538,1.538,0,0,0-.488-.89A1.429,1.429,0,0,0,38.279,19c.084.007.168.009.251.009a1.862,1.862,0,0,0,1.15-.278A.232.232,0,0,0,39.7,18.4a.218.218,0,0,0-.021-.023,1.863,1.863,0,0,0-1.155-.277,2.467,2.467,0,0,0-.251.009,1.365,1.365,0,0,0,.193-.166,1.526,1.526,0,0,0,.488-.888.245.245,0,0,0-.233-.258h-.028a1.5,1.5,0,0,0-.871.527,1.47,1.47,0,0,0-.234.328,10.515,10.515,0,0,0-.289-1.723.831.831,0,0,1,.676-.06,2.431,2.431,0,0,1,1.346,1.279,4.886,4.886,0,0,0,.982,1.4,4.913,4.913,0,0,0-.982,1.4,2.542,2.542,0,0,1-.947,1.09c.018.068.034.136.048.2a2.735,2.735,0,0,0,1.085-1.223,5.05,5.05,0,0,1,1.006-1.405l.074-.073-.074-.071a5.054,5.054,0,0,1-1.007-1.405,2.612,2.612,0,0,0-1.474-1.4,1.048,1.048,0,0,0-.789.054c-.029-.111-.057-.216-.09-.321a1.549,1.549,0,0,1,.888.036,3.351,3.351,0,0,1,1.8,1.459,5.831,5.831,0,0,0,1.369,1.646A5.983,5.983,0,0,0,39.846,20.2a3.29,3.29,0,0,1-1.38,1.282c.026.17.043.342.051.513a4.03,4.03,0,0,0,1.069-.7c.574.237.862.935,1.168,1.674.062.15.124.3.189.444.043.1.056.18.03.213-.094.117-.555.128-.91.064l-1.11-.2.931.641c.3.2.615.542.6.688-.005.041-.069.089-.172.129-.147.057-.3.12-.443.181a2.815,2.815,0,0,1-2.011.358,2.7,2.7,0,0,0-.029-.327,8.824,8.824,0,0,1-.469.843,2.007,2.007,0,0,1-.091.444,6.05,6.05,0,0,0-.2,2.132,5.958,5.958,0,0,0-2.13.2,1.494,1.494,0,0,1-.221.06c-.232.18-.478.358-.734.529a2.817,2.817,0,0,1-.358,2.014l-.053.134c.14.089.28.178.416.261.028-.07.055-.139.084-.209a3.5,3.5,0,0,0,.418-2.212,2.454,2.454,0,0,0,.61-.122,6.289,6.289,0,0,1,2.207-.146l.3.034-.033-.3a6.3,6.3,0,0,1,.145-2.207,2.5,2.5,0,0,0,.123-.61,1.7,1.7,0,0,0,.473.065,4.764,4.764,0,0,0,1.733-.483c.145-.061.292-.121.435-.176a.937.937,0,0,0,.2-.1,15.237,15.237,0,0,1-6.419,6.631c.178.106.352.207.522.3A15.708,15.708,0,0,0,21.48,3.874c-.014.187-.034.379-.045.565" transform="translate(-9.972 -1.331)" fill="#fff"/>
    <path id="Path_26" data-name="Path 26" d="M37.313,48a1.319,1.319,0,0,1,.045.339q.39.349.777.666l.059.026c.056-.043.111-.09.162-.134-.027-.009-.053-.022-.079-.033a1.756,1.756,0,0,1-.444-.235,1.887,1.887,0,0,0-.055-.783c.3-.11.595-.233.883-.368a1.891,1.891,0,0,0,.517.6,1.118,1.118,0,0,1-.036.152c.16-.147.313-.3.463-.444a1.463,1.463,0,0,1-.511-.518c.1-.052.2-.11.294-.161a1,1,0,0,0,.386.512c.047-.049.09-.1.137-.15A.792.792,0,0,1,39.565,47a10.667,10.667,0,0,0,1.425-1.017,1.652,1.652,0,0,0-.051.222,7.5,7.5,0,0,0,.98-1.879,10.067,10.067,0,0,1-5.289,3.342l.436.411c.083-.033.165-.052.247-.078" transform="translate(-17.084 -20.671)" fill="#fff"/>
    <path id="Path_27" data-name="Path 27" d="M22.65,14.078c-.012.006-.026.011-.04.018a.033.033,0,0,0-.006-.01c-.17.031-.341.064-.512.1a1.233,1.233,0,0,1,.086.129c-.1.052-.2.11-.293.162a.91.91,0,0,0-.111-.222l-.211.046a.734.734,0,0,1,.142.282c-.089.054-.172.112-.26.17.013.192.022.385.037.574a10.027,10.027,0,0,1,3.531-1.5,16.979,16.979,0,0,0-2.362.259" transform="translate(-10.001 -6.445)" fill="#fff"/>
    <path id="Path_28" data-name="Path 28" d="M22.851,36.817a9.325,9.325,0,0,1-2.51-.556,2.772,2.772,0,0,0,.685-1.042,3.874,3.874,0,0,0,.2-.629,5.821,5.821,0,0,0,.966.844l.094.07c.3.222.866.717,1.11.93a1,1,0,0,0-.316.111.467.467,0,0,0-.232.272m-2.821-.7h-.01c-.027-.011-.076-.11-.058-.354a3.008,3.008,0,0,1,.234-.889,2.064,2.064,0,0,1,.687-.987.959.959,0,0,0,.12.387,3.046,3.046,0,0,1-.229.84c-.268.649-.609,1.007-.744,1.007Zm-.334-.132a9.382,9.382,0,0,1-2.166-1.384.469.469,0,0,0,.028-.355.986.986,0,0,0-.148-.292c.15.009.533.026,1.029.026a16.351,16.351,0,0,0,2.056-.118,3.228,3.228,0,0,0-.549.913,3.263,3.263,0,0,0-.253.977,1.14,1.14,0,0,0,0,.237Zm-3.079-2.276a.633.633,0,0,1,.515.232.847.847,0,0,1,.222.361.319.319,0,0,1,.008.154,9.77,9.77,0,0,1-.745-.742Zm-.146-.169a9.373,9.373,0,0,1-1.383-2.164,1.062,1.062,0,0,0,.124.006,3.074,3.074,0,0,0,1.094-.259,3.187,3.187,0,0,0,.911-.547,18.931,18.931,0,0,0-.09,3.086.653.653,0,0,0-.655-.117Zm-1.514-2.489c-.01-.026.026-.132.209-.291a3.052,3.052,0,0,1,.8-.461,3.124,3.124,0,0,1,.842-.231.9.9,0,0,0,.389.122,2.105,2.105,0,0,1-.991.688,2.8,2.8,0,0,1-.991.239c-.19,0-.249-.046-.258-.062Zm-.138-.319a9.278,9.278,0,0,1-.555-2.512.384.384,0,0,0,.177-.112.819.819,0,0,0,.2-.444c.212.244.71.817.931,1.111l.074.1a5.937,5.937,0,0,0,.839.963,4.016,4.016,0,0,0-.635.213,3.3,3.3,0,0,0-.87.511,1.175,1.175,0,0,0-.166.171m-.587-3.259c0-.178.006-.355.017-.53a.316.316,0,0,1,.111.118.841.841,0,0,1,.1.413.728.728,0,0,1-.156.5.218.218,0,0,1-.046.034c-.016-.176-.022-.353-.022-.531M24.294,37.09c-.1-.082-.2-.168-.306-.252-.131.006-.26.013-.392.013-.178,0-.355-.007-.531-.017a.333.333,0,0,1,.112-.112.864.864,0,0,1,.414-.1.985.985,0,0,1,.152.015c-.673-.569-1.342-1.182-2-1.847a16.631,16.631,0,0,1-1.221-1.4,18.365,18.365,0,0,1-2.961.112A12.283,12.283,0,0,1,18,29.23c-.081-.175-.156-.352-.232-.528a.123.123,0,0,0-.011.018,2.515,2.515,0,0,0-.279.586h-.02c-.4.117-.956-.594-1.2-.9l-.054-.067c-.191-.24-.614-.692-.777-.865.163-.174.583-.624.777-.863l.061-.077A5.54,5.54,0,0,1,16.741,26c-.023-.073-.044-.145-.067-.217a4.878,4.878,0,0,0-.555.627l-.061.075c-.23.287-.824.915-.829.921a.1.1,0,0,0,0,.144c.05.052.607.641.827.916l.054.068c.26.334.776.986,1.265.986h.043q-.05.178-.092.366a.681.681,0,0,0-.383-.089h-.111a4.8,4.8,0,0,1-.984-1.064l-.074-.1c-.24-.322-.776-.934-.972-1.16.2-.228.73-.836.969-1.155l.07-.095a6.554,6.554,0,0,1,.706-.839c-.028-.09-.057-.18-.084-.27a5.994,5.994,0,0,0-.824.957l-.069.093c-.222.3-.718.866-.931,1.11a.959.959,0,0,0-.11-.315.473.473,0,0,0-.274-.234,9.358,9.358,0,0,1,.555-2.51,1.351,1.351,0,0,0,.172.177,3.339,3.339,0,0,0,.868.51,3.712,3.712,0,0,0,.61.2c-.03-.1-.058-.2-.087-.3a3.7,3.7,0,0,1-.421-.145,3.041,3.041,0,0,1-.8-.466c-.184-.157-.222-.264-.209-.291s.069-.061.257-.061a2.763,2.763,0,0,1,.966.229c-.029-.106-.056-.211-.083-.318a2.816,2.816,0,0,0-.888-.181,1.234,1.234,0,0,0-.125.007,9.485,9.485,0,0,1,.677-1.223c-.027-.122-.055-.244-.081-.367a9.633,9.633,0,0,0,7.915,15.132c.244,0,.483-.009.7-.025" transform="translate(-6.507 -10.253)" fill="#fff"/>
    <path id="Path_29" data-name="Path 29" d="M38.821,27.442c-.13.191-.256.367-.372.527a3.888,3.888,0,0,1,.351.777c.19-.013.4-.022.624-.026a4.545,4.545,0,0,0-.6-1.279" transform="translate(-17.932 -12.799)" fill="#fff"/>
    <path id="Path_30" data-name="Path 30" d="M43.647,19.277a.323.323,0,0,1-.155-.007.927.927,0,0,1-.584-.585.345.345,0,0,1-.009-.155,9.581,9.581,0,0,1,.747.747m1.529,2.333a.987.987,0,0,0-.126-.006,3.069,3.069,0,0,0-1.092.258,3.29,3.29,0,0,0-.869.511c-.017.014-.029.026-.042.039a18.905,18.905,0,0,0,.091-3.089.988.988,0,0,0,.3.15.582.582,0,0,0,.158.022.405.405,0,0,0,.2-.049,9.378,9.378,0,0,1,1.384,2.164M44.3,22.691a3.124,3.124,0,0,1-.839.229.933.933,0,0,0-.39-.122.771.771,0,0,1,.192-.222,3.043,3.043,0,0,1,.8-.465,2.805,2.805,0,0,1,.989-.239c.188,0,.25.047.257.062.035.084-.275.454-1.006.757m-1.906-4.574c.112.088.222.175.334.267a.471.471,0,0,0-.028.355.955.955,0,0,0,.15.3c-.1,0-.3-.014-.573-.02-.031.153-.069.306-.112.458.211,0,.392.009.516.013.031.778.09,3.535-.576,4.53-.046.072-.093.137-.136.2.17.009.348.021.527.037a2.6,2.6,0,0,0,.268-.57h.021c.352-.105.84.455,1.11.79.112.024.217.052.324.082l-.027-.033-.055-.069c-.268-.34-.807-1.023-1.307-.982.034-.112.065-.239.091-.364a.685.685,0,0,0,.384.089h.11a4.677,4.677,0,0,1,.981,1.064l.074.1c.076.1.183.234.3.372.172.061.343.128.511.2-.216-.253-.462-.545-.6-.731l-.073-.1a5.847,5.847,0,0,0-.842-.962,3.919,3.919,0,0,0,.632-.2,2.771,2.771,0,0,0,1.042-.685,9.246,9.246,0,0,1,.555,2.511.542.542,0,0,0-.332.358l.186.1a.446.446,0,0,1,.174-.248c.006.112.008.232.01.348.094.06.186.123.275.189v-.007a9.633,9.633,0,0,0-3.91-7.741c0,.111,0,.223,0,.343" transform="translate(-19.574 -8.29)" fill="#fff"/>
    <path id="Path_31" data-name="Path 31" d="M41.845,21.643l-.006-.09h-.09l-.21-.01c-.022.067-.045.133-.069.2l.177.007c.022.494.1,2.878-.469,3.726a5.479,5.479,0,0,1-.36.485h.257c.084-.11.173-.228.27-.375.671-1,.507-3.821.5-3.946" transform="translate(-19.037 -10.048)" fill="#fff"/>
    <path id="Path_32" data-name="Path 32" d="M33.4,30.841a.637.637,0,0,1,.231-.514.721.721,0,0,1,.465-.238.113.113,0,0,1,.053,0,9.509,9.509,0,0,1-.745.751Zm-.169.145a9.336,9.336,0,0,1-2.163,1.386,1.431,1.431,0,0,0,0-.244,3.331,3.331,0,0,0-.255-.977,3.238,3.238,0,0,0-.549-.913,16.485,16.485,0,0,0,2.058.118c.5,0,.878-.017,1.028-.024a.658.658,0,0,0-.116.652ZM30.746,32.5h-.01c-.134,0-.478-.359-.747-1.008a3.078,3.078,0,0,1-.229-.843.9.9,0,0,0,.122-.39,2.106,2.106,0,0,1,.687.992,3.024,3.024,0,0,1,.234.889c.022.244-.028.346-.051.356ZM27.684,29.28a.407.407,0,0,1-.141.3.554.554,0,0,1-.375.139.484.484,0,0,1-.517-.445.264.264,0,0,0-.028-.11,2.88,2.88,0,0,0,.544-.583,2.829,2.829,0,0,0,.543.583.269.269,0,0,0-.023.112ZM26.65,27.822a3.948,3.948,0,0,1-1.961-.828.148.148,0,0,1,.015-.023,1.727,1.727,0,0,0,.16-.326,3.59,3.59,0,0,0,1.867.8.683.683,0,0,0-.084.328.125.125,0,0,0,0,.046Zm.406-.351h.221a.263.263,0,0,1,.057.052.394.394,0,0,1,.083.252.573.573,0,0,1,0,.074c-.082,0-.164.008-.247.008s-.164,0-.247-.008a.472.472,0,0,1-.006-.073.372.372,0,0,1,.14-.308Zm2.415-.826a1.58,1.58,0,0,0,.16.326l.015.023a3.948,3.948,0,0,1-1.961.828v-.046a.686.686,0,0,0-.08-.334,3.57,3.57,0,0,0,1.868-.8Zm.573-.012-.049.053-.051.048a1.348,1.348,0,0,1-.1-.2,1.336,1.336,0,0,1,.2.1Zm.376.478c.039-.039.075-.08.112-.122q.176.149.374.345a3.7,3.7,0,0,1,.8,1.067,3.674,3.674,0,0,1-1.064-.8c-.133-.133-.247-.258-.346-.375Zm1.38,1.5v0Zm-.159-3.689a4.408,4.408,0,0,1,.58.725c.569.848.491,3.232.469,3.727-.495.023-2.876.1-3.725-.47a4.453,4.453,0,0,1-.723-.578,4.536,4.536,0,0,0,1.765-.854c.11.132.234.265.366.4a3.006,3.006,0,0,0,1.427.936.319.319,0,0,0,.233-.089c.223-.223-.027-.625-.11-.758a5.193,5.193,0,0,0-.739-.906c-.12-.12-.256-.245-.4-.364a4.574,4.574,0,0,0,.855-1.767m-8.388-1.59h-.046a3.95,3.95,0,0,1,.829-1.963,1.686,1.686,0,0,0,.351.175,3.6,3.6,0,0,0-.8,1.869.671.671,0,0,0-.331-.081m.171-2.958a3.749,3.749,0,0,1-.8-1.067,3.675,3.675,0,0,1,1.066.8c.133.133.245.258.344.375-.039.037-.081.074-.12.111a1.581,1.581,0,0,0-.111.12c-.116-.1-.242-.21-.378-.341m.919.649.051-.048a1.363,1.363,0,0,1,.1.2,1.475,1.475,0,0,1-.2-.1Zm.239.172h0v0Zm2.071-1.309v.047a.687.687,0,0,0,.083.334,3.558,3.558,0,0,0-1.869.8,1.8,1.8,0,0,0-.173-.354,3.956,3.956,0,0,1,1.959-.824Zm-.027-1.342a.25.25,0,0,0,.028-.11.487.487,0,0,1,.517-.445.554.554,0,0,1,.393.156.406.406,0,0,1,.122.284.271.271,0,0,0,.026.111,2.868,2.868,0,0,0-.543.582,2.821,2.821,0,0,0-.544-.578m-.473-.369c-.071-.049-.144-.1-.221-.153a2.539,2.539,0,0,0-.589-.278.121.121,0,0,0,0-.02c-.112-.4.592-.955.9-1.194l.071-.058c.238-.191.693-.614.864-.777.177.164.626.583.862.777l.073.057c.3.239,1.01.8.894,1.194a.181.181,0,0,0,0,.024,2.477,2.477,0,0,0-.589.279c-.078.051-.152.1-.221.152a.959.959,0,0,0-.244-.411,1.1,1.1,0,0,0-.777-.313,1.045,1.045,0,0,0-1.018.723m-1.387-.589a.8.8,0,0,0,.084-.493,4.875,4.875,0,0,1,1.068-.988l.095-.072c.322-.24.934-.777,1.158-.973.228.2.836.73,1.156.97l.1.075a4.767,4.767,0,0,1,1.064.983,1,1,0,0,0,.046.428.388.388,0,0,0,.037.069c-.125.026-.244.057-.361.091.042-.5-.642-1.041-.983-1.309l-.07-.057c-.285-.229-.913-.824-.92-.83a.1.1,0,0,0-.122-.012.081.081,0,0,0-.027.024c-.082.077-.645.608-.91.821l-.071.055c-.338.268-1.02.807-.981,1.307-.117-.034-.239-.065-.363-.091m-.856-2.519a9.309,9.309,0,0,1,2.51-.556.417.417,0,0,0,.1.178.814.814,0,0,0,.445.2c-.244.215-.815.71-1.11.932l-.092.07a5.8,5.8,0,0,0-.969.845,3.835,3.835,0,0,0-.2-.634,2.789,2.789,0,0,0-.687-1.039m.546,2.376a2.1,2.1,0,0,1-.688-.992c-.3-.731-.26-1.211-.166-1.248.134,0,.478.359.746,1.007a3.119,3.119,0,0,1,.228.843.908.908,0,0,0-.12.389m2.718-2.965c.178,0,.354.007.529.017a.618.618,0,0,1-.531.206.727.727,0,0,1-.5-.16.331.331,0,0,1-.034-.046c.174-.01.351-.017.53-.017Zm.112,5.758h-.223a.372.372,0,0,1-.141-.3.418.418,0,0,1,.006-.073c.083,0,.163-.008.247-.008s.164,0,.247.008a.557.557,0,0,1,0,.073.367.367,0,0,1-.135.3m7.867,9.011a4.49,4.49,0,0,0,.03-.555,9.52,9.52,0,0,1-.888,1.233.423.423,0,0,0-.2-.05.818.818,0,0,0-.456.169,18.97,18.97,0,0,0-.091-3.085,3.2,3.2,0,0,0,.912.546,3.828,3.828,0,0,0,.581.191c-.029-.1-.069-.2-.106-.308-.121-.037-.245-.078-.372-.13a2.109,2.109,0,0,1-.991-.687.918.918,0,0,0,.4-.126,2.8,2.8,0,0,1,.59.145,3.154,3.154,0,0,0-.263-.362h-.014l.006-.006c-.054-.065-.118-.124-.177-.186a1.806,1.806,0,0,1-.181.139h-.112a.684.684,0,0,0-.383.089c-.028-.125-.058-.248-.092-.364h.046a.824.824,0,0,0,.42-.143c-.054-.045-.111-.087-.171-.13a.467.467,0,0,1-.339.059.079.079,0,0,0-.022,0,2.8,2.8,0,0,0-.172-.4,5.37,5.37,0,0,0-.777-.348c.091.118.189.256.3.414.667,1,.608,3.754.577,4.53-.777.033-3.531.091-4.526-.575a4.813,4.813,0,0,1-1.036-.87c.128-.012.254-.031.379-.055a4.238,4.238,0,0,0,.843.7,6.712,6.712,0,0,0,3.066.522c.485,0,.834-.021.875-.023h.089l.005-.089c.008-.12.172-2.941-.5-3.943a4.479,4.479,0,0,0-.627-.777c-.221-.058-.448-.107-.677-.147a3.96,3.96,0,0,1-.777,1.723,1.679,1.679,0,0,0-.351-.174,3.566,3.566,0,0,0,.737-1.614c-.085-.011-.173-.02-.26-.029a3.328,3.328,0,0,1-.853,1.638.3.3,0,0,0-.068.05.285.285,0,0,0-.05.069,3.335,3.335,0,0,1-2.134.918.413.413,0,0,0-.343,0,3.329,3.329,0,0,1-2.131-.923.278.278,0,0,0-.05-.069.306.306,0,0,0-.061-.045,3.333,3.333,0,0,1-.922-2.153.455.455,0,0,0,.032-.16.443.443,0,0,0-.032-.157,3.335,3.335,0,0,1,.922-2.154.365.365,0,0,0,.061-.045.359.359,0,0,0,.05-.067A3.313,3.313,0,0,1,27,20.51a.417.417,0,0,0,.34,0,3.306,3.306,0,0,1,1.61.512c.046-.078.091-.156.136-.234a3.568,3.568,0,0,0-1.478-.525.721.721,0,0,0,.083-.334v-.047a3.917,3.917,0,0,1,1.58.566c.093-.183.177-.367.255-.55a4.525,4.525,0,0,0-1.282-.527,4.641,4.641,0,0,1,.723-.577,2.771,2.771,0,0,1,.98-.333c.011-.07.02-.141.028-.211a3.071,3.071,0,0,0-1.12.379,4.272,4.272,0,0,0-.843.7c-.125-.023-.251-.042-.378-.055A4.723,4.723,0,0,1,28.67,18.4,3.564,3.564,0,0,1,30,17.967a4.173,4.173,0,0,0-.011-.594.558.558,0,0,1-.1.07.894.894,0,0,0-.121-.393,2.559,2.559,0,0,1,.077-.4,3.5,3.5,0,0,0-.148-.408,3.743,3.743,0,0,0-.15.49,5.91,5.91,0,0,0-.962-.84l-.1-.074c-.3-.222-.866-.716-1.11-.93a.639.639,0,0,0,.546-.38c.091.007.18.021.271.031a4.188,4.188,0,0,0-.86-.334h-.16a9.574,9.574,0,0,0-5.567,1.777c.009.1.018.21.028.314a9.238,9.238,0,0,1,1.626-.966,2.822,2.822,0,0,0,.252,1.222,3.229,3.229,0,0,0,.549.912,17.306,17.306,0,0,0-2.316-.112c.021.156.044.307.066.46,1.133-.011,3.06.058,3.857.591a4.878,4.878,0,0,1,1.038.869c-.13.013-.256.032-.381.055a4.224,4.224,0,0,0-.843-.7c-.817-.547-2.844-.539-3.626-.512.009.066.019.135.029.2.777-.023,2.732-.026,3.485.478a4.6,4.6,0,0,1,.723.576,4.554,4.554,0,0,0-1.765.855c-.155-.184-.3-.333-.366-.4A3,3,0,0,0,22.54,18.9a.317.317,0,0,0-.232.091c-.388.387.637,1.453.846,1.666.12.12.256.246.4.364a4.594,4.594,0,0,0-.733,1.356q.192.631.406,1.232h.029a.368.368,0,0,1,.307.143v.222a.332.332,0,0,1-.165.112c.031.084.065.168.1.253a.712.712,0,0,0,.092-.038,3.548,3.548,0,0,0,.131.6c.11.27.222.534.341.793a3.618,3.618,0,0,0,.334.477c-.03.01-.063.026-.094.038.058.118.112.234.17.349.009,0,.023-.013.033-.016l-.019.042q.375.757.777,1.463a4.535,4.535,0,0,0,.843.293,3.677,3.677,0,0,1-.443.377c.035.058.072.112.111.173a3.614,3.614,0,0,0,.564-.5c.125.024.251.042.378.055a4.02,4.02,0,0,1-.784.7c.21.326.427.642.646.95a1.109,1.109,0,0,0,1.332-.1.955.955,0,0,0,.283-.444c.069.049.142.1.222.152a2.543,2.543,0,0,0,.589.279A.068.068,0,0,0,29,30c.111.4-.595.955-.9,1.2l-.07.056c-.092.073-.216.181-.344.3.043.051.085.1.128.156.128-.112.252-.223.343-.3l.067-.053c.34-.269,1.024-.808.986-1.307.11.032.237.06.362.088a.808.808,0,0,0-.086.5,4.761,4.761,0,0,1-1.063.981l-.1.074c-.086.066-.2.153-.312.248l.171.195c.111-.091.215-.174.3-.235l.1-.072a5.881,5.881,0,0,0,.962-.839,3.948,3.948,0,0,0,.2.629,2.784,2.784,0,0,0,.686,1.043,9.253,9.253,0,0,1-1.394.392c.076.077.152.154.223.231a9.668,9.668,0,0,0,5.895-4.029" transform="translate(-10.079 -6.627)" fill="#fff"/>
    <path id="Path_33" data-name="Path 33" d="M40.972,23.708q-.178.379-.375.733c.069-.091.13-.182.183-.266a1.274,1.274,0,0,0,.192-.466" transform="translate(-18.934 -11.057)" fill="#fff"/>
    <path id="Path_34" data-name="Path 34" d="M37.818,29.062l-.178.222c.043.088.082.177.118.267l.272-.028a3.666,3.666,0,0,0-.211-.461" transform="translate(-17.555 -13.554)" fill="#fff"/>
    <path id="Path_35" data-name="Path 35" d="M37.334,29.929v-.01a.962.962,0,0,0-.059-.11l-.124.146s.066-.013.184-.026" transform="translate(-17.326 -13.903)" fill="#fff"/>
    <path id="Path_36" data-name="Path 36" d="M30.859,31.71a.68.68,0,0,1-.354.565.84.84,0,0,1-.864-.341,2.774,2.774,0,0,0,.282-.5.572.572,0,0,0,.4-.165,2.7,2.7,0,0,0,.555.154,1.546,1.546,0,0,1-.016.3Zm-1.125-.888a1.149,1.149,0,0,0,.146-.05,1.224,1.224,0,0,0,.138-.068,1.3,1.3,0,0,0,.2.06.647.647,0,0,1-.01.078.314.314,0,0,1-.337.289.308.308,0,0,1-.181-.075.642.642,0,0,1-.064-.049,1.211,1.211,0,0,0,.1-.185Zm-.309.843a2.426,2.426,0,0,1-.17-.31.915.915,0,0,0,.172-.116,1.254,1.254,0,0,0,.1.078c.021.013.043.024.066.035a2.342,2.342,0,0,1-.169.317Zm-.595-.555a.363.363,0,0,1-.192-.267.661.661,0,0,1-.012-.077,1.4,1.4,0,0,0,.208-.061,1.17,1.17,0,0,0,.288.118,1.31,1.31,0,0,0,.1.185.391.391,0,0,1-.395.105Zm.165,1.024a.679.679,0,0,1-.65.147c-.256-.105-.384-.444-.37-.854a2.667,2.667,0,0,0,.555-.154.563.563,0,0,0,.182.121.588.588,0,0,0,.216.045,2.662,2.662,0,0,0,.282.5,1.638,1.638,0,0,1-.213.195Zm1.519-1.222a.878.878,0,0,0,.018-.129.915.915,0,0,0,.2-.039,2.217,2.217,0,0,1,.1.334,2.326,2.326,0,0,1-.341-.1.291.291,0,0,0,.021-.064Zm-3.675-1.889a.561.561,0,0,1-.021-.428.679.679,0,0,1,.563-.355,1.528,1.528,0,0,1,.288-.017,2.728,2.728,0,0,0,.155.557.579.579,0,0,0-.121.183.569.569,0,0,0-.044.217,2.65,2.65,0,0,0-.5.281,1.273,1.273,0,0,1-.318-.438Zm.941.758c-.013.022-.026.043-.036.064a1.967,1.967,0,0,1-.308-.17,2.23,2.23,0,0,1,.307-.169.911.911,0,0,0,.11.172,1.061,1.061,0,0,0-.072.1Zm.21-.7a.365.365,0,0,1,.266-.194c.027-.005.054-.007.081-.011a1.529,1.529,0,0,0,.057.2,1.282,1.282,0,0,0-.069.138,1.142,1.142,0,0,0-.049.148,1.272,1.272,0,0,0-.184.1.389.389,0,0,1-.1-.39Zm.367-.716c-.007.024-.014.048-.02.074a1.132,1.132,0,0,0-.018.13.913.913,0,0,0-.131.018.224.224,0,0,0-.072.02,2.324,2.324,0,0,1-.1-.341,2.222,2.222,0,0,1,.34.1Zm-.011-1.3a.682.682,0,0,1,.65.148,1.6,1.6,0,0,1,.216.192,2.58,2.58,0,0,0-.283.5.565.565,0,0,0-.216.043.572.572,0,0,0-.182.121,2.636,2.636,0,0,0-.555-.154c-.013-.412.117-.748.37-.854m.777,1.459a1.22,1.22,0,0,0-.147.049,1.089,1.089,0,0,0-.139.07,1.2,1.2,0,0,0-.2-.057.7.7,0,0,1,.01-.082.315.315,0,0,1,.337-.289.325.325,0,0,1,.18.074c.022.017.045.033.066.051a1.115,1.115,0,0,0-.1.184m.305-.844a2.583,2.583,0,0,1,.17.312.6.6,0,0,0-.066.036.889.889,0,0,0-.112.081.817.817,0,0,0-.1-.081c-.022-.013-.043-.026-.066-.036a2.36,2.36,0,0,1,.178-.312m2.605,3.074a.567.567,0,0,1-.316.289,1.317,1.317,0,0,1-.536.081,2.64,2.64,0,0,0-.154-.556.592.592,0,0,0,.121-.181.559.559,0,0,0,.018-.087c-.111,0-.221.006-.333.014a.424.424,0,0,1-.319.157,1.2,1.2,0,0,0-.033-.122q-.293.027-.588.071a.853.853,0,0,1-.129.069.865.865,0,0,1-.333.067.8.8,0,0,1-.173-.026c-.333.067-.66.149-.986.243.019,0,.034.008.052.01a1.273,1.273,0,0,0,.018.128.234.234,0,0,0,.02.072,2.355,2.355,0,0,1-.339.1,2.654,2.654,0,0,1,.075-.261c-.128.039-.257.082-.384.125-.013.06-.03.12-.038.179a1.572,1.572,0,0,1-.288-.017.321.321,0,0,1-.082-.02l-.041.015.023-.019a.625.625,0,0,1-.465-.334c-.105-.253.041-.582.341-.864a2.686,2.686,0,0,0,.5.282.542.542,0,0,0,.043.216.557.557,0,0,0,.121.182c-.014.037-.023.073-.036.111.11-.09.216-.182.324-.274a.288.288,0,0,1-.128-.138.365.365,0,0,1,.053-.326.492.492,0,0,1,.048-.062,1.4,1.4,0,0,0,.186.1,1.12,1.12,0,0,0,.049.146c.008.019.019.038.029.059.081-.073.162-.146.243-.223a.875.875,0,0,1,.489-1.11.847.847,0,0,1,.622-.017c.072-.08.141-.16.211-.24a1.107,1.107,0,0,0-.186-.077,1.162,1.162,0,0,0-.1-.185.555.555,0,0,1,.066-.051.37.37,0,0,1,.324-.053.274.274,0,0,1,.12.1c.078-.093.153-.187.223-.282l-.045.014a.585.585,0,0,0-.184-.122.558.558,0,0,0-.215-.042,2.686,2.686,0,0,0-.282-.5,1.317,1.317,0,0,1,.435-.32.565.565,0,0,1,.428-.021.584.584,0,0,1,.31.383c.074-.111.147-.214.216-.322a.839.839,0,0,0-.4-.368.874.874,0,0,0-.682.021,1.622,1.622,0,0,0-.525.369,1.808,1.808,0,0,0-.234-.2,1,1,0,0,0-.974-.187,1.127,1.127,0,0,0-.578,1.131,1.878,1.878,0,0,0-.309.021.994.994,0,0,0-.82.555.876.876,0,0,0,.021.684,1.59,1.59,0,0,0,.369.523,1.13,1.13,0,0,0-.39,1.211.992.992,0,0,0,.82.555,1.839,1.839,0,0,0,.287.021h.022a1.128,1.128,0,0,0,.578,1.131.8.8,0,0,0,.3.06,1.146,1.146,0,0,0,.667-.247,1.694,1.694,0,0,0,.234-.2,1.314,1.314,0,0,0,.9.45.812.812,0,0,0,.305-.06.99.99,0,0,0,.555-.821,1.679,1.679,0,0,0,.019-.31h.03a1.611,1.611,0,0,0,.609-.112.876.876,0,0,0,.5-.469.838.838,0,0,0,.012-.568q-.178-.011-.355-.017a.57.57,0,0,1,.038.468" transform="translate(-12.334 -12.45)" fill="#fff"/>
  </g>
</svg>
