<svg xmlns="http://www.w3.org/2000/svg" viewBox="0 0 193 38.57" fill="#005d83" xmlns:v="https://vecta.io/nano"><path d="M45.06 1.68l.08 29.82a10 10 0 0 0-2.24-2.81 12.09 12.09 0 0 0-8.12-2.6 12.23 12.23 0 0 0-8.14 2.64 10.7 10.7 0 0 0-3.1 4.6 10.46 10.46 0 0 0-3-4.59 12.09 12.09 0 0 0-8.11-2.6 12.23 12.23 0 0 0-8.14 2.64 10.36 10.36 0 0 0-2.37 3l-.08-30zM0 .29L.1 38.5h1.82c0-.57-.07-5.78 3.48-8.8a10.52 10.52 0 0 1 7-2.24 10.3 10.3 0 0 1 7 2.2c2.95 2.53 3.32 7.39 3.36 8.79h1.59c.06-1.41.5-6.27 3.47-8.8a10.51 10.51 0 0 1 7-2.24 10.3 10.3 0 0 1 7 2.2c3.64 3.12 3.36 8.73 3.36 8.79H47L46.89.18zm34.71 28.6a8.63 8.63 0 0 0-5.83 1.93C25.67 33.6 26 38.4 26 38.44h1.55c0-.18-.21-4.45 2.46-6.75a7 7 0 0 1 4.7-1.53 7.16 7.16 0 0 1 4.75 1.51c2.78 2.34 2.63 6.69 2.63 6.73h1.56c0-.49.06-5-3.07-7.61a8.74 8.74 0 0 0-5.87-1.9m-.08 2.66a5.63 5.63 0 0 0-3.87 1.31c-2.15 1.9-1.93 5.21-1.89 5.57h1.51s-.28-3.16 1.5-4.73a4 4 0 0 1 2.76-.92 4.06 4.06 0 0 1 2.77.91c1.68 1.46 1.59 4.38 1.59 4.72h1.52c0-.37.21-3.68-2-5.57a5.7 5.7 0 0 0-3.88-1.29m-22.38-2.61a8.82 8.82 0 0 0-5.86 1.93c-3.22 2.74-3 7.43-3 7.63h1.56c0-.44 0-4.51 2.6-6.74a7.08 7.08 0 0 1 4.73-1.54 7 7 0 0 1 4.71 1.5c2.69 2.29 2.51 6.56 2.51 6.74H21c0-.19.28-4.86-2.92-7.61a8.75 8.75 0 0 0-5.84-1.9"/><path d="M12.35 31.6a5.69 5.69 0 0 0-3.87 1.32c-2.24 2-1.94 5.43-1.93 5.57h1.51c0-.12-.21-3.19 1.53-4.73a4 4 0 0 1 2.76-.91 3.93 3.93 0 0 1 2.76.9c1.68 1.46 1.56 4.39 1.53 4.72h1.52c0-.14.29-3.61-1.93-5.56a5.67 5.67 0 0 0-3.88-1.3m57.59 6.6a1.17 1.17 0 0 0 .86-1.1V24.83a2.53 2.53 0 0 1 .07-.56l-.3.56-7.91 13.74-8-13.31-.24-.66v.66 11.89c0 .54.36.88.92 1.09h-3.62a1.21 1.21 0 0 0 .85-1.1v-14.4c0-.47-.53-.9-1.06-1.1h5.8l6.62 11.19 6.34-11.22h5.53a1.12 1.12 0 0 0-.86 1.1v14.4a1.17 1.17 0 0 0 .86 1.1zm22.81-.05H78.58c.55-.25 1-.52 1-1.1v-14.4c0-.57-.46-.91-1-1.1h13.25l.11 2.15a3.36 3.36 0 0 0-2.58-.88h-5.6v5.61h5a1.59 1.59 0 0 0 1.18-.68v2.54a1.49 1.49 0 0 0-1.18-.7h-5v7.18c.66.07 2.67.14 4.29.11 2.86-.08 4.18 0 5.39-1.56zm10.25-.03h-8.47a1.22 1.22 0 0 0 .86-1.1v-14.4a1.16 1.16 0 0 0-.86-1.1h8.77c10.84 0 13 5.66 13 8 0 4.25-4.4 8.56-13.3 8.58m-.43-15.38c-.8 0-2.54 0-3 .06v14.06h2.64c7.45 0 9.51-3.73 9.5-7.29 0-2.93-2.32-6.83-9.14-6.82m37.33 9.15v3.61a1.28 1.28 0 0 0 .53 1 31.67 31.67 0 0 1-10.08 1.81c-6.56 0-12.37-3.27-12.39-8.47 0-4.27 4.3-8.63 12.74-8.65a24.81 24.81 0 0 1 7.76 1.31l.24 3.88c-1.7-3.37-5.88-3.88-7.43-3.88-5.6 0-8.82 3.07-8.81 7 0 3.34 2.26 7.46 9.08 7.44a10.22 10.22 0 0 0 4.19-.81V31.9a1.2 1.2 0 0 0-.87-1.12h5.9a1.22 1.22 0 0 0-.85 1.12m20.17-9.4l-.08 10c0 4.16-3.32 5.78-7.8 5.79-3.86 0-8.77-1.25-8.78-5.57V22.56c0-.56-.53-.9-1.05-1.09h6.32c-.53.2-1 .54-1 1.1V32.8c0 1.71.8 4.12 5.09 4.11 3.92 0 5.33-1.91 5.32-4.33L158 22.5a1.18 1.18 0 0 0-.89-1.1h3.83a1.17 1.17 0 0 0-.86 1.1m17.08 15.45h-13.87a1.21 1.21 0 0 0 .92-1.11v-14.4a1.15 1.15 0 0 0-.93-1.09h6a1.12 1.12 0 0 0-.85 1.1v14.11l3.66.12c3.66-.08 4.81-.14 5.83-1.56zm12.98-15.31c-1 0-6.36-.08-6.36-.08v5.61h5.14a1.55 1.55 0 0 0 1.22-.69v2.59a1.47 1.47 0 0 0-1.22-.7h-5.12v7.47c0 .58.33.85 1 1.09h-6.13c.62-.25 1-.52 1-1.1v-14.4c0-.57-.4-.91-1-1.1h14l.17 2.36c-.4-.58-1.09-1-2.64-1m-112.76-7.8a6.18 6.18 0 0 1 2.5-4.69 8 8 0 0 1 4.78-1.38v6.05zm49.44-.12h-9.23a3.62 3.62 0 0 1-3-3.4 2.77 2.77 0 0 1 2.26-2.52 61.52 61.52 0 0 1 6.27-.19h3.63l.65-2.6c-1.14.88-.51.72-4.2.79h-4.21a29.21 29.21 0 0 0-3.84.23c-1.39.24-4.32 1.36-4.59 3.84a4.29 4.29 0 0 0 2.07 3.85h-10.76 0V.96c0-.54.36-.79 1-1h-6.18c.63.23 1 .48 1 1v13.81h-9.26V7.83c0-.55.36-.8 1-1h-3c-4.67 0-6.37.64-8 1.65a8.54 8.54 0 0 0-3.78 6.35H59.82a6 6 0 0 1-2.56-.33 1.66 1.66 0 0 1-.89-1.28V8.08c0-.55.36-.8 1-1h-6.18c.63.22 1 .47 1 1v4.4A4 4 0 0 0 54 15.66a6.23 6.23 0 0 0 2.87 1c.76.1 2.68.11 2.68.11l65.3-.15h0 7.18l.73-3.22c-1 1.32-2.19 1.32-5.88 1.39M85.13 4.5c0 .79-.86 1.43-1.92 1.43s-1.93-.63-1.93-1.42.86-1.42 1.92-1.42 1.93.63 1.93 1.41"/><path d="M123.65 4.38c0 .78-.86 1.42-1.93 1.43s-1.92-.64-1.93-1.42.86-1.42 1.93-1.43 1.92.64 1.93 1.42m45.53 12.12c1.06 0 1.92.64 1.93 1.42s-.86 1.42-1.92 1.43-1.93-.64-1.94-1.42.86-1.43 1.93-1.43m-4.69 0c1.07 0 1.93.64 1.93 1.42s-.85 1.42-1.92 1.43-1.93-.63-1.93-1.42.86-1.42 1.92-1.43m23.94-1.87h-7.66v-3.5c0-3.07 2.64-3.51 3.81-3.51s3.84.41 3.85 3.43zm3.68 1v-4c0-3.77-3.91-5.47-7.53-5.46s-7.5 1.73-7.49 5.56v2.94h-8.4v-7c0-.55.37-.79 1-1h-6.18c.64.23 1 .47 1 1v7h-7.45a31.1 31.1 0 0 0-2.61-4.41c-2.22-3.26-6.21-3.47-7.59-3.46h-1.73c-3.69 0-3.19.07-4.21-.78l.67 2.45h4.55a4.53 4.53 0 0 1 4.16 1.84 17.33 17.33 0 0 1 2.56 4.38h-13.44c-2.08-.09-3-.35-3.77-1.37l.74 3.22h.06 10.33 15.56a3.53 3.53 0 0 1 4.39 0h.27a3.52 3.52 0 0 1 2.2-.76 3.4 3.4 0 0 1 2.19.75h18.1H193c-.47-.21-.8-.46-.89-.83"/></svg>