<svg xmlns="http://www.w3.org/2000/svg" width="32.873" height="37.196" viewBox="0 0 32.873 37.196">
  <g id="Group_12492" data-name="Group 12492" transform="translate(8621.868 3723.005)">
    <path id="Path_35086" data-name="Path 35086" d="M3595.961,899.917l.562-.561-6.933-6.932-.016-.014a1.627,1.627,0,0,0-1.051-.414h-.017a1.552,1.552,0,0,0-1.552,1.552v5.506h.794l-.794-.013c0,.008,0,.02,0,.036a2.849,2.849,0,0,0,2.818,2.848h5.538a1.552,1.552,0,0,0,1.552-1.552h-.793l.613.5a1.149,1.149,0,0,0,.16-.251.986.986,0,0,0,.091-.411,1.01,1.01,0,0,0-.047-.3,1.167,1.167,0,0,0-.164-.323,1.891,1.891,0,0,0-.188-.224l0,0-.008-.008-.562.561-.571.551c.018.019.029.032.032.036v0l.055-.042-.057.04,0,0,.055-.042-.057.04.311-.216-.352.135a.409.409,0,0,0,.041.081l.311-.216-.352.135.542-.208h-.58a.59.59,0,0,0,.037.208l.542-.208h.022l-.548-.251a.615.615,0,0,0-.054.251h.6l-.548-.251.39.179-.333-.274a.461.461,0,0,0-.057.095l.39.179-.333-.274-.18.22v.285h.035l-.025-.025-.01.025h.035l-.025-.025.025.025v-.035l-.025.01.025.025v-.035h-5.52a1.262,1.262,0,0,1-1.248-1.261v-5.529h-.035l.025.025.01-.025h-.035l.025.025-.025-.025v.035l.025-.01-.025-.025v-.758l-.017.794.026.01.53-.592-.562.561,6.917,6.916.561-.561-.571.551Zm.213,5.506h.794a.833.833,0,0,0-.016-.156c0-.025-.009-.04-.011-.047v0l-.765.206.776-.157c-.007-.033-.011-.048-.011-.049l-.765.206.776-.157-.778.157h.793a.757.757,0,0,0-.016-.157l-.778.157h.793a1.87,1.87,0,0,0-1.869-1.871h-7.35a2.339,2.339,0,0,1-2.338-2.339v-7.349a1.87,1.87,0,0,0-1.871-1.871h-10.481a3.925,3.925,0,0,0-3.925,3.907v25.19a3.925,3.925,0,0,0,3.926,3.926h10.708a2.119,2.119,0,0,0,.74-.121,1.544,1.544,0,0,0,.5-.3,1.483,1.483,0,0,0,.278-.335,1.792,1.792,0,0,0,.218-.564,2.706,2.706,0,0,0,.054-.57,4.721,4.721,0,0,0-.03-.506h0a9.678,9.678,0,0,1-.057-1.058,9.777,9.777,0,0,1,2.162-6.132l-.618-.5.6.516a7.417,7.417,0,0,1,1.976-1.612,10.506,10.506,0,0,1,3.149-1.138,11.8,11.8,0,0,1,1.2-.174c.322-.03.556-.036.653-.036.16,0,.361,0,.581-.015a3.407,3.407,0,0,0,.528-.077,2.171,2.171,0,0,0,.432-.148,1.679,1.679,0,0,0,.331-.205,1.454,1.454,0,0,0,.409-.518,1.594,1.594,0,0,0,.144-.678,1.946,1.946,0,0,0-.012-.215l-.789.083.794-.007-.045-5.294v.007h-.794l-.794.007.046,5.332,0,.038q0,.032,0,.048c0,.014,0,.022,0,.024h0l.119.029-.1-.067a.115.115,0,0,0-.017.037l.119.029-.1-.067.109.071-.085-.1a.129.129,0,0,0-.024.028l.109.071-.085-.1.032.038-.03-.04,0,0,.032.038-.03-.04,0,0,0,0h0l0,0,0,0a.319.319,0,0,1-.079.032,1.6,1.6,0,0,1-.344.054c-.143.01-.3.011-.457.011-.1,0-.257,0-.46.016a13.355,13.355,0,0,0-3.436.689,10.948,10.948,0,0,0-2.212,1.041,8.883,8.883,0,0,0-2.079,1.771l-.008.009-.007.009a11.354,11.354,0,0,0-2.446,8.357h0a3.211,3.211,0,0,1,.021.336,1.122,1.122,0,0,1-.026.267.348.348,0,0,1-.012.035l0,.005h0l.038.021-.034-.027,0,.005.038.021-.034-.027.082.063-.061-.083-.021.02.082.063-.061-.083.044.06-.038-.065-.006,0,.044.06-.038-.065.019.033-.018-.033h0l.019.033-.018-.033,0,.008,0-.008h0l0,.008,0-.008a.2.2,0,0,1-.044.012.788.788,0,0,1-.149.012h-10.708a2.338,2.338,0,0,1-2.339-2.338V895.909h0a2.339,2.339,0,0,1,2.338-2.327h10.481a.283.283,0,0,1,.283.283v7.349a3.926,3.926,0,0,0,3.926,3.926h7.36l-.011-.794v.794a.284.284,0,0,1,.283.283.79.79,0,0,0,.016.159c0,.025.009.039.01.045v0l.766-.206-.778.154c.007.034.012.05.012.052l.766-.206-.778.154.778-.154h-.793a.788.788,0,0,0,.015.154l.778-.154h-.793v.007Zm-13.067,11.565-.793-.005a.291.291,0,0,1-.291.289H3575.2a.29.29,0,0,1-.29-.289V915.91a.29.29,0,0,1,.29-.289h6.826a.291.291,0,0,1,.291.289v1.073l.793.005h.794V915.9a1.878,1.878,0,0,0-1.878-1.865H3575.2a1.878,1.878,0,0,0-1.878,1.865v1.1h0a1.878,1.878,0,0,0,1.878,1.865h6.826a1.878,1.878,0,0,0,1.878-1.865v-.006Zm5.718-6.378h-.794a.291.291,0,0,1-.289.291h-12.523a.292.292,0,0,1-.291-.291v-1.077a.292.292,0,0,1,.291-.291h12.635a.291.291,0,0,1,.291.291v1.077h.794v-.794h-.908v.794h.794v.794h.907v-1.871a1.878,1.878,0,0,0-1.878-1.878h-12.635a1.878,1.878,0,0,0-1.878,1.878v1.077a1.878,1.878,0,0,0,1.878,1.878h12.534a1.878,1.878,0,0,0,1.865-1.878h-.794v0Z" transform="translate(-12191 -4615)" fill="#136494"/>
    <path id="Path_35087" data-name="Path 35087" d="M3751.321,1098.636a1.517,1.517,0,1,0,1.517,1.517,1.623,1.623,0,0,0-1.517-1.517" transform="translate(-12347.771 -4794.304)" fill="#f9a52d"/>
    <path id="Path_35088" data-name="Path 35088" d="M3712.372,1060.457a7.455,7.455,0,1,0,7.455,7.455,7.584,7.584,0,0,0-7.455-7.455m.22,11.876a.334.334,0,0,1-.463,0c-.759-.645-3.352-2.806-3.352-5.309a3.572,3.572,0,1,1,7.144,0c-.091,2.51-2.571,4.672-3.329,5.309" transform="translate(-12308.822 -4761.176)" fill="#f9a52d"/>
    <path id="Path_35089" data-name="Path 35089" d="M3601.484,928.88l2.594-.326a.106.106,0,0,0,.106-.106l1.191-2.343a.318.318,0,0,1,.432,0l1.221,2.366.106.106,2.594.326a.213.213,0,0,1,.136.268.217.217,0,0,1-.03.058l-1.949,1.941v.243l.432,2.594c0,.114-.106.326-.318.22l-2.275-1.191h-.213l-2.275,1.191c-.106.106-.326,0-.326-.22l.326-2.594V931.2l-1.964-1.866a.825.825,0,0,1,.212-.432Z" transform="translate(-12218.889 -4644.523)" fill="#136494"/>
  </g>
</svg>
