<svg xmlns="http://www.w3.org/2000/svg" width="46.313" height="31.688" viewBox="0 0 46.313 31.688">
  <g id="Group_6526" data-name="Group 6526" transform="translate(-630.514 -2892)">
    <path id="payments_FILL0_wght400_GRAD0_opsz48" d="M50.969,287.688a3.667,3.667,0,0,1-3.656-3.656V259.656A3.667,3.667,0,0,1,50.969,256h39a3.667,3.667,0,0,1,3.656,3.656v24.375a3.667,3.667,0,0,1-3.656,3.656Zm6.094-3.656H83.875a6.035,6.035,0,0,1,6.094-6.094V265.75a6.035,6.035,0,0,1-6.094-6.094H57.063a6.035,6.035,0,0,1-6.094,6.094v12.187a6.035,6.035,0,0,1,6.094,6.094Zm-6.094,0v0Z" transform="translate(583.201 2636)" fill="#136494"/>
    <path id="payments_FILL0_wght400_GRAD0_opsz48-2" data-name="payments_FILL0_wght400_GRAD0_opsz48" d="M70.469,279.156a7.282,7.282,0,1,1,5.18-2.133A7.052,7.052,0,0,1,70.469,279.156Z" transform="translate(583.201 2636)" fill="#f9a52d"/>
  </g>
</svg>
