<svg xmlns="http://www.w3.org/2000/svg" width="38.426" height="38.426" viewBox="0 0 38.426 38.426">
  <g id="Group_12487" data-name="Group 12487" transform="translate(10384.619 4589.939)">
    <path id="Path_35068" data-name="Path 35068" d="M1838.733,48.6a1.931,1.931,0,0,1-.476-.639,1.934,1.934,0,0,1-.024-1.55,1.938,1.938,0,0,1,.7-.847,1.927,1.927,0,0,1,1.875-.152,1.936,1.936,0,0,1,.639.476,1.921,1.921,0,1,0,2.88-2.543,5.764,5.764,0,1,0-8.136,8.136,1.921,1.921,0,0,0,2.544-2.88Zm-1.278-.481h-4.176a1.921,1.921,0,0,0,0,3.843h4.188a1.921,1.921,0,1,0-.012-3.843Zm.012,3.843c.428,0,.817-.005,1.182-.017.274-.009.534-.022.789-.043a7.579,7.579,0,0,0,1.123-.17,5.238,5.238,0,0,0,.556-.164,4.619,4.619,0,0,0,.543-.234,5.763,5.763,0,0,0,2.519-2.519h0a4.837,4.837,0,0,0,.367-.975,6.45,6.45,0,0,0,.146-.744c.052-.374.078-.751.093-1.156s.02-.836.021-1.318a1.921,1.921,0,1,0-3.843-.012c0,.412-.005.769-.015,1.072q-.011.341-.032.591a3.84,3.84,0,0,1-.079.555,1.431,1.431,0,0,1-.043.147.775.775,0,0,1-.041.095h0a1.92,1.92,0,0,1-.84.84.971.971,0,0,1-.2.073,2.6,2.6,0,0,1-.3.057c-.191.027-.449.047-.774.06s-.719.017-1.183.019a1.921,1.921,0,1,0,.012,3.843Zm7.339-7.339c0-.231,0-.474,0-.73V33.13c0-.256,0-.5,0-.73a1.921,1.921,0,1,0-3.843.012q0,.334,0,.718V43.889q0,.384,0,.718a1.921,1.921,0,1,0,3.843.012Zm-3.361-13.484a1.936,1.936,0,0,1-.639.476,1.933,1.933,0,0,1-1.55.024,1.937,1.937,0,0,1-.847-.7,1.928,1.928,0,0,1-.152-1.875,1.933,1.933,0,0,1,.476-.638,1.921,1.921,0,1,0-2.543-2.88,5.764,5.764,0,1,0,8.135,8.136,1.921,1.921,0,1,0-2.88-2.543Zm3.361,1.266c0-.428-.005-.817-.016-1.182-.009-.274-.022-.534-.043-.789a7.59,7.59,0,0,0-.17-1.123,5.175,5.175,0,0,0-.164-.556,4.644,4.644,0,0,0-.234-.543,5.763,5.763,0,0,0-2.519-2.519h0a4.827,4.827,0,0,0-.975-.367,6.437,6.437,0,0,0-.744-.146c-.374-.052-.751-.078-1.156-.093s-.836-.02-1.318-.021a1.921,1.921,0,1,0-.012,3.842c.412,0,.769.005,1.072.015q.341.011.591.032a3.836,3.836,0,0,1,.555.079,1.366,1.366,0,0,1,.147.043.781.781,0,0,1,.094.04h0a1.921,1.921,0,0,1,.839.839.978.978,0,0,1,.073.2,2.579,2.579,0,0,1,.057.3c.027.191.047.449.06.774s.017.719.019,1.183a1.921,1.921,0,1,0,3.843-.012Zm-7.338-7.339H1813.72a1.921,1.921,0,1,0,.013,3.842h23.721a1.921,1.921,0,1,0,.013-3.842m-30.605,8.615A5.764,5.764,0,1,0,1815,25.543a1.921,1.921,0,1,0-2.543,2.88,1.933,1.933,0,0,1,.476.638,1.934,1.934,0,0,1,.024,1.55,1.937,1.937,0,0,1-.7.847,1.927,1.927,0,0,1-1.876.152,1.938,1.938,0,0,1-.639-.476,1.921,1.921,0,1,0-2.881,2.543m-.481-1.278q0,.118,0,.238c0,.16,0,.324,0,.493V43.889c0,.256,0,.5,0,.73a1.921,1.921,0,1,0,3.842-.013q0-.334,0-.717V33.13q0-.26,0-.493,0-.117,0-.226a1.921,1.921,0,0,0-3.843-.013Zm3.843.012c0-.412.005-.768.015-1.071q.011-.341.032-.591a3.843,3.843,0,0,1,.079-.555,1.419,1.419,0,0,1,.043-.148.781.781,0,0,1,.041-.095,1.92,1.92,0,0,1,.839-.839h0a.989.989,0,0,1,.2-.073,2.63,2.63,0,0,1,.3-.057c.191-.027.449-.047.775-.06s.719-.017,1.183-.019a1.921,1.921,0,1,0-.012-3.842c-.428,0-.817,0-1.182.017-.274.009-.534.022-.789.043a7.565,7.565,0,0,0-1.123.17,5.207,5.207,0,0,0-.556.164,4.615,4.615,0,0,0-.543.234h0a5.764,5.764,0,0,0-2.519,2.519,4.827,4.827,0,0,0-.367.974,6.473,6.473,0,0,0-.146.744c-.052.374-.078.751-.094,1.156s-.02.836-.021,1.318a1.921,1.921,0,0,0,3.843.012m-.48,13.473a1.934,1.934,0,0,1,.638-.476,1.933,1.933,0,0,1,1.55-.024,1.936,1.936,0,0,1,.847.7,1.928,1.928,0,0,1,.152,1.875,1.934,1.934,0,0,1-.476.639,1.921,1.921,0,1,0,2.543,2.88,5.764,5.764,0,1,0-8.135-8.135,1.921,1.921,0,1,0,2.88,2.543Zm-3.361-1.266c0,.428.005.817.017,1.182.009.274.022.534.043.789a7.563,7.563,0,0,0,.17,1.123,5.186,5.186,0,0,0,.164.556,4.645,4.645,0,0,0,.234.543h0a5.763,5.763,0,0,0,2.519,2.519,4.829,4.829,0,0,0,.975.367,6.436,6.436,0,0,0,.744.146c.374.052.751.078,1.156.093s.836.02,1.318.021a1.921,1.921,0,0,0,.012-3.843c-.412,0-.769,0-1.072-.015q-.341-.011-.591-.032a3.842,3.842,0,0,1-.555-.079,1.35,1.35,0,0,1-.147-.043.8.8,0,0,1-.094-.04,1.92,1.92,0,0,1-.839-.839h0a.973.973,0,0,1-.073-.2,2.636,2.636,0,0,1-.057-.3c-.027-.191-.047-.449-.06-.774s-.017-.719-.019-1.183a1.921,1.921,0,1,0-3.842.012Zm7.339,7.339h4.188a1.921,1.921,0,1,0,0-3.843h-4.176a1.921,1.921,0,0,0-.012,3.843Zm8.031-13.448h1.921a1.907,1.907,0,0,1,.15-.747,1.935,1.935,0,0,1,.7-.847,1.928,1.928,0,0,1,1.82-.177,1.937,1.937,0,0,1,.847.7,1.928,1.928,0,0,1,.177,1.82,1.936,1.936,0,0,1-.7.847,1.928,1.928,0,0,1-1.82.177,1.936,1.936,0,0,1-.847-.7,1.9,1.9,0,0,1-.327-1.073h-3.843a5.745,5.745,0,1,0,.259-1.713,5.752,5.752,0,0,0-.259,1.713Z" transform="translate(-12191 -4615)" fill="#136494"/>
    <path id="Path_35069" data-name="Path 35069" d="M1929.115,197.029V185.5a1.921,1.921,0,1,0-3.842,0v11.528a1.921,1.921,0,1,0,3.842,0" transform="translate(-12292.6 -4750.463)" fill="#f9a52d"/>
    <path id="Path_35070" data-name="Path 35070" d="M1928.553,237.9l4.8-4.8a1.921,1.921,0,0,0-2.717-2.717l-4.8,4.8a1.921,1.921,0,0,0,2.717,2.717" transform="translate(-12292.601 -4789.975)" fill="#f9a52d"/>
    <path id="Path_35071" data-name="Path 35071" d="M1900.331,235.181l-4.8-4.8a1.921,1.921,0,0,0-2.717,2.717l4.8,4.8a1.921,1.921,0,0,0,2.717-2.717" transform="translate(-12264.378 -4789.974)" fill="#f9a52d"/>
  </g>
</svg>
