<svg id="Layer_1" data-name="Layer 1" xmlns="http://www.w3.org/2000/svg" viewBox="0 0 17.55 17.85"><defs><style>.cls-1{fill:#4d4e56;}</style></defs><path class="cls-1" d="M4.34,9.19H5a1.11,1.11,0,0,0,1.12-1.1V7.65h6.08v.44a1.11,1.11,0,0,0,1.12,1.1H14a1.09,1.09,0,0,0,1.1-1.1V4.47a1.55,1.55,0,0,0-.46-1.09l-.24-.26L13.5.72a1.1,1.1,0,0,0-1-.72H6A1.09,1.09,0,0,0,5,.72L4.11,3.09l-.34.33a1.51,1.51,0,0,0-.52,1.14V8.09a1.09,1.09,0,0,0,1.09,1.1ZM5.5,8.09A.48.48,0,0,1,5,8.56H4.34A.51.51,0,0,1,4,8.43a.51.51,0,0,1-.13-.34V7.54a.83.83,0,0,0,.46.11H5.5Zm8.82.34a.43.43,0,0,1-.33.13h-.66a.48.48,0,0,1-.49-.47V7.65H14a1,1,0,0,0,.47-.1v.54a.48.48,0,0,1-.14.34ZM5.59.94A.48.48,0,0,1,6,.63h6.42a.48.48,0,0,1,.45.31l.75,2H4.84ZM3.88,4.56a.91.91,0,0,1,.3-.67h0l.32-.3H14l.23.23v0a.87.87,0,0,1,.27.63V6.54a.48.48,0,0,1-.14.34A.44.44,0,0,1,14,7H4.34a.46.46,0,0,1-.46-.48Z" transform="translate(0 0)"/><path class="cls-1" d="M6.92,4.77a.31.31,0,0,0-.32-.31H4.71a.31.31,0,0,0-.31.31V6.08a.31.31,0,0,0,.31.31H6.6a.31.31,0,0,0,.32-.31ZM5,5.09H6.29v.67H5Z" transform="translate(0 0)"/><path class="cls-1" d="M13.94,4.77a.31.31,0,0,0-.31-.31h-1.9a.31.31,0,0,0-.31.31V6.08a.31.31,0,0,0,.31.31h1.9a.31.31,0,0,0,.31-.31Zm-1.89.32h1.26v.67H12.05Z" transform="translate(0 0)"/><path class="cls-1" d="M10.67,5.05a.32.32,0,0,0-.32-.32H8a.32.32,0,0,0-.32.32V5.8A.31.31,0,0,0,8,6.11h2.4a.31.31,0,0,0,.32-.31Zm-2.41.32h1.82v.11H8.26Z" transform="translate(0 0)"/><path class="cls-1" d="M1,17.59a.32.32,0,0,0,.37.25l2.58-.45A.31.31,0,0,0,4.19,17l-.05-.29.6-.49A1.24,1.24,0,0,1,5.59,16l4.2.31h.05a4.39,4.39,0,0,0,2.57-.84l0,0,5-4.9a.32.32,0,0,0,0-.44,1.65,1.65,0,0,0-2.27-.21l-2.3,1.72a2.12,2.12,0,0,0-2-.74l-2.35.42a2.64,2.64,0,0,1-1.12-.06l-.27-.08a4.27,4.27,0,0,0-3.89.81l-.1-.57a.31.31,0,0,0-.36-.25l-2.58.45a.32.32,0,0,0-.26.36Zm6-5.85.26.07a3.2,3.2,0,0,0,1.41.08L11,11.48a1.46,1.46,0,0,1,1.6.88L9.12,13a.34.34,0,0,0-.25.2.37.37,0,0,0,.06.32.33.33,0,0,0,.3.1l3.86-.67a.32.32,0,0,0,.26-.37,3.31,3.31,0,0,0-.12-.42l2.35-1.76h0a1,1,0,0,1,1.18-.07L12,15a3.71,3.71,0,0,1-2.18.71h0l-4.19-.31a1.84,1.84,0,0,0-1.29.42L4,16l-.59-3.36A3.64,3.64,0,0,1,7,11.74Zm-4.38,0,.88,5-2,.34-.88-5Z" transform="translate(0 0)"/></svg>