<svg id="Layer_1" data-name="Layer 1" xmlns="http://www.w3.org/2000/svg" viewBox="0 0 22.25 21.06"><defs><style>.cls-1{fill:#4d4e56;}</style></defs><path class="cls-1" d="M2.44,13.89l.1-.73,1.46.2-.1.73Z"/><path class="cls-1" d="M5.47,18.79l.11-.73.73.1-.11.73Z"/><path class="cls-1" d="M22.23,9.41l-.06-.74-7.41.65a1.11,1.11,0,0,0-1,.92l-.33,2a.74.74,0,0,0,.65.82h.15l6.17-.54.45,5.15-2.24.19a2.58,2.58,0,0,0-5.09.45l-1.13.1a.34.34,0,0,1-.27-.09.38.38,0,0,1-.13-.25l0-.37,1.1-.09L13,16.88l-1.11.1,0-.38,1.3-.78a.37.37,0,0,0,.13-.51l-.06-.07-.48-.48.48-.47a.37.37,0,0,0,0-.52.28.28,0,0,0-.09-.07l-1.28-.64c0-.13.07-.26.11-.39L13.36,9.3a1.11,1.11,0,0,1,.93-.68L21.9,8h.25l.1-.73a2,2,0,0,0-.42,0l-7.61.66A1.84,1.84,0,0,0,12.68,9l-1.4,3.4A6,6,0,0,0,11,14.1a2.43,2.43,0,0,0-.3-.52,2.55,2.55,0,0,0-1.71-1l-.59-.09,2-1.31.52.53.53-.53-.74-.73a.37.37,0,0,0-.47,0L7.53,12.17,5.09,8.22a1.87,1.87,0,0,0-1.31-.85L.1,6.85,0,7.58l3.67.52a1.11,1.11,0,0,1,.79.51L4.69,9,.1,8.34,0,9.08l1.59.22-.3,2.19L.1,11.33l-.1.73,1.18.16L.46,17.34.1,17.29,0,18l3.32.47a2.58,2.58,0,0,0,5.06.71l1.12.16h.16a1.1,1.1,0,0,0,1.09-1l.33-2.31.18,2a1.11,1.11,0,0,0,1.1,1h.09l1.14-.1a2.59,2.59,0,0,0,2.51,2h.22a2.59,2.59,0,0,0,2.36-2.43l3.55-.31-.06-.74-.59.05-.45-5.15,1.1-.09-.06-.74-1.1.1-.2-2.21Zm-11.8,6,0,.36-1.46-.2.1-.73,1.43.2a2.36,2.36,0,0,1,0,.37Zm-8.1-6,2.87.41h0l1.52,2.46L2,11.6Zm5.39,9.33a1.85,1.85,0,0,1-2.08,1.58A1.85,1.85,0,0,1,4.79,17a1.8,1.8,0,0,1,1.1-.37l.26,0A1.85,1.85,0,0,1,7.72,18.73Zm1.88-.1-1.12-.16a2.59,2.59,0,0,0-2.59-2.58,2.7,2.7,0,0,0-1.55.52,2.59,2.59,0,0,0-.92,1.35L1.2,17.44l.71-5.11,5.49.77,1.46.2a1.75,1.75,0,0,1,1.35.94l-1.09-.15a.73.73,0,0,0-.83.62l-.1.73a.74.74,0,0,0,.62.84l1.46.2-.1.73-1.09-.15L9,17.79l1.1.16-.05.36a.39.39,0,0,1-.42.32Zm2.75-4.5L12,14.5A.39.39,0,0,0,12,15l.41.4-.59.35-.08-.88a6.49,6.49,0,0,1,0-1.08Zm5.59,4.17a1.85,1.85,0,1,1-2-1.67h.16A1.85,1.85,0,0,1,17.94,18.3Zm2.39-6.5-6.17.56.33-2a.37.37,0,0,1,.34-.3l5.31-.47Z"/><path class="cls-1" d="M14.57,13.78,16,13.65l.07.74-1.47.13Z"/><path class="cls-1" d="M15.69,18.13l.73-.06.07.73-.74.07Z"/><path class="cls-1" d="M6.07,8.38l.52-.52-.48-.48h.95A.36.36,0,0,0,7.43,7v-1L8.65,7.27a.36.36,0,0,0,.52,0l1.22-1.21V7a.36.36,0,0,0,.37.37h1.32l-.85.85.52.52,1.48-1.48a.36.36,0,0,0,0-.52A.36.36,0,0,0,13,6.64H11.12V5.17a.36.36,0,0,0-.36-.37.39.39,0,0,0-.27.11L8.91,6.49,7.33,4.91a.37.37,0,0,0-.53,0,.35.35,0,0,0-.1.26V6.64H5.22A.38.38,0,0,0,4.85,7,.36.36,0,0,0,5,7.27Z"/><path class="cls-1" d="M8.28,4.43H9a.5.5,0,0,1,.17-.38,1.22,1.22,0,0,0,0-1.7.51.51,0,0,1,0-.71s0,0,0,0A1.23,1.23,0,0,0,9.54.74H8.8a.52.52,0,0,1-.17.38,1.22,1.22,0,0,0,0,1.7.51.51,0,0,1,0,.71l0,.05A1.17,1.17,0,0,0,8.28,4.43Z"/><path class="cls-1" d="M10.5,3.69h.74a.52.52,0,0,1,.17-.38,1.22,1.22,0,0,0,0-1.7A.51.51,0,0,1,11.36.9s0,0,.05-.05A1.22,1.22,0,0,0,11.75,0H11a.52.52,0,0,1-.17.38,1.22,1.22,0,0,0,0,1.7.51.51,0,0,1,.05.71s0,0-.05,0a1.22,1.22,0,0,0-.34.85Z"/></svg>