<?xml version="1.0" encoding="utf-8"?>
<!-- Generator: Adobe Illustrator 25.3.1, SVG Export Plug-In . SVG Version: 6.00 Build 0)  -->
<svg version="1.1" id="Layer_1" xmlns:v="https://vecta.io/nano"
	 xmlns="http://www.w3.org/2000/svg" xmlns:xlink="http://www.w3.org/1999/xlink" x="0px" y="0px" viewBox="0 0 380.3 107.2"
	 style="enable-background:new 0 0 380.3 107.2;" xml:space="preserve">
<style type="text/css">
	.st0{fill:#6D6E71;}
	.st1{fill:#009490;}
</style>
<path class="st0" d="M144.1,74.2c-0.4-0.8-0.5-1.7-0.1-2.5v-0.5H140l-8.3,19.6h3.6l1.2-3h8.6l1.2,3h4.4L144.1,74.2z M137.5,85
	l1.8-4.4c0.9-2,1.4-3.3,1.5-3.6c0.4,0.9,0.9,2.1,1.5,3.6l1.8,4.4H137.5z"/>
<path class="st0" d="M156.6,90.7h-3.7V70.8h3.7V90.7z"/>
<path class="st0" d="M175.3,84.9c0.1,2-0.9,3.9-2.6,4.8c-1.8,0.9-3.7,1.3-5.7,1.2c-2.4,0-4.8-0.5-7-1.3l0.8-2.9
	c1.8,0.7,3.8,1,5.7,1.1c3,0,4.6-0.9,4.6-2.6c0-1.1-1-2-3-2.5c-3.5-1-5.4-1.5-5.5-1.5c-1.9-0.7-3.1-2.4-3-4.4c-0.1-2,0.9-3.9,2.6-4.8
	c1.7-1,3.7-1.4,5.7-1.3c2.3,0,4.6,0.5,6.7,1.5l-0.9,2.8c-1.6-0.8-3.4-1.2-5.3-1.2c-3,0-4.4,0.8-4.4,2.4c0,1,1,1.7,2.9,2.2
	c1.8,0.5,3.6,1,5.4,1.6C174.2,81,175.4,82.9,175.3,84.9z"/>
<path class="st0" d="M240.5,90.7h-4.2V71.2h4.2V90.7z"/>
<path class="st0" d="M275.9,85.7c0.1,1.5-0.5,2.9-1.7,3.7c-1.6,1.1-3.4,1.6-5.4,1.5c-2.2,0-4.4-0.4-6.4-1.2c0.1-0.5,0.4-1.3,0.8-2.5
	c1.6,0.7,3.3,1.1,5.1,1.1c2.6,0,3.9-0.7,3.8-2c0-0.7-0.9-1.2-2.5-1.5c-1.5-0.3-3.1-0.7-4.6-1.2c-1.5-0.5-2.5-1.9-2.5-3.4
	c-0.1-1.5,0.6-2.9,1.8-3.8c1.6-1,3.4-1.5,5.4-1.4c2,0,4,0.4,5.9,1.1l-0.8,2.5c-1.5-0.6-3.1-0.9-4.7-0.9c-2.6,0-3.9,0.6-3.8,1.9
	c0,0.6,0.9,1.1,2.6,1.5c1.6,0.3,3.1,0.7,4.6,1.2C274.9,82.8,275.9,84.1,275.9,85.7z"/>
<path class="st0" d="M293.4,90.7H291l-0.8-1.1c-1.7,0.8-3.6,1.2-5.5,1.4c-2.2,0-3.8-0.7-4.6-2.2c-0.8-1.7-1.1-3.6-1-5.5v-8.1h3.8
	v8.2c-0.1,1.2,0,2.4,0.4,3.6c0.5,1,1.5,1.5,2.6,1.4c1.4,0,2.7-0.4,3.9-1V75.2h3.8L293.4,90.7z"/>
<path class="st0" d="M343.4,90.7h-3.7v-8c0.1-1.2,0-2.4-0.4-3.6c-0.5-1-1.5-1.6-2.6-1.4c-1.4,0-2.7,0.4-3.9,1v12h-3.7V75.1h2.4
	l0.8,1.1c1.7-0.8,3.6-1.2,5.5-1.4c2.2,0,3.8,0.7,4.6,2.2c0.8,1.7,1.1,3.6,1,5.5L343.4,90.7z"/>
<path class="st0" d="M360.2,89.8c-2,0.9-4.1,1.3-6.2,1.3c-2.1,0.1-4.1-0.7-5.5-2.2c-1.4-1.6-2.1-3.7-2-5.8c-0.1-2.1,0.7-4.2,2.1-5.8
	c1.5-1.5,3.5-2.3,5.6-2.2c2,0,4,0.4,5.9,1.2l-0.8,2.5c-1.4-0.6-2.9-1-4.5-1c-3,0-4.6,1.8-4.6,5.3s1.5,5.2,4.4,5.2
	c1.7,0,3.3-0.3,4.8-1L360.2,89.8z"/>
<path class="st0" d="M377.5,83.2c0,0.3,0,0.6,0,0.9h-11.6c-0.1,1.3,0.4,2.5,1.4,3.3c1.1,0.6,2.4,0.9,3.7,0.8c1.8,0,3.5-0.5,5.1-1.2
	l0.8,2.5c-1.9,0.9-3.9,1.4-5.9,1.4c-2.9,0-5.1-0.6-6.6-1.8c-1.5-1.3-2.3-3.4-2.3-6.2c0-5.4,2.6-8,7.8-8
	C375,74.9,377.6,77.7,377.5,83.2z M373.6,81.7c0.1-1.1-0.2-2.2-0.9-3c-0.8-0.7-1.9-1.1-2.9-1c-2.4,0-3.7,1.4-3.9,4H373.6z"/>
<path class="st0" d="M203.8,74.9c-2-0.1-4,0.7-5.4,2.3c-2.1,3.5-2.1,7.9,0,11.5c1.3,1.6,3.3,2.4,5.4,2.3c1.7,0,3.4-0.5,4.9-1.4v1.1
	c0,2.4-1.2,3.6-3.6,3.6c-2.2,0-4.4-0.4-6.5-1.1l-0.7,2.7c2.2,0.9,4.6,1.3,7,1.3c5,0,7.5-1.9,7.5-5.7V78.4c0-1.1,0.4-2.2,1.1-3v-0.5
	H203.8L203.8,74.9z M208.7,80.5v6.8c-1.2,0.7-2.6,1-4,1c-2.7,0-4-1.8-4-5.3c0-3.5,1.4-5.3,4-5.3h4.5
	C208.8,78.5,208.7,79.5,208.7,80.5L208.7,80.5z"/>
<path class="st0" d="M259.2,90.7h-3.8v-8c0.1-1.2,0-2.4-0.4-3.6c-0.5-1-1.5-1.5-2.5-1.4c-1.4,0-2.7,0.4-3.9,1v12h-3.8V75.1h2.4
	l0.8,1.1c1.7-0.8,3.6-1.2,5.5-1.4c2.2,0,3.8,0.8,4.6,2.2c0.8,1.7,1.1,3.6,1,5.5L259.2,90.7z"/>
<path class="st0" d="M216.2,81.1v9.7h3.7V80.6c0-1.5,1.3-3.1,3.9-3.1c1,0,2,0.1,2.9,0.4v-2.8c-1.1-0.2-2.2-0.4-3.3-0.4
	C219.1,74.7,216.2,77.1,216.2,81.1z"/>
<path class="st0" d="M297.5,81.1v9.7h3.7V80.6c0-1.5,1.3-3.1,3.9-3.1c1,0,2,0.1,2.9,0.4v-2.8c-1.1-0.2-2.2-0.4-3.3-0.4
	C300.3,74.7,297.5,77.1,297.5,81.1z"/>
<path class="st0" d="M185,74.9c-2.1-0.1-4.1,0.7-5.4,2.4c-2.1,3.5-2.1,7.8,0,11.3c1.3,1.6,3.3,2.5,5.4,2.4c1.9,0,3.6-0.7,5-1.9
	l1.1,1.6h2.4V78.4c0-1.1,0.4-2.2,1.1-3v-0.5L185,74.9L185,74.9z M189.8,80.5v5.9c-1,1.1-2.5,1.8-4,1.9c-2.7,0-4-1.8-4-5.3
	c0-3.5,1.4-5.3,4-5.3h4.5C190,78.5,189.8,79.5,189.8,80.5L189.8,80.5z"/>
<path class="st0" d="M316.7,74.9c-2.1-0.1-4.1,0.7-5.4,2.4c-2.1,3.5-2.1,7.8,0,11.3c1.3,1.6,3.3,2.5,5.4,2.4c1.9,0,3.6-0.7,5-1.9
	l1.1,1.6h2.4V78.4c0-1.1,0.4-2.2,1.1-3v-0.5L316.7,74.9L316.7,74.9z M321.5,80.5v5.9c-1,1.1-2.5,1.8-4,1.9c-2.7,0-4-1.8-4-5.3
	c0-3.5,1.4-5.3,4-5.3h4.5C321.7,78.5,321.5,79.5,321.5,80.5L321.5,80.5z"/>
<path class="st0" d="M188.3,33.2c-3.8,0-6.6,1.1-8.5,3.2c-1.7,2.1-2.6,4.8-2.4,7.4c-0.1,2.6,0.6,5.2,2.2,7.3h-9.2v-7.2
	c0.1-2.7-0.7-5.4-2.4-7.5c-1.9-2.1-4.7-3.2-8.4-3.2h-8v0.7c1,1.1,1.5,2.5,1.5,4v13.3h-9.8c-4,0-6-2.4-6-7.3V33.2h-4.9v10.7
	c-0.1,2.7,0.7,5.4,2.4,7.5c1.9,2.1,4.7,3.2,8.4,3.2H158V40.4c0-1.3-0.2-2.5-0.7-3.7h2.4c4,0,6,2.4,6,7.3v10.7h22.6
	c3.8,0,6.6-1.1,8.5-3.2c3.4-4.4,3.4-10.6,0-15C194.8,34.3,192,33.2,188.3,33.2z M188.2,51.1c-4,0-6-2.4-6-7.3c0-4.8,2-7.2,6-7.2
	c4,0,6,2.4,6,7.2S192.3,51.1,188.2,51.1z"/>
<rect x="372.5" y="23.3" class="st0" width="5" height="31.3"/>
<path class="st0" d="M225.3,29.5c1.4,0,2.4-1.1,2.4-2.4s-1.1-2.4-2.4-2.4s-2.4,1.1-2.4,2.4l0,0C222.8,28.3,223.9,29.4,225.3,29.5z"
	/>
<path class="st0" d="M231.4,29.5c1.4,0,2.4-1.1,2.4-2.4s-1.1-2.4-2.4-2.4c-1.4,0-2.4,1.1-2.4,2.4l0,0C229,28.3,230,29.5,231.4,29.5z
	"/>
<path class="st0" d="M160.1,58.5c-1.4,0-2.4,1.1-2.4,2.4s1.1,2.4,2.4,2.4s2.4-1.1,2.4-2.4C162.6,59.6,161.5,58.5,160.1,58.5
	L160.1,58.5z"/>
<path class="st0" d="M166.3,58.5c-1.4,0-2.4,1.1-2.4,2.4s1.1,2.4,2.4,2.4s2.4-1.1,2.4-2.4S167.7,58.5,166.3,58.5L166.3,58.5z"/>
<path class="st0" d="M300.5,29.5c1.4,0,2.4-1.1,2.4-2.4s-1.1-2.4-2.4-2.4c-1.4,0-2.4,1.1-2.4,2.4l0,0
	C298.1,28.3,299.2,29.4,300.5,29.5z"/>
<path class="st0" d="M306.7,29.5c1.4,0,2.4-1.1,2.4-2.4s-1.1-2.4-2.4-2.4c-1.4,0-2.4,1.1-2.4,2.4C304.2,28.3,305.3,29.5,306.7,29.5
	L306.7,29.5z"/>
<path class="st0" d="M145.2,29.5c1.4,0,2.4-1.1,2.4-2.4s-1.1-2.4-2.4-2.4s-2.4,1.1-2.4,2.4l0,0C142.8,28.3,143.9,29.4,145.2,29.5z"
	/>
<path class="st0" d="M363.4,43.8c0,4.9-2,7.3-6,7.3h-6.2c1.6-2.1,2.4-4.7,2.2-7.3c0.1-2.7-0.7-5.4-2.4-7.4c-1.9-2.1-4.9-3.2-8.5-3.2
	c-5.4,0.4-10.6,2.1-15.1,5.2v-5.2h-4.9v11.2c0.1,1.6,0,3.2-0.5,4.8c-0.5,1.2-1.7,2-3,1.9h-8.6c1.6-2,2.4-4.6,2.4-7.2v-6
	c0-1.5,0.5-2.9,1.5-4v-0.7h-12.5c-3.8,0-6.6,1.1-8.4,3.2c-3.2,4.4-3.3,10.3-0.2,14.7h-7.6c-2.2,0-4.4-0.5-6.4-1.4V33.2h-5v20.3
	c0,4.2-1.5,6.6-4.6,7.1v0.9c3,1.9,9.6,1.5,9.6-7.9v-0.6c2,1,4.2,1.6,6.4,1.7h35.3c1.9,0.1,3.8-0.7,4.9-2.2l0,0
	c2.3,1.4,4.8,2.1,7.4,2.2h24.1c3.7,0,6.5-1.1,8.4-3.2c1.7-2.1,2.6-4.8,2.4-7.5V23.3h-4.9L363.4,43.8z M295.9,43.9c0-4.9,2-7.3,6-7.3
	h6.7c-0.5,1.2-0.6,2.4-0.6,3.7v3.5c0,4.8-2,7.2-6,7.2h-0.1C297.8,51.1,295.8,48.7,295.9,43.9L295.9,43.9z M331.6,51.1
	c-1.6-0.1-3.2-0.5-4.5-1.4c0.2-1,0.4-1.9,0.4-2.8l0,0c0-4.8,7.8-10.2,15.2-10.2c3.9,0,6,2.4,6,7.2s-2,7.3-5.9,7.3L331.6,51.1
	L331.6,51.1z"/>
<path class="st0" d="M258.1,43.8c0,4.9-2,7.3-6,7.3c-1.9,0-3.7-0.4-5.4-1c1-1.9,1.6-4,1.5-6.2V23.3h-4.9v20.6c0,4.9-2,7.3-6,7.3
	c-2.2,0-4.4-0.5-6.4-1.4c0.4-1.8,0.5-3.7,0.5-5.5v-11h-4.9v11.2c0.1,1.6,0,3.2-0.5,4.8c-0.5,1.2-1.6,2-2.9,1.9h-8.3
	c-4,0-6-2.4-6-7.3V23.3H204v20.6c-0.1,2.7,0.7,5.4,2.4,7.5c1.9,2.1,4.7,3.2,8.4,3.2h10c1.9,0.1,3.8-0.7,4.9-2.2l0,0
	c2.3,1.4,4.8,2.1,7.4,2.2c2.6,0.1,5.2-0.7,7.3-2.2c2.3,1.4,4.8,2.1,7.4,2.2c3.7,0,6.5-1.1,8.4-3.2c1.7-2.1,2.6-4.8,2.4-7.5V23.3H258
	L258.1,43.8z"/>
<path class="st0" d="M210.8,19.4v-2h-3.2c-0.6,0-1.5-0.2-1.5-1.9s0.8-1.8,1.5-1.8c0.6,0,1.2,0.1,1.7,0.4l0.5,0.2l0.6-1.9l-0.4-0.1
	c-0.9-0.4-1.8-0.5-2.7-0.5c-1,0-2,0.4-2.7,1.1c-0.7,0.8-1,1.8-1,2.8c0,0.6,0.1,1.3,0.4,1.9h-2.2v2L210.8,19.4L210.8,19.4z"/>
<path class="st1" d="M112.4,84.3c-18.5,0-33.4-15-33.4-33.4c0-4.2,0.7-8.3,2.1-12.2c1-2.7,2.6-5.2,4.7-7.3c4.9-5,12.7-5.5,18.3-1.3
	l0.1,0l-0.5-1.5c-2.3-6.2-8.1-10.3-14.7-10.3H75.3C60.8,18.4,48,27.4,43,41L32.4,70.2c-3.1,8.5-11.2,14.1-20.2,14.1H3.7L6,90.8h8.5
	h0.8l0,0H38c14.5,0,27.4-9.1,32.3-22.6l4.8-13.3c2.1,20.4,19.3,35.9,39.8,35.9h2.5l2.4-6.5L112.4,84.3z M66.4,41L55.8,70.2
	c-3.1,8.4-11.1,14.1-20.1,14.1h-1.1c5.6-4,9.9-9.7,12.2-16.1l10.6-29.2c3.1-8.4,11.2-14.1,20.2-14.1h1.1
	C73.1,28.9,68.8,34.5,66.4,41z"/>
</svg>
