<svg xmlns="http://www.w3.org/2000/svg" xmlns:xlink="http://www.w3.org/1999/xlink" viewBox="0 0 193 72.57" xmlns:v="https://vecta.io/nano"><defs><clipPath id="A" transform="translate(-6 -40.99)"><path d="M6 40.89h193v72.55H6z" fill="none"/></clipPath><path id="B" d="M11.44 59.17h1.72v.88h-1.72z"/><path id="C" d="M12.91 59.17h1.73v.88h-1.73z"/></defs><path d="M6.07 43.47V6.14l58.99 10.23-.28 27.28-58.71-.18z" fill="#d0cfcd"/><g clip-path="url(#A)"><g fill="#035c67"><path d="M5.55 45.65l2.52 4.1a3.91 3.91 0 0 0 .87.92l-.44-.79c-.3-.61-.05-.54-.36-1-.46-.73-.1-.21-.25-.52s-.29-.44-.59-1-.47-1.14-.67-1.44-.62-.6-.62-.4-.46.15-.46.15m-2.62-4.86a2.51 2.51 0 0 1-.46-1.08c-.05-.56-.51-1.89-.61-2.36s-.51-1.17-.57-1.63.06-1.33.06-1.7-.52-3.59-.47-4.1 0-1.6 0-1.91.12-1.28.12-1.48v-2l.2 1.34a7.13 7.13 0 0 1 .2 1.34c0 .36.21.92.27.51s0-.78.09-1.29.21-2.93.26-3.39a14.35 14.35 0 0 1 .41-2.26 25.4 25.4 0 0 1 1-2.43l.38-1.18a2.3 2.3 0 0 1 .24-1.52c.46-.86.55-.56 1.06-1.54l1.15-2.31a3.1 3.1 0 0 1 1-1.13l.82-.72c.35-.3.35-.51.78-.92s.76-1 .45-.77a10.14 10.14 0 0 0-1.33 1l-1.54 1.84s0-1.84 4.05-4.3L17 2.73A41.29 41.29 0 0 1 25.11.06a50.79 50.79 0 0 1 5.6.09 21.66 21.66 0 0 1 8.47 2.53 23.31 23.31 0 0 1 8.37 9.6c1.38 3.39 2 9.95 2 12.26s-1.8 7-2.68 8.83a17.64 17.64 0 0 1-5.44 6.21 12.28 12.28 0 0 1-6.57 2.06 9.14 9.14 0 0 1-5.08-1.29 9.24 9.24 0 0 1-4.27-6 22.42 22.42 0 0 1-.45-7.5 15.11 15.11 0 0 1 2.05-4.84 6.22 6.22 0 0 1 2.31-2.05 4.18 4.18 0 0 1 2.73 0c.87.36 1.07.82 1 1.4a1.11 1.11 0 0 1-.82 1.07 7 7 0 0 0-1.39.41 5.38 5.38 0 0 0-1.69 2.61 22.77 22.77 0 0 0-.82 4.47 12.05 12.05 0 0 0 .67 4.47 6 6 0 0 0 3 2.82 9.23 9.23 0 0 0 3.33.56 11.8 11.8 0 0 0 4.05-1.53 16.88 16.88 0 0 0 3.91-4.23 28.67 28.67 0 0 0 2.25-6.83 34.18 34.18 0 0 0 .11-6.47 35.19 35.19 0 0 0-2.58-7.45 26.57 26.57 0 0 0-5.79-6 14.7 14.7 0 0 0-5.23-2.11 25.51 25.51 0 0 0-5-.3 31.28 31.28 0 0 0-7.29 1.16 48.7 48.7 0 0 0-7 3.71A25.52 25.52 0 0 0 9 11.15c-.6.87-2.65 3.44-3 4.26s-1.38 2.72-1.75 3.74a15.69 15.69 0 0 0-1 3.34c0 .92-.61 3-.67 3.75s.06 2.15.06 2.92a9.09 9.09 0 0 1-.34 2v-1.6c0-.25.12-.82.12-1a1.45 1.45 0 0 0-.26-.56 5.65 5.65 0 0 1 0 1.08c-.05.51-.36 1.07-.36.67s0-1.29-.15-1a13.84 13.84 0 0 0-.15 2c0 .22-.06 1.19-.06 1.44a14.06 14.06 0 0 0 .42 1.7A3.3 3.3 0 0 1 2 35.07c0 .51-.57.46-.41.92s.56 1.38.62 1.65-.06-1.13.16-.46.3 1.33.56 2 .58 2.23.58 2.23z"/><path d="M3.86 39.58v-.15a8.14 8.14 0 0 1-.26-1 4.07 4.07 0 0 0-.21-.92c-.1-.36.31.1.36.31s.11-1.59.16-.72a8.64 8.64 0 0 0 .21 1.8c.15.71.31 1.69.19 1.34a1.42 1.42 0 0 0-.4-.63m-.77-3v-.1c0-.22-.05-.74-.05-1S3 34.86 3 34.45v-1.64a13.9 13.9 0 0 0 .31 1.94 9.65 9.65 0 0 1 .26 1.8z"/></g><g fill="#757a4d"><path d="M33 29.62c0-.76.83-1.38 1.59-1.48a3.33 3.33 0 0 0 2.38-2.26 22.18 22.18 0 0 0 1.03-5.5c-.1-1.12-.51-4.15-1.48-5.07a7.51 7.51 0 0 0-3.24-2 11.21 11.21 0 0 0-3.75 0 13.16 13.16 0 0 0-3.89 2.11 17.74 17.74 0 0 0-3.44 4.77 26.17 26.17 0 0 0-1.75 7.82c0 1.91.14 6.17 1.79 9.55s4.05 6.63 7.14 8.16a18.39 18.39 0 0 0 9.29 2.21c3-.2 7.38-.61 11.13-2.87s7.76-4.84 10.06-9.34a38.1 38.1 0 0 0 3.7-11 37.86 37.86 0 0 0 .31-4.4c0-.62.1-1.75.1-1.75l.25.82c.11.31.16.82.27.66s.25-.05.25-.35-.31-2.21-.31-2.61-.1-1.4-.1-1.55a12.55 12.55 0 0 0 0-1.34c-.06-.2-.57-.71-.57-1s-.46-.38-.46-.38.31-.35.2-.5-.5-.31-.5-.55-.09 0-.14.29a.47.47 0 0 1-.37.32l-.16-.77.12-.83s.46.63.46.47.15-.16.15-.56-.06-1-.06-1.19-.09-1-.09-1 .45 1.6.55 2.16.73 1.85.83 2.63.51 1.59.51 1.84.26 1.48.26 2 .2 1.73.2 2.09.15 4.11.06 4.47-.36 0-.36.16-.21-1.44-.21-1a12.74 12.74 0 0 1-.1 2c-.1.46-.57 2.67-.57 3a19.14 19.14 0 0 1-.86 3.24 16.71 16.71 0 0 0-.73 2.25 15.06 15.06 0 0 1-.49 1.73 4.77 4.77 0 0 1-.77 1.22c-.15.22-.67 1.35-.87 1.7a3.82 3.82 0 0 1-1 1.49A6.68 6.68 0 0 0 58 40.76c-.19.31-1.07 1.14-1.28 1.54a3.43 3.43 0 0 1-.72.87l1.35-1a4.53 4.53 0 0 0 1-1 5.87 5.87 0 0 1 .84-1.16c.32-.32 1.09-1.39 1.09-1.39a17 17 0 0 1-1.44 2.39 10.05 10.05 0 0 1-1.59 1.7c-.57.36-1.29 1-2.17 1.53s-3.64 2.27-4.41 2.87a25.21 25.21 0 0 1-5.89 2.74 22.61 22.61 0 0 1-8.84.86 26.65 26.65 0 0 1-9.19-2.92c-2.3-1.35-5.7-4.72-6.61-6.58s-3.09-6.5-3.24-9.2-.26-8.47 1.08-11.5a27.42 27.42 0 0 1 5.24-8c1.43-1.23 3.94-3 5.94-3.18s4.27-.41 5.81.15a11.39 11.39 0 0 1 4.93 4.57 19.41 19.41 0 0 1 1.33 6.37 17 17 0 0 1-.57 5.12 9.78 9.78 0 0 1-2.36 4.17c-1.07 1-1.07 1.08-2.46 1.24s-1.59 0-2.21-.36a1.41 1.41 0 0 1-.67-1m29.89-15.77l.1 1.84c.05.35.26 1.19.3 1s.36 0 .36-.16v-.66c0-.21-.2-.16-.31-.51l-.21-.87a3.78 3.78 0 0 0-.24-.67m-1.6-7.78l-.92-1.39c-.36-.56-.36-1.54-1-2.26L57.68.46s-.29-.1 0 .41a7.52 7.52 0 0 0 .71 1.18 13.4 13.4 0 0 1 1.44 2.1c.1.41.16.88.16.88z"/></g><g fill="#035c67"><path d="M83.27 10.89a1.48 1.48 0 1 0-1.047-.433 1.48 1.48 0 0 0 1.047.433m-4.37 0a1.48 1.48 0 1 0-1.48-1.48 1.47 1.47 0 0 0 1.48 1.48m108.27 3.12v.56a1 1 0 0 1 1.13 1v6.44a1.36 1.36 0 0 1-1.5 1.23h-4.92c-1.18 0-1.38-.45-1.38-1.27v-6.56c0-.82 1.23-1 1.23-1v-.4h-4.94v.52c.78.1 1.19.25 1.19.82v6.77c0 .88-.62 1.08-1.63 1.08h-5.15c-.92 0-1-.36-1-1.34v-6.85c0-.61 1-.61 1-.61v-.39h-4.61v.56c.4 0 1 .26 1 .67v7c0 .62-.71 1-1.58 1h-14.37a1.42 1.42 0 0 1-1.54-1.38V11.24c0-1.42 2.62-1.48 2.62-1.48v-.51H145v.46c1.13 0 2.57.82 2.57 1.53v10.63c0 .57-.4 1.29-1 1.29h-4.36c-.51 0-.82-.62-.82-1.38v-9.3c0-.67 1.17-.67 1.17-.67v-.36h-4.36v.36a1.08 1.08 0 0 1 1 1v9.44c0 .57-.76.93-1.23.93h-7.44c-.76-.15-1.13-1.64-1.13-1.64l-.57.2.78 3h58.15a3.34 3.34 0 0 0 3.14-3.24v-6.3c0-.82 1.12-.71 1.12-.71v-.48zm-69.78 9.77c-3.63 0-5-3.85-5-5.44a5.49 5.49 0 0 1 5.23-5.18c3 0 5.27 3.14 5.27 5.35a5.48 5.48 0 0 1-5.53 5.27m-35.84 0c-3.62 0-5-3.85-5-5.44a5.49 5.49 0 0 1 5.23-5.18c3 0 5.28 3.14 5.28 5.35a5.49 5.49 0 0 1-5.54 5.27m36.14-11.5c-7.7 0-7.82 6.27-7.82 6.27s-.22.56-.61 1.47-2.07 3-2.59 3-14.82.14-15.61-.01-1.35-1.29-1.35-1.82v-8.32c0-.44.69-.65.69-.65h-2.91a1.24 1.24 0 0 1 .75 1v1.94s-1.57-2.86-6.28-2.86c-5.27 0-7.86 4-7.86 6.18s1.33 6.31 7.21 6.31 7-2.94 7-2.94l.52-.08a3.78 3.78 0 0 0 3.06 3.07h14.67c1 0 1.34-.61 2.07-1.39a12.68 12.68 0 0 0 1.56-3.06 7.43 7.43 0 0 0 7.21 4.49c6.06 0 7.95-4.28 7.95-6.22s-1.59-6.32-7.6-6.32M178 41.44l3-6.31 3 6.31zm11.41 5.08a5.68 5.68 0 0 1-1-1.64l-6.47-13h-.53L176 43.18a15.92 15.92 0 0 1-1.74 3.1 2.24 2.24 0 0 1-1.51.66v.42h5.16v-.42a5.58 5.58 0 0 1-1.25-.2.82.82 0 0 1-.53-.82 2.43 2.43 0 0 1 .2-.79c.13-.34.55-1.26 1.25-2.77h6.8l1.05 2.22a7.13 7.13 0 0 1 .36.91 2.69 2.69 0 0 1 .12.59c0 .35-.11.55-.33.64a6.38 6.38 0 0 1-1.48.22v.42h6.59v-.42a2.72 2.72 0 0 1-1.27-.42m-30-2.91l-6-11.42h-5.14v.43a3.84 3.84 0 0 1 2 .44 2.16 2.16 0 0 1 .44 1.62v9.33a3.77 3.77 0 0 1-.46 2.31 3.44 3.44 0 0 1-2.08.64v.42h6.12v-.42a3.39 3.39 0 0 1-1.8-.5 3.41 3.41 0 0 1-.62-2.45v-9.16l6.54 12.51h.36l6.65-13.06v10.3c0 1-.12 1.59-.4 1.84a3.34 3.34 0 0 1-2 .5v.42h7.29v-.42a3.67 3.67 0 0 1-1.85-.46c-.29-.24-.42-.78-.42-1.61V34.68a2.13 2.13 0 0 1 .42-1.6 3.38 3.38 0 0 1 1.85-.46v-.43h-5.18zm-26.8-2.17l3-6.31 3 6.31zM143 44.88l-6.47-13H136l-5.43 11.3a17.07 17.07 0 0 1-1.71 3.1 2.34 2.34 0 0 1-1.54.66v.42h5.17v-.42a5.81 5.81 0 0 1-1.26-.2.83.83 0 0 1-.52-.82 2.36 2.36 0 0 1 .19-.79c.13-.34.55-1.26 1.26-2.77H139l1 2.22a5.91 5.91 0 0 1 .36.91 2.92 2.92 0 0 1 .13.59c0 .35-.12.55-.34.64a6.16 6.16 0 0 1-1.47.22v.42h6.59v-.42a2.64 2.64 0 0 1-1.27-.42 5.46 5.46 0 0 1-1-1.64m-20.24 1.13a14.73 14.73 0 0 1-4.68.5h-1.21-.61a.87.87 0 0 1-.64-.28 1 1 0 0 1-.16-.6v-11a1.8 1.8 0 0 1 .54-1.62 4.2 4.2 0 0 1 1.94-.41v-.43h-7.36v.43a3.3 3.3 0 0 1 1.85.47 2.18 2.18 0 0 1 .43 1.61v10.18a2.19 2.19 0 0 1-.43 1.64 4.22 4.22 0 0 1-1.85.44v.42h14l1.25-4h-.65a5.49 5.49 0 0 1-2.42 2.65m-28.33-4.54l2.95-6.31 3 6.31zm10.41 3.44l-6.47-13h-.54l-5.42 11.3a17.07 17.07 0 0 1-1.71 3.1 2.34 2.34 0 0 1-1.54.66v.42h5.16v-.42a5.81 5.81 0 0 1-1.25-.2.83.83 0 0 1-.52-.82 2.36 2.36 0 0 1 .19-.79L94 42.39h6.8l1 2.22a5.91 5.91 0 0 1 .36.91 2.92 2.92 0 0 1 .13.59c0 .35-.11.55-.34.64a6.06 6.06 0 0 1-1.47.22v.42h6.59v-.42a2.64 2.64 0 0 1-1.27-.42 5.92 5.92 0 0 1-1-1.64m-22.88-5.9l-2.3-1.25a7.87 7.87 0 0 1-1.9-1.33 2.11 2.11 0 0 1-.61-1.51 1.78 1.78 0 0 1 .79-1.54 3.3 3.3 0 0 1 1.87-.56 5.44 5.44 0 0 1 2.8.87 5.1 5.1 0 0 1 2 3.1h.63l-.59-4.9h-.5a1.43 1.43 0 0 1-.29.55.89.89 0 0 1-.67.19 10.45 10.45 0 0 1-1.43-.36 7.8 7.8 0 0 0-2.16-.38 5.25 5.25 0 0 0-3.46 1.12 3.72 3.72 0 0 0-1.3 2.9 3.33 3.33 0 0 0 1.1 2.39 7.78 7.78 0 0 0 1.6 1.13l2.24 1.22a17.36 17.36 0 0 1 2.53 1.57 2.57 2.57 0 0 1 .92 2 2.3 2.3 0 0 1-.91 1.94 3.35 3.35 0 0 1-2.13.68 5.13 5.13 0 0 1-3.82-1.57 8.16 8.16 0 0 1-1.53-2.46h-.62l.82 4.86h.57a1.45 1.45 0 0 1 .22-.55.66.66 0 0 1 .61-.26 10.65 10.65 0 0 1 1.49.41 8.84 8.84 0 0 0 2.5.4 6.07 6.07 0 0 0 3.93-1.22 3.65 3.65 0 0 0 1.54-3 3.43 3.43 0 0 0-.86-2.32A11.46 11.46 0 0 0 82 39"/></g><g fill="#808083"><path d="M3.33 61.01h.89v1h-.89zm-1.33 0h.89v1H2zm4.63-.92v-4c-.48 0-1 .07-1 1.5v2.42H0a9.75 9.75 0 0 1 .52-2.58 2.73 2.73 0 0 1 2.9-2v.8a1.88 1.88 0 0 0-2 1.21A8.19 8.19 0 0 0 1 59.17h3.73v-1.78h0c0-2.18 1.24-2.29 2.78-2.27v4.06h1.31v.83z"/><path d="M8.5 59.17h1.73v.88H8.5z"/><path d="M9.97 59.17h1.73v.88H9.97z"/><use xlink:href="#B"/><use xlink:href="#C"/><path d="M14.37 59.17h1.73v.88h-1.73z"/><path d="M15.84 59.17h1.72v.88h-1.72z"/><path d="M17.32 59.17h1.72v.88h-1.72z"/><path d="M18.78 59.17h1.73v.88h-1.73z"/><path d="M20.25 59.17h1.73v.88h-1.73z"/><path d="M21.72 59.17h1.73v.88h-1.73z"/><path d="M23.19 59.17h1.72v.88h-1.72z"/><path d="M24.66 59.17h1.73v.88h-1.73z"/><path d="M27.69 53.21h.89v1h-.89zm-1.16 6.8h-.47v-.87h.47c.81 0 1.18-.47 1.18-1.25v-2.78h.87v2.9a1.91 1.91 0 0 1-2 2.08m5.97-4.16h-1c-.88 0-1 1.21-1 1.87s.11 1.95 1 1.95 1-1.18 1-1.88zm-1 6.33h0v-.82c.78 0 1-.91 1-1.55a1.11 1.11 0 0 1-1.14.68c-1.17 0-1.82-1-1.82-2.74s.7-2.72 1.84-2.72h2v5a1.9 1.9 0 0 1-1.84 2.14m2.81-4.24v-4.82h.89v4.73a1.12 1.12 0 0 0 1.23 1.25v.84a1.94 1.94 0 0 1-2.12-2"/><path d="M36.25 59.17h1.72v.88h-1.72z"/><path d="M37.72 59.17h1.72v.88h-1.72z"/><path d="M39.19 59.17h1.72v.88h-1.72z"/><path d="M40.65 59.17h1.73v.88h-1.73z"/><path d="M42.13 59.17h1.72v.88h-1.72z"/><path d="M43.59 59.17h1.72v.88h-1.72z"/><path d="M45.07 59.17h1.72v.88h-1.72z"/><path d="M49.93 55.87h0a1.58 1.58 0 0 0-1.67 1.59l1.67 1.58 1.67-1.58a1.63 1.63 0 0 0-1.65-1.59m1 4.17a3.14 3.14 0 0 1-1-.17 3.29 3.29 0 0 1-1 .17h-2.42v-.87h2.38l-1.63-1.54a2.63 2.63 0 0 1 5.26 0l-1.63 1.54h2.36v.84z"/><path d="M52.97 59.17h1.72v.88h-1.72z"/><path d="M54.43 59.17h1.72v.88h-1.72z"/><path d="M55.9 59.17h1.72v.88H55.9z"/><path d="M58.56 53.19h.88v1h-.88zm2.07 6.82a1.92 1.92 0 0 1-1.57-.67 1.81 1.81 0 0 1-1.54.67h-.1v-.87h.1a1 1 0 0 0 1.06-1v-3h.87v3.06c0 .64.45 1 1.18 1h.1v.81zm-3.46-6.85h.88v1h-.88z"/><path d="M60.48 60.01v-.87a1.13 1.13 0 0 0 1.25-1.25v-4.7h.88v4.82a2 2 0 0 1-2.13 2m4.9-6.82h.89v6.86h-.89zm6.98.38h.88v1h-.88zM76 60.01a2.07 2.07 0 0 1-1.15-.31v.14a1.92 1.92 0 0 1-1.89 2.07h-.25a1.92 1.92 0 0 1-1.89-2.08v-4.72h.88v4.7c0 .77.34 1.26 1.14 1.26s1.12-.49 1.12-1.26v-4.7h.89v3.18c0 .57.48.88 1.15.88h.16v.84z"/><path d="M75.84 59.17h1.73v.88h-1.73z"/><path d="M77.31 59.17h1.72v.88h-1.72z"/><path d="M78.77 59.17h1.72v.88h-1.72z"/><path d="M80.25 59.17h1.72v.88h-1.72z"/><path d="M81.71 59.17h1.73v.88h-1.73z"/><path d="M83.19 59.17h1.72v.88h-1.72z"/><path d="M85.87 61.01h.88v1h-.88zm2-.92a1.91 1.91 0 0 1-1.58-.67 1.81 1.81 0 0 1-1.53.67h-.15v-.87h.15a1 1 0 0 0 1-1v-3h.88v3.06c0 .64.46 1 1.18 1h.15v.73zm-3.44.92h.88v1h-.88z"/><path d="M90.83 55.54c-.7 0-1.07.63-1.07 1.88s.37 1.84 1.07 1.84 1.1-.61 1.1-1.81-.36-1.91-1.1-1.91m0 4.5a1.75 1.75 0 0 1-1.53-.79 1.74 1.74 0 0 1-1.49.79v-.87a1 1 0 0 0 .91-.69 3.06 3.06 0 0 0 .12-1.21h0c0-1.56.78-2.51 2-2.51s2 1 2 2.65-.74 2.63-2 2.63m2.99-2.03v-4.82h.88v4.73a1.12 1.12 0 0 0 1.22 1.25v.84a1.94 1.94 0 0 1-2.1-2m-.74-5.34v-.5h.43v-.16c0-.26.07-1 .82-1 .44 0 .62.25.78.64h-.52c-.08-.11-.11-.17-.25-.17s-.32.31-.32.55v.11h1.16v.5z"/><path d="M95.67 59.17h1.73v.88h-1.73z"/><path d="M97.14 59.17h1.72v.88h-1.72z"/><path d="M98.61 59.17h1.73v.88h-1.73z"/><path d="M100.08 59.17h1.72v.88h-1.72z"/><path d="M101.55 59.17h1.72v.88h-1.72z"/><path d="M104.21 53.19h.88v1h-.88zm2.07 6.85a1.91 1.91 0 0 1-1.58-.67 1.83 1.83 0 0 1-1.53.67h-.11v-.87h.11a1 1 0 0 0 1-1v-3h.89v3.06c0 .64.45 1 1.18 1h.1v.78zm-3.47-6.85h.88v1h-.88z"/><path d="M109.39 60.01a1.92 1.92 0 0 1-1.58-.67 1.83 1.83 0 0 1-1.53.67h-.15v-.87h.15a1 1 0 0 0 1-1v-4.93h.89v5c0 .64.45 1 1.18 1h.15v.8z"/><path d="M109.24 60.01v-.87a1.13 1.13 0 0 0 1.24-1.25v-4.7h.88v4.82a2 2 0 0 1-2.12 2.08m9.62-6.9h.88v1h-.88zm-1.37 0h.87v1h-.87zm1.38 2.74h-1c-.83 0-1 1.08-1 1.72s.27 1.52 1 1.52h1zm-1.06 4.08c-.8 0-1.89-.6-1.89-2.39s.73-2.54 1.89-2.54h2v4.06H121v.87z"/><path d="M120.65 59.17h1.72v.88h-1.72z"/><path d="M122.12 59.17h1.72v.88h-1.72z"/><path d="M123.59 59.17h1.72v.88h-1.72z"/><path d="M125.05 59.17h1.73v.88h-1.73z"/><path d="M126.52 59.17h1.73v.88h-1.73z"/><path d="M131.07 55.54c-.71 0-1.08.63-1.08 1.88s.37 1.84 1.08 1.84 1.09-.61 1.09-1.81-.35-1.91-1.09-1.91m0 4.5a1.78 1.78 0 0 1-1.55-.79 1.7 1.7 0 0 1-1.52.76v-.87a1 1 0 0 0 .92-.69 3.26 3.26 0 0 0 .12-1.21h0c0-1.56.78-2.51 2-2.51s2 1 2 2.65-.74 2.63-2 2.63m8.29 0h-.15a1.88 1.88 0 0 1-1.56-.67 1.68 1.68 0 0 1-1.39.67h-2.17v-.87h.88v-6h.9v6h.36c.67 0 1-.63 1-1.89v-4.04h.88v4.7a4.3 4.3 0 0 1 0 .58c.13.45.5.68 1.12.68h.15z"/><path d="M139.02 59.17h1.73v.88h-1.73z"/><path d="M140.49 59.17h1.72v.88h-1.72z"/><path d="M141.96 59.17h1.73v.88h-1.73z"/><path d="M149.51 60.01h-6v-.87h1.68v-4h.81v4h1.67v-4.03h.88v4.06h.93c.57 0 .75-.22.75-1.25v-2.81h.88v3.25a1.49 1.49 0 0 1-1.6 1.68m9.1-6.85h.86v1h-.86zm-1.39 0h.88v1h-.88zm1.39 2.74h-1c-.82 0-1 1.08-1 1.72s.27 1.52 1 1.52h1zm-1.06 4.08c-.79 0-1.91-.6-1.91-2.39s.74-2.54 1.91-2.54h1.94v4.06h1.2v.87z"/><path d="M160.39 59.17h1.72v.88h-1.72z"/><path d="M161.86 59.17h1.73v.88h-1.73z"/><path d="M163.32 59.17h1.72v.88h-1.72z"/><path d="M164.8 59.17h1.72v.88h-1.72z"/><path d="M166.26 59.17h1.72v.88h-1.72z"/><path d="M167.74 59.17h1.72v.88h-1.72z"/><path d="M169.2 59.17h1.72v.88h-1.72z"/><path d="M170.61 60.01v-.87h4.15V57.6c0-.76-.41-1.15-1.22-1.15h-2.68v-1.54a1.7 1.7 0 0 1 1.91-1.7h1.81v.86h-1.81c-.66 0-1.07.37-1.07.86v.63h1.84a1.82 1.82 0 0 1 2 2v2.45zm8.39 0a2.08 2.08 0 0 1-1.16-.31v.07a1.94 1.94 0 0 1-1.89 2.14v-.8a1.05 1.05 0 0 0 .86-.69 3.05 3.05 0 0 0 .15-1.21v-4.1h.88v3.12c0 .61.46.94 1.16.94h.11v.84z"/><path d="M178.87 59.17h1.73v.88h-1.73z"/><path d="M180.35 59.17h1.72v.88h-1.72z"/><path d="M181.81 59.17h1.73v.88h-1.73z"/><path d="M183.28 59.17h1.73v.88h-1.73z"/><path d="M189.67 53.21h.88v1h-.88zm-.67-1.42h.87v1H189zm-.7 1.42h.88v1h-.88zm2.56 6.83h-6.06v-.87h1.69v-4h.84v4H189v-4.06h.88v4.06h.93c.56 0 .74-.22.74-1.25v-2.81h.88v3.25a1.48 1.48 0 0 1-1.59 1.68M.26 69.73l.38-.31q.39 1 .9 1a.7.7 0 0 0 .41-.14 1 1 0 0 0 .3-.39 1.54 1.54 0 0 0 .09-.52 1.27 1.27 0 0 0-.14-.61 4.67 4.67 0 0 0-.75-1 4.39 4.39 0 0 1-.68-.85 2 2 0 0 1-.22-1 2.15 2.15 0 0 1 .12-.73 1.36 1.36 0 0 1 .39-.53.9.9 0 0 1 .54-.18.88.88 0 0 1 .57.2 2.7 2.7 0 0 1 .58.8l-.36.39a2.11 2.11 0 0 0-.42-.61.59.59 0 0 0-.38-.15.52.52 0 0 0-.43.23.94.94 0 0 0-.16.68 1.24 1.24 0 0 0 0 .38 1.64 1.64 0 0 0 .21.42l.57.62a4.14 4.14 0 0 1 .78 1.05 2.25 2.25 0 0 1 .21.94 2 2 0 0 1-.36 1.17 1.08 1.08 0 0 1-.87.5 1.07 1.07 0 0 1-.73-.31 2.58 2.58 0 0 1-.6-1"/><path d="M7.21 66.75a.92.92 0 0 0-.64.25 1.59 1.59 0 0 0-.47.68 2.35 2.35 0 0 0-.17.92 2.47 2.47 0 0 0 .17.93 1.65 1.65 0 0 0 .47.68.94.94 0 0 0 .63.25 1 1 0 0 0 .65-.25 1.6 1.6 0 0 0 .48-.65 2.83 2.83 0 0 0 .15-1 2.25 2.25 0 0 0-.36-1.32 1.09 1.09 0 0 0-.91-.54m1.66-.45v4.59h-.41v-.79a2 2 0 0 1-.59.68 1.19 1.19 0 0 1-.71.22 1.37 1.37 0 0 1-1.16-.7 2.91 2.91 0 0 1-.5-1.72 2.84 2.84 0 0 1 .5-1.69 1.42 1.42 0 0 1 1.18-.71 1.2 1.2 0 0 1 .72.24 2.1 2.1 0 0 1 .56.73v-.85zm2.85-1.71h.41v6.35h-.41zm4.82 2.21a1 1 0 0 0-.65.25 1.56 1.56 0 0 0-.45.68 2.36 2.36 0 0 0-.18.92 2.48 2.48 0 0 0 .18.93 1.74 1.74 0 0 0 .46.68 1 1 0 0 0 .64.25 1 1 0 0 0 .64-.25 1.59 1.59 0 0 0 .47-.65 2.82 2.82 0 0 0 .17-1 2.25 2.25 0 0 0-.37-1.32 1.09 1.09 0 0 0-.91-.54m1.66-.45v4.59h-.41v-.79a2 2 0 0 1-.59.68 1.19 1.19 0 0 1-.71.22 1.41 1.41 0 0 1-1.17-.7 2.9 2.9 0 0 1-.48-1.72 2.83 2.83 0 0 1 .48-1.69 1.43 1.43 0 0 1 1.18-.71 1.16 1.16 0 0 1 .72.24 2 2 0 0 1 .57.73v-.85zm2.91.05h.41v.79a2.35 2.35 0 0 1 .45-.64 1 1 0 0 1 .66-.27.91.91 0 0 1 .46.14.9.9 0 0 1 .33.34 2.18 2.18 0 0 1 .23.62 2.23 2.23 0 0 1 .52-.82 1 1 0 0 1 .68-.28.84.84 0 0 1 .58.24 1.46 1.46 0 0 1 .38.67 4.75 4.75 0 0 1 .12 1.29v2.51h-.42v-2.51a5.37 5.37 0 0 0-.07-1 1.22 1.22 0 0 0-.25-.45.65.65 0 0 0-.43-.17.79.79 0 0 0-.56.26 1.53 1.53 0 0 0-.36.67 6.53 6.53 0 0 0-.11 1.41v1.8h-.43v-2.35a5.67 5.67 0 0 0-.07-1.13.89.89 0 0 0-.25-.47.59.59 0 0 0-.43-.19.81.81 0 0 0-.55.25 1.86 1.86 0 0 0-.37.67 5.43 5.43 0 0 0-.12 1.28v1.94h-.41zm9.24.45a1 1 0 0 0-.64.25 1.49 1.49 0 0 0-.46.68 2.19 2.19 0 0 0-.18.92 2.3 2.3 0 0 0 .18.93 1.64 1.64 0 0 0 .46.68.94.94 0 0 0 1.28 0 1.5 1.5 0 0 0 .47-.65 2.59 2.59 0 0 0 .17-1 2.33 2.33 0 0 0-.37-1.32 1.09 1.09 0 0 0-.91-.54m1.65-.45v4.59h-.4v-.79a2.22 2.22 0 0 1-.58.68 1.26 1.26 0 0 1-.71.22 1.4 1.4 0 0 1-1.18-.7 3 3 0 0 1-.48-1.72 2.83 2.83 0 0 1 .49-1.69 1.4 1.4 0 0 1 1.17-.71 1.16 1.16 0 0 1 .72.24 2 2 0 0 1 .57.73v-.85zm10.72-.42l-.34.38a2.17 2.17 0 0 0-.69-.79 1.46 1.46 0 0 0-.88-.28 1.51 1.51 0 0 0-1 .35 2.35 2.35 0 0 0-.69 1 3.47 3.47 0 0 0-.25 1.36 3.18 3.18 0 0 0 .55 1.89 1.64 1.64 0 0 0 1.39.75 1.78 1.78 0 0 0 1.53-1l.34.37a2.43 2.43 0 0 1-.82.91 1.86 1.86 0 0 1-1.09.32A2 2 0 0 1 39 70.01a4.29 4.29 0 0 1-.55-2.21 3.79 3.79 0 0 1 .68-2.29 2 2 0 0 1 2.79-.59 2.62 2.62 0 0 1 .8 1m4.28.83a1.05 1.05 0 0 0-.88.55 2.21 2.21 0 0 0-.38 1.32 2.6 2.6 0 0 0 .17.93 1.61 1.61 0 0 0 .45.66 1 1 0 0 0 1.28 0 1.52 1.52 0 0 0 .45-.66 2.41 2.41 0 0 0 .18-.93 2.35 2.35 0 0 0-.37-1.32 1.11 1.11 0 0 0-.9-.55m0-.57a1.45 1.45 0 0 1 1.24.77 3.26 3.26 0 0 1 0 3.34 1.43 1.43 0 0 1-1.24.72 1.45 1.45 0 0 1-1.22-.71 3.11 3.11 0 0 1-.46-1.68 3 3 0 0 1 .48-1.61 1.43 1.43 0 0 1 1.23-.78m5.97.52a1.06 1.06 0 0 0-.88.55 2.21 2.21 0 0 0-.37 1.32 2.6 2.6 0 0 0 .16.93 1.83 1.83 0 0 0 .45.66 1 1 0 0 0 .64.23.93.93 0 0 0 .63-.23 1.46 1.46 0 0 0 .46-.66 2.41 2.41 0 0 0 .18-.93 2.28 2.28 0 0 0-.38-1.32 1.08 1.08 0 0 0-.89-.55m0-.57a1.42 1.42 0 0 1 1.23.77 2.94 2.94 0 0 1 .46 1.66 3 3 0 0 1-.47 1.68 1.44 1.44 0 0 1-1.22.72 1.41 1.41 0 0 1-1.21-.71 3.24 3.24 0 0 1 0-3.33 1.44 1.44 0 0 1 1.23-.78m6.07.56a1.09 1.09 0 0 0-.91.54 2.33 2.33 0 0 0-.36 1.32 2.59 2.59 0 0 0 .16 1 1.59 1.59 0 0 0 .47.65 1 1 0 0 0 .65.25 1 1 0 0 0 .63-.25 1.55 1.55 0 0 0 .46-.68 2.3 2.3 0 0 0 .18-.93 2.35 2.35 0 0 0-.17-.92 1.59 1.59 0 0 0-.47-.68.94.94 0 0 0-.64-.25m-1.65-.45h.41v.85a2 2 0 0 1 .56-.73 1.16 1.16 0 0 1 .72-.24 1.4 1.4 0 0 1 1.17.71 2.84 2.84 0 0 1 .5 1.69 3 3 0 0 1-.49 1.72 1.4 1.4 0 0 1-1.17.7 1.19 1.19 0 0 1-.71-.22 2.1 2.1 0 0 1-.58-.68v2.47h-.41zm8.83 1.78a2.45 2.45 0 0 0-.24-.75 1.33 1.33 0 0 0-.42-.46 1 1 0 0 0-1.37.26 2.35 2.35 0 0 0-.38 1zm0 1.24l.34.26a2.9 2.9 0 0 1-.38.77 1.57 1.57 0 0 1-.52.45 1.25 1.25 0 0 1-.63.15 1.38 1.38 0 0 1-1.24-.73 3.22 3.22 0 0 1-.45-1.66 3.19 3.19 0 0 1 .38-1.56 1.42 1.42 0 0 1 1.28-.86 1.48 1.48 0 0 1 1.32.88 3.23 3.23 0 0 1 .35 1.57h-2.9a2.38 2.38 0 0 0 .36 1.31 1 1 0 0 0 .86.51.87.87 0 0 0 .47-.12 1.19 1.19 0 0 0 .41-.32 2.87 2.87 0 0 0 .35-.65m3.06-3.07h.42v.71a1.89 1.89 0 0 1 .4-.59.64.64 0 0 1 .44-.2.53.53 0 0 1 .36.16l-.21.49a.59.59 0 0 0-.22-.08.58.58 0 0 0-.41.25 2.09 2.09 0 0 0-.29.75 10.74 10.74 0 0 0-.07 1.59v1.55h-.42zm5.51.45a1 1 0 0 0-.64.25 1.57 1.57 0 0 0-.46.68 2.35 2.35 0 0 0-.17.92 2.69 2.69 0 0 0 .17.93 1.64 1.64 0 0 0 .46.68 1 1 0 0 0 1.29 0 1.59 1.59 0 0 0 .47-.65 2.59 2.59 0 0 0 .16-1 2.25 2.25 0 0 0-.37-1.32 1.09 1.09 0 0 0-.91-.54m1.67-.45v4.59h-.41v-.79a2.12 2.12 0 0 1-.59.68 1.22 1.22 0 0 1-.71.22 1.39 1.39 0 0 1-1.17-.7 2.91 2.91 0 0 1-.49-1.72 2.83 2.83 0 0 1 .49-1.69 1.42 1.42 0 0 1 1.19-.71 1.19 1.19 0 0 1 .71.24 2 2 0 0 1 .57.73v-.85zm3.27-1.65h.42v1.7h.66v.51h-.66v4.08h-.42v-4.08h-.56v-.51h.56v-1.7zm3.62 1.7h.41v4.59h-.41zm.21-1.89a.3.3 0 0 1 .24.15.59.59 0 0 1 .09.34.62.62 0 0 1-.09.34.28.28 0 0 1-.49 0 .62.62 0 0 1-.09-.34.59.59 0 0 1 .09-.34.3.3 0 0 1 .25-.15m2.74 1.89h.44l1.09 3.34 1.07-3.34h.44l-1.48 4.59h-.07l-1.49-4.59zm8.37 1.83a2.45 2.45 0 0 0-.24-.75 1.17 1.17 0 0 0-.42-.46 1 1 0 0 0-1.37.26 2.5 2.5 0 0 0-.38 1zm0 1.24l.35.26a2.9 2.9 0 0 1-.39.77 1.64 1.64 0 0 1-.51.45 1.27 1.27 0 0 1-.65.15 1.39 1.39 0 0 1-1.23-.73 3.22 3.22 0 0 1-.44-1.66 3.08 3.08 0 0 1 .38-1.56 1.42 1.42 0 0 1 1.27-.86 1.48 1.48 0 0 1 1.32.88 3.22 3.22 0 0 1 .36 1.57h-2.91a2.3 2.3 0 0 0 .37 1.31 1 1 0 0 0 .85.51.9.9 0 0 0 .48-.12 1.26 1.26 0 0 0 .4-.32 2.87 2.87 0 0 0 .35-.65m6.89-4.68h.43v6.2h-.43zM105 66.3h.42v.82a1.93 1.93 0 0 1 .55-.7 1 1 0 0 1 .66-.24.88.88 0 0 1 .63.26 1.58 1.58 0 0 1 .43.71 5.09 5.09 0 0 1 .13 1.37v2.37h-.42V68.7a6.26 6.26 0 0 0 0-1.06 1.22 1.22 0 0 0-.4-.63.66.66 0 0 0-.54-.23.88.88 0 0 0-.67.35 1.93 1.93 0 0 0-.4.88 8.89 8.89 0 0 0 0 1.25v1.68H105zm7.26.5l-.27.4c-.22-.32-.43-.47-.64-.47a.43.43 0 0 0-.35.19.72.72 0 0 0-.15.45.75.75 0 0 0 .12.42 1.65 1.65 0 0 0 .5.48 2.13 2.13 0 0 1 .63.67 1.73 1.73 0 0 1-.12 1.67.82.82 0 0 1-.69.39.93.93 0 0 1-.54-.17 1.28 1.28 0 0 1-.42-.47l.26-.43c.22.35.45.51.68.51a.51.51 0 0 0 .42-.22.86.86 0 0 0 .18-.54.84.84 0 0 0-.12-.45 2.08 2.08 0 0 0-.52-.49 1.79 1.79 0 0 1-.59-.63 1.49 1.49 0 0 1-.17-.71 1.34 1.34 0 0 1 .26-.86.74.74 0 0 1 .63-.36 1.22 1.22 0 0 1 .9.62m2.66-.5h.42v2.14a5.68 5.68 0 0 0 .06 1.09 1.16 1.16 0 0 0 .34.65.81.81 0 0 0 .6.26.85.85 0 0 0 .59-.24 1.48 1.48 0 0 0 .34-.63 7.77 7.77 0 0 0 .06-1.13V66.3h.42v2.25a4.71 4.71 0 0 1-.16 1.43 1.6 1.6 0 0 1-.46.75 1.15 1.15 0 0 1-.79.27 1.13 1.13 0 0 1-.79-.27 1.6 1.6 0 0 1-.47-.76 4.85 4.85 0 0 1-.16-1.46zm5.57 0h.43v.71a1.89 1.89 0 0 1 .4-.59.63.63 0 0 1 .43-.2.59.59 0 0 1 .38.16l-.23.49a.56.56 0 0 0-.21-.08.55.55 0 0 0-.4.25 1.65 1.65 0 0 0-.29.75 10.28 10.28 0 0 0-.08 1.59v1.55h-.43zm5.51.45a1 1 0 0 0-.65.25 1.66 1.66 0 0 0-.46.68 2.55 2.55 0 0 0-.18.92 2.7 2.7 0 0 0 .18.93 1.75 1.75 0 0 0 .47.68 1 1 0 0 0 .63.25 1 1 0 0 0 .65-.25 1.59 1.59 0 0 0 .47-.65 2.59 2.59 0 0 0 .17-1 2.26 2.26 0 0 0-.38-1.32 1.06 1.06 0 0 0-.9-.54m1.66-.45v4.59h-.42v-.79a2 2 0 0 1-.58.68 1.19 1.19 0 0 1-.71.22 1.39 1.39 0 0 1-1.17-.7 2.91 2.91 0 0 1-.49-1.72 2.83 2.83 0 0 1 .49-1.69 1.44 1.44 0 0 1 1.18-.71 1.16 1.16 0 0 1 .72.24 1.88 1.88 0 0 1 .56.73v-.85zm2.93.05h.41v.82a2.16 2.16 0 0 1 .55-.7 1.08 1.08 0 0 1 .67-.24.93.93 0 0 1 .64.26 1.55 1.55 0 0 1 .41.71 5 5 0 0 1 .14 1.37v2.37H133V68.7a6.26 6.26 0 0 0-.05-1.06 1.22 1.22 0 0 0-.28-.68.62.62 0 0 0-.52-.23.87.87 0 0 0-.68.35 1.93 1.93 0 0 0-.4.88 10.16 10.16 0 0 0-.06 1.25v1.68h-.41zm8.82.95l-.33.3a1.29 1.29 0 0 0-1.17-.81 1.17 1.17 0 0 0-1 .53 2.15 2.15 0 0 0-.39 1.32 2.5 2.5 0 0 0 .18.94 1.46 1.46 0 0 0 .49.68 1.08 1.08 0 0 0 .71.25 1.31 1.31 0 0 0 1.15-.81l.33.32a1.83 1.83 0 0 1-.63.76 1.42 1.42 0 0 1-.88.27 1.51 1.51 0 0 1-1.27-.68 2.8 2.8 0 0 1-.51-1.69 3.32 3.32 0 0 1 .23-1.23 2.4 2.4 0 0 1 .66-.9 1.49 1.49 0 0 1 .92-.32 1.38 1.38 0 0 1 .62.15 1.54 1.54 0 0 1 .51.35 2.4 2.4 0 0 1 .35.57m5.53.88a2.44 2.44 0 0 0-.25-.75 1.17 1.17 0 0 0-.42-.46 1 1 0 0 0-.55-.17 1 1 0 0 0-.81.43 2.1 2.1 0 0 0-.38 1zm0 1.24l.35.26a2.89 2.89 0 0 1-.4.77 1.54 1.54 0 0 1-.51.45 1.26 1.26 0 0 1-.64.15 1.38 1.38 0 0 1-1.23-.73 3.13 3.13 0 0 1-.45-1.66 3.3 3.3 0 0 1 .37-1.56 1.44 1.44 0 0 1 1.29-.86 1.47 1.47 0 0 1 1.31.88 3.12 3.12 0 0 1 .36 1.57h-2.9a2.38 2.38 0 0 0 .35 1.31 1 1 0 0 0 .86.51.9.9 0 0 0 .48-.12 1.26 1.26 0 0 0 .4-.32 3.28 3.28 0 0 0 .36-.65m11.01-3.54l-.36.38a2 2 0 0 0-.67-.79 1.49 1.49 0 0 0-.88-.28 1.51 1.51 0 0 0-1 .35 2.26 2.26 0 0 0-.69 1 3.47 3.47 0 0 0-.25 1.36 3.17 3.17 0 0 0 .54 1.89 1.64 1.64 0 0 0 1.38.75 1.76 1.76 0 0 0 1.53-1l.36.37a2.45 2.45 0 0 1-.83.91 1.85 1.85 0 0 1-1.05.24 2 2 0 0 1-1.8-1.08 4.11 4.11 0 0 1-.57-2.21 3.79 3.79 0 0 1 .68-2.29 2 2 0 0 1 1.69-.92 1.89 1.89 0 0 1 1.09.33 2.67 2.67 0 0 1 .82 1m4.32.91a1.08 1.08 0 0 0-.89.55 2.28 2.28 0 0 0-.37 1.32 2.4 2.4 0 0 0 .17.93 1.61 1.61 0 0 0 .45.66 1 1 0 0 0 .64.23.93.93 0 0 0 .63-.23 1.63 1.63 0 0 0 .46-.66 2.61 2.61 0 0 0 .18-.93 2.28 2.28 0 0 0-.38-1.32 1.09 1.09 0 0 0-.89-.55m0-.57a1.46 1.46 0 0 1 1.24.77 3.09 3.09 0 0 1 .44 1.66 3 3 0 0 1-.47 1.68 1.39 1.39 0 0 1-2.42 0 3 3 0 0 1-.48-1.68 3.12 3.12 0 0 1 .46-1.6 1.46 1.46 0 0 1 1.25-.78m4.41.07h.4v.79a2.35 2.35 0 0 1 .45-.64 1 1 0 0 1 .67-.27.82.82 0 0 1 .45.14 1 1 0 0 1 .34.34 2.18 2.18 0 0 1 .23.62 2.11 2.11 0 0 1 .52-.82 1 1 0 0 1 .67-.28.84.84 0 0 1 .59.24 1.46 1.46 0 0 1 .38.67 5.1 5.1 0 0 1 .13 1.29v2.51h-.43v-2.51a3.92 3.92 0 0 0-.08-1 1 1 0 0 0-.24-.45.66.66 0 0 0-.44-.17.77.77 0 0 0-.55.26 1.44 1.44 0 0 0-.36.67 5.69 5.69 0 0 0-.13 1.41v1.8h-.4v-2.35a5.45 5.45 0 0 0-.08-1.13.83.83 0 0 0-.25-.47.59.59 0 0 0-.42-.19.8.8 0 0 0-.55.25 1.72 1.72 0 0 0-.37.67 4.84 4.84 0 0 0-.13 1.28v1.94h-.4zm9.34.45a1.06 1.06 0 0 0-.9.54 2.19 2.19 0 0 0-.38 1.32 2.82 2.82 0 0 0 .16 1 1.52 1.52 0 0 0 .48.65 1 1 0 0 0 .65.25 1 1 0 0 0 .63-.25 1.64 1.64 0 0 0 .46-.68 2.47 2.47 0 0 0 .17-.93 2.35 2.35 0 0 0-.17-.92 1.57 1.57 0 0 0-.46-.68 1 1 0 0 0-.64-.25m-1.67-.45h.43v.85a2 2 0 0 1 .55-.73 1.2 1.2 0 0 1 .72-.24 1.43 1.43 0 0 1 1.18.71 2.83 2.83 0 0 1 .49 1.69 3 3 0 0 1-.48 1.72 1.42 1.42 0 0 1-1.18.7 1.22 1.22 0 0 1-.71-.22 2 2 0 0 1-.57-.68v2.47h-.43zm7.67.4a.94.94 0 0 0-.64.25 1.59 1.59 0 0 0-.47.68 2.35 2.35 0 0 0-.17.92 2.69 2.69 0 0 0 .17.93 1.67 1.67 0 0 0 .48.68.94.94 0 0 0 .63.25 1 1 0 0 0 .64-.25 1.6 1.6 0 0 0 .48-.65 2.82 2.82 0 0 0 .16-1 2.33 2.33 0 0 0-.37-1.32 1.09 1.09 0 0 0-.91-.54m1.66-.45v4.59h-.41v-.79a2.22 2.22 0 0 1-.58.68 1.26 1.26 0 0 1-.71.22 1.42 1.42 0 0 1-1.18-.7 3 3 0 0 1-.48-1.72 2.83 2.83 0 0 1 .49-1.69 1.43 1.43 0 0 1 1.18-.71 1.2 1.2 0 0 1 .72.24 1.88 1.88 0 0 1 .56.73v-.85zm2.93.05h.41v.82a2 2 0 0 1 .54-.7 1.05 1.05 0 0 1 .66-.24.9.9 0 0 1 .64.26 1.57 1.57 0 0 1 .42.71 5.09 5.09 0 0 1 .13 1.37v2.37H187V68.7a6.64 6.64 0 0 0 0-1.06 1.38 1.38 0 0 0-.28-.68.66.66 0 0 0-.53-.23.88.88 0 0 0-.68.35 1.82 1.82 0 0 0-.39.88 8.89 8.89 0 0 0 0 1.25v1.68h-.43zm5.35 0h.44l1.1 3.53 1.08-3.53h.44l-1.92 6.27h-.44l.62-2.03-1.32-4.24z"/></g></g></svg>