<svg xmlns="http://www.w3.org/2000/svg" width="51.169" height="41.552" viewBox="0 0 51.169 41.552">
  <g id="Group_6535" data-name="Group 6535" transform="translate(-1240.933 -2886.417)">
    <path id="Path_2326" data-name="Path 2326" d="M13140.537,2352.66l-.779-1.655,3.283-.733,3.121,1.607,2.156,1.9,1.662.52,2.7.415.57.779h2.234l1.35,1.246-.414,1.922.414,2.025.934.467.727,1.4,1.457,1.038h2.543l.361,1.143-1.4,2.232-4.414,1.61-3.428.83-1.453,1.869-1.92-.519-2.182-.468h-1.09l-.57.72-3.012-4.354-1.4-1.35v-2.389l-1.447-1.973-.779-.26-.477-1.558-2.437-3.271-.469-.363.469-1.714s1.711.468,1.766.52a7.8,7.8,0,0,0,.881-.935h.52Z" transform="translate(-11884.062 547.257)" fill="#f9a52d"/>
    <path id="Path_2327" data-name="Path 2327" d="M13143.891,2354.584l-1.406-2.988,5.93-1.324,5.635,2.9,3.895,3.433,3,.938,4.871.749,1.029,1.408h4.035l2.438,2.25-.748,3.47.748,3.656,1.686.844,1.313,2.532,2.631,1.875h4.594l.652,2.063-2.529,4.031-7.971,2.908-6.191,1.5-2.623,3.376-3.469-.938-3.939-.845h-1.967l-1.031,1.3-5.439-7.862-2.527-2.438v-4.313l-2.615-3.562-1.406-.469-.861-2.814-4.4-5.906-.846-.656.846-3.095s3.372.409,3.472.5,1.308-1.253,1.308-1.253h.939Z" transform="translate(-11893.731 537.728)" fill="none" stroke="#136494" stroke-width="3"/>
  </g>
</svg>
