<svg xmlns="http://www.w3.org/2000/svg" width="37.764" height="38.848" viewBox="0 0 37.764 38.848">
  <g id="Group_12488" data-name="Group 12488" transform="translate(9490.586 4600.737)">
    <path id="Path_35072" data-name="Path 35072" d="M2708.6,14.263a1.681,1.681,0,0,0-1.616,1.7v1.579a0,0,0,0,1,0,0h-1.633a4.933,4.933,0,0,0-4.933,4.933V45.469a4.933,4.933,0,0,0,4.933,4.933h13.1a.753.753,0,0,0,.592-1.217l-.025-.032a5.248,5.248,0,0,0-4.182-2.037h-9.486a1.647,1.647,0,0,1-1.647-1.647V30.694a0,0,0,0,1,0,0h26.274a0,0,0,0,1,0,0,3.736,3.736,0,0,0,1.188,2.735,1.224,1.224,0,0,0,.545.305,1.276,1.276,0,0,0,1.552-1.262V22.481a4.933,4.933,0,0,0-4.933-4.933H2726.7a0,0,0,0,1,0,0V15.964a1.681,1.681,0,0,0-1.616-1.7,1.643,1.643,0,0,0-1.669,1.642v1.638a0,0,0,0,1,0,0h-13.132a0,0,0,0,1,0,0V15.905a1.643,1.643,0,0,0-1.669-1.642m14.811,8.154V20.838a0,0,0,0,0,0,0h-13.132a0,0,0,0,0,0,0v1.579a1.681,1.681,0,0,1-1.616,1.7,1.643,1.643,0,0,1-1.669-1.642V20.838a0,0,0,0,0,0,0h-1.633a1.647,1.647,0,0,0-1.647,1.647V27.4a0,0,0,0,0,0,0h26.274a0,0,0,0,0,0,0V22.481a1.647,1.647,0,0,0-1.647-1.647H2726.7a0,0,0,0,0,0,0v1.638a1.643,1.643,0,0,1-1.669,1.642,1.681,1.681,0,0,1-1.617-1.7" transform="translate(-12191 -4615)" fill="#136494" fill-rule="evenodd"/>
    <path id="Path_35073" data-name="Path 35073" d="M2882.426,183.4a5.016,5.016,0,0,1-2.892,9.1h-5.013a1,1,0,1,0,0,2.006h5.019a7.021,7.021,0,0,0,4.049-12.745,1,1,0,1,0-1.163,1.635" transform="translate(-12339.364 -4758.402)" fill="#f9a52d"/>
    <path id="Path_35074" data-name="Path 35074" d="M2842.278,184.893a4.986,4.986,0,0,1-1.571-1.824,5.017,5.017,0,0,1,4.463-7.28h5.013a1,1,0,1,0,0-2.006h-5.019a7.021,7.021,0,0,0-4.05,12.745,1,1,0,1,0,1.163-1.635" transform="translate(-12309.063 -4751.723)" fill="#f9a52d"/>
    <path id="Path_35075" data-name="Path 35075" d="M2877.235,248.286l-1.3-1.3,1.3-1.3a1,1,0,0,0-1.419-1.419l-2.007,2.006a1,1,0,0,0,0,1.419l2.007,2.006a1,1,0,0,0,1.419-1.419" transform="translate(-12339.364 -4811.888)" fill="#f9a52d"/>
    <path id="Path_35076" data-name="Path 35076" d="M2901.519,161.456l1.3,1.3-1.3,1.3a1,1,0,0,0,1.418,1.419l2.007-2.006a1,1,0,0,0,0-1.419l-2.007-2.006a1,1,0,1,0-1.418,1.419" transform="translate(-12363.112 -4739.69)" fill="#f9a52d"/>
  </g>
</svg>
