<svg xmlns="http://www.w3.org/2000/svg" width="43.379" height="22.931" viewBox="0 0 43.379 22.931">
  <g id="Group_12486" data-name="Group 12486" transform="translate(11275.124 4537.649)">
    <path id="Path_35064" data-name="Path 35064" d="M920.876,87.352h0a5,5,0,1,1,5-5,5,5,0,0,1-5,5" transform="translate(-12191 -4615)" fill="#136494"/>
    <path id="Path_35065" data-name="Path 35065" d="M1026.446,97.592h-24.658a2.481,2.481,0,0,1,0-4.962h24.658a2.481,2.481,0,0,1,0,4.962" transform="translate(-12260.672 -4627.759)" fill="#136494"/>
    <path id="Path_35066" data-name="Path 35066" d="M920.876,165.756h0a5,5,0,1,1,5-5,5,5,0,0,1-5,5" transform="translate(-12191 -4680.474)" fill="#f9a52d"/>
    <path id="Path_35067" data-name="Path 35067" d="M1026.446,176h-24.658a2.481,2.481,0,0,1,0-4.962h24.658a2.481,2.481,0,0,1,0,4.962" transform="translate(-12260.672 -4693.233)" fill="#f9a52d"/>
  </g>
</svg>
