<svg width="426" height="172" viewBox="0 0 426 172" fill="none" xmlns="http://www.w3.org/2000/svg">
<rect width="426" height="172" rx="24" fill="#3EEDBF"/>
<path d="M137 54.5412C138.899 56.11 140.179 58.3393 140.592 60.7338H133.408L137 54.5412ZM136.794 53.4265L132.128 61.4769H141.459C141.128 58.1742 139.353 55.2843 136.794 53.4265Z" fill="#292929"/>
<path d="M125.647 72.7064C127.05 73.367 128.619 73.7385 130.312 73.7385C131.963 73.7385 133.532 73.367 134.977 72.7064L130.312 64.656L125.647 72.7064Z" fill="#292929"/>
<path d="M132.128 63.6238L136.794 71.6742C139.353 69.8577 141.128 66.9265 141.459 63.6238H132.128Z" fill="#292929"/>
<path d="M134.977 52.3944C133.573 51.7339 132.005 51.3623 130.312 51.3623C128.661 51.3623 127.092 51.7339 125.647 52.3944L130.312 60.4448L134.977 52.3944Z" fill="#292929"/>
<path d="M128.33 63.5H119C119.33 66.844 121.064 69.7339 123.665 71.5504L128.33 63.5Z" fill="#292929"/>
<path d="M128.33 61.3944L123.665 53.344C121.105 55.1605 119.33 58.0917 119 61.3944H128.33Z" fill="#292929"/>
<path d="M305.687 41.6191C305.687 41.6191 289.669 42.2796 289.669 58.9172C289.669 67.6695 289.587 79.2703 289.587 79.2703C289.587 88.6831 283.435 100.325 270.472 100.325C257.509 100.325 251.357 89.7978 251.357 79.2703C251.357 68.7428 251.357 34.3118 251.357 34.3118L238.27 39.5136L238.188 80.8391C238.188 96.362 251.027 109.532 270.472 109.532C289.917 109.532 302.756 96.362 302.756 80.8391C302.756 80.8391 302.756 68.7841 302.756 61.8071C302.756 50.5365 307.339 49.009 307.339 49.009L305.687 41.6191Z" fill="#292929"/>
<path d="M218.867 62.5915V79.1877C218.867 91.2428 211.642 94.2565 205.243 94.2565C202.064 94.2565 197.936 93.3482 197.936 93.3482L195.995 100.779C195.995 100.779 199.958 103.091 208.876 103.091C217.876 103.091 231.954 99.1693 231.954 81.0868V57.3896L218.867 62.5915Z" fill="#292929"/>
<path d="M228.156 105.032L223.284 112.422L228.156 119.853L233.068 112.422L228.156 105.032Z" fill="#292929"/>
<path d="M172.752 134.179L167.881 141.61L172.752 149L177.665 141.61L172.752 134.179Z" fill="#292929"/>
<path d="M187.078 134.178L182.206 141.61L187.078 149L191.949 141.61L187.078 134.178Z" fill="#292929"/>
<path d="M275.591 23L270.678 30.4312L275.591 37.821L280.463 30.4312L275.591 23Z" fill="#292929"/>
<path d="M289.876 23L285.004 30.4312L289.876 37.821L294.788 30.4312L289.876 23Z" fill="#292929"/>
<path d="M200.66 97.6007C200.66 110.069 193.394 118.986 179.936 118.986C166.477 118.986 159.211 110.069 159.211 97.6007L159.128 84.2659L146.041 89.4677V96.3622C146.041 118.903 162.761 127.656 179.936 127.656C197.11 127.656 213.83 118.903 213.83 96.3622L200.66 97.6007Z" fill="#292929"/>
</svg>
