<?xml version="1.0" encoding="utf-8"?>
<!-- Generator: Adobe Illustrator 27.3.1, SVG Export Plug-In . SVG Version: 6.00 Build 0)  -->
<svg version="1.1" id="Layer_1" xmlns="http://www.w3.org/2000/svg" xmlns:xlink="http://www.w3.org/1999/xlink" x="0px" y="0px"
	 viewBox="0 0 177.7 55.5" style="enable-background:new 0 0 177.7 55.5;" xml:space="preserve">
<style type="text/css">
	.st0{fill:#6C48F6;}
	.st1{fill:#A8ACD4;}
	.st2{fill:#303151;}
</style>
<g>
	<path class="st0" d="M44.2,11.6c0.3-0.3,0.3-0.9,0-1.2C39.7,5,33,1.5,25.4,1.5S11.1,5,6.6,10.4c8.2-7.4,23.8,1.5,23.8,1.5
		c2.2,1.2,4.2,2.5,6.9,2.5c3.5,0,5.6-1.6,6.5-2.4C43.9,11.9,44.1,11.8,44.2,11.6"/>
	<path class="st1" d="M30.4,12c-0.1,0-15.6-8.9-23.8-1.5c-0.3,0.3-0.3,0.8-0.1,1.1c0.1,0.1,2.1,3.3,7,3.3c2.4,0,4.4-1.2,6.2-2.3
		c1.8-1.1,3.5-2.1,5.6-2.1C27.3,10.4,28.8,11.1,30.4,12"/>
	<path class="st0" d="M28.3,49.1c0.1,0.4,0.6,0.7,1,0.6c6.9-1.1,13.3-5.3,17.1-11.8c3.8-6.6,4.2-14.2,1.7-20.7
		C50.4,28,34.9,37,34.9,37c-2.1,1.3-4.3,2.4-5.6,4.7c-1.8,3-1.4,5.7-1.2,6.8C28.1,48.7,28.2,48.9,28.3,49.1"/>
	<path class="st1" d="M34.9,37c0.1,0,15.5-9,13.2-19.8c-0.1-0.4-0.5-0.6-0.9-0.6c-0.2,0-3.9,0.2-6.3,4.4c-1.2,2.1-1.2,4.4-1.1,6.6
		c0,2.1,0.1,4.1-1,5.9C37.8,35.1,36.4,36.1,34.9,37"/>
	<path class="st0" d="M3.8,16.6c-0.4-0.1-0.9,0.2-1.1,0.6c-2.5,6.6-2.1,14.2,1.7,20.7c3.8,6.6,10.2,10.7,17.1,11.8
		C11,46.3,11,28.3,11,28.3c-0.1-2.4,0.1-4.9-1.2-7.2c-1.8-3-4.2-4.1-5.3-4.4C4.2,16.7,4,16.6,3.8,16.6"/>
	<path class="st1" d="M10.9,28.4c0,0.1,0.1,18,10.5,21.4c0.4,0.1,0.8-0.1,1-0.5c0.1-0.1,1.8-3.5-0.7-7.7c-1.2-2.1-3.2-3.2-5.1-4.3
		c-1.8-1-3.6-2-4.6-3.8C11.1,31.9,11,30.2,10.9,28.4"/>
	<path class="st2" d="M155.7,4.2c-0.9,0-1.7,0.7-1.7,1.7c0,0.9,0.7,1.7,1.7,1.7s1.8-0.8,1.8-1.7C157.5,4.9,156.7,4.2,155.7,4.2"/>
	<path class="st2" d="M160.3,4.2c-0.9,0-1.7,0.7-1.7,1.7c0,0.9,0.7,1.7,1.7,1.7s1.8-0.8,1.8-1.7C162.1,4.9,161.3,4.2,160.3,4.2"/>
	<path class="st2" d="M83.1,22.9c-0.9,0-1.7,0.7-1.7,1.7c0,0.9,0.7,1.7,1.7,1.7s1.7-0.8,1.7-1.7C84.9,23.6,84.1,22.9,83.1,22.9"/>
	<path class="st2" d="M87.8,22.9c-0.9,0-1.7,0.7-1.7,1.7c0,0.9,0.7,1.7,1.7,1.7s1.8-0.8,1.8-1.7C89.5,23.6,88.7,22.9,87.8,22.9"/>
	<path class="st2" d="M175,2c-0.6,0-1.6,0.2-1.6,1.4V21h3.1V2.3C175.7,2,175.2,2,175,2"/>
	<path class="st2" d="M94,10.8v7.7h-3.2c-2.6,0-3.7-0.3-3.7-3.5V9.7c-0.8-0.3-1.3-0.3-1.5-0.3C85,9.4,84,9.6,84,10.8V15
		c0,2.4-0.4,3.5-3.1,3.5h-2.7c-2.2,0-2.5-1.4-2.5-3V9.3h-4.3c-4.9,0-8.2,2.2-8.2,6.1c0,4.2,3.3,5.7,6.2,5.7c2,0,3.6-0.6,4.7-1.9
		c1,1.7,2.8,1.9,4.4,1.9h3.4c1.5,0,2.9-0.6,3.5-1.8c0.6,1.2,1.7,1.8,3.3,1.8H97V9.6c-0.8-0.3-1.3-0.3-1.5-0.3C95,9.3,94,9.5,94,10.8
		 M72.5,15c0,3.7-3.1,3.5-3.2,3.5c-2.7,0-3.1-2.1-3.1-3c0-3.3,3.6-3.5,5.1-3.5h1.1L72.5,15L72.5,15z"/>
	<path class="st2" d="M168.2,3.5v15h-8.6V9.6c-0.8-0.3-1.3-0.3-1.5-0.3c-0.6,0-1.6,0.2-1.6,1.4v7.7h-9.2c-5.8,0-8.6-3.3-10.2-5.4
		c1.5-1.3,3.3-1.4,4.3-1.3c1.4,0.1,2.7,0.6,3.5,1.4c-0.5,0.7-1.6,1.9-2.9,2.9c0.8,0.4,1.7,0.8,2.8,1c1.7-1.6,2.9-3.4,3.4-4
		c-0.3-0.5-2-3.6-6.6-3.9c-5-0.3-7.6,3.3-8,3.8c1.5,1.9,2.8,3.6,4.7,5.1c-0.9,0.3-1.9,0.4-3,0.4h-19.1V2.3C115.4,2,114.9,2,114.7,2
		c-0.6,0-1.6,0.2-1.6,1.4V21h22.2c2.1,0,4-0.5,5.7-1.3c1.9,0.9,4,1.3,6.3,1.3h24V2.3C170.5,2,170,2,169.8,2
		C169.2,2,168.2,2.2,168.2,3.5"/>
	<path class="st2" d="M95.5,4.2c-0.9,0-1.7,0.7-1.7,1.7c0,0.9,0.7,1.7,1.7,1.7s1.8-0.8,1.8-1.7C97.2,4.9,96.4,4.2,95.5,4.2"/>
	<path class="st2" d="M73.4,4.2c-0.9,0-1.7,0.7-1.7,1.7c0,0.9,0.7,1.7,1.7,1.7s1.8-0.8,1.8-1.7C75.2,4.9,74.4,4.2,73.4,4.2"/>
	<path class="st2" d="M68.7,4.2c-0.9,0-1.7,0.7-1.7,1.7c0,0.9,0.7,1.7,1.7,1.7s1.8-0.8,1.8-1.7C70.5,4.9,69.7,4.2,68.7,4.2"/>
	<path class="st2" d="M105.1,9.2c-3.4,0-6.5,1.9-6.5,6.2c0,4.5,3.6,5.8,6.8,5.8h2.9v0.3c0,0.8-0.3,1.8-1,2.5
		c-1.6,1.6-4.8,0.8-4.9,0.8c-0.6-0.2-1.3-0.4-1.9-0.7c-0.9,1.4-0.2,2.4,0.9,2.9c2,0.7,5.3,0.9,7.1-0.2c2.1-1.2,2.9-3.7,2.9-6.4v-3.9
		C111.4,12.1,109.4,9.2,105.1,9.2 M108.3,18.5h-2.9c-0.7,0-3.6,0-3.6-3.3c0-2.1,1.3-3.5,3.2-3.5c2.2,0,3.4,1.6,3.4,4.8L108.3,18.5
		L108.3,18.5z"/>
	<path class="st2" d="M74.3,44.1c-0.3,0.2-1,0.8-2.4,0.8c-0.5,0-1.2-0.1-1.7-0.5c-0.7-0.5-0.7-1.4-0.7-1.9v-6.1h5.2
		c0.3-0.7,0.4-1.2,0.4-1.4c0-1.2-0.8-1.4-1.6-1.4h-3.9V30l-0.1,0.1l0.1-0.1c-0.8-0.3-1.3-0.3-1.5-0.3c-0.6,0-1.6,0.2-1.6,1.4l0,0
		v2.4h-1.7c-0.9,0-1.6,0.2-1.6,1.4c0,0.2,0,0.7,0.4,1.4h2.8V43c0,1.4,0.6,4.5,4.8,4.5c0.6,0,1.6,0,2.8-0.5c0.3-0.1,0.8-0.3,1.6-0.9
		C75.5,45.4,74.9,44.6,74.3,44.1"/>
	<path class="st2" d="M175.9,36.3c-0.3-0.7-1.2-2.2-3.7-2.8c-2.2-0.5-6.4-0.5-7.2,1c-0.3,0.6-0.2,1.3,0.1,1.7
		c0.2,0.3,0.3,0.4,0.4,0.5c0.2-0.2,0.6-0.4,1.2-0.6c1.1-0.4,2.9-0.4,4.2-0.2c1.7,0.3,2.2,1.4,2.4,2.1c-2.4-0.3-5.6-0.7-7.8,0.7
		c-2.1,1.3-2.8,4.1-1.6,6.2s3.8,2.6,6.2,2.7c3.2,0.1,6.2-0.4,6.3-0.4V39C176.5,38,176.3,37.1,175.9,36.3 M170.8,45.2
		c-1,0-2,0-2.9-0.4c-0.8-0.3-1.5-1-1.7-1.8c-0.2-1.1,0.6-2.1,1.3-2.5c0.9-0.5,2-0.4,3-0.3c0.9,0.1,2,0.2,3,0.3V45
		C172.7,45.1,171,45.2,170.8,45.2"/>
	<path class="st2" d="M91.4,37.7l3.4,1l-1.6-4.8c-0.3-0.2-0.8-0.3-1.4-0.3c-0.8,0-1.5,0.4-1.5,1.3L91.4,37.7z"/>
	<path class="st2" d="M143.3,35v12.2h3.1V33.9c-0.8-0.3-1.3-0.3-1.5-0.3C144.3,33.6,143.3,33.8,143.3,35"/>
	<path class="st2" d="M123.2,35v6.4c0,2.4-1.1,3.8-3.5,3.8c-0.7,0-3.5,0-3.5-3.8v-7.5c-0.8-0.3-1.3-0.3-1.5-0.3
		c-0.6,0-1.6,0.2-1.6,1.4v7.2c0,3.9,3.2,5.8,6.6,5.8c4,0,6.6-2.3,6.6-5.8v-8.3c-0.8-0.3-1.3-0.3-1.5-0.3
		C124.2,33.6,123.2,33.8,123.2,35"/>
	<path class="st2" d="M158.7,35v5.8c0,1.5-0.6,3.8-3.6,3.8c-3.2,0-3.5-2.4-3.5-3.5v-7.2c-0.8-0.3-1.3-0.3-1.5-0.3
		c-0.6,0-1.6,0.2-1.6,1.4v6.7c0,4.4,3.5,5.5,6,5.5c1.3,0,3.3-0.4,4.2-1.7c0,3.8-0.5,6.1-4.5,6.1c-2.2,0-3.8-0.5-4.4-0.8
		c-0.8,1.7-0.3,2.5,0.8,2.8c1.4,0.4,4.3,0.6,6.1,0.3c3.8-0.6,5-3.2,5-8.2V33.9c-0.8-0.3-1.3-0.3-1.5-0.3
		C159.7,33.6,158.7,33.8,158.7,35"/>
	<path class="st2" d="M134.8,33.2c-3.5,0-6.6,1.8-6.6,5.8v7.1c0,1.3,1,1.4,1.6,1.4c0.1,0,0.7,0,1.5-0.3v-7.4c0-3.7,2.8-3.8,3.5-3.8
		c2.4,0,3.5,1.4,3.5,3.8v6.3c0,1.3,1,1.4,1.6,1.4c0.1,0,0.7,0,1.5-0.3V39C141.4,35.5,138.8,33.2,134.8,33.2"/>
	<path class="st2" d="M111.8,34c-0.4-0.2-0.9-0.4-1.4-0.4c-1.3-0.1-1.6,0.9-1.8,1.4l-2.9,8.2l-3-8.8c-0.2-0.5-0.3-0.6-0.8-0.7
		c-0.8-0.1-1.6-0.2-2.2,0.3c-0.2,0.2-0.4,0.6-0.5,0.9l-2.8,7.8l-0.9-2.4c-0.1-0.3-0.2-0.4-0.7-0.6c-1.4-0.4-3.8-1.1-5.5-1.5
		c-0.1-0.7-0.2-1.4-0.5-2c-0.3-0.7-1.2-2.2-3.7-2.8c-2.2-0.5-6.4-0.5-7.2,1c-0.3,0.6-0.2,1.3,0.1,1.7c0.2,0.3,0.3,0.4,0.4,0.5
		c0.2-0.2,0.6-0.4,1.2-0.6c1.1-0.4,2.9-0.4,4.2-0.2c1.7,0.3,2.2,1.4,2.4,2.1c-2.4-0.3-5.6-0.7-7.8,0.7c-2.1,1.3-2.8,4.1-1.6,6.2
		c1.2,2.1,3.8,2.6,6.2,2.7c3.2,0.1,6.2-0.4,6.3-0.4v-6.2c1.5,0.3,3.3,0.8,3.3,0.9c0.2,0.2,0.9,1.9,1.3,3.3l0.7,2.1
		c1.1,0,2.1,0,3.2,0l3-9.3l3,9.3h3.2L111.8,34z M83.6,45.2c-1,0-2,0-2.9-0.4c-0.8-0.3-1.5-1-1.7-1.8c-0.2-1.1,0.6-2.1,1.3-2.5
		c0.9-0.5,2-0.4,3-0.3c0.9,0.1,2,0.2,3,0.3V45C85.6,45.1,83.8,45.2,83.6,45.2"/>
	<path class="st2" d="M144.8,27.6c-0.5,0-0.9,0.2-1.3,0.5c-0.4,0.4-0.5,0.8-0.5,1.3s0.2,0.9,0.5,1.3c0.4,0.4,0.8,0.5,1.3,0.5
		s0.9-0.2,1.3-0.5c0.4-0.4,0.5-0.8,0.5-1.3s-0.2-0.9-0.5-1.3C145.8,27.8,145.3,27.6,144.8,27.6"/>
</g>
</svg>
