<svg xmlns="http://www.w3.org/2000/svg" viewBox="0 0 193 83" xmlns:v="https://vecta.io/nano"><style><![CDATA[.d{fill:#f1f0f0}.e{fill:#d4d4d4}.f{fill:#e1e2e1}.g{fill:#fafbfc}.h{fill:#68696c}.i{fill:#a7a6a6}.j{fill:#b5b5b5}.k{fill:#c4c4c4}.l{fill:#88b2df}]]></style><path d="M64.6 81.7l-.9.65-1 .65h-1.99q-.81-1.56-1.62 0h-1l-.41-.59-.57.59h-2.23c-.87-1-1.73-1-2.6 0h-8.75c-.19-.21-.44-.62-.56-.58s-.49.37-.73.58h-1.3a8.13 8.13 0 0 0-1.25-.63 11.77 11.77 0 0 0-1.69-.34l-.64-1a8.17 8.17 0 0 1 1.52-.3q3.39 0 6.78 0l13.08.11 3.52.2 1.36-.32h.62z" class="g"/><path d="M38 82.03a11.77 11.77 0 0 1 1.67.34 8.13 8.13 0 0 1 1.25.63H29c.41-.22.82-.6 1.25-.62h4.69a10.12 10.12 0 0 0 1.51-.31zM3.34 83c.46-1.38 1.64-1 2.57-1 1.49 0 3 .17 4.45.33.27 0 .51.41.76.62zm48.94 0c.87-1 1.73-1 2.6 0zm6.81 0q.81-1.56 1.62 0zm-16.85 0c.24-.21.46-.5.73-.58s.37.37.56.58zm14.9 0l.57-.59.41.59z" fill="#fff"/><path d="M51.29.01a6.71 6.71 0 0 1 1.29.81l19 19a4.63 4.63 0 0 1 1.25 2.94v26.56a3.15 3.15 0 0 1-.8 2q-9.85 9.95-19.82 19.8a4.52 4.52 0 0 1-.94.54v-.33-8.44-.62-5.09c0-.47-.43-.92-.67-1.37l-3.23-.14q-.16-6-.32-12.1a22.79 22.79 0 0 1 2.74-.07c1.23.1 1.56-.38 1.53-1.57v-9c0-3.86 0-3.86-3.94-4l.3-4.28-.3-7.4.26-.43h.71 2.9zm14.14 50.73V21.17h-7.77v29.57z" fill="#3d5d93"/><path d="M.13 48.97q0-12.48 0-25A13.33 13.33 0 0 0 2 22.38c.49-.6.62-1.52 1.16-2l5.25-4.79a11.32 11.32 0 0 1 2.69-1.67 65.65 65.65 0 0 1 6.9-2.81c.71-.23 1.7.4 2.56.63a7.65 7.65 0 0 1-.56 1.28l-3.4 5.16c-1.74.72-3.76 1.09-5.17 2.23a20.08 20.08 0 0 0-6.84 9.35c-1.18 3.58-2.1 7.08-1 10.81a23.21 23.21 0 0 0 7.72 12c1.69 1.24 3.3 2.76 5.69 1.89h.3a3.57 3.57 0 0 0 .38 1l5.48 7.1.41 2.73c-.52-.47-1-.72-1.19-1.11-1.07-1.88-2.71-2.39-4.79-2.67a15.2 15.2 0 0 1-5.88-2 34 34 0 0 1-10.2-9.69c-.3-.39-.92-.57-1.38-.85z" fill="#4ea0d8"/><path d="M113 12.56v11.4c0 5.55 1 6.47 6.52 6.47h30.77l1.87-.09c-.34-2.82-.79-5.4-2.4-7.61-1.48-2-3.34-2.55-5.89-1.48-1.86.79-3.58 1.91-5.48 2.95l-1.59-1.73c2.69-2.45 5.67-4.35 9.39-4.46 3.34-.09 6.05 2.28 7.41 6.24.56 1.62.79 3.35 1.27 5 .13.45.63 1.09 1 1.12 1.94.15 3.88.14 5.82.15a2 2 0 0 0 2.25-2c.12-2.31.16-4.62.21-6.94 0-.58-.09-1.17-.16-2l2.61-.48c.54 4.06 1 8-.62 11.83-.77 1.8-2.54 2.26-4.34 2.29h-7.93-35a20.75 20.75 0 0 1-2.09-.12c-3.57-.4-5.93-2.38-6.16-6a131.19 131.19 0 0 1 0-13.74c.11-1.73 1.7-.51 2.54-.8z" class="h"/><path d="M51.31 71.33v.33H40.94A40.18 40.18 0 0 1 35.79 70l-8.47-4.51c.21-1.17.56-2.2 2-2.3l3.88-.36a1.79 1.79 0 0 0 .71-.31l3.2-2 1.58-1.09 4.07-2.42a6.11 6.11 0 0 0 1.09-1.26l3.57-.13 3.23.14.33 4.31c.07.72.22 1.43.34 2.15v.62a8.38 8.38 0 0 0-.32 1.87l.31 6.62z" fill="#85b1de"/><path d="M51.29.01v16.72h-2.9c-.67-.47-1.45-1.43-2-1.31-1.6.36-2.47-.55-3.58-1.32a44.15 44.15 0 0 0-6.33-4c-3.07-1.42-6.32-2.43-9.5-3.61a27.62 27.62 0 0 1 4-2.6c2.89-1.22 5.89-2.17 8.83-3.25.29-.11.51-.42.76-.63z" fill="#83afdd"/><path d="M40.61.03c-.25.21-.47.52-.76.63l-8.83 3.25a27.62 27.62 0 0 0-4 2.6l-6.44 5.23c-.86-.23-1.85-.86-2.56-.63a65.65 65.65 0 0 0-6.87 2.76 11.32 11.32 0 0 0-2.69 1.67l-5.25 4.79c-.54.53-.67 1.45-1.16 2a13.33 13.33 0 0 1-1.88 1.63 6.56 6.56 0 0 1 2.27-6.57c3.83-3.47 7.32-7.31 11-11l1.91-1.9c1.28-1.23 2.51-2.51 3.85-3.66a3.29 3.29 0 0 1 1.94-.86l19.47.06zm-13.29 65.5l8.47 4.51a40.18 40.18 0 0 0 5.15 1.66H21.69a3.36 3.36 0 0 1-2-1L1.88 52.97c-.38-.38-.8-.71-1.21-1.06l-.6-.66.06-2.28c.46.28 1.08.46 1.36.87a34 34 0 0 0 10.2 9.69 15.2 15.2 0 0 0 5.88 2c2.08.28 3.72.79 4.79 2.67.22.39.67.64 1.19 1.11l-.41-2.73z" fill="#4b9dd6"/><path d="M58.76 80.87l-13.08-.11q-3.39 0-6.78 0a8.17 8.17 0 0 0-1.52.3h-1l-11.33-.41.47-1-2.81-.68 2.33-1.46h1c2.13.46 4.26.88 6.17-.67l6.47-.64 4.19.18 2.3-.18a14.34 14.34 0 0 0 2.14.31l7.24-.14 6.79.26v.54l-.79.32c0 .09.11.25.14.24.23-.06.45-.14.68-.22l1-.31.7-.57v-.07l.58.09.36.31v.55c-.22.25-.58.48-.63.76a6.84 6.84 0 0 0 0 1.5l-1 .62v.33z" fill="#9f9f9f"/><path d="M171.67 30.33h5.89l-6.36-14.71 2.47-1.12 6.62 15.13.59.1a8.16 8.16 0 0 0 1.19-2.55c.27-4 .35-8.08.49-12.12v-1.9l2.72-.2v10.18c0 1-.11 1.93-.21 2.9-.47 4.79-2.28 6.6-7 7-1.5.12-3 .18-4.52.19-2.47 0-2.55-.17-1.88-2.9z" class="h"/><path d="M87.61 40.4v31.25a5.54 5.54 0 0 1 0 1.29c0 .24-.4.62-.55.59a1.09 1.09 0 0 1-.76-.56 3.87 3.87 0 0 1-.06-1.28V8.86a3.85 3.85 0 0 1 0-1.13c.09-.28.42-.49.64-.73.24.23.61.42.7.69a4.62 4.62 0 0 1 0 1.29z" fill="#727377"/><path d="M96.43 18.21c3.93-.45 8.91 2.62 10.47 6.49a13.12 13.12 0 0 1 .62 7.64 1.45 1.45 0 0 1-1 .92H92.81v-2.63h11.8c1.12-4-1.21-7.89-5.29-9.22a13.73 13.73 0 0 0-1.1-.3c-2.15-.52-2.15-.52-1.79-2.9z" fill="#6c6d71"/><path d="M181.32 59.83V46.07c0-.32.55-.75.93-.92a3.22 3.22 0 0 1 1.28 0c2.56 0 5.36-.13 6.65 2.6a11.16 11.16 0 0 1-.17 10c-.74 1.48-2.3 2-3.82 2.09s-3.07-.01-4.87-.01zm2.74-1.5c2.6.12 3.73-.58 4-2.89a25.68 25.68 0 0 0-.06-6.11c-.27-2.08-1.66-2.83-4-2.49z" fill="#727377"/><path d="M163.49 59.7c-2.63.35-2.63.35-2.63-1.93v-4c0-.93-.36-1.24-1.24-1.2h-3v5.18c0 2.33 0 2.33-2.53 2 0-.48-.08-1-.08-1.51V46.43c0-1 .31-1.32 1.3-1.32s1.39.26 1.34 1.29v4.23c.24.16.33.25.42.26 3.84.33 3.84.33 3.84-3.53 0-.59-.18-1.36.12-1.72a2.31 2.31 0 0 1 1.68-.44 1.18 1.18 0 0 1 .78.89V59.7zm-70.43.01l3.11-10.62a22.82 22.82 0 0 1 1-3.07 1.7 1.7 0 0 1 1.26-.84 1.61 1.61 0 0 1 1.29.81l4.07 13.58c-2.1.63-2.36.56-2.78-1.28-.24-1.06-.74-1.44-1.78-1.32a9.51 9.51 0 0 1-1.77 0c-.91-.09-1.33.26-1.56 1.18-.48 1.85-.54 1.84-2.84 1.56zm5.53-10.53h-.39l-1.47 6.15h3.37l-1.51-6.15zm79.16 10.49c-1.79.55-2.76.14-2.92-1.59-.08-.85-.58-1.19-1.43-1.11a10.48 10.48 0 0 1-1.94 0c-1-.09-1.55.2-1.64 1.25-.14 1.73-1.19 1.94-2.8 1.44l1.76-6 2.28-7.58a1.72 1.72 0 0 1 1.19-.94 1.63 1.63 0 0 1 1.34.71l4.16 13.82zm-3.68-4.29l-1.57-6.27h-.33l-1.52 6.27zm-48.8 4.49V46.19a1.45 1.45 0 0 1 1-1 46.93 46.93 0 0 1 5.17 0c.37 0 .7.54 1.05.84-.35.23-.68.64-1 .67-1.06.09-2.14 0-3.5 0l.05 4.09c0 .27.59.66.95.72.69.12 1.42-.06 2.09.08.4.07.73.51 1.09.79-.32.25-.62.66-1 .73-1 .2-2.89.08-3 .41a23.73 23.73 0 0 0-.14 4.83h3.57c.33 0 .63.48.95.74-.27.25-.54.7-.82.71l-6.46.07zM140.4 46.7v13h-2.68v-4.37-7c.05-1.29-.34-1.74-1.64-1.67-.46 0-1-.47-1.43-.73.47-.27.93-.76 1.42-.78h6.31c.4 0 .78.46 1.17.7a4.48 4.48 0 0 1-1.23.82 8.75 8.75 0 0 1-1.92.03z" fill="#75767a"/><path d="M107.26 59.89V45.33c2.56-.47 2.62-.42 2.62 1.92v9.39c0 1.26.32 1.81 1.63 1.65a6.72 6.72 0 0 1 2.1 0c.34.07.59.55.88.84-.27.25-.53.72-.81.73l-6.42.03z" fill="#7c7e82"/><path d="M190.25 13.13c2.75-.37 2.75-.37 2.75 2.12v16.59c-2.38.8-2.76.55-2.76-1.71q0-7.59 0-15.18z" class="h"/><path d="M61.33 76.61l-6.79-.28-.58-1.58 4 .54-.12.19a8.48 8.48 0 0 1 2.39-.57l17.64 1.32a8.08 8.08 0 0 1 3.52 1.44c1.11.73 1 1.75-.27 2.17a48.92 48.92 0 0 1-7 1.8 55.76 55.76 0 0 1-6.71.61 4.38 4.38 0 0 1-1.58-.57v-.91h1.93l1 .31c.93.35 1.87.85 2.6-.32h1 1.62.64a12.32 12.32 0 0 0 2.82-.49 9.18 9.18 0 0 0 2-1.61c-.64-.5-1.22-1.31-1.93-1.45q-4.17-.82-8.39-1.27a50.09 50.09 0 0 0-5.2 0l-1 .67v.07l-.7-.09z" class="g"/><path d="M149.37 59.66c-2.53.5-2.6.45-2.61-1.92V46.56c0-1 .13-1.48 1.3-1.49s1.44.45 1.43 1.53c-.06 3.94 0 7.89 0 11.83-.04.42-.1.84-.12 1.23z" fill="#75767a"/><path d="M167.61 12c-.7 1 1.11 2.8-1.2 3.08s-2.56.12-2.53-1.78c.03-1.64.12-1.69 3.73-1.3zm-10.24 2.88v-2.92h3.21c.78 3.05.16 3.63-3.21 2.92z" class="h"/><path d="M119.56 54.03a10.45 10.45 0 0 1 1.77 0c.28 0 .51.39.76.61-.23.24-.45.67-.69.69a35.32 35.32 0 0 1-3.71 0c-.26 0-.49-.4-.74-.61.28-.25.53-.64.84-.7a9.49 9.49 0 0 1 1.77.01z" fill="#7c7e82"/><path d="M45.16 76.18l-2.3.18-1.39-1.15c2.1-.78 3.53-.43 3.69.97z" class="g"/><path d="M65.91 80.79v.91H64.6l-.34-.9.64-.09z" class="d"/><path d="M15.28 4.55l-1.91 1.9a1.88 1.88 0 0 1 1.91-1.9zM.07 51.25l.6.66zm49.21 23.78l.27.12c0 .09-.06.23-.13.25s-.17-.06-.26-.1zm1.62 0l.27.12c0 .09-.06.23-.12.25s-.18-.06-.27-.1z" class="g"/><path d="M25.06 77.49l-2.33 1.46 2.81.68-.47 1h-3.89c-.23-1.55-1.12-1-2-.61h-1.62c-.69-1.19-.73-2.13.9-2.52.28-.07.49-.4.73-.6l1.29-.06 1 .3z" class="i"/><path d="M14 81.06a21.18 21.18 0 0 1-3.62.28 60.12 60.12 0 0 1-6.66-1 10 10 0 0 1-2.36-1.22c1-2 5.71-3.36 8.1-2.61v.66l-2.59.33a3.59 3.59 0 0 0-1.27 0 10.52 10.52 0 0 0-1.6 1c.42.42.76 1.06 1.25 1.21a28.07 28.07 0 0 0 3.57.65z" class="d"/><path d="M6.91 77.5l2.59-.33 2.27-.33h1.93.67l-1.42.62c-1.21.44-2.79-.16-4 1.59l3.06.69 3.62.95-.66.36H14l-5.18-.66-2.56-1.43z" class="e"/><path d="M32.2 76.82c-1.91 1.55-4 1.13-6.17.67v-.92z" class="i"/><path d="M19.23 76.93c-.24.2-.45.53-.73.6-1.63.39-1.59 1.33-.9 2.52l.64.67h-.29-.67l-.63-.07-1.88-1.85.9-1.63h.64l1.29-.34 1.3-.32a2.85 2.85 0 0 0 .29 0zm6.77-.36v.92h-1l-3.57-.32v-.65z" class="j"/><path d="M18.9 76.52l-1.3.32h-1.29v-.36c.74-.73 1.5-1.38 2.59-.58zm-2.25 4.15l.63.07v.64c-.83.42-1.65.76-2.28-.31l.66-.36zm-2.95-3.84h-1.93v-.35c.49-1.09 1.22-.66 1.94-.3z" class="d"/><path d="M19.22 80.08c.84-.39 1.73-.94 2 .61h-2z" class="j"/><path d="M36.4 81.06h1l.64 1H36.4z" class="d"/><path d="M11.77 76.49v.35l-2.27.33v-.66zm1.93.34v-.64l1.63.31v.35h-1z" class="f"/><path d="M19.22 80.08v.66h-1l-.64-.67z" class="k"/><path d="M19.23 76.93v-.38l.36-.37 1 .28v.41zm-3.89-.08v-.35h1v.73h-.64z" class="e"/><path d="M20.52 76.87v-.41l1 .06v.65z" class="k"/><path d="M17.28 81.38v-.64h.67zm2.27-5.2l-.36.37a2.85 2.85 0 0 1-.29 0v-.65z" class="f"/><path d="M64.9 80.71l-.64.09h-.62l-1.33-.47 1-.62 1.87-.88-1.24-1.38v-.55-.34-.06l.93.07c.18.29.34.79.55.82 1.93.27 2 1.26 1.09 2.64z" class="j"/><path d="M58.76 80.87l3.57-.17v.37z" class="d"/><path d="M62.28 81.07v-.37-.33l1.33.38z" class="e"/><path d="M20.55 11.74L27 6.51c3.18 1.18 6.43 2.19 9.5 3.61a44.15 44.15 0 0 1 6.33 4c1.11.77 2 1.68 3.58 1.32.54-.12 1.32.84 2 1.31l-.71.05h-7.38l-2.6.1H34.8 23.46c-3.86 0-3.86 0-3.92 3.9-.2-.14-.59-.32-.57-.43.29-2-1-1.95-2.34-1.84v-.32l3.4-5.16a7.65 7.65 0 0 0 .52-1.31zm26.87 17.14c3.93.14 3.94.14 3.94 4v9c0 1.19-.3 1.67-1.53 1.57a22.79 22.79 0 0 0-2.74.07h-3.87l-1.63-.13.32-3.37c.29-3 1.2-6.1-1.14-9.19l2.33-1a7.45 7.45 0 0 0 1.07-.8z" class="l"/><path d="M43.22 43.56h3.89q.15 6 .32 12.1l-3.57.13-.32-.12zm4.2-14.68l-3.25.15-.32-.14v-4l-.32-7.67h3.89l.3 7.4c.02 1.41-.19 2.84-.3 4.26z" fill="#3e6399"/><path d="M47.42 17.2h-3.89l-3.23-.4h7.38z" fill="#83afdd"/><path d="M51.31 71.33l-.3-6.62a8.38 8.38 0 0 1 .32-1.82l-.02 8.44zm.02-9.06l-.34-2.15-.33-4.31c.24.45.65.9.67 1.37v5.09z" class="l"/><path d="M43.85 28.89l.32.14a7.45 7.45 0 0 1-1.07.8c-.73.38-1.51.68-2.33 1 2.34 3.09 1.43 6.17 1.14 9.19l-.32 3.37-1.93.11H28.31h-3.57-4c-.92 0-1.21.34-1.2 1.22v6.89l-1.23 2.86-1 .06h-.3l-2.47-5.59a36 36 0 0 1-2.17-16.63 37.13 37.13 0 0 1 4.29-13.74c1.34-.18 2.6-.24 2.34 1.76 0 .11.37.29.57.43v6.73c0 1 .26 1.47 1.35 1.41 1.27-.08 2.56 0 3.84 0h19.09z" fill="#8db6e1"/><path d="M16.63 18.5a37.13 37.13 0 0 0-4.29 13.74 36 36 0 0 0 2.17 16.63c.68 1.91 1.64 3.73 2.47 5.59-2.37.85-4-.65-5.63-1.91a23.21 23.21 0 0 1-7.72-12c-1.12-3.73-.2-7.23 1-10.81a20.08 20.08 0 0 1 6.84-9.35c1.41-1.14 3.43-1.51 5.17-2.23-.02.17-.01.23-.01.34z" fill="#51a1d9"/><path d="M17.28 54.48l1-.06 1.23-2.86c.06 4.26.06 4.26 4.41 4.21h.79 9.4l5.48-.19 3.92.17.32.12a6.11 6.11 0 0 1-1.09 1.26l-4.07 2.42c-.55.33-1 .75-1.58 1.09l-3.2 2a1.79 1.79 0 0 1-.71.31l-3.88.36c-1.3.09-1.8 1.13-2 2.3l-4.18-3-5.48-7.1a3.57 3.57 0 0 1-.36-1.03z" class="l"/><path d="M63.93 77.49l1.24 1.38-1.87.88a6.84 6.84 0 0 1 0-1.5c.05-.28.41-.51.63-.76z" class="i"/><path d="M61.33 76.61l1-.09v.66l-1 .31v-.34z" class="j"/><path d="M61.33 77.15v.34l-.68.22-.14-.24z" class="i"/><path d="M63 76.54l1-.67v.73h-.4z" class="f"/><path d="M62.33 77.18v-.66l.7.09zm1.24-.55h.4v.34z" class="k"/><path d="M64 76.54v-.67a50.09 50.09 0 0 1 5.2 0q4.21.45 8.39 1.27c.71.14 1.29 1 1.93 1.45a9.18 9.18 0 0 1-2 1.61 12.32 12.32 0 0 1-2.82.49l1.47-1c.47-.39.88-.64 1-1.06.07-.23-.44-.87-.8-1-1.19-.36-2.42-.58-3.64-.85h-1.31-.6l-4.58-.33h-1.31z" class="d"/><path d="M72.69 76.85l3.64.85c.36.11.87.75.8 1-.14.42-.63.76-1 1.06s-1 .66-1.47 1H74l-1-.63a5.34 5.34 0 0 0 .68-.33l1.55-1.08-1.49-1.17c-.31-.29-.69-.48-1.05-.7z" class="f"/><path d="M71.41 80.74c-.73 1.17-1.67.67-2.6.32v-.64h.31 2z" class="d"/><path d="M64.9 80.71l1.63-.64 1.31.32v.36h-1.93z" class="e"/><path d="M73 80.09l1 .63h-1.62v-.64z" class="d"/><path d="M72.39 80.1v.64h-1l-.33-.33v-.34h1zm-4.55.65v-.36h1v.64zM6.91 77.5l-.61 1.47 2.56 1.43a28.07 28.07 0 0 1-3.57-.65c-.49-.15-.83-.79-1.25-1.21a10.52 10.52 0 0 1 1.6-1 3.59 3.59 0 0 1 1.27-.04z" class="f"/><path d="M15.34 76.85l.33.33-.9 1.64 1.88 1.85h-1l-3.62-.95-3.06-.69c1.18-1.75 2.76-1.15 4-1.59.49-.17.95-.41 1.42-.62zm.97.33v-.37h1.29zm52.51 3.24h-1l-1.31-.32c.86-1.38.84-2.37-1.09-2.64-.21 0-.37-.53-.55-.82h1.31c.8.74 3.59 1.13 4.46.62.07 0 .08-.19.12-.29h.6l1.89 1.62L72 80.07h-1c-.73-.34-1.47-.79-2 .33z" class="k"/><path d="M43.85 28.89H37.7v-12l2.6-.1 3.23.4.32 7.67v4.03z" fill="#416da3"/><path d="M24.73 28.88h-3.84c-1.09.06-1.38-.39-1.35-1.41v-6.73c.06-3.9.06-3.91 3.92-3.9h1.27z" fill="#509bd1"/><path d="M24.73 28.88v-12h3.57v5 7z" fill="#4b93c9"/><path d="M28.3 28.88v-7-5h3.56q-.15 6-.32 12z" fill="#498bc2"/><path d="M31.54 28.88q.16-6 .32-12h2.92v12z" fill="#4882b8"/><path d="M34.78 28.88v-12h2.92v12z" fill="#467ab2"/><path d="M43.54 55.68l-3.92-.17a38.11 38.11 0 0 0 .32-4l-.28-8 1.93-.11 1.63.13q.17 6.09.32 12.15z" fill="#416da3"/><path d="M39.66 43.54l.28 8a38.11 38.11 0 0 1-.32 4l-5.48.19V43.54z" fill="#467ab2"/><path d="M24.74 55.73h-.79c-4.35 0-4.35 0-4.41-4.21v-6.89c0-.88.28-1.26 1.2-1.22h4a34.48 34.48 0 0 1 .3 3.49l-.3 8.83z" fill="#509bd1"/><path d="M24.74 55.73l.3-8.74a34.48 34.48 0 0 0-.3-3.49h3.57l.29 3.68-.29 8.53z" fill="#4b93c9"/><path d="M28.31 55.72l.29-8.53c0-1.22-.19-2.45-.29-3.68h3.24v12.2z" fill="#498bc2"/><path d="M31.55 55.71V43.52h2.59V55.7z" fill="#4882b8"/><path d="M72 80.07l1.23-1.55-1.89-1.62h1.31l1.07.66 1.49 1.17-1.55 1.08a5.34 5.34 0 0 1-.68.33h-.63zm-1.22-3.18c0 .1 0 .25-.12.29-.87.51-3.66.12-4.46-.62zm-1.65 3.51c.48-1.12 1.22-.67 2-.33v.34z" class="e"/></svg>