<svg xmlns="http://www.w3.org/2000/svg" viewBox="0 0 193 54.45" xmlns:v="https://vecta.io/nano"><path d="M193 47.99h-3.2v5.78h3.2v-.82h-2.32v-1.94h2.26v-.82h-2.25v-1.33H193zm-5.81-.1a2.89 2.89 0 0 0-2.32 1.06 3 3 0 0 0-.73 2 2.84 2.84 0 0 0 .88 2.11 2.9 2.9 0 0 0 2.12.86 3.07 3.07 0 0 0 1.57-.43v-1l-.4.31a3.56 3.56 0 0 1-.38.2 1.81 1.81 0 0 1-.78.15 2 2 0 0 1-1.51-.62 2.12 2.12 0 0 1-.62-1.54 2.18 2.18 0 0 1 .62-1.56 2 2 0 0 1 1.5-.64 2.4 2.4 0 0 1 1.56.63v-1a3 3 0 0 0-1.51-.42m-8.41 5.91v-4l4.23 4.4v-6.14h-.87v4l-4.23-4.41v6.18zm-5.28-2.21l.89-2 .87 2zm2.72 2.22h1l-2.78-6.15-2.89 6.09h.93l.65-1.4h2.47zm-7.76-5h.31c.81 0 1.21.3 1.21.89s-.41 1-1.24 1h-.28zm2 1.93a1.64 1.64 0 0 0 .35-1 1.54 1.54 0 0 0-.57-1.26 2.45 2.45 0 0 0-1.65-.43h-1v5.7h.88v-2.37h.16l1.66 2.37h1.07l-1.8-2.46a1.57 1.57 0 0 0 .93-.58m-8.57-2.73v3.72a2.08 2.08 0 0 0 .57 1.51 2.11 2.11 0 0 0 1.57.66 2.15 2.15 0 0 0 1.58-.66 2.12 2.12 0 0 0 .57-1.51v-3.77h-.88v3.48a1.89 1.89 0 0 1-.24 1.09 1.2 1.2 0 0 1-1 .51 1.19 1.19 0 0 1-1-.5 1.93 1.93 0 0 1-.24-1.09v-3.48zm-2.76-.11a1.81 1.81 0 0 0-1.24.44 1.42 1.42 0 0 0-.5 1.09 1.6 1.6 0 0 0 1.19 1.47l.56.23a1.81 1.81 0 0 1 .37.2 1.16 1.16 0 0 1 .26.22.68.68 0 0 1 .15.26 1 1 0 0 1 0 .31.93.93 0 0 1-.27.69 1 1 0 0 1-.68.28.92.92 0 0 1-.79-.38 1.48 1.48 0 0 1-.21-.7l-.88.19a2.08 2.08 0 0 0 .6 1.26 1.79 1.79 0 0 0 1.25.45 1.83 1.83 0 0 0 1.33-.53 1.8 1.8 0 0 0 .53-1.33 1.56 1.56 0 0 0-.33-1 2.51 2.51 0 0 0-1-.69l-.58-.24c-.42-.17-.63-.4-.63-.68a.64.64 0 0 1 .24-.51.89.89 0 0 1 .61-.21.9.9 0 0 1 .48.12 1.19 1.19 0 0 1 .37.45l.71-.42a1.73 1.73 0 0 0-1.56-1m-4.48 0a1.83 1.83 0 0 0-1.24.44 1.4 1.4 0 0 0-.5 1.09 1.6 1.6 0 0 0 1.19 1.47l.56.23a1.91 1.91 0 0 1 .38.2 1.16 1.16 0 0 1 .26.22.82.82 0 0 1 .14.26.73.73 0 0 1 .05.3.94.94 0 0 1-.27.7.92.92 0 0 1-.67.27.9.9 0 0 1-.79-.37 1.48 1.48 0 0 1-.21-.7l-.89.19a2.14 2.14 0 0 0 .6 1.26 1.81 1.81 0 0 0 1.25.45 1.87 1.87 0 0 0 1.33-.53 1.76 1.76 0 0 0 .53-1.33 1.56 1.56 0 0 0-.33-1 2.41 2.41 0 0 0-1-.69l-.57-.24c-.42-.18-.64-.4-.64-.68a.63.63 0 0 1 .24-.51.88.88 0 0 1 .6-.21.91.91 0 0 1 .49.12 1.2 1.2 0 0 1 .38.45l.71-.42a1.74 1.74 0 0 0-1.57-1M147 50.68l1.25-2.82 1.23 2.81zm3.89 3.18h1.37l-4-8.78-4.07 8.8h1.34l.92-2H150zm-10.59-5.77h-3.2v5.77h3.2v-.82H138V51.1h2.26v-.82H138v-1.4h2.32zm-9.05 0l2.55 6.22 2.59-6.22h-1l-1.62 4-1.61-4zm-1.59 5.77h.87V48.1h-.87zm-.79-5v-.82h-3.53v.82h1.33v5h.87v-5zm-7 2.75l.89-2 .86 2zm2.73 2.25h1l-2.77-6.14-2.85 6.15h.94l.64-1.41H124zm-7.76-5h.31c.8 0 1.2.3 1.2.89s-.41 1-1.24 1h-.27zm2 1.93a1.64 1.64 0 0 0 .35-1 1.57 1.57 0 0 0-.57-1.27 2.54 2.54 0 0 0-1.66-.43h-1v5.79h.87v-2.37h.17l1.66 2.37h1.06l-1.79-2.46a1.57 1.57 0 0 0 .93-.57m-4-2.74h-3.19v5.79h3.19v-.82h-2.36v-1.94h2.25v-.82h-2.25v-1.36h2.32zm-6.46.82h.29c.82 0 1.24.29 1.24.89s-.4.92-1.2.92h-.33zm.41 2.62a2.13 2.13 0 0 0 1.44-.46 1.61 1.61 0 0 0 .52-1.26 1.64 1.64 0 0 0-.5-1.23 1.59 1.59 0 0 0-.66-.39 5 5 0 0 0-1.09-.09h-1v5.79h.88v-2.35zm-6.93-2.08a2.07 2.07 0 0 1 1.53-.63 2 2 0 0 1 1.52.63 2.13 2.13 0 0 1 .62 1.55 2.16 2.16 0 0 1-.62 1.55 2.14 2.14 0 0 1-3 0 2.25 2.25 0 0 1 0-3.11m-.51 3.78a3 3 0 0 0 2 .77 3 3 0 0 0 2.16-.88 2.78 2.78 0 0 0 .89-2.12 3 3 0 0 0-5.15-2.12 3 3 0 0 0 .09 4.35M95 49.51a2.07 2.07 0 0 1 1.5-.65 2 2 0 0 1 1.52.63 2.25 2.25 0 0 1 0 3.1 2.09 2.09 0 0 1-1.54.63 2.17 2.17 0 0 1-2.13-2.19 2.12 2.12 0 0 1 .62-1.54m-.51 3.78a3 3 0 0 0 2 .77 2.93 2.93 0 0 0 2.16-.88 2.82 2.82 0 0 0 .89-2.12 3 3 0 0 0-5.15-2.12 2.87 2.87 0 0 0-.89 2.1 2.83 2.83 0 0 0 1 2.25m-4.1-7.75A4.34 4.34 0 0 0 86 49.86a4.1 4.1 0 0 0 1.25 3 4.18 4.18 0 0 0 3 1.23 4.45 4.45 0 0 0 2.25-.61v-1.51a5.23 5.23 0 0 1-.58.44 3.12 3.12 0 0 1-.53.29 2.69 2.69 0 0 1-1.12.22 2.92 2.92 0 0 1-2.15-.89 3.06 3.06 0 0 1-.89-2.2 3.14 3.14 0 0 1 .88-2.23 2.83 2.83 0 0 1 2.14-.91 3.43 3.43 0 0 1 2.25.89v-1.44a4.24 4.24 0 0 0-2.15-.6M78 49.02h.39a2.43 2.43 0 0 1 1.69.53 2.07 2.07 0 0 1-.71 3.5 3.28 3.28 0 0 1-1 .12H78zm.33 5a4.38 4.38 0 0 0 1.36-.16 2.84 2.84 0 0 0 1.91-2.74 2.75 2.75 0 0 0-.9-2.14 2.53 2.53 0 0 0-1-.58 4.61 4.61 0 0 0-1.38-.17h-1.17v5.78zM76 48.21h-3.19v5.78H76v-.82h-2.31v-1.94h2.25v-.82h-2.26v-1.4H76zm-4 .83v-.82h-3.5v.82h1.33v5h.87v-5zm-5.18 5h.88v-5.82h-.88zm-5.6 0v-4l4.23 4.4v-6.21h-.88v4l-4.21-4.37v6.19zm-8.7-8.25v5.32a3 3 0 0 0 3.07 3.1 3 3 0 0 0 2.24-1 3 3 0 0 0 .81-2.16v-5.29h-1.21v5a2.72 2.72 0 0 1-.35 1.56 1.71 1.71 0 0 1-1.47.71 1.73 1.73 0 0 1-1.46-.71 2.73 2.73 0 0 1-.35-1.55v-5z" fill="#00609c"/><path d="M52.474 40.858l140.33-.269.002.96-140.33.269z" fill="#4c9c2e"/><g fill="#00609c"><path d="M64.42 35.86h-1a1.78 1.78 0 0 1-1.92-1.93v-2.68h-1.4c-1.08 0-1.37-.06-1.37.39 0 1.06.16 1.36 1 1.37h1.08v.85a2.86 2.86 0 0 1-.74 2 2.82 2.82 0 0 1-1.92 1h-2a3.5 3.5 0 0 1-2.81-1.11 4.43 4.43 0 0 1-.86-2.91v-2.41h1.27v2.32c0 2 .92 3.13 2.58 3.12h1.54a1.64 1.64 0 0 0 1.13-.69 1.84 1.84 0 0 0 .42-1.1 2.22 2.22 0 0 1-1.64-.65c-.46-.44-.42-1-.42-1.82 0-.94.39-1.24 1.2-1.24h4.23v3.26c0 .72.32 1.07.94 1.06h.66z"/><path d="M67.29 28.28a.79.79 0 1 1-.78-.79.77.77 0 0 1 .78.79m.71 5.68a1.76 1.76 0 0 1-1.9 1.9h-2v-1.18h1.67c.64 0 1-.34 1-1v-1.31l-.23-1.66 1.46-.35zm4.87 1.06v-3.9h-.69c-1 0-1.64.84-1.64 2.19s.41 1.93 1.21 1.93a3.11 3.11 0 0 0 1.13-.22m1.27.28a3.28 3.28 0 0 1-2.78 3.42l-.28-.54a2.33 2.33 0 0 0 1.77-2.32 4.7 4.7 0 0 1-1.39.22 2 2 0 0 1-1.61-.8 2.7 2.7 0 0 1-.6-1.8 3.37 3.37 0 0 1 .74-2.2 2.71 2.71 0 0 1 2.13-.94h2zm7.07.56h-3.49a1.79 1.79 0 0 1-1.93-2v-4.38l-.23-1.62 1.52-.36v6.13c0 .72.31 1.07.93 1.07h3.19z"/><path d="M87.46 32.33a1 1 0 0 0-.51-.69 2.59 2.59 0 0 0-1.41-.34 2.53 2.53 0 0 0-1.4.35 1.11 1.11 0 0 0-.54.68l1.94 1.83zM90 35.8h-3.13a3.52 3.52 0 0 1-1.35-.34 1 1 0 0 1-.73.31 1.92 1.92 0 0 1-.74 0h-5.69v-1.11h5.5a2.05 2.05 0 0 0 .49-.06c-.3-.25-1-.93-2.16-2a2.08 2.08 0 0 1 1-1.66 4 4 0 0 1 2.37-.75 3.88 3.88 0 0 1 2.38.75 2.06 2.06 0 0 1 1 1.65l-2.17 2a2.24 2.24 0 0 0 .52 0H90z"/><path d="M92.92 28.23a.79.79 0 0 1-1.58.007.79.79 0 0 1 .78-.797.76.76 0 0 1 .8.79m-2.08 0a.78.78 0 0 1-.79.78.76.76 0 0 1-.78-.79.79.79 0 0 1 .78-.78.77.77 0 0 1 .79.79m3.4 7.56h-1a2 2 0 0 1-1.24-.38 2.07 2.07 0 0 1-1.25.39h-1.54v-1.16h1.2c.64 0 1-.34 1-1v-1.29l-.27-1.69 1.54-.35v3.29c0 .69.31 1 .94 1h.67z"/><path d="M98.23 33.86a1.78 1.78 0 0 1-1.92 1.94h-2.43v-1.17H96c.64 0 1-.35 1-1.06v-4.14l-.22-1.72 1.51-.36zm3.06-6.47l-.14 1.73.01 6.66h-1.28l-.02-6.64-.19-1.62 1.62-.13zm7.88 4.83a.79.79 0 1 1-1.57 0 .78.78 0 0 1 .78-.78.77.77 0 0 1 .79.79m5.21 3.54h-1.51a2.63 2.63 0 0 1-.7-.09 3.58 3.58 0 0 1-3.87 3 3.39 3.39 0 0 1-2.8-1.14 4.42 4.42 0 0 1-.87-2.92v-2.43h1.27v2.32c0 2 1 3.3 2.58 3.29a2.17 2.17 0 0 0 1.72-.82 3.58 3.58 0 0 0 .75-2.37v-2.25l-.25-1.71 1.52-.37v3c0 .87.32 1.3 1 1.3h1.19z"/><path d="M117.35 37.86a.8.8 0 0 1-.79.78.76.76 0 0 1-.78-.79.77.77 0 0 1 .78-.78.79.79 0 0 1 .79.79m1.44-2.09h-1a2 2 0 0 1-1.27-.39 2.07 2.07 0 0 1-1.25.4h-1.54v-1.19H115c.64 0 1-.34 1-1v-1.37l-.26-1.67 1.54-.34v3.35q0 1 1 1h.64zm-3.51 2.09a.8.8 0 0 1-1.358.593.8.8 0 0 1 .558-1.373.79.79 0 0 1 .8.78"/><path d="M123.7 31.74l-.11-.75a2 2 0 0 0-.67-.09c-1.09 0-1.64.68-1.64 2 0 1.09.38 1.64 1.13 1.63q1.38 0 1.38-1.74a8.06 8.06 0 0 0-.09-1.09m1.36-1.45l-.12 1.36v1.8c0 1.52-1 2.29-2.91 2.29h-3.62v-1.12h2a2.71 2.71 0 0 1-.39-1.39 3 3 0 0 1 3.2-3.19 6.28 6.28 0 0 1 1.86.29m4.58 5.44h-1a1.79 1.79 0 0 1-1.93-1.93v-4.41l-.22-1.67 1.52-.35v6.13c0 .71.32 1.06.94 1.06h.7zm-1.21-9h-2.67v-.48h.47c0-.71.38-1.24 1-1.24a1.37 1.37 0 0 1 .78.26l-.16.41a.74.74 0 0 0-.47-.25c-.36 0-.54.28-.54.82h.63.49z"/><path d="M129.282 34.57l4.78-.009.002 1.17-4.78.009z"/><path d="M137.42 28.15a.79.79 0 0 1-1.57 0 .79.79 0 0 1 .78-.78.78.78 0 0 1 .79.8m-2.07 0a.79.79 0 0 1-1.58.007.79.79 0 0 1 .78-.797.78.78 0 0 1 .8.79m3.4 7.56h-1a2 2 0 0 1-1.27-.38 2 2 0 0 1-1.24.39h-1.55v-1.19h1.2c.63 0 1-.34 1-1v-1.29l-.28-1.68 1.55-.36v3.3c0 .69.32 1 .94 1h.68z"/><path d="M143.35 35.7h-.86a1.93 1.93 0 0 1-1.29-.4 1.83 1.83 0 0 1-1.23.41h-1.59v-1.17h1.25c.62 0 .93-.35.93-1.06v-4l-.25-1.74 1.55-.36v6.13c0 .72.31 1.07.93 1.07h.56z"/><path d="M147.35 33.76a1.79 1.79 0 0 1-1.93 1.94H143v-1.17h2.11c.64 0 1-.35 1-1.06v-4.13l-.22-1.72 1.52-.36zm7.96-5.65a.78.78 0 0 1-.79.78.79.79 0 0 1-.81-.79.8.8 0 0 1 1.6 0m-.53 4.6q0-2.07-1.32-2.07c-.94 0-1.4.7-1.4 2.07s.45 2.09 1.35 2.09 1.37-.71 1.37-2.09m-1.54-4.59a.8.8 0 0 1-.8.78.79.79 0 1 1 .8-.78m2.93 4.58a3.11 3.11 0 0 1-.76 2.16 2.63 2.63 0 0 1-2 .82 2.58 2.58 0 0 1-2-.77 3 3 0 0 1-.73-2.1 3.19 3.19 0 0 1 .74-2.2 2.63 2.63 0 0 1 2.08-.84c1.67 0 2.67 1.08 2.67 2.93m7.05 2.97h-5.8l.34-1.17H161v-.27-1.36a2.72 2.72 0 0 0-.38-1.5 1.09 1.09 0 0 0-.91-.49.89.89 0 0 0-.4.09c0-.13 0-.38-.07-.73a2.76 2.76 0 0 0 .4-.05 2.37 2.37 0 0 1 1.91.83 3.06 3.06 0 0 1 .74 2.07v1.41h.84z"/><path d="M162.917 34.515l2.29-.004.002 1.17-2.29.004zm13.393-6.445a.79.79 0 1 1-.79-.79.77.77 0 0 1 .79.79m-2.08 0a.77.77 0 0 1-.79.77.76.76 0 0 1-.78-.79.79.79 0 0 1 .78-.78.77.77 0 0 1 .79.8m3.41 7.56h-1a2 2 0 0 1-1.27-.39 2 2 0 0 1-1.25.39h-1.52v-1.15h1.19c.64 0 1-.34 1-1v-1.29l-.27-1.69 1.55-.35v3.29c0 .69.31 1 .94 1h.68z"/><path d="M182.85 34.71v-2.38l-.11-.73a2.07 2.07 0 0 0-.62-.08c-1.08 0-1.62.67-1.62 2 0 1.08.47 1.73 1.09 1.73a1.74 1.74 0 0 0 1.26-.58m2.87.91h-.93a1.79 1.79 0 0 1-1.23-.4 2.92 2.92 0 0 1-2.3 1.14 1.83 1.83 0 0 1-1.66-1 2 2 0 0 1-1 .24h-1.35v-1.09h1a.78.78 0 0 0 .89-.86 2.94 2.94 0 0 1 3.25-3 6.46 6.46 0 0 1 1.88.29l-.16 1.35v1.17c0 .69.32 1 1 1h.63z"/><path d="M189.73 33.68a1.78 1.78 0 0 1-1.93 1.94h-2.43v-1.16h2.11c.64 0 1-.35 1-1.06v-4.14l-.22-1.72 1.52-.36zm3.05-6.46l-.14 1.73.01 6.66h-1.28l-.01-6.65-.2-1.61 1.62-.13zM56.74 37.96a.77.77 0 0 1-.78.78.78.78 0 0 1-.81-.77.8.8 0 0 1 .81-.8.79.79 0 0 1 .78.79m2.06 0a.79.79 0 1 1-.365-.758.79.79 0 0 1 .365.758m113.89-2.31v-1.17H171v-1.4a3.14 3.14 0 0 0-.74-2.08 2.34 2.34 0 0 0-1.78-.81h0-3v.75h3a1.29 1.29 0 0 1 1 .54 2.29 2.29 0 0 1 .22 1.38v1.36.28h-4.77l-.34 1.17H171v-.4a1.91 1.91 0 0 0 1.27.38h0z"/></g><path d="M23.13 20.1h0a4.83 4.83 0 0 1-2.06-2.18h0a.19.19 0 0 0-.16-.09.19.19 0 0 0-.15.09h0a4.83 4.83 0 0 1-2.05 2.19 4.71 4.71 0 0 0 0 8.3 4.85 4.85 0 0 1 2.07 2.18.16.16 0 0 0 .15.09.19.19 0 0 0 .15-.09 4.85 4.85 0 0 1 2.06-2.19 4.7 4.7 0 0 0 0-8.3" fill="#4c9c2e"/><g fill="#00609c"><path d="M6.91 29.04h0a4.88 4.88 0 0 1-2.07-2.18.15.15 0 0 0-.15-.1.18.18 0 0 0-.15.1 4.88 4.88 0 0 1-2.06 2.18 4.71 4.71 0 0 0 0 8.31 4.81 4.81 0 0 1 2.06 2.17h0a.19.19 0 0 0 .15.09.19.19 0 0 0 .16-.09 4.81 4.81 0 0 1 2.05-2.18 4.72 4.72 0 0 0 0-8.31m10.84-.01h0a4.83 4.83 0 0 1-2.07-2.16.18.18 0 0 0-.15-.1.15.15 0 0 0-.15.1h0a4.81 4.81 0 0 1-2.05 2.18 4.71 4.71 0 0 0 0 8.31 4.81 4.81 0 0 1 2.06 2.17h0a.19.19 0 0 0 .15.09.16.16 0 0 0 .15-.09 4.78 4.78 0 0 1 2.06-2.18 4.72 4.72 0 0 0 0-8.31M28.56 29h0a4.86 4.86 0 0 1-2.06-2.14.18.18 0 0 0-.16-.1.18.18 0 0 0-.15.1h0a4.83 4.83 0 0 1-2.06 2.18 4.72 4.72 0 0 0 0 8.31 4.71 4.71 0 0 1 2.06 2.17h0a.19.19 0 0 0 .16.09.19.19 0 0 0 .15-.09 4.78 4.78 0 0 1 2.06-2.18 4.71 4.71 0 0 0 0-8.31m10.83-.05h0a4.88 4.88 0 0 1-2.07-2.12.16.16 0 0 0-.3 0h0a4.81 4.81 0 0 1-2 2.18 4.71 4.71 0 0 0 0 8.31A4.81 4.81 0 0 1 37 39.47h0a.19.19 0 0 0 .15.09.19.19 0 0 0 .16-.09 4.71 4.71 0 0 1 2-2.18 4.72 4.72 0 0 0 0-8.31m-27-8.86h0a4.8 4.8 0 0 1-2.07-2.18h0a.17.17 0 0 0-.15-.09.16.16 0 0 0-.15.09h0a4.85 4.85 0 0 1-2.06 2.19 4.71 4.71 0 0 0 0 8.3A4.85 4.85 0 0 1 10 30.61a.17.17 0 0 0 .3 0 4.85 4.85 0 0 1 2.06-2.19 4.71 4.71 0 0 0 0-8.3M34 20.08h0a4.85 4.85 0 0 1-2.11-2.22h0a.19.19 0 0 0-.15-.09.17.17 0 0 0-.15.09h0a4.85 4.85 0 0 1-2.06 2.19 4.7 4.7 0 0 0 0 8.3 4.83 4.83 0 0 1 2.06 2.18.19.19 0 0 0 .15.09.16.16 0 0 0 .15-.09A4.85 4.85 0 0 1 34 28.38a4.71 4.71 0 0 0 0-8.3M17.7 11.2h0a4.83 4.83 0 0 1-2.06-2.18h0a.19.19 0 0 0-.16-.09.19.19 0 0 0-.15.09h0a4.89 4.89 0 0 1-2 2.19 4.71 4.71 0 0 0 0 8.3 4.83 4.83 0 0 1 2.06 2.18h0a.15.15 0 0 0 .15.1.18.18 0 0 0 .15-.1h0a4.85 4.85 0 0 1 2.06-2.19 4.7 4.7 0 0 0 0-8.3m10.78-.02h0a4.83 4.83 0 0 1-2.07-2.19h0a.16.16 0 0 0-.15-.09.15.15 0 0 0-.15.09h0a4.78 4.78 0 0 1-2.06 2.18 4.71 4.71 0 0 0 0 8.31 4.83 4.83 0 0 1 2.06 2.18h0a.18.18 0 0 0 .15.1.18.18 0 0 0 .16-.1h0a4.78 4.78 0 0 1 2-2.19 4.71 4.71 0 0 0 0-8.3"/><path d="M23.1 2.27h0A4.8 4.8 0 0 1 21 .09.17.17 0 0 0 20.85 0a.16.16 0 0 0-.15.09 4.85 4.85 0 0 1-2.06 2.19 4.71 4.71 0 0 0 0 8.31 4.76 4.76 0 0 1 2.06 2.17h0a.19.19 0 0 0 .15.09.19.19 0 0 0 .16-.09h0a4.76 4.76 0 0 1 2.05-2.18 4.72 4.72 0 0 0 0-8.31M8.3 43.18h1.64v6.33a7.29 7.29 0 0 1-.19 1.94 3.8 3.8 0 0 1-.47 1.09 3.69 3.69 0 0 1-.7.78A5.44 5.44 0 0 1 5 54.46a5.49 5.49 0 0 1-3.61-1.13 3.67 3.67 0 0 1-.7-.78 3.92 3.92 0 0 1-.47-1.07 7.76 7.76 0 0 1-.19-2v-6.29h1.65v6.33a4.47 4.47 0 0 0 .38 2.18 2.54 2.54 0 0 0 1.14 1 4.11 4.11 0 0 0 1.79.37 3.82 3.82 0 0 0 2.4-.75 2.31 2.31 0 0 0 .7-1 5.69 5.69 0 0 0 .21-1.85zM26 51.7v1.76a8.85 8.85 0 0 1-4.17 1 6.62 6.62 0 0 1-3.27-.75 5.62 5.62 0 0 1-2.13-2.06 5.51 5.51 0 0 1-.78-2.85 5.39 5.39 0 0 1 1.78-4.1 6.27 6.27 0 0 1 4.41-1.67 10.7 10.7 0 0 1 4 .92v1.7A8.23 8.23 0 0 0 22 44.52a4.67 4.67 0 0 0-3.28 1.22 4 4 0 0 0-1.3 3 3.91 3.91 0 0 0 1.29 3A4.63 4.63 0 0 0 22 52.96a7.53 7.53 0 0 0 4-1.26m12-2.17l-1.87-4-1.72 4zm-2.47-6.46h1.18l5.17 11.18h-1.66l-1.54-3.27h-4.91l-1.42 3.28h-1.69z"/></g></svg>