<svg xmlns="http://www.w3.org/2000/svg" viewBox="0 0 193 68.81" xmlns:v="https://vecta.io/nano"><path d="M161.35 15.61a43.89 43.89 0 0 1 3.83-2.77 19 19 0 0 1 10.67-2.89 16.09 16.09 0 0 1 13.06 7.33 23.31 23.31 0 0 1 4 15.8c-1.08 11.95-6.74 21.32-16.5 28.2-14.564 10.124-33.954 9.863-48.24-.65a7.6 7.6 0 0 1-.61-.52 1.08 1.08 0 0 1 .65.31 24.57 24.57 0 0 0 3.77 2.14 20.9 20.9 0 0 0 11.59 1.72c1-.14 2-.32 2.95-.48l.54.07a37 37 0 0 0 17.69-1.64 26.93 26.93 0 0 0 4.58-2 16.58 16.58 0 0 1-11.22-4.25c.55-1 1.39-1.88 2-2.87.19-.31.28-.72.67-.88a11.32 11.32 0 0 0 8.66 3.47 14.68 14.68 0 0 0 8.35-3c5.13-3.75 8.15-8.9 9.73-15a24.86 24.86 0 0 0 .64-9.33 18.22 18.22 0 0 0-3.16-8.76c-3-4.1-7-5.91-12-5a17.21 17.21 0 0 0-9.63 5.63 19.63 19.63 0 0 0-3.51 4.69 27 27 0 0 0-3.64 10.65 22.46 22.46 0 0 0 1.56 12.09 4.22 4.22 0 0 1-.82 1.86 10.19 10.19 0 0 1-1.96 2.71c-.18-.28-.37-.56-.53-.85a25.36 25.36 0 0 1-3-15.78A32.15 32.15 0 0 1 158 19.35l1.92-2.21a15.28 15.28 0 0 0 1.43-1.53z" fill="#0a5777"/><path d="M146.5 63.8l-2.95.48A20.9 20.9 0 0 1 132 62.56a24.57 24.57 0 0 1-3.77-2.14 1.08 1.08 0 0 0-.65-.31 32 32 0 0 1-6.75-7.04A36.73 36.73 0 0 1 115 39.36a39.23 39.23 0 0 1-.78-10.75c.48-7.69 2.82-14.7 7.94-20.59A22 22 0 0 1 135.78.24a21.42 21.42 0 0 1 15.58 3.72 29.84 29.84 0 0 1 9.95 11.65 15.28 15.28 0 0 1-1.48 1.53c-.63.75-1.28 1.47-1.92 2.21a2 2 0 0 0-.06-.26A27 27 0 0 0 149 7.84c-4.68-3.31-9.8-4.38-15.32-2.52a18.76 18.76 0 0 0-9.82 8c-4.62 7.13-5.84 15-4.64 23.27a32.39 32.39 0 0 0 4.07 11.79 23.86 23.86 0 0 0 10.93 10.32 15.51 15.51 0 0 0 8.73 1.25 17.87 17.87 0 0 0 10.91-6.19 4.17 4.17 0 0 0 1.14-1.52 10.19 10.19 0 0 0 1.92-2.74 4.22 4.22 0 0 0 .82-1.86c.17 0 .2-.12.26-.24a34.57 34.57 0 0 0 2.51-19.55 10.39 10.39 0 0 0-.69-3 19.63 19.63 0 0 1 3.51-4.69 2 2 0 0 1 .14.3 40.91 40.91 0 0 1 1.7 18.7 34.94 34.94 0 0 1-4.17 12.5c-.09.17-.24.33-.19.55-.39.16-.48.57-.67.88-.61 1-1.45 1.84-2 2.87-.36.13-.53.46-.76.72a23.53 23.53 0 0 1-9.24 6.48 5.47 5.47 0 0 0-1.64.64zM9.07 59.35l2.45-8.41 2.57-8.87a2 2 0 0 1 2.05-1.4 2 2 0 0 1 1.93 1.44l4.74 16.27.3.94.7-2.33Q26 49.6 28.12 42.16a2.09 2.09 0 0 1 2.59-1.41A2 2 0 0 1 32 43.41q-1.56 5.41-3.14 10.83l-3.71 12.81a2.15 2.15 0 0 1-1.49 1.58A2.1 2.1 0 0 1 21 67.07l-1.49-5.13-3.3-11.46c0-.08 0-.18-.2-.21l-1.26 4.31-3.57 12.36a2.15 2.15 0 0 1-4.25 0Q3.51 55.17.11 43.41a2 2 0 0 1 1.34-2.65 2.07 2.07 0 0 1 2.61 1.54q2.41 8.3 4.82 16.59c.03.1.12.18.19.46z" fill="#69a0d5"/><path d="M82.78 23.74v11.69a2 2 0 0 1-2.18 2.2H60.48a2.1 2.1 0 0 1-1.77-.75 1.67 1.67 0 0 1-.25-1.81 1.93 1.93 0 0 1 1.88-1.15h5.82c.57 0 .74-.1.74-.71q0-9.8 0-19.58a1.86 1.86 0 0 1 1.27-1.91 2 2 0 0 1 2.18.6 2.17 2.17 0 0 1 .42 1.5v19.31c0 .64.15.81.8.8h6.75c.51 0 .62-.13.62-.63q0-10.65 0-21.31a1.85 1.85 0 0 1 1.83-2 1.88 1.88 0 0 1 2 2q0 4.85 0 9.69zm18.72 11.74a13.09 13.09 0 0 1-3.93 1.83 10.55 10.55 0 0 1-13-8.14 10.18 10.18 0 0 1 8.12-11.55A10.61 10.61 0 0 1 104 22a8.76 8.76 0 0 1 1.68 5.25v14.16a2 2 0 0 1-2.1 2.11 2 2 0 0 1-2.06-2.15v-5.14zm-6.45-1.84a6.41 6.41 0 0 0 6.19-4.33 6.15 6.15 0 0 0-3.88-7.59 6.61 6.61 0 0 0-8.29 3.46 6.18 6.18 0 0 0 5.98 8.46z" fill="#0a5777"/><path d="M78.58 66.59a11.67 11.67 0 0 1-4.64 2c-5.637 1.043-11.074-2.615-12.23-8.23a10.14 10.14 0 0 1 7.81-11.53 10.79 10.79 0 0 1 12.39 5.79 8.85 8.85 0 0 1 .85 3.68v8.34a2 2 0 0 1-1.58 2 2.11 2.11 0 0 1-2.35-1 3.42 3.42 0 0 1-.25-1.05zM72 52.46a6.42 6.42 0 0 0-1.37.15 6.1 6.1 0 0 0-4 9 6.5 6.5 0 0 0 12.07-3.47c-.39-3.33-3.11-5.68-6.7-5.68zm29.45 14.16a14 14 0 0 1-3.31 1.63c-6 1.89-12.63-2-13.53-8.11a9.64 9.64 0 0 1 5.12-10.24 10.78 10.78 0 0 1 14.73 4 8.94 8.94 0 0 1 1.19 4.46v8.21a2.07 2.07 0 0 1-1.92 2.17 2.13 2.13 0 0 1-2.22-1.81 2.36 2.36 0 0 0-.06-.31zm-6.33-14.16a6.17 6.17 0 1 0-.17 12.32 6.17 6.17 0 1 0 .17-12.32zM48.53 66.63A11.76 11.76 0 0 1 44 68.56a10.53 10.53 0 0 1-12.19-8 10.19 10.19 0 0 1 8.07-11.77A10.79 10.79 0 0 1 51.2 53.3a8.9 8.9 0 0 1 1.53 4.9v8.35a2 2 0 0 1-1.86 2.18 2.1 2.1 0 0 1-2.21-1.66zm.07-8c.26-3.3-3.08-6.29-6.38-6.22-3.64.09-6.49 2.7-6.5 6.14a6.26 6.26 0 0 0 6.42 6.2 6.18 6.18 0 0 0 6.46-6.09z" fill="#69a0d5"/><path d="M37.65 33.84a9.65 9.65 0 0 1-1.79-3.91 9.25 9.25 0 0 1 7.25-10.61 23.77 23.77 0 0 1 5.46-.25 1.79 1.79 0 0 1 1.76 1.89 1.87 1.87 0 0 1-1.87 1.8 31.76 31.76 0 0 0-4.14.1 5.54 5.54 0 0 0-4.7 6 5.7 5.7 0 0 0 5.68 5h9.22a1.86 1.86 0 0 1 1.91 2.45 2 2 0 0 1-2.06 1.28H37.8a2 2 0 0 1-2-1.47c-.31-1.05.4-1.97 1.85-2.28z" fill="#0a5777"/><path d="M54.61 54.69v-12a1.94 1.94 0 0 1 1.38-2 2.15 2.15 0 0 1 2.35.67 2.06 2.06 0 0 1 .4 1.44v21c0 .65.09.94.85.9a1.94 1.94 0 0 1 2 1.71 1.86 1.86 0 0 1-1.63 2.15 12 12 0 0 1-3.59 0 1.9 1.9 0 0 1-1.73-2.09l-.03-11.78z" fill="#69a0d5"/></svg>