<svg id="Layer_1" data-name="Layer 1" xmlns="http://www.w3.org/2000/svg" xmlns:xlink="http://www.w3.org/1999/xlink" viewBox="0 0 128.52 32"><defs><style>.cls-1{fill:none;}.cls-2{fill:#005791;}.cls-3{fill:#1ba7e0;}.cls-4{fill:#6b81b5;}.cls-5{fill:#05599c;}.cls-6{fill:#0a84bc;}.cls-7{clip-path:url(#clip-path);}</style><clipPath id="clip-path"><rect class="cls-1" x="34.44" y="18.96" width="5.63" height="7.58"/></clipPath></defs><g id="surface1"><path class="cls-2" d="M105.53,5.46h4.25a1,1,0,0,1,.86.54l8.29,17.86V24a1.13,1.13,0,0,1-.32.05h-4.74a1,1,0,0,1-.88-.56L105,6.32a.71.71,0,0,1-.06-.26.61.61,0,0,1,.61-.6"/><path class="cls-3" d="M117.79,5.46h-4.24a1,1,0,0,0-.87.54l-8.29,17.86V24a1.14,1.14,0,0,0,.33.05h4.74a1,1,0,0,0,.88-.56l8-17.21a.71.71,0,0,0,0-.26.6.6,0,0,0-.6-.6"/><path class="cls-4" d="M111.66,8.21h0v0h0Z"/><path class="cls-5" d="M108.77,14.43h0l2.89-6.22h0Z"/><path class="cls-6" d="M111.67,20.67l-2.9-6.24,2.89-6.22v0l2.9,6.24"/><path class="cls-2" d="M127,5.46H122.7a.93.93,0,0,0-.85.54h0l-8.29,17.86V24a1.07,1.07,0,0,0,.32.05h4.74a1,1,0,0,0,.88-.56l8-17.21a.71.71,0,0,0,0-.26.6.6,0,0,0-.6-.6"/><path class="cls-3" d="M96.37,5.46h4.25a.94.94,0,0,1,.85.54l8.3,17.86V24a1.07,1.07,0,0,1-.32.05H104.7a1,1,0,0,1-.88-.56l-8-17.21a.71.71,0,0,1,0-.26.6.6,0,0,1,.6-.6"/><path class="cls-2" d="M6.24,8.2v4.72a1.35,1.35,0,0,1-1.46,1.31H3.85a1.35,1.35,0,0,1-1.46-1.31V8.2H1v4.72a2.64,2.64,0,0,0,.13.73,2.51,2.51,0,0,0,2.68,1.74H4.85a2.53,2.53,0,0,0,2.69-1.74,2.83,2.83,0,0,0,.12-.73V8.2"/><path class="cls-2" d="M16.69,13.13h2.84A2.42,2.42,0,0,0,22,10.66a2.47,2.47,0,0,0-2.38-2.58H16.69Zm1.43-3.88h1.23a1.31,1.31,0,0,1,1.24,1.41,1.3,1.3,0,0,1-1.24,1.4H18.12"/><path class="cls-2" d="M41.23,13.13H45.3V6.21H43.88v5.67H41.23"/><path class="cls-2" d="M36.76,13.13h5.77V6.21H41.1v5.67H36.76"/><path class="cls-2" d="M33.63,11.88H24.3V7.22H22.87v5.91H33.63"/><path class="cls-2" d="M6.25,13.13h5.59a2.11,2.11,0,0,0,1.65-.59l.06,0v.57H15V8.18H13.55v3.27a1.51,1.51,0,0,1-1.12.43H7.67V8.39H6.25"/><path class="cls-2" d="M34.36,13.13A2.14,2.14,0,0,0,36,12.54l0,0v.57h4.08V11.88H37.5V8.19H36.07v3.26a1.43,1.43,0,0,1-1.11.43H32.77v1.25"/><path class="cls-2" d="M13.51,14.67a.71.71,0,1,0,.71-.71.71.71,0,0,0-.71.71"/><path class="cls-2" d="M13.06,14.67a.72.72,0,1,0-.71.72.71.71,0,0,0,.71-.72"/><path class="cls-2" d="M34.83,7.67A.72.72,0,1,0,34.12,7a.72.72,0,0,0,.71.72"/><path class="cls-2" d="M32.91,7.67A.72.72,0,1,0,32.2,7a.71.71,0,0,0,.71.72"/><path class="cls-2" d="M4.32,7.67A.72.72,0,1,0,3.6,7a.71.71,0,0,0,.72.72"/><path class="cls-2" d="M13.51,13.13H17V11.88H13.51Z"/><path class="cls-2" d="M23.58,6.19A.26.26,0,0,1,23.67,6a.29.29,0,0,1,.21-.08h.05l0,0a.41.41,0,0,1,.23.15l.18-.39-.17-.14a.73.73,0,0,0-.33-.08h0a.79.79,0,0,0-.56.19.74.74,0,0,0-.2.55v.23h-.21v.44h1.42V6.44h-.71"/><path class="cls-2" d="M83.38,8.55A1.3,1.3,0,0,0,82.14,10a1.3,1.3,0,0,0,1.24,1.4,1.28,1.28,0,0,0,1.23-.67V8.55Zm-.16,6.35-.06-1.15a1.35,1.35,0,0,0,1.45-1.32V12l0,0a1.92,1.92,0,0,1-1.46.6A2.46,2.46,0,0,1,80.72,10,2.42,2.42,0,0,1,83.2,7.49H86v3.7h1.59V5.51h1.43v6.92H86a2.64,2.64,0,0,1-.13.73,2.52,2.52,0,0,1-2.69,1.74"/><path class="cls-2" d="M90.41,12.43h1.43V5.51H90.41Z"/><path class="cls-2" d="M76.36,8.6C75.08,8.6,74.09,10,74,11.13v.06h4.78a3,3,0,0,0,0-.43A2.26,2.26,0,0,0,76.36,8.6M51,8.55A1.3,1.3,0,0,0,49.75,10a1.32,1.32,0,0,0,2.47.73V8.55Zm-.27,4A2.47,2.47,0,0,1,48.32,10,2.42,2.42,0,0,1,50.8,7.48h2.84v3.71h8.27A1.46,1.46,0,0,0,63,10.75V7.48h1.43v3.71h2.73a1.45,1.45,0,0,0,1.12-.44V7.48h1.42v3.71h2.79V5.51H74v3.1a3,3,0,0,1,2.41-1.25,3.35,3.35,0,0,1,3.56,3.41,4,4,0,0,1-.29,1.66H68.31v-.57l-.06,0a2.06,2.06,0,0,1-1.65.59H63v-.57l-.06,0a2.08,2.08,0,0,1-1.65.59h-9.1V12l-.06,0a1.91,1.91,0,0,1-1.45.6"/><path class="cls-2" d="M69,6.89a.72.72,0,1,1,.71-.72.71.71,0,0,1-.71.72"/><path class="cls-2" d="M52.93,6.89a.72.72,0,1,1,.71-.72.72.72,0,0,1-.71.72"/><path class="cls-2" d="M51.06,6.89a.72.72,0,1,1,.71-.72.72.72,0,0,1-.71.72"/><path class="cls-2" d="M63.74,14.73A.71.71,0,0,1,63,14a.72.72,0,1,1,1.43,0,.71.71,0,0,1-.72.71"/><path class="cls-2" d="M61.87,14.73a.71.71,0,0,1-.72-.71.73.73,0,0,1,.72-.72.72.72,0,0,1,.71.72.71.71,0,0,1-.71.71"/><path class="cls-2" d="M8.44,17.2l-.9,4.55-.06.5H7.42l-.08-.5L6,17.2h-1L3.55,21.83l-.07.39H3.42l0-.39L2.46,17.2H1l1.65,6.9H4l1.34-4.33.06-.4h.06l.06.4L6.89,24.1H8.27l1.66-6.9"/><path class="cls-2" d="M13.81,19.48l-.06,0a2,2,0,0,0-1.35-.44,2.5,2.5,0,0,0-2.47,2.56,2.45,2.45,0,0,0,2.37,2.56,1.91,1.91,0,0,0,1.45-.59l.06,0v.48h1.41V19.17H13.81Zm0,2.88a1.35,1.35,0,1,1-1.23-2.12,2.18,2.18,0,0,1,1.23.33"/><path class="cls-2" d="M18.72,22.9a.6.6,0,0,1-.65-.67v-2h1.22V19.17H18.07V17.59H16.65v1.58h-.72v1.09h.72v2a1.72,1.72,0,0,0,1.83,1.83,2.71,2.71,0,0,0,1.06-.2l-.2-1.14a1.92,1.92,0,0,1-.62.1"/><path class="cls-2" d="M23.74,19.48l0,0a2,2,0,0,0-1.36-.44,2.5,2.5,0,0,0-2.47,2.56,2.45,2.45,0,0,0,2.37,2.56,1.89,1.89,0,0,0,1.45-.59l.06,0v.48h1.42V19.17H23.74Zm0,2.88a1.35,1.35,0,1,1-1.23-2.12,2.18,2.18,0,0,1,1.23.33"/><path class="cls-2" d="M29.52,19.07a2.15,2.15,0,0,0-1.65.68l-.06,0v-.56H26.4V24.1h1.41V20.67a1.47,1.47,0,0,1,1.12-.43.89.89,0,0,1,.95,1V24.1H31.3v-3a1.82,1.82,0,0,0-1.78-2.07"/><path class="cls-2" d="M32.52,24.1h1.42V19.17H32.52Z"/><g class="cls-7"><path class="cls-2" d="M37.36,22.54H37.3l-.08-.43-1-2.93H34.67l1.94,4.92-.17.54a1.19,1.19,0,0,1-1.28.76l.06,1.15a2.37,2.37,0,0,0,2.56-1.73L40,19.17H38.41"/></g><path class="cls-2" d="M43.9,19.48l0,0a2,2,0,0,0-1.36-.44A2.5,2.5,0,0,0,40,21.63a2.45,2.45,0,0,0,2.37,2.56,1.91,1.91,0,0,0,1.45-.59l.06,0v.48h1.42V19.17H43.9Zm0,2.88a1.35,1.35,0,1,1-1.23-2.12,2.16,2.16,0,0,1,1.23.33"/><path class="cls-2" d="M33.23,17.15a.71.71,0,1,0,.71.71.71.71,0,0,0-.71-.71"/><path class="cls-2" d="M48.57,24.1H50V17.21H48.57Z"/><path class="cls-2" d="M51.2,19.17h1.42v.56l.06,0a2.11,2.11,0,0,1,1.64-.68,1.82,1.82,0,0,1,1.78,2.07v2.95H54.68V21.22a.89.89,0,0,0-1-1,1.43,1.43,0,0,0-1.11.43v3.42H51.2V19.17"/><path class="cls-2" d="M57.22,22.73a4.25,4.25,0,0,0,1.35.26c.41,0,.74-.12.74-.4s-.14-.39-.77-.51c-.94-.2-1.54-.66-1.54-1.45,0-1,.92-1.55,1.94-1.55a4.13,4.13,0,0,1,1.58.33l-.21,1.1A3.89,3.89,0,0,0,59,20.26c-.33,0-.63.13-.63.37s.11.37.77.49c1,.2,1.55.59,1.55,1.43,0,1.11-1,1.62-2.05,1.62A4.53,4.53,0,0,1,57,23.85"/><path class="cls-2" d="M66.42,21.85a2.46,2.46,0,0,1-4.92,0V19.17h1.42v2.68c0,.8.44,1.18,1,1.18S65,22.65,65,21.85V19.17h1.41"/><path class="cls-2" d="M67.43,19.17h1.41v.55l.07,0a1.74,1.74,0,0,1,1.34-.67h.14v1.32h-.24a2,2,0,0,0-1.31.46V24.1H67.43"/><path class="cls-2" d="M74.33,19.51l0,0v-.31H75.8v4.92H74.38v-.47l0,0a1.91,1.91,0,0,1-1.45.59,2.45,2.45,0,0,1-2.37-2.56A2.49,2.49,0,0,1,73,19.08a2.05,2.05,0,0,1,1.35.43m0,2.85V20.57a2.16,2.16,0,0,0-1.23-.33,1.4,1.4,0,1,0,1.23,2.12"/><path class="cls-2" d="M77,19.17h1.42v.56l.06,0a2.11,2.11,0,0,1,1.64-.68,1.82,1.82,0,0,1,1.78,2.07v2.95H80.5V21.22a.89.89,0,0,0-1-1,1.43,1.43,0,0,0-1.11.43v3.42H77V19.17"/><path class="cls-2" d="M85.33,23a1.84,1.84,0,0,0,1-.23l.28,1.12a2.72,2.72,0,0,1-1.27.27,2.56,2.56,0,1,1,0-5.12,2.71,2.71,0,0,1,1.27.26l-.28,1.1a2.42,2.42,0,0,0-1-.19,1.4,1.4,0,0,0,0,2.79"/><path class="cls-2" d="M91.87,21.46v.59H88.38c.1.68.53,1,1.46,1a3.38,3.38,0,0,0,1.44-.31l.25,1a3.59,3.59,0,0,1-1.69.42c-1.78,0-2.9-1-2.9-2.55a2.47,2.47,0,0,1,2.52-2.56,2.23,2.23,0,0,1,2.41,2.38m-3.45-.34h2a.85.85,0,0,0-.93-.88,1,1,0,0,0-1.09.88"/></g></svg>